# File produced by Open Asset Import Library (http://www.assimp.sf.net)
# (assimp v3.2.202087883)

mtllib model_normalized.mtl

# 91 vertex positions
v 0.183332 -0.337735 0.227350
v 0.247689 -0.337735 0.162993
v 0.247689 -0.337735 0.227350
v 0.183332 -0.337735 0.162993
v 0.247689 0.195071 0.227350
v 0.183332 -0.071023 0.162993
v 0.247689 -0.071023 0.162993
v 0.183332 -0.071023 0.227350
v 0.247689 -0.047508 0.162993
v -0.186724 -0.071023 0.227350
v 0.247689 -0.071023 -0.118572
v 0.247689 0.195071 0.162993
v -0.249225 0.195071 0.227350
v 0.145738 -0.071023 -0.290660
v 0.188901 -0.071023 -0.118572
v 0.154845 -0.047508 0.162993
v 0.216915 0.232626 0.227350
v 0.247689 -0.047508 -0.118572
v -0.249225 -0.337735 0.227350
v 0.099812 -0.071023 -0.313736
v 0.186598 -0.071023 -0.259477
v 0.188901 -0.071023 -0.177360
v 0.188901 -0.337735 -0.118572
v 0.154845 0.195071 0.162993
v 0.220978 -0.047508 -0.221271
v 0.216915 0.232626 0.162993
v 0.247689 -0.337735 -0.118572
v -0.186724 -0.337735 0.227350
v -0.249225 0.195071 0.164849
v -0.218452 0.232626 0.227350
v 0.050407 -0.071023 -0.327907
v 0.099812 -0.047508 -0.313736
v 0.145738 -0.047508 -0.290660
v -0.175105 -0.047508 0.162993
v -0.175105 0.195071 0.162993
v 0.186598 -0.047508 -0.259477
v 0.180526 0.264770 0.162993
v 0.247689 -0.337735 -0.177360
v 0.247689 -0.047508 -0.177360
v -0.186724 -0.337735 0.164849
v -0.249225 -0.071023 0.164849
v 0.180526 0.264770 0.227350
v -0.000768 -0.071023 -0.332684
v 0.050407 -0.047508 -0.327907
v 0.220978 -0.071023 -0.221271
v 0.188901 -0.337735 -0.177360
v -0.218452 0.232626 0.162993
v -0.182063 0.264770 0.162993
v 0.247689 -0.071023 -0.177360
v -0.249225 -0.337735 0.164849
v -0.186724 -0.071023 0.164849
v -0.249225 0.195071 0.162993
v -0.182063 0.264770 0.227350
v -0.051944 -0.071023 -0.327907
v -0.000768 -0.047508 -0.332684
v -0.249225 -0.047508 0.162993
v 0.139459 0.290672 0.162993
v -0.140996 0.290672 0.162993
v -0.147275 -0.071023 -0.290660
v 0.139459 0.290672 0.227350
v -0.101348 -0.071023 -0.313736
v -0.051944 -0.047508 -0.327907
v -0.188135 -0.047508 -0.259477
v -0.140996 0.290672 0.227350
v -0.191675 -0.071023 -0.119809
v -0.188135 -0.071023 -0.259477
v -0.249225 -0.047508 -0.119809
v -0.101348 -0.047508 -0.313736
v -0.147275 -0.047508 -0.290660
v -0.222515 -0.047508 -0.221271
v 0.094776 0.309670 0.162993
v -0.096313 0.309670 0.162993
v -0.096313 0.309670 0.227350
v -0.249225 -0.071023 -0.119809
v -0.249225 -0.047508 -0.177360
v -0.222515 -0.071023 -0.221271
v 0.094776 0.309670 0.227350
v -0.191675 -0.071023 -0.177360
v -0.249225 -0.337735 -0.119809
v -0.249225 -0.071023 -0.177360
v 0.047628 0.321267 0.162993
v -0.049165 0.321267 0.162993
v -0.049165 0.321267 0.227350
v -0.191675 -0.337735 -0.177360
v -0.191675 -0.337735 -0.119809
v 0.047628 0.321267 0.227350
v -0.249225 -0.337735 -0.177360
v -0.000768 0.325166 0.162993
v -0.000768 0.325166 0.227350
v 0.183332 0.195071 0.227350
v 0.183332 0.195071 0.162993

# 197 UV coordinates
vt 0 0 0
vt -1.43523 -0 0
vt -1.4921 0.470801 0
vt -1.4921 -0 0
vt -0.000799 0.470801 0
vt -0.057666 -0 0
vt -0.000799 -0 0
vt 1.4921 -0 0
vt 1.43523 0.235674 0
vt 1.43523 -0 0
vt 0.057666 0.235674 0
vt 0.000799 -0 0
vt 0.057666 -0 0
vt -1.43523 0.235674 0
vt -0.057666 0.235674 0
vt 1.4921 0.235674 0
vt 0.000799 0.235674 0
vt -1.43523 0.256452 0
vt -0.384657 0.235674 0
vt -1.43523 0.470801 0
vt -0.439884 0.470801 0
vt 0.082838 0.256452 0
vt 0.000799 0.470801 0
vt 0.000799 0.256452 0
vt -1.43523 0.364664 0
vt -1.4921 0.407567 0
vt -1.4921 0.364664 0
vt -0.439884 -0 0
vt -0.027991 0.503985 0
vt -0.052745 -0 0
vt -0.000799 0.235674 0
vt -0.052745 0.235674 0
vt 0.082838 0.470801 0
vt -1.43523 0.407567 0
vt -1.18643 -0 0
vt -1.18643 0.256452 0
vt -1.18643 0.235674 0
vt -0.384657 -0 0
vt 1.43687 0.470801 0
vt 1.4921 0.470801 0
vt -0.412692 0.503985 0
vt 1.13449 0.235674 0
vt 1.18643 -0 0
vt 1.18643 0.235674 0
vt 0.37439 0.470801 0
vt 0.027991 0.503985 0
vt -1.43523 0.39754 0
vt -1.4921 0.354637 0
vt -1.43523 0.354637 0
vt -1.13449 -0 0
vt -1.43687 -0 0
vt -1.4921 0.235674 0
vt 1.43687 0.235674 0
vt 1.4921 0.128256 0
vt 1.43687 0.085353 0
vt 1.4921 0.085353 0
vt -0.060145 0.532389 0
vt 1.13449 -0 0
vt 0.412692 0.503985 0
vt -1.4921 0.39754 0
vt 0.380537 0.532389 0
vt 0.060145 0.532389 0
vt -1.13449 0.235674 0
vt -1.13449 0.256452 0
vt -1.43687 0.235674 0
vt 1.43687 -0 0
vt 1.43523 0.128256 0
vt -0.380537 0.532389 0
vt 0.052745 0.235674 0
vt 0.052745 -0 0
vt 0.439884 0.256452 0
vt 0.37439 0.256452 0
vt 0.439884 0.470801 0
vt -1.43523 0.377811 0
vt -1.4921 0.334908 0
vt -1.43523 0.334908 0
vt 0.34425 0.555278 0
vt 0.439884 0.235674 0
vt 0.384657 -0 0
vt 0.439884 -0 0
vt 0.384657 0.235674 0
vt 1.43523 0.085353 0
vt 1.4921 0.067261 0
vt 1.43523 0.024358 0
vt 1.4921 0.024358 0
vt -0.096432 0.555278 0
vt 1.43523 0.067261 0
vt -1.4921 0.377811 0
vt 0.096432 0.555278 0
vt 1.43523 -0.037818 0
vt 1.4921 0.005085 0
vt 1.43523 0.005085 0
vt -0.34425 0.555278 0
vt 1.4921 -0.037818 0
vt -1.43523 0.348889 0
vt -1.4921 0.305986 0
vt -1.43523 0.305986 0
vt 0.304767 0.572063 0
vt 1.4921 -0.056669 0
vt 1.43523 -0.099572 0
vt 1.4921 -0.099572 0
vt -0.304767 0.572063 0
vt -1.4921 0.348889 0
vt 0.135916 0.572063 0
vt 1.43523 -0.056669 0
vt -0.389031 0.235674 0
vt -0.439884 0.235674 0
vt 1.18534 0.256452 0
vt 1.18534 -0 0
vt 1.18534 0.235674 0
vt 1.13449 0.256452 0
vt -0.135916 0.572063 0
vt -1.43523 0.311521 0
vt -1.4921 0.268618 0
vt -1.43523 0.268618 0
vt 0.263106 0.58231 0
vt 1.4921 -0.116407 0
vt 1.43523 -0.15931 0
vt 1.4921 -0.15931 0
vt -1.18534 0.235674 0
vt -0.389031 -0 0
vt -0.177577 0.58231 0
vt -1.4921 0.311521 0
vt 0.177577 0.58231 0
vt 1.43523 -0.116407 0
vt -0.263106 0.58231 0
vt -1.18534 -0 0
vt 0.389031 -0 0
vt 0.389031 0.235674 0
vt -1.43523 0.26667 0
vt -1.4921 0.223767 0
vt -1.43523 0.223767 0
vt 0.220341 0.585756 0
vt 1.4921 -0.17259 0
vt 1.43523 -0.215493 0
vt 1.4921 -0.215493 0
vt -0.220341 0.585756 0
vt -1.4921 0.26667 0
vt 1.43523 -0.17259 0
vt -5.69487 1.13123 0
vt -6.8891 1.23097 0
vt -6.8891 1.13123 0
vt -5.69487 1.23097 0
vt 0.003833 6.8891 0
vt 0.117125 5.25928 0
vt 0.39762 6.8891 0
vt 0.003833 5.69487 0
vt 0.873252 0.099738 0
vt 0.654939 -0 0
vt 0.873252 -0 0
vt 0.654939 0.099738 0
vt 0.436626 -0 0
vt 1.79707 1.23097 0
vt 0.39762 2.25984 0
vt 0.39762 1.23097 0
vt 0.262944 5.09723 0
vt 0.003833 5.44553 0
vt 1.09156 0.099738 0
vt 1.09156 0 0
vt 0.436626 0.099738 0
vt 1.79707 2.25984 0
vt 0.436246 4.96499 0
vt 1.79707 6.8891 0
vt 0.218313 0.099738 0
vt -0 0.099738 0
vt 0.218313 0 0
vt 6.8891 2.25984 0
vt 6.89697 1.13123 0
vt 6.89697 2.25984 0
vt 1.30988 0.099738 0
vt 1.30988 -0 0
vt 0.631039 4.86712 0
vt 0.840586 4.807 0
vt 6.8891 1.23097 0
vt 1.52819 0.099738 0
vt 1.52819 -0 0
vt 1.05764 4.78674 0
vt 1.85233 5.09723 0
vt 2.11144 6.8891 0
vt 5.68962 1.23097 0
vt 1.7465 0.099738 0
vt 1.7465 -0 0
vt 1.27469 4.807 0
vt 1.67903 4.96499 0
vt 1.99815 5.25928 0
vt 1.96482 0.099738 0
vt 1.96482 0 0
vt 2.18313 0.099738 0
vt 2.18313 -0 0
vt 5.68962 1.13123 0
vt 2.11144 5.44553 0
vt 2.11144 5.68962 0
vt 1.48424 4.86712 0
vt 2.40144 0 0
vt 2.40144 0.099738 0
vt 2.61976 -0 0
vt 2.61976 0.099738 0

# 54 vertex normals
vn 0 -0.01 0
vn 0 0.01 0
vn -0.01 0 0
vn 0 -0 -0.01
vn 0.01 -0 -0
vn 0 0 0.01
vn -0.00773486 -0.00633814 0
vn -0.00720088 -0.00693882 0
vn -0.00363921 0 0.0093143
vn -0.00530094 0 0.00847939
vn -0.00677934 0 0.00735123
vn -0.00599714 -0.00800214 0
vn 0.00773486 -0.00633814 0
vn 0.00720088 -0.00693882 0
vn -0.00185162 0 0.00982708
vn -0.00802328 0 0.00596883
vn -0.00854353 0 0.00519694
vn -0.00463869 -0.00885904 0
vn 0.00599714 -0.00800214 -0
vn 0.00185162 0 0.00982708
vn 0.00463869 -0.00885904 -0
vn 0.00363921 0 0.0093143
vn -0.00316058 -0.0094874 0
vn 0.00316058 -0.0094874 -0
vn 0.00530094 0 0.00847939
vn 0.00677934 0 0.00735123
vn 0.00802328 0 0.00596883
vn 0.00854353 0 0.00519694
vn -0.00160094 -0.00987102 0
vn 0.00160094 -0.00987102 -0
vn 0.00773486 0.00633814 0
vn 0.00720088 0.00693882 0
vn 0.00599714 0.00800214 0
vn -0.00720088 0.00693882 0
vn -0.00773486 0.00633814 0
vn 0.00463869 0.00885904 0
vn -0.00599714 0.00800214 0
vn -0.00463869 0.00885904 0
vn 0.00316058 0.0094874 0
vn -0.00316058 0.0094874 0
vn 0.00160094 0.00987102 0
vn -0.00160094 0.00987102 0
vn 0.00363921 0 -0.0093143
vn 0.00530094 0 -0.00847939
vn 0.00677934 0 -0.00735123
vn 0.00185162 0 -0.00982708
vn 0.00802328 0 -0.00596883
vn 0.00854353 0 -0.00519694
vn -0.00185162 0 -0.00982708
vn -0.00363921 0 -0.0093143
vn -0.00530094 0 -0.00847939
vn -0.00677934 0 -0.00735123
vn -0.00802328 0 -0.00596883
vn -0.00854353 0 -0.00519694

# Mesh 'mesh1_mesh1-geometry' with 205 faces
g mesh1_mesh1-geometry
usemtl material_0_24
f  1/1/1 2/1/1 3/1/1
f  2/1/1 1/1/1 4/1/1
f  3/1/2 2/1/2 1/1/2
f  4/1/2 1/1/2 2/1/2
f  3/1/3 5/1/3 2/1/3
f  3/1/4 1/1/4 5/1/4
f  4/1/5 6/1/5 1/1/5
f  4/1/6 2/1/6 6/1/6
f  2/1/3 5/1/3 7/1/3
f  8/1/4 5/1/4 1/1/4
f  8/1/5 1/1/5 6/1/5
f  7/1/6 6/1/6 2/1/6
f  7/1/3 5/1/3 9/1/3
f  10/1/4 5/1/4 8/1/4
f  10/1/1 6/1/1 8/1/1
f  8/1/2 6/1/2 10/1/2
f  6/1/1 11/1/1 7/1/1
f  7/1/2 11/1/2 6/1/2
f  12/1/3 9/1/3 5/1/3
f  7/1/3 9/1/3 11/1/3
f  5/1/4 10/1/4 13/1/4
f  6/1/1 10/1/1 14/1/1
f  14/1/2 10/1/2 6/1/2
f  11/1/1 6/1/1 15/1/1
f  15/1/2 6/1/2 11/1/2
f  9/1/6 12/1/6 16/1/6
f  5/1/7 17/1/8 12/1/7
f  18/1/3 11/1/3 9/1/3
f  13/1/4 10/1/4 19/1/4
f  17/1/4 5/1/4 13/1/4
f  14/1/1 10/1/1 20/1/1
f  20/1/2 10/1/2 14/1/2
f  21/1/1 6/1/1 14/1/1
f  14/1/2 6/1/2 21/1/2
f  15/1/1 6/1/1 22/1/1
f  22/1/2 6/1/2 15/1/2
f  15/1/4 11/1/4 23/1/4
f  24/1/6 16/1/6 12/1/6
f  16/1/1 25/1/1 9/1/1
f  26/1/8 12/1/7 17/1/8
f  11/1/3 18/1/3 27/1/3
f  9/1/1 25/1/1 18/1/1
f  28/1/4 19/1/4 10/1/4
f  13/1/5 19/1/5 29/1/5
f  30/1/4 17/1/4 13/1/4
f  20/1/1 10/1/1 31/1/1
f  31/1/2 10/1/2 20/1/2
f  20/1/9 14/1/10 32/1/9
f  22/1/1 6/1/1 21/1/1
f  21/1/2 6/1/2 22/1/2
f  14/1/10 21/1/11 33/1/10
f  15/1/5 23/1/5 22/1/5
f  27/1/4 23/1/4 11/1/4
f  16/1/6 24/1/6 34/1/6
f  35/1/6 24/1/6 12/1/6
f  36/1/1 25/1/1 16/1/1
f  26/1/6 35/1/6 12/1/6
f  26/1/8 17/1/8 37/1/12
f  27/1/3 18/1/3 38/1/3
f  39/1/1 18/1/1 25/1/1
f  19/1/1 40/1/1 28/1/1
f  28/1/2 40/1/2 19/1/2
f  28/1/3 10/1/3 40/1/3
f  29/1/5 19/1/5 41/1/5
f  13/1/13 29/1/13 30/1/14
f  42/1/4 17/1/4 30/1/4
f  31/1/1 10/1/1 43/1/1
f  43/1/2 10/1/2 31/1/2
f  31/1/15 20/1/9 44/1/15
f  33/1/10 32/1/9 14/1/10
f  32/1/9 44/1/15 20/1/9
f  45/1/1 22/1/1 21/1/1
f  21/1/2 22/1/2 45/1/2
f  36/1/11 33/1/10 21/1/11
f  46/1/5 22/1/5 23/1/5
f  23/1/1 38/1/1 27/1/1
f  27/1/2 38/1/2 23/1/2
f  35/1/6 34/1/6 24/1/6
f  34/1/1 33/1/1 16/1/1
f  36/1/11 21/1/11 25/1/16
f  33/1/1 36/1/1 16/1/1
f  47/1/6 35/1/6 26/1/6
f  42/1/12 37/1/12 17/1/8
f  37/1/6 48/1/6 26/1/6
f  38/1/3 18/1/3 49/1/3
f  39/1/3 49/1/3 18/1/3
f  25/1/16 45/1/16 39/1/17
f  40/1/1 19/1/1 50/1/1
f  50/1/2 19/1/2 40/1/2
f  51/1/3 40/1/3 10/1/3
f  50/1/5 41/1/5 19/1/5
f  29/1/5 41/1/5 52/1/5
f  30/1/14 29/1/13 47/1/14
f  53/1/4 42/1/4 30/1/4
f  43/1/1 10/1/1 54/1/1
f  54/1/2 10/1/2 43/1/2
f  43/1/6 31/1/15 55/1/6
f  44/1/15 55/1/6 31/1/15
f  32/1/1 33/1/1 34/1/1
f  44/1/1 32/1/1 34/1/1
f  22/1/1 45/1/1 49/1/1
f  49/1/2 45/1/2 22/1/2
f  45/1/16 25/1/16 21/1/11
f  46/1/6 38/1/6 22/1/6
f  38/1/1 23/1/1 46/1/1
f  46/1/2 23/1/2 38/1/2
f  34/1/6 35/1/6 56/1/6
f  47/1/6 52/1/6 35/1/6
f  48/1/6 47/1/6 26/1/6
f  37/1/12 42/1/12 57/1/18
f  58/1/6 48/1/6 37/1/6
f  49/1/6 22/1/6 38/1/6
f  49/1/17 39/1/17 45/1/16
f  50/1/6 40/1/6 41/1/6
f  51/1/6 41/1/6 40/1/6
f  59/1/1 10/1/1 51/1/1
f  51/1/2 10/1/2 59/1/2
f  52/1/5 41/1/5 56/1/5
f  52/1/13 47/1/14 29/1/13
f  30/1/14 47/1/14 53/1/19
f  60/1/4 42/1/4 53/1/4
f  54/1/1 10/1/1 61/1/1
f  61/1/2 10/1/2 54/1/2
f  54/1/20 43/1/6 62/1/20
f  55/1/6 62/1/20 43/1/6
f  55/1/1 44/1/1 34/1/1
f  52/1/6 56/1/6 35/1/6
f  56/1/1 63/1/1 34/1/1
f  48/1/19 53/1/19 47/1/14
f  60/1/18 57/1/18 42/1/12
f  57/1/6 58/1/6 37/1/6
f  58/1/21 64/1/21 48/1/19
f  65/1/1 51/1/1 41/1/1
f  41/1/2 51/1/2 65/1/2
f  61/1/1 10/1/1 59/1/1
f  59/1/2 10/1/2 61/1/2
f  59/1/1 51/1/1 66/1/1
f  66/1/2 51/1/2 59/1/2
f  56/1/5 41/1/5 67/1/5
f  64/1/4 60/1/4 53/1/4
f  61/1/22 54/1/20 68/1/22
f  62/1/20 68/1/22 54/1/20
f  62/1/1 55/1/1 34/1/1
f  63/1/1 69/1/1 34/1/1
f  70/1/1 63/1/1 56/1/1
f  53/1/19 48/1/19 64/1/21
f  57/1/18 60/1/18 71/1/23
f  72/1/6 58/1/6 57/1/6
f  64/1/21 58/1/21 73/1/24
f  66/1/1 51/1/1 65/1/1
f  65/1/2 51/1/2 66/1/2
f  65/1/1 41/1/1 74/1/1
f  74/1/2 41/1/2 65/1/2
f  59/1/25 61/1/22 69/1/25
f  66/1/26 59/1/25 63/1/26
f  74/1/5 67/1/5 41/1/5
f  67/1/1 75/1/1 56/1/1
f  73/1/4 60/1/4 64/1/4
f  68/1/22 69/1/25 61/1/22
f  68/1/1 62/1/1 34/1/1
f  69/1/1 68/1/1 34/1/1
f  69/1/25 63/1/26 59/1/25
f  70/1/27 76/1/27 63/1/26
f  75/1/1 70/1/1 56/1/1
f  77/1/23 71/1/23 60/1/18
f  71/1/6 72/1/6 57/1/6
f  72/1/24 73/1/24 58/1/21
f  78/1/1 66/1/1 65/1/1
f  65/1/2 66/1/2 78/1/2
f  74/1/4 65/1/4 79/1/4
f  66/1/26 63/1/26 76/1/27
f  74/1/5 79/1/5 67/1/5
f  67/1/5 79/1/5 75/1/5
f  77/1/4 60/1/4 73/1/4
f  76/1/27 70/1/27 80/1/28
f  75/1/28 80/1/28 70/1/27
f  71/1/23 77/1/23 81/1/29
f  82/1/6 72/1/6 71/1/6
f  73/1/24 72/1/24 83/1/30
f  66/1/1 78/1/1 76/1/1
f  76/1/2 78/1/2 66/1/2
f  78/1/3 84/1/3 65/1/3
f  85/1/4 79/1/4 65/1/4
f  75/1/5 79/1/5 80/1/5
f  86/1/4 77/1/4 73/1/4
f  76/1/1 78/1/1 80/1/1
f  80/1/2 78/1/2 76/1/2
f  86/1/29 81/1/29 77/1/23
f  81/1/6 82/1/6 71/1/6
f  82/1/30 83/1/30 72/1/24
f  83/1/4 86/1/4 73/1/4
f  85/1/3 65/1/3 84/1/3
f  78/1/6 80/1/6 84/1/6
f  79/1/1 84/1/1 85/1/1
f  85/1/2 84/1/2 79/1/2
f  87/1/5 80/1/5 79/1/5
f  81/1/29 86/1/29 88/1/1
f  88/1/6 82/1/6 81/1/6
f  83/1/30 82/1/30 89/1/1
f  89/1/4 86/1/4 83/1/4
f  87/1/6 84/1/6 80/1/6
f  84/1/1 79/1/1 87/1/1
f  87/1/2 79/1/2 84/1/2
f  89/1/1 88/1/1 86/1/29
f  88/1/1 89/1/1 82/1/30

# Mesh 'mesh1_mesh1-geometry' with 94 faces
g mesh1_mesh1-geometry
usemtl material_1_1_8
f  2/2/5 5/3/5 3/4/5
f  5/5/6 1/6/6 3/7/6
f  1/8/3 6/9/3 4/10/3
f  6/11/4 2/12/4 4/13/4
f  7/14/5 5/3/5 2/2/5
f  1/6/6 5/5/6 8/15/6
f  6/9/3 1/8/3 8/16/3
f  2/12/4 6/11/4 7/17/4
f  9/18/5 5/3/5 7/14/5
f  8/15/6 5/5/6 10/19/6
f  5/3/5 9/18/5 12/20/5
f  13/21/6 10/19/6 5/5/6
f  16/22/4 12/23/4 9/24/4
f  12/25/31 17/26/32 5/27/31
f  19/28/6 10/19/6 13/21/6
f  13/21/6 5/5/6 17/29/6
f  23/30/6 11/31/6 15/32/6
f  12/23/4 16/22/4 24/33/4
f  17/26/32 12/25/31 26/34/32
f  27/35/5 18/36/5 11/37/5
f  10/19/6 19/28/6 28/38/6
f  29/39/3 19/8/3 13/40/3
f  13/21/6 17/29/6 30/41/6
f  22/42/3 23/43/3 15/44/3
f  11/31/6 23/30/6 27/7/6
f  12/23/4 24/33/4 35/45/4
f  12/23/4 35/45/4 26/46/4
f  37/47/33 17/48/32 26/49/32
f  38/50/5 18/36/5 27/35/5
f  40/51/5 10/52/5 28/4/5
f  41/53/3 19/8/3 29/39/3
f  30/54/34 29/55/35 13/56/35
f  30/41/6 17/29/6 42/57/6
f  23/43/3 22/42/3 46/58/3
f  26/46/4 35/45/4 47/59/4
f  17/48/32 37/47/33 42/60/33
f  26/46/4 48/61/4 37/62/4
f  49/63/5 18/36/5 38/50/5
f  18/36/5 49/63/5 39/64/5
f  10/52/5 40/51/5 51/65/5
f  19/8/3 41/53/3 50/66/3
f  47/67/34 29/55/35 30/54/34
f  30/41/6 42/57/6 53/68/6
f  22/69/4 38/12/4 46/70/4
f  56/71/4 35/45/4 34/72/4
f  35/45/4 52/73/4 47/59/4
f  26/46/4 47/59/4 48/61/4
f  57/74/36 42/75/33 37/76/33
f  37/62/4 48/61/4 58/77/4
f  38/12/4 22/69/4 49/17/4
f  41/78/4 40/79/4 50/80/4
f  40/79/4 41/78/4 51/81/4
f  29/55/35 47/67/34 52/82/35
f  53/83/37 47/84/34 30/85/34
f  53/68/6 42/57/6 60/86/6
f  35/45/4 56/71/4 52/73/4
f  47/84/34 53/83/37 48/87/37
f  42/75/33 57/74/36 60/88/36
f  37/62/4 58/77/4 57/89/4
f  48/90/37 64/91/38 58/92/38
f  53/68/6 60/86/6 64/93/6
f  64/91/38 48/90/37 53/94/37
f  71/95/39 60/96/36 57/97/36
f  57/89/4 58/77/4 72/98/4
f  73/99/40 58/100/38 64/101/38
f  64/93/6 60/86/6 73/102/6
f  60/96/36 71/95/39 77/103/39
f  57/89/4 72/98/4 71/104/4
f  58/100/38 73/99/40 72/105/40
f  79/28/6 65/106/6 74/107/6
f  67/108/3 79/109/3 74/110/3
f  75/111/3 79/109/3 67/108/3
f  73/102/6 60/86/6 77/112/6
f  81/113/41 77/114/39 71/115/39
f  71/104/4 72/98/4 82/116/4
f  83/117/42 72/118/40 73/119/40
f  65/120/5 84/50/5 78/63/5
f  65/106/6 79/28/6 85/121/6
f  80/42/3 79/109/3 75/111/3
f  73/102/6 77/112/6 86/122/6
f  77/114/39 81/113/41 86/123/41
f  71/104/4 82/116/4 81/124/4
f  72/118/40 83/117/42 82/125/42
f  73/102/6 86/122/6 83/126/6
f  84/50/5 65/120/5 85/127/5
f  84/128/4 80/78/4 78/129/4
f  79/109/3 80/42/3 87/58/3
f  88/130/2 86/131/41 81/132/41
f  81/124/4 82/116/4 88/133/4
f  89/134/2 82/135/42 83/136/42
f  83/126/6 86/122/6 89/137/6
f  80/78/4 84/128/4 87/80/4
f  86/131/41 88/130/2 89/138/2
f  82/135/42 89/134/2 88/139/2

# Mesh 'mesh1_mesh1-geometry' with 49 faces
g mesh1_mesh1-geometry
usemtl material_2_2_8
f  11/140/5 9/141/5 7/142/5
f  9/141/5 11/140/5 18/143/5
f  9/144/2 25/145/2 16/146/2
f  18/147/2 25/145/2 9/144/2
f  32/148/43 14/149/44 20/150/43
f  33/151/44 21/152/45 14/149/44
f  34/153/4 24/154/4 16/155/4
f  16/146/2 25/145/2 36/156/2
f  25/145/2 18/147/2 39/157/2
f  44/158/46 20/150/43 31/159/46
f  14/149/44 32/148/43 33/151/44
f  20/150/43 44/158/46 32/148/43
f  21/152/45 33/151/44 36/160/45
f  24/154/4 34/153/4 35/161/4
f  16/146/2 33/162/2 34/163/2
f  25/164/47 21/152/45 36/160/45
f  16/146/2 36/156/2 33/162/2
f  39/165/48 45/166/47 25/164/47
f  52/167/3 41/168/3 29/169/3
f  55/170/4 31/159/46 43/171/4
f  31/159/46 55/170/4 44/158/46
f  34/163/2 33/162/2 32/172/2
f  34/163/2 32/172/2 44/173/2
f  21/152/45 25/164/47 45/166/47
f  45/166/47 39/165/48 49/1/48
f  56/174/3 41/168/3 52/167/3
f  62/175/49 43/171/4 54/176/49
f  43/171/4 62/175/49 55/170/4
f  34/163/2 44/173/2 55/177/2
f  34/163/2 63/178/2 56/179/2
f  67/180/3 41/168/3 56/174/3
f  68/181/50 54/176/49 61/182/50
f  54/176/49 68/181/50 62/175/49
f  34/163/2 55/177/2 62/183/2
f  34/163/2 69/184/2 63/178/2
f  56/179/2 63/178/2 70/185/2
f  69/186/51 61/182/50 59/187/51
f  63/188/52 59/187/51 66/189/52
f  41/168/3 67/180/3 74/190/3
f  56/179/2 75/191/2 67/192/2
f  61/182/50 69/186/51 68/181/50
f  34/163/2 62/183/2 68/193/2
f  34/163/2 68/193/2 69/184/2
f  59/187/51 63/188/52 69/186/51
f  63/188/52 76/194/53 70/195/53
f  56/179/2 70/185/2 75/191/2
f  76/194/53 63/188/52 66/189/52
f  80/196/54 70/195/53 76/194/53
f  70/195/53 80/196/54 75/197/54

# Mesh 'mesh2_mesh2-geometry' with 4 faces
g mesh2_mesh2-geometry
usemtl material_0_0
l  38 27
l  46 38
l  27 23
l  23 46

# Mesh 'mesh3_mesh3-geometry' with 4 faces
g mesh3_mesh3-geometry
usemtl material_0_0
l  3 1
l  2 3
l  4 1
l  2 4

# Mesh 'mesh4_mesh4-geometry' with 4 faces
g mesh4_mesh4-geometry
usemtl material_0_0
l  84 87
l  85 84
l  79 87
l  79 85

# Mesh 'mesh5_mesh5-geometry' with 2 faces
g mesh5_mesh5-geometry
usemtl material_0_0
l  50 40
l  40 28

# Mesh 'mesh6_mesh6-geometry' with 12 faces
g mesh6_mesh6-geometry
usemtl material_0_0
l  45 49
l  21 45
l  14 21
l  20 14
l  31 20
l  43 31
l  54 43
l  61 54
l  59 61
l  66 59
l  76 66
l  80 76

# Mesh 'mesh7_mesh7-geometry' with 1 faces
g mesh7_mesh7-geometry
usemtl material_0_0
l  11 7

# Mesh 'mesh8_mesh8-geometry' with 1 faces
g mesh8_mesh8-geometry
usemtl material_0_0
l  41 74

# Mesh 'mesh9_mesh9-geometry' with 1 faces
g mesh9_mesh9-geometry
usemtl material_0_0
l  90 91

