# File produced by Open Asset Import Library (http://www.assimp.sf.net)
# (assimp v3.2.202087883)

mtllib model_normalized.mtl

# 67 vertex positions
v -0.442560 -0.112690 -0.111438
v -0.464211 -0.112690 -0.133089
v -0.442560 -0.112690 -0.133089
v -0.464211 -0.112690 -0.111438
v -0.442560 0.123445 -0.133089
v -0.442560 -0.047736 -0.111438
v -0.464211 0.123445 -0.111438
v -0.442560 -0.036910 -0.133089
v -0.464211 0.146449 -0.133089
v -0.442560 -0.047736 -0.133089
v -0.442560 0.123445 -0.111438
v -0.442560 -0.036910 -0.111438
v 0.445146 0.146449 -0.133089
v -0.031185 -0.047736 -0.111438
v 0.445146 0.123445 0.170707
v -0.464211 0.146449 0.192358
v -0.031185 -0.036910 -0.133089
v -0.031185 0.123445 -0.133089
v -0.031185 -0.047736 -0.133089
v -0.031185 0.123445 -0.111438
v -0.464211 0.123445 0.170707
v -0.031185 -0.036910 -0.111438
v 0.445146 0.146449 0.192358
v -0.009533 0.123445 -0.133089
v -0.031185 -0.112690 -0.133089
v -0.009533 0.123445 -0.111438
v 0.423494 0.123445 0.170707
v -0.464211 -0.112690 0.170707
v -0.442560 0.123445 0.192358
v 0.423494 0.123445 -0.133089
v -0.031185 -0.112690 -0.111438
v -0.009533 -0.112690 -0.111438
v 0.423494 0.123445 -0.111438
v 0.423494 0.101793 0.170707
v -0.009533 0.123445 0.170707
v -0.464211 -0.112690 0.192358
v -0.442560 0.123445 0.170707
v -0.442560 -0.112690 0.192358
v -0.031185 0.123445 0.192358
v 0.445146 0.101793 0.170707
v 0.445146 0.123445 -0.111438
v 0.423494 -0.036910 -0.133089
v -0.009533 -0.112690 -0.133089
v -0.009533 -0.047736 -0.111438
v 0.423494 0.123445 0.192358
v -0.031185 0.123445 0.170707
v -0.442560 -0.112690 0.170707
v -0.009533 0.123445 0.192358
v 0.445146 -0.112690 0.192358
v 0.445146 -0.112690 -0.111438
v 0.423494 -0.047736 -0.133089
v -0.009533 -0.036910 -0.133089
v -0.009533 -0.036910 -0.111438
v -0.009533 -0.047736 -0.133089
v 0.423494 -0.112690 0.170707
v -0.031185 -0.112690 0.170707
v -0.009533 -0.112690 0.192358
v 0.001292 0.123445 0.192358
v 0.445146 -0.112690 0.170707
v 0.445146 -0.112690 -0.133089
v 0.423494 -0.112690 -0.133089
v 0.423494 -0.036910 -0.111438
v 0.423494 -0.047736 -0.111438
v 0.423494 -0.112690 0.192358
v -0.009533 -0.112690 0.170707
v -0.031185 -0.112690 0.192358
v 0.423494 -0.112690 -0.111438

# 113 UV coordinates
vt -1.25798 -0.274805 0
vt -1.23021 -0.302583 0
vt -1.23021 -0.274805 0
vt -1.25798 -0.302583 0
vt 0.274805 0.302951 0
vt 0.274805 0 0
vt 0.302583 0 0
vt -1.23021 0 0
vt -1.25798 0.083333 0
vt -1.25798 -0 0
vt -0.274805 -0 0
vt -0.302583 0.302951 0
vt -0.302583 0 0
vt 1.25798 0.302951 0
vt 1.23021 -0 0
vt 1.25798 -0 0
vt 0.274805 0.097222 0
vt 0.302583 0.332465 0
vt -1.23021 0.083333 0
vt -0.274805 0.302951 0
vt -0.274805 0.083333 0
vt 1.23021 0.332465 0
vt -1.23021 0.302951 0
vt -1.25798 0.097222 0
vt -1.23021 0.097222 0
vt 0.274805 0.083333 0
vt -0.864084 0.332465 0
vt -1.25798 0.252973 0
vt -0.274805 0.097222 0
vt -1.61996 0.864084 0
vt 1.64774 0.332465 0
vt -1.25798 0.302951 0
vt 1.25798 -0.274805 0
vt 1.23021 0.252973 0
vt 1.23021 -0.274805 0
vt -0.252973 0.097222 0
vt 1.64774 -0.302583 0
vt 1.23021 0.864084 0
vt 1.23021 -0.302583 0
vt -0.252973 0.302951 0
vt -1.23021 0.252973 0
vt 0.252973 0.083333 0
vt -1.61996 -0.302583 0
vt 1.61996 0.302951 0
vt 1.25798 0.252973 0
vt -0.252973 0.083333 0
vt 1.64774 0.864084 0
vt -0.280751 0.302951 0
vt 1.25798 0.083333 0
vt 1.23021 0.083333 0
vt 0.252973 0.097222 0
vt -1.25798 0.280751 0
vt -1.61996 0.836306 0
vt 1.61996 -0 0
vt 1.23021 0.097222 0
vt 1.25798 0.097222 0
vt -0.302583 0.332465 0
vt 0.864084 0.332465 0
vt -1.64774 0.332465 0
vt -1.61996 0.302951 0
vt -1.23021 0.332465 0
vt -0.836306 0.302951 0
vt 1.23021 0.302951 0
vt -0.252973 0 0
vt 0.280751 0 0
vt -1.25798 0.836306 0
vt 0.252973 0.302951 0
vt 0.280751 0.302951 0
vt -0.864084 0.302951 0
vt -0.836306 0.275174 0
vt -1.61996 0.280751 0
vt 1.64774 -0 0
vt 0.302583 0.302951 0
vt -1.61996 0.275174 0
vt -0.836306 0.097222 0
vt -1.23021 0.280751 0
vt -1.23021 0.836306 0
vt 0.252973 0 0
vt -0.280751 0 0
vt -1.25798 0.864084 0
vt 0.280751 0.083333 0
vt -0.864084 0.275174 0
vt 1.61996 0.275174 0
vt 1.64774 0.302951 0
vt -1.64774 0.836306 0
vt -1.61996 0.252973 0
vt -1.64774 -0.274805 0
vt -1.64774 -0.302583 0
vt -1.61996 -0.274805 0
vt -1.64774 0 0
vt -1.64774 0.302951 0
vt -1.64774 0.252973 0
vt -0.836306 0.083333 0
vt -0.280751 0.097222 0
vt 0.836306 0.302951 0
vt 0.864084 0 0
vt 0.864084 0.302951 0
vt 0.280751 0.097222 0
vt -0.836306 0 0
vt -1.64774 0.280751 0
vt -1.61996 -0 0
vt 0.29464 0.302951 0
vt -0.280751 0.083333 0
vt 0.836306 0.097222 0
vt 0.836306 0.083333 0
vt -0.864084 0 0
vt -1.64774 0.29464 0
vt 0.836306 0 0
vt -1.23021 0.864084 0
vt 1.23021 0.836306 0
vt 1.25798 0.280751 0
vt 1.25798 0.836306 0
vt 1.23021 0.280751 0

# 6 vertex normals
vn -0 -0.0254 -0
vn 0 0 -0.0254
vn 0.0254 0 0
vn 0 0 0.0254
vn -0.0254 0 0
vn 0 0.0254 0

# Mesh 'mesh1_mesh1-geometry' with 134 faces
g mesh1_mesh1-geometry
usemtl material_0_1_8
f  1/1/1 2/2/1 3/3/1
f  2/2/1 1/1/1 4/4/1
f  5/5/2 3/6/2 2/7/2
f  3/8/3 6/9/3 1/10/3
f  1/11/4 7/12/4 4/13/4
f  7/14/5 2/15/5 4/16/5
f  3/6/2 5/5/2 8/17/2
f  9/18/2 5/5/2 2/7/2
f  6/9/3 3/8/3 10/19/3
f  11/20/4 1/11/4 6/21/4
f  7/12/4 1/11/4 11/20/4
f  2/15/5 7/14/5 9/22/5
f  5/23/3 12/24/3 8/25/3
f  3/6/2 8/17/2 10/26/2
f  5/5/2 9/18/2 13/27/2
f  10/3/1 14/28/1 6/1/1
f  11/20/4 6/21/4 12/29/4
f  11/1/1 15/30/1 7/4/1
f  9/22/5 7/14/5 16/31/5
f  12/24/3 5/23/3 11/32/3
f  12/33/6 17/34/6 8/35/6
f  17/36/2 10/26/2 8/17/2
f  16/37/6 13/38/6 9/39/6
f  5/5/2 13/27/2 18/40/2
f  14/28/1 10/3/1 19/41/1
f  14/42/4 12/29/4 6/21/4
f  20/28/1 15/30/1 11/1/1
f  7/4/1 15/30/1 21/43/1
f  21/44/5 16/31/5 7/14/5
f  5/3/1 20/28/1 11/1/1
f  17/34/6 12/33/6 22/45/6
f  10/26/2 17/36/2 19/46/2
f  13/38/6 16/37/6 23/47/6
f  18/40/2 13/27/2 24/48/2
f  20/28/1 5/3/1 18/41/1
f  25/15/5 14/49/5 19/50/5
f  12/29/4 14/42/4 22/51/4
f  26/52/1 15/30/1 20/28/1
f  21/43/1 15/30/1 27/53/1
f  28/54/5 16/31/5 21/44/5
f  20/14/5 17/55/5 22/56/5
f  17/36/2 24/48/2 19/46/2
f  16/57/4 29/20/4 23/58/4
f  23/59/3 15/60/3 13/61/3
f  24/48/2 13/27/2 30/62/2
f  18/40/2 24/48/2 17/36/2
f  17/55/5 20/14/5 18/63/5
f  14/49/5 25/15/5 31/16/5
f  19/46/2 24/48/2 25/64/2
f  14/42/4 32/65/4 22/51/4
f  33/66/1 15/30/1 26/52/1
f  20/67/4 32/65/4 26/68/4
f  15/69/2 34/70/2 27/62/2
f  21/43/1 27/53/1 35/71/1
f  16/31/5 28/54/5 36/72/5
f  37/5/2 28/7/2 21/73/2
f  22/51/4 32/65/4 20/67/4
f  16/57/4 38/11/4 29/20/4
f  23/58/4 29/20/4 39/67/4
f  23/59/3 40/74/3 15/60/3
f  41/32/3 13/61/3 15/60/3
f  30/62/2 13/27/2 42/75/2
f  33/66/1 24/76/1 30/77/1
f  25/41/1 32/52/1 31/28/1
f  32/65/4 14/42/4 31/78/4
f  24/48/2 43/79/2 25/64/2
f  15/30/1 33/66/1 41/80/1
f  24/76/1 33/66/1 26/52/1
f  26/68/4 32/65/4 44/81/4
f  34/70/2 15/69/2 40/82/2
f  34/83/5 45/84/5 27/44/5
f  45/85/1 35/71/1 27/53/1
f  21/43/1 35/71/1 46/86/1
f  28/43/1 38/87/1 36/88/1
f  38/11/4 16/57/4 36/13/4
f  28/7/2 37/5/2 47/6/2
f  21/43/1 46/86/1 37/89/1
f  38/90/3 37/60/3 29/91/3
f  37/89/1 39/92/1 29/87/1
f  23/58/4 39/67/4 48/68/4
f  49/90/3 40/74/3 23/59/3
f  50/10/3 13/61/3 41/32/3
f  42/75/2 13/27/2 51/93/2
f  42/55/5 33/14/5 30/63/5
f  32/52/1 25/41/1 43/76/1
f  43/79/2 24/48/2 52/94/2
f  33/95/4 50/96/4 41/97/4
f  53/24/3 24/23/3 26/32/3
f  32/10/3 54/19/3 44/9/3
f  26/68/4 44/81/4 53/98/4
f  40/82/2 55/99/2 34/70/2
f  55/54/5 45/84/5 34/83/5
f  35/71/1 45/85/1 48/100/1
f  35/48/2 56/64/2 46/40/2
f  38/87/1 28/43/1 47/89/1
f  37/60/3 38/90/3 47/101/3
f  39/92/1 37/89/1 46/86/1
f  48/68/4 39/67/4 57/65/4
f  23/58/4 48/68/4 58/102/4
f  40/74/3 49/90/3 59/101/3
f  23/58/4 45/95/4 49/96/4
f  13/61/3 50/10/3 60/8/3
f  51/93/2 13/27/2 61/99/2
f  54/103/2 42/75/2 51/93/2
f  33/14/5 42/55/5 62/56/5
f  54/19/3 32/10/3 43/8/3
f  24/23/3 53/24/3 52/25/3
f  43/79/2 52/94/2 54/103/2
f  62/104/4 50/96/4 33/95/4
f  54/76/1 63/66/1 44/52/1
f  63/105/4 53/98/4 44/81/4
f  55/99/2 40/82/2 59/106/2
f  45/84/5 55/54/5 64/72/5
f  48/100/1 45/85/1 58/107/1
f  57/90/3 35/60/3 48/91/3
f  56/64/2 35/48/2 65/79/2
f  56/54/5 39/84/5 46/44/5
f  57/65/4 39/67/4 66/78/4
f  23/58/4 58/102/4 45/95/4
f  49/96/4 45/95/4 64/108/4
f  50/80/1 61/77/1 60/109/1
f  61/99/2 13/27/2 60/106/2
f  61/15/5 63/49/5 51/50/5
f  42/75/2 54/103/2 52/94/2
f  63/66/1 54/76/1 51/77/1
f  42/110/6 53/111/6 62/112/6
f  53/111/6 42/110/6 52/113/6
f  63/105/4 50/96/4 62/104/4
f  53/98/4 63/105/4 62/104/4
f  35/60/3 57/90/3 65/101/3
f  39/84/5 56/54/5 66/72/5
f  61/77/1 50/80/1 67/66/1
f  63/49/5 61/15/5 67/16/5
f  50/96/4 63/105/4 67/108/4

# Mesh 'mesh1_mesh1-geometry' with 142 faces
g mesh1_mesh1-geometry
usemtl material_1_24
f  3//6 2//6 1//6
f  4//6 1//6 2//6
f  2//4 3//4 5//4
f  1//5 6//5 3//5
f  4//2 7//2 1//2
f  4//3 2//3 7//3
f  8//4 5//4 3//4
f  2//4 5//4 9//4
f  10//5 3//5 6//5
f  6//2 1//2 11//2
f  11//2 1//2 7//2
f  9//3 7//3 2//3
f  8//5 12//5 5//5
f  10//4 8//4 3//4
f  13//4 9//4 5//4
f  6//6 14//6 10//6
f  12//2 6//2 11//2
f  7//6 15//6 11//6
f  16//3 7//3 9//3
f  11//5 5//5 12//5
f  8//1 17//1 12//1
f  8//4 10//4 17//4
f  9//1 13//1 16//1
f  18//4 13//4 5//4
f  19//6 10//6 14//6
f  6//2 12//2 14//2
f  11//6 15//6 20//6
f  21//6 15//6 7//6
f  7//3 16//3 21//3
f  11//6 20//6 5//6
f  22//1 12//1 17//1
f  19//4 17//4 10//4
f  23//1 16//1 13//1
f  24//4 13//4 18//4
f  18//6 5//6 20//6
f  19//3 14//3 25//3
f  22//2 14//2 12//2
f  20//6 15//6 26//6
f  27//6 15//6 21//6
f  21//3 16//3 28//3
f  22//3 17//3 20//3
f  19//4 24//4 17//4
f  23//2 29//2 16//2
f  13//5 15//5 23//5
f  30//4 13//4 24//4
f  17//4 24//4 18//4
f  18//3 20//3 17//3
f  31//3 25//3 14//3
f  25//4 24//4 19//4
f  22//2 32//2 14//2
f  26//6 15//6 33//6
f  26//2 32//2 20//2
f  27//4 34//4 15//4
f  35//6 27//6 21//6
f  36//3 28//3 16//3
f  21//4 28//4 37//4
f  20//2 32//2 22//2
f  29//2 38//2 16//2
f  39//2 29//2 23//2
f  15//5 40//5 23//5
f  15//5 13//5 41//5
f  42//4 13//4 30//4
f  30//6 24//6 33//6
f  31//6 32//6 25//6
f  31//2 14//2 32//2
f  25//4 43//4 24//4
f  41//6 33//6 15//6
f  26//6 33//6 24//6
f  44//2 32//2 26//2
f  40//4 15//4 34//4
f  27//3 45//3 34//3
f  27//6 35//6 45//6
f  46//6 35//6 21//6
f  36//6 38//6 28//6
f  36//2 16//2 38//2
f  47//4 37//4 28//4
f  37//6 46//6 21//6
f  29//5 37//5 38//5
f  29//6 39//6 37//6
f  48//2 39//2 23//2
f  23//5 40//5 49//5
f  41//5 13//5 50//5
f  51//4 13//4 42//4
f  30//3 33//3 42//3
f  43//6 25//6 32//6
f  52//4 24//4 43//4
f  41//2 50//2 33//2
f  26//5 24//5 53//5
f  44//5 54//5 32//5
f  53//2 44//2 26//2
f  34//4 55//4 40//4
f  34//3 45//3 55//3
f  48//6 45//6 35//6
f  46//4 56//4 35//4
f  47//6 28//6 38//6
f  47//5 38//5 37//5
f  46//6 37//6 39//6
f  57//2 39//2 48//2
f  58//2 48//2 23//2
f  59//5 49//5 40//5
f  49//2 45//2 23//2
f  60//5 50//5 13//5
f  61//4 13//4 51//4
f  51//4 42//4 54//4
f  62//3 42//3 33//3
f  43//5 32//5 54//5
f  52//5 53//5 24//5
f  54//4 52//4 43//4
f  33//2 50//2 62//2
f  44//6 63//6 54//6
f  44//2 53//2 63//2
f  59//4 40//4 55//4
f  64//3 55//3 45//3
f  58//6 45//6 48//6
f  48//5 35//5 57//5
f  65//4 35//4 56//4
f  46//3 39//3 56//3
f  66//2 39//2 57//2
f  45//2 58//2 23//2
f  49//1 55//1 59//1
f  59//6 55//6 49//6
f  64//2 45//2 49//2
f  60//6 61//6 50//6
f  60//4 13//4 61//4
f  51//3 63//3 61//3
f  52//4 54//4 42//4
f  51//6 54//6 63//6
f  62//1 53//1 42//1
f  52//1 42//1 53//1
f  62//2 50//2 63//2
f  62//2 63//2 53//2
f  55//1 49//1 64//1
f  64//6 49//6 55//6
f  65//5 57//5 35//5
f  57//1 56//1 65//1
f  65//6 56//6 57//6
f  66//3 56//3 39//3
f  56//1 57//1 66//1
f  66//6 57//6 56//6
f  67//6 50//6 61//6
f  67//3 61//3 63//3
f  67//2 63//2 50//2

# Mesh 'mesh2_mesh2-geometry' with 1 faces
g mesh2_mesh2-geometry
usemtl material_1_0
l  64 55

# Mesh 'mesh3_mesh3-geometry' with 3 faces
g mesh3_mesh3-geometry
usemtl material_1_0
l  57 65
l  65 56
l  56 66

