# File produced by Open Asset Import Library (http://www.assimp.sf.net)
# (assimp v3.2.202087883)

mtllib model_normalized.mtl

# 48 vertex positions
v -0.513265 -0.127910 -0.245227
v -0.497653 -0.112454 -0.247435
v 0.298592 -0.127910 -0.245227
v -0.513265 0.090667 -0.276452
v 0.298592 -0.112454 -0.247435
v 0.298592 -0.112297 -0.245227
v -0.513265 0.090667 -0.260681
v -0.497653 0.075211 -0.274244
v -0.513265 -0.112297 -0.245227
v 0.298592 0.075211 -0.274244
v 0.298592 0.068292 -0.257485
v -0.513265 -0.112297 -0.231686
v 0.298592 0.082782 -0.275326
v 0.298592 -0.112297 -0.231686
v -0.513265 -0.112297 0.193999
v 0.314204 0.082782 -0.275326
v 0.314204 0.090667 -0.276452
v 0.298592 0.082782 -0.259555
v 0.314204 -0.112297 -0.231686
v 0.298592 -0.112297 0.207539
v -0.513265 -0.112297 0.207539
v -0.513265 0.090667 0.222993
v -0.513265 -0.127910 0.207539
v -0.513265 0.090667 0.238765
v 0.314204 0.095351 -0.276452
v 0.314204 0.068292 -0.257485
v 0.298592 -0.112297 0.193999
v -0.497653 -0.112454 0.209747
v 0.314204 0.095351 0.238765
v 0.314204 0.082782 0.237638
v 0.314204 0.082782 -0.259555
v 0.314204 -0.112297 0.193999
v 0.298592 -0.127910 0.207539
v 0.298592 -0.110246 0.194292
v 0.298592 -0.112454 0.209747
v -0.497653 0.075211 0.236557
v 0.314204 0.090667 0.238765
v 0.314204 0.082782 0.221867
v 0.314204 0.062497 0.218969
v 0.298592 0.082782 0.237638
v -0.497653 -0.110246 0.194292
v -0.497653 0.077419 0.221101
v 0.298592 0.062497 0.218969
v 0.298592 0.075211 0.236557
v 0.298592 0.082782 0.221867
v 0.298592 0.077419 0.221101
v -0.513265 0.095351 -0.276452
v -0.513265 0.095351 0.238765

# 121 UV coordinates
vt -19.4388 1.3203 0
vt -19.4647 1.33353 0
vt -20.7856 1.3203 0
vt -19.4388 1.5073 0
vt -20.7856 1.33353 0
vt 6.52154 5.15804 0
vt 5.17476 5.15804 0
vt 6.52154 5.17126 0
vt -18.2871 0 0
vt -18.3127 0.185112 0
vt -18.3389 0.185112 0
vt -19.4647 1.49407 0
vt 18.2908 0.013089 0
vt 18.2871 0.013222 0
vt 18.2871 0 0
vt 5.17476 5.17126 0
vt -18.2871 0.013222 0
vt -20.7856 1.49407 0
vt 18.3074 0.166163 0
vt -19.4388 9.33595 0
vt -19.4388 9.32449 0
vt -20.7856 9.33595 0
vt -18.2646 0.013222 0
vt -20.7856 1.50055 0
vt 18.2646 0.013222 0
vt 18.3352 0.172023 0
vt -19.4388 8.96398 0
vt -20.8115 1.50055 0
vt -20.8115 1.5073 0
vt 18.3109 0.178435 0
vt 18.337 0.178435 0
vt -3.55009 0.756808 0
vt -3.57599 0.602314 0
vt -3.55009 0.602314 0
vt -20.7856 9.32449 0
vt -20.7856 8.95251 0
vt -19.4388 8.95251 0
vt -17.5104 0.185112 0
vt -17.536 0 0
vt -17.4842 0.185112 0
vt 18.3389 0.189079 0
vt 18.3389 0.185112 0
vt -3.57599 4.2034 0
vt -3.55009 4.19005 0
vt -3.55009 4.2034 0
vt -3.57599 0.756808 0
vt -3.57599 4.16645 0
vt -3.55009 3.80593 0
vt -3.55009 4.16645 0
vt -20.7856 8.96398 0
vt -3.55009 0.769204 0
vt -17.5585 0.013222 0
vt -17.536 0.013222 0
vt 19.4388 -1.26608 0
vt 19.4647 -1.25285 0
vt 19.4388 -1.07908 0
vt 17.4842 0.189079 0
vt 17.4861 0.178435 0
vt -3.57599 4.19005 0
vt -3.57599 3.80593 0
vt -20.7856 5.17126 0
vt -19.4388 5.17126 0
vt -20.7856 5.15804 0
vt 17.558 0.014959 0
vt 17.536 0.013222 0
vt 17.5585 0.013222 0
vt -3.57599 0.769204 0
vt -19.4388 5.15804 0
vt 20.7856 -1.25285 0
vt 19.4647 -1.09231 0
vt 17.4842 0.185112 0
vt 17.5122 0.178435 0
vt 23.7829 -0.375616 0
vt 23.757 -0.525151 0
vt 23.7829 -0.525151 0
vt 17.5323 0.013089 0
vt 17.536 0 0
vt 23.757 -0.523396 0
vt 20.7856 -1.08583 0
vt 20.8115 -1.07908 0
vt 20.7856 -1.26608 0
vt 20.7856 8.86253 0
vt 19.4647 8.87575 0
vt 19.4647 8.86253 0
vt 17.5135 0.173893 0
vt 17.4879 0.172023 0
vt 20.8115 -1.08583 0
vt -3.55009 3.76898 0
vt -3.57599 3.78233 0
vt -3.57599 3.76898 0
vt -17.5323 0.013089 0
vt -17.517 0.161255 0
vt -17.558 0.014959 0
vt 20.7856 8.87575 0
vt 23.757 -0.375616 0
vt 20.7856 -1.09231 0
vt -3.55009 3.78233 0
vt -17.5135 0.173893 0
vt 23.7829 -0.358261 0
vt 23.757 -0.362849 0
vt 23.757 -0.358261 0
vt -17.4879 0.172023 0
vt 0 0 0
vt -16.8124 0.332058 0
vt -16.8365 0.339174 0
vt -16.8365 0.332058 0
vt -16.0758 0.332058 0
vt -17.8463 0.339174 0
vt -19.1065 0.332058 0
vt -17.8463 0.332058 0
vt -16.0518 0.332058 0
vt -19.1065 0.339174 0
vt -16.0518 0.339174 0
vt 17.8463 16.7945 0
vt 19.1065 16.0118 0
vt 19.1065 16.7945 0
vt 17.8463 0.332058 0
vt 19.1065 0.339174 0
vt 17.8463 0.339174 0
vt 17.8463 16.0118 0
vt 19.1065 0.332058 0

# 12 vertex normals
vn 0 -0.00359209 -0.0251447
vn 0 0.00359209 0.0251447
vn 0 0 -0.0254
vn -0.0254 0 0
vn 0.0254 0 0
vn 0 0.0254 0
vn 0 -0.0254 0
vn -0 -0.00359209 0.0251447
vn 0 0.00359209 -0.0251447
vn -0 -0 0.0254
vn 0 0.0251447 0.00359209
vn 0 -0.0251447 -0.00359209

# Mesh 'mesh1_mesh1-geometry' with 128 faces
g mesh1_mesh1-geometry
usemtl material_0_1_8
f  1/1/1 2/2/1 3/3/1
f  2/2/1 1/1/1 4/4/1
f  3/3/2 2/2/2 1/1/2
f  4/4/2 1/1/2 2/2/2
f  5/5/1 3/3/1 2/2/1
f  2/2/2 3/3/2 5/5/2
f  3/6/3 1/7/3 6/8/3
f  1/9/4 7/10/4 4/11/4
f  4/11/5 7/10/5 1/9/5
f  2/2/1 4/4/1 8/12/1
f  8/12/2 4/4/2 2/2/2
f  5/13/5 6/14/5 3/15/5
f  3/15/4 6/14/4 5/13/4
f  9/16/3 6/8/3 1/7/3
f  9/17/4 7/10/4 1/9/4
f  1/9/5 7/10/5 9/17/5
f  8/12/1 4/4/1 10/18/1
f  10/18/2 4/4/2 8/12/2
f  11/19/5 6/14/5 5/13/5
f  5/13/4 6/14/4 11/19/4
f  9/20/6 12/21/6 6/22/6
f  7/10/4 9/17/4 12/23/4
f  12/23/5 9/17/5 7/10/5
f  10/18/1 4/4/1 13/24/1
f  13/24/2 4/4/2 10/18/2
f  6/14/5 11/19/5 14/25/5
f  14/25/4 11/19/4 6/14/4
f  11/19/5 5/13/5 10/26/5
f  10/26/4 5/13/4 11/19/4
f  15/27/6 6/22/6 12/21/6
f  16/28/1 4/4/1 17/29/1
f  17/29/2 4/4/2 16/28/2
f  13/24/1 4/4/1 16/28/1
f  16/28/2 4/4/2 13/24/2
f  18/30/5 10/26/5 13/31/5
f  13/31/4 10/26/4 18/30/4
f  11/32/1 19/33/1 14/34/1
f  14/34/2 19/33/2 11/32/2
f  14/35/6 6/22/6 20/36/6
f  11/19/5 10/26/5 18/30/5
f  18/30/4 10/26/4 11/19/4
f  21/37/6 6/22/6 15/27/6
f  22/38/4 23/39/4 24/40/4
f  24/40/5 23/39/5 22/38/5
f  25/41/5 16/31/5 17/42/5
f  16/43/7 18/44/7 13/45/7
f  13/45/6 18/44/6 16/43/6
f  19/33/1 11/32/1 26/46/1
f  26/46/2 11/32/2 19/33/2
f  19/47/7 27/48/7 14/49/7
f  14/49/6 27/48/6 19/47/6
f  20/36/6 6/22/6 21/37/6
f  27/50/6 14/35/6 20/36/6
f  18/51/1 26/46/1 11/32/1
f  11/32/2 26/46/2 18/51/2
f  15/52/4 21/53/4 22/38/4
f  22/38/5 21/53/5 15/52/5
f  23/39/4 22/38/4 21/53/4
f  21/53/5 22/38/5 23/39/5
f  23/54/8 28/55/8 24/56/8
f  24/56/9 28/55/9 23/54/9
f  29/57/5 30/58/5 25/41/5
f  25/41/5 31/30/5 16/31/5
f  18/44/7 16/43/7 31/59/7
f  31/59/6 16/43/6 18/44/6
f  27/48/7 19/47/7 32/60/7
f  32/60/6 19/47/6 27/48/6
f  20/61/10 21/62/10 33/63/10
f  34/64/5 20/65/5 27/66/5
f  27/66/4 20/65/4 34/64/4
f  26/46/1 18/51/1 31/67/1
f  31/67/2 18/51/2 26/46/2
f  23/68/10 33/63/10 21/62/10
f  23/54/8 35/69/8 28/55/8
f  28/55/9 35/69/9 23/54/9
f  24/56/8 28/55/8 36/70/8
f  36/70/9 28/55/9 24/56/9
f  30/58/5 29/57/5 37/71/5
f  25/41/5 30/58/5 38/72/5
f  25/41/5 38/72/5 31/30/5
f  39/73/8 27/74/8 32/75/8
f  32/75/9 27/74/9 39/73/9
f  20/65/5 35/76/5 33/77/5
f  33/77/4 35/76/4 20/65/4
f  35/76/5 20/65/5 34/64/5
f  34/64/4 20/65/4 35/76/4
f  27/74/8 39/73/8 34/78/8
f  34/78/9 39/73/9 27/74/9
f  24/56/8 40/79/8 37/80/8
f  37/80/9 40/79/9 24/56/9
f  35/69/8 23/54/8 33/81/8
f  33/81/9 23/54/9 35/69/9
f  35/82/11 41/83/11 28/84/11
f  28/84/12 41/83/12 35/82/12
f  28/76/5 42/85/5 36/86/5
f  36/86/4 42/85/4 28/76/4
f  24/56/8 36/70/8 40/79/8
f  40/79/9 36/70/9 24/56/9
f  37/80/8 40/79/8 30/87/8
f  30/87/9 40/79/9 37/80/9
f  40/88/7 38/89/7 30/90/7
f  30/90/6 38/89/6 40/88/6
f  35/91/4 43/92/4 34/93/4
f  34/93/5 43/92/5 35/91/5
f  41/83/11 35/82/11 34/94/11
f  34/94/12 35/82/12 41/83/12
f  34/78/8 39/73/8 43/95/8
f  43/95/9 39/73/9 34/78/9
f  42/85/5 28/76/5 41/64/5
f  41/64/4 28/76/4 42/85/4
f  40/79/8 36/70/8 44/96/8
f  44/96/9 36/70/9 40/79/9
f  38/89/7 40/88/7 45/97/7
f  45/97/6 40/88/6 38/89/6
f  35/91/4 46/98/4 43/92/4
f  43/92/5 46/98/5 35/91/5
f  38/99/8 43/95/8 39/73/8
f  39/73/9 43/95/9 38/99/9
f  44/86/5 45/72/5 40/58/5
f  40/58/4 45/72/4 44/86/4
f  46/100/8 38/99/8 45/101/8
f  45/101/9 38/99/9 46/100/9
f  46/98/4 35/91/4 44/102/4
f  44/102/5 35/91/5 46/98/5
f  43/95/8 38/99/8 46/100/8
f  46/100/9 38/99/9 43/95/9
f  45/72/5 44/86/5 46/85/5
f  46/85/4 44/86/4 45/72/4

# Mesh 'mesh1_mesh1-geometry' with 30 faces
g mesh1_mesh1-geometry
usemtl material_1_24
f  6/103/10 1/103/10 3/103/10
f  1/103/10 6/103/10 9/103/10
f  4/103/5 47/103/5 7/103/5
f  6/103/7 12/103/7 9/103/7
f  7/103/5 47/103/5 22/103/5
f  4/103/10 17/103/10 47/103/10
f  12/103/7 6/103/7 15/103/7
f  22/103/5 47/103/5 24/103/5
f  25/103/10 47/103/10 17/103/10
f  20/103/7 6/103/7 14/103/7
f  15/103/7 6/103/7 21/103/7
f  48/103/5 24/103/5 47/103/5
f  25/103/7 29/103/7 47/103/7
f  17/103/4 16/103/4 25/103/4
f  21/103/7 6/103/7 20/103/7
f  20/103/7 14/103/7 27/103/7
f  48/103/3 29/103/3 24/103/3
f  48/103/7 47/103/7 29/103/7
f  25/103/4 30/103/4 29/103/4
f  16/103/4 31/103/4 25/103/4
f  33/103/3 21/103/3 20/103/3
f  37/103/3 24/103/3 29/103/3
f  21/103/3 33/103/3 23/103/3
f  37/103/4 29/103/4 30/103/4
f  38/103/4 30/103/4 25/103/4
f  31/103/4 38/103/4 25/103/4
f  46/103/12 36/103/12 42/103/12
f  42/103/11 36/103/11 46/103/11
f  36/103/12 46/103/12 44/103/12
f  44/103/11 46/103/11 36/103/11

# Mesh 'mesh1_mesh1-geometry' with 10 faces
g mesh1_mesh1-geometry
usemtl material_2_2_8
f  7/104/4 47/105/4 4/106/4
f  22/107/4 47/105/4 7/104/4
f  47/108/3 17/109/3 4/110/3
f  24/111/4 47/105/4 22/107/4
f  17/109/3 47/108/3 25/112/3
f  47/105/4 24/111/4 48/113/4
f  47/114/6 29/115/6 25/116/6
f  24/117/10 29/118/10 48/119/10
f  29/115/6 47/114/6 48/120/6
f  29/118/10 24/117/10 37/121/10

