# File produced by Open Asset Import Library (http://www.assimp.sf.net)
# (assimp v3.2.202087883)

mtllib model_normalized.mtl

# 63 vertex positions
v -0.256120 0.102684 -0.281424
v -0.376604 -0.193893 -0.281424
v -0.376604 0.102684 -0.281424
v -0.256120 -0.193893 -0.281424
v -0.376604 0.102684 -0.049725
v -0.256120 0.102684 -0.259417
v -0.256120 -0.193893 -0.259417
v -0.376604 -0.193893 -0.049725
v -0.354602 0.102684 -0.259417
v -0.354602 -0.193893 -0.259417
v -0.354602 -0.193893 -0.049725
v -0.354602 0.102684 -0.049725
v -0.376604 0.102684 0.163440
v -0.376604 -0.193893 0.283924
v -0.376604 0.102684 0.283924
v -0.376604 -0.193893 0.163440
v -0.144904 0.102684 0.283924
v -0.354602 0.102684 0.261921
v -0.354602 -0.193893 0.163440
v -0.354602 -0.193893 0.261921
v -0.144904 -0.193893 0.283924
v -0.354602 0.102684 0.163440
v -0.144904 -0.193893 0.261921
v -0.144904 0.102684 0.261921
v 0.244352 0.102684 0.283924
v 0.364836 -0.193893 0.283924
v 0.364836 0.102684 0.283924
v 0.244352 -0.193893 0.283924
v 0.364836 0.102684 0.052224
v 0.244352 0.102684 0.261921
v 0.244352 -0.193893 0.261921
v 0.364836 -0.193893 0.052224
v 0.342830 0.102684 0.261921
v 0.342830 -0.193893 0.261921
v 0.342830 -0.193893 0.052224
v 0.342830 0.102684 0.052224
v 0.342830 0.102684 -0.259417
v 0.133136 -0.193893 -0.259417
v 0.342830 -0.193893 -0.259417
v 0.133136 0.102684 -0.259417
v 0.133136 -0.193893 -0.281424
v 0.342830 -0.193893 -0.160940
v 0.133136 0.102684 -0.281424
v 0.364836 -0.193893 -0.281424
v 0.342830 0.102684 -0.160940
v 0.364836 0.102684 -0.281424
v 0.364836 0.102684 -0.160940
v 0.364836 -0.193893 -0.160940
v 0.364836 0.102684 -0.140087
v 0.364836 0.102684 0.001249
v -0.376604 0.167560 -0.281424
v 0.364836 0.167560 -0.140087
v 0.364836 0.167560 0.001249
v 0.364836 0.102684 0.163440
v 0.364836 0.167560 -0.281424
v -0.376604 0.102684 -0.140087
v 0.364836 0.167560 0.163440
v -0.376604 0.167560 -0.140087
v -0.376604 0.167560 0.001249
v 0.364836 0.167560 0.283924
v -0.376604 0.102684 0.001249
v -0.376604 0.167560 0.163440
v -0.376604 0.167560 0.283924

# 94 UV coordinates
vt -2.44003 1.04987 0
vt -2.01352 0 0
vt -2.01352 1.04987 0
vt -2.44003 0 0
vt 2.62201 0 0
vt 3.44222 1.04987 0
vt 2.62201 1.04987 0
vt 2.62201 2.01352 0
vt 2.69991 2.44003 0
vt 2.62201 2.44003 0
vt -2.62201 1.04987 0
vt -2.69991 0 0
vt -2.62201 0 0
vt -2.69991 2.44003 0
vt -2.62201 2.01352 0
vt -2.62201 2.44003 0
vt 3.44222 0 0
vt 2.69991 2.09142 0
vt 3.44222 2.01352 0
vt -2.69991 1.04987 0
vt -2.69991 2.09142 0
vt -3.44222 2.01352 0
vt 2.09142 0 0
vt 2.01352 1.04987 0
vt 2.01352 0 0
vt 3.44222 2.09142 0
vt 2.09142 1.04987 0
vt 2.44003 0 0
vt 2.44003 1.04987 0
vt -3.44222 2.09142 0
vt -3.44222 0 0
vt -3.44222 1.04987 0
vt -2.36388 3.23974 0
vt -4.3151 2.74381 0
vt -2.36388 2.74381 0
vt -2.36388 3.73568 0
vt 4.40989 3.42049 0
vt 2.45867 3.19285 0
vt 4.40989 3.19285 0
vt -2.11506 1.44409 0
vt -2.48701 1.67174 0
vt -2.48701 1.44409 0
vt -2.42981 1.04065 0
vt -2.80176 1.26829 0
vt -2.80176 1.04065 0
vt -2.36388 4.30478 0
vt 2.45867 3.42049 0
vt 2.42981 1.04065 0
vt 2.05786 1.26829 0
vt 2.05786 1.04065 0
vt -2.11506 1.67174 0
vt -2.42981 1.26829 0
vt -3.34652 1.17979 0
vt -2.91969 0.952145 0
vt -2.91969 1.17979 0
vt -3.34652 0.952145 0
vt -2.36388 4.72755 0
vt 2.45867 3.91642 0
vt 2.42981 1.26829 0
vt -4.3151 4.30478 0
vt -4.3151 3.23974 0
vt 4.3151 3.23974 0
vt 2.36388 3.73568 0
vt 2.36388 3.23974 0
vt 4.3151 3.73568 0
vt 2.36388 4.30478 0
vt -3.54566 1.26829 0
vt -3.22859 1.04065 0
vt -3.22859 1.26829 0
vt -3.54566 1.04065 0
vt 4.40989 3.91642 0
vt 2.44654 1.4338 0
vt 2.07459 1.66144 0
vt 2.07459 1.4338 0
vt -4.3151 3.73568 0
vt 4.3151 4.30478 0
vt 4.27687 3.84298 0
vt 2.32565 4.26574 0
vt 2.32565 3.84298 0
vt -2.36388 1.26829 0
vt -4.3151 1.04065 0
vt -2.36388 1.04065 0
vt -4.3151 4.72755 0
vt 2.44654 1.66144 0
vt 3.22859 1.04065 0
vt 2.80176 1.26829 0
vt 2.80176 1.04065 0
vt 3.22859 1.26829 0
vt 4.27687 4.26574 0
vt -4.3151 1.26829 0
vt 3.59535 1.21483 0
vt 3.27828 1.44247 0
vt 3.27828 1.21483 0
vt 3.59535 1.44247 0

# 6 vertex normals
vn 0 0 -1
vn -1 0 0
vn 0 1 0
vn 1 0 0
vn 0 -1 0
vn 0 0 1

# Mesh 'mesh1_mesh1-geometry' with 20 faces
g mesh1_mesh1-geometry
usemtl material_0_2_8
f  1/1/1 2/2/1 3/3/1
f  2/2/1 1/1/1 4/4/1
f  2/5/2 5/6/2 3/7/2
f  3/8/3 6/9/3 1/10/3
f  1/11/4 7/12/4 4/13/4
f  7/14/5 2/15/5 4/16/5
f  5/6/2 2/5/2 8/17/2
f  9/18/3 3/8/3 5/19/3
f  6/9/3 3/8/3 9/18/3
f  7/12/4 1/11/4 6/20/4
f  2/15/5 7/14/5 10/21/5
f  2/15/5 10/21/5 8/22/5
f  11/23/6 5/24/6 8/25/6
f  9/18/3 5/19/3 12/26/3
f  9/27/6 7/28/6 6/29/6
f  7/28/6 9/27/6 10/23/6
f  8/22/5 10/21/5 11/30/5
f  5/24/6 11/23/6 12/27/6
f  11/31/4 9/20/4 12/32/4
f  9/20/4 11/31/4 10/12/4

# Mesh 'mesh1_mesh1-geometry' with 20 faces
g mesh1_mesh1-geometry
usemtl material_1_24
f  3//6 2//6 1//6
f  4//6 1//6 2//6
f  3//4 5//4 2//4
f  1//5 6//5 3//5
f  4//2 7//2 1//2
f  4//3 2//3 7//3
f  8//4 2//4 5//4
f  5//5 3//5 9//5
f  9//5 3//5 6//5
f  6//2 1//2 7//2
f  10//3 7//3 2//3
f  8//3 10//3 2//3
f  8//1 5//1 11//1
f  12//5 5//5 9//5
f  6//1 7//1 9//1
f  10//1 9//1 7//1
f  11//3 10//3 8//3
f  12//1 11//1 5//1
f  12//2 9//2 11//2
f  10//2 11//2 9//2

# Mesh 'mesh2_mesh2-geometry' with 20 faces
g mesh2_mesh2-geometry
usemtl material_0_2_8
f  13/1/2 14/2/2 15/3/2
f  14/2/2 13/1/2 16/4/2
f  14/5/6 17/6/6 15/7/6
f  15/8/3 18/18/3 13/10/3
f  13/11/1 19/12/1 16/13/1
f  20/21/5 14/15/5 16/16/5
f  17/6/6 14/5/6 21/17/6
f  18/18/3 15/8/3 17/19/3
f  22/9/3 13/10/3 18/18/3
f  19/12/1 13/11/1 22/20/1
f  19/14/5 20/21/5 16/16/5
f  14/15/5 20/21/5 21/22/5
f  23/23/4 17/24/4 21/25/4
f  18/18/3 17/19/3 24/26/3
f  18/27/4 19/28/4 22/29/4
f  19/28/4 18/27/4 20/23/4
f  21/22/5 20/21/5 23/30/5
f  17/24/4 23/23/4 24/27/4
f  23/31/1 18/20/1 24/32/1
f  18/20/1 23/31/1 20/12/1

# Mesh 'mesh2_mesh2-geometry' with 20 faces
g mesh2_mesh2-geometry
usemtl material_1_24
f  15//4 14//4 13//4
f  16//4 13//4 14//4
f  15//1 17//1 14//1
f  13//5 18//5 15//5
f  16//6 19//6 13//6
f  16//3 14//3 20//3
f  21//1 14//1 17//1
f  17//5 15//5 18//5
f  18//5 13//5 22//5
f  22//6 13//6 19//6
f  16//3 20//3 19//3
f  21//3 20//3 14//3
f  21//2 17//2 23//2
f  24//5 17//5 18//5
f  22//2 19//2 18//2
f  20//2 18//2 19//2
f  23//3 20//3 21//3
f  24//2 23//2 17//2
f  24//6 18//6 23//6
f  20//6 23//6 18//6

# Mesh 'mesh3_mesh3-geometry' with 20 faces
g mesh3_mesh3-geometry
usemtl material_0_2_8
f  25/1/6 26/2/6 27/3/6
f  26/2/6 25/1/6 28/4/6
f  26/5/4 29/6/4 27/7/4
f  27/8/3 30/9/3 25/10/3
f  25/11/2 31/12/2 28/13/2
f  31/14/5 26/15/5 28/16/5
f  29/6/4 26/5/4 32/17/4
f  33/18/3 27/8/3 29/19/3
f  30/9/3 27/8/3 33/18/3
f  31/12/2 25/11/2 30/20/2
f  26/15/5 31/14/5 34/21/5
f  26/15/5 34/21/5 32/22/5
f  35/23/1 29/24/1 32/25/1
f  33/18/3 29/19/3 36/26/3
f  33/27/1 31/28/1 30/29/1
f  31/28/1 33/27/1 34/23/1
f  32/22/5 34/21/5 35/30/5
f  29/24/1 35/23/1 36/27/1
f  35/31/2 33/20/2 36/32/2
f  33/20/2 35/31/2 34/12/2

# Mesh 'mesh3_mesh3-geometry' with 20 faces
g mesh3_mesh3-geometry
usemtl material_1_24
f  27//1 26//1 25//1
f  28//1 25//1 26//1
f  27//2 29//2 26//2
f  25//5 30//5 27//5
f  28//4 31//4 25//4
f  28//3 26//3 31//3
f  32//2 26//2 29//2
f  29//5 27//5 33//5
f  33//5 27//5 30//5
f  30//4 25//4 31//4
f  34//3 31//3 26//3
f  32//3 34//3 26//3
f  32//6 29//6 35//6
f  36//5 29//5 33//5
f  30//6 31//6 33//6
f  34//6 33//6 31//6
f  35//3 34//3 32//3
f  36//6 35//6 29//6
f  36//4 33//4 35//4
f  34//4 35//4 33//4

# Mesh 'mesh4_mesh4-geometry' with 20 faces
g mesh4_mesh4-geometry
usemtl material_0_2_8
f  37/20/6 38/31/6 39/12/6
f  38/31/6 37/20/6 40/32/6
f  41/22/5 39/21/5 38/30/5
f  42/28/2 37/27/2 39/23/2
f  37/18/3 43/19/3 40/26/3
f  43/24/2 38/23/2 40/27/2
f  44/15/5 39/21/5 41/22/5
f  38/23/2 43/24/2 41/25/2
f  37/27/2 42/28/2 45/29/2
f  44/15/5 42/14/5 39/21/5
f  37/18/3 46/8/3 43/19/3
f  43/6/1 44/5/1 41/17/1
f  42/12/6 47/11/6 45/20/6
f  45/9/3 47/10/3 37/18/3
f  42/14/5 44/15/5 48/16/5
f  46/8/3 37/18/3 47/10/3
f  44/5/1 43/6/1 46/7/1
f  47/11/6 42/12/6 48/13/6
f  44/2/4 47/1/4 48/4/4
f  47/1/4 44/2/4 46/3/4

# Mesh 'mesh4_mesh4-geometry' with 20 faces
g mesh4_mesh4-geometry
usemtl material_1_24
f  39//1 38//1 37//1
f  40//1 37//1 38//1
f  38//3 39//3 41//3
f  39//4 37//4 42//4
f  40//5 43//5 37//5
f  40//4 38//4 43//4
f  41//3 39//3 44//3
f  41//4 43//4 38//4
f  45//4 42//4 37//4
f  39//3 42//3 44//3
f  43//5 46//5 37//5
f  41//6 44//6 43//6
f  45//1 47//1 42//1
f  37//5 47//5 45//5
f  48//3 44//3 42//3
f  47//5 37//5 46//5
f  46//6 43//6 44//6
f  48//1 42//1 47//1
f  48//2 47//2 44//2
f  46//2 44//2 47//2

# Mesh 'mesh5_mesh5-geometry' with 36 faces
g mesh5_mesh5-geometry
usemtl material_2_1_8
f  49/33/5 3/34/5 46/35/5
f  3/34/5 49/33/5 50/36/5
f  51/37/1 46/38/1 3/39/1
f  46/40/4 52/41/4 49/42/4
f  49/43/4 53/44/4 50/45/4
f  3/34/5 50/36/5 54/46/5
f  46/38/1 51/37/1 55/47/1
f  56/48/2 51/49/2 3/50/2
f  52/41/4 46/40/4 55/51/4
f  53/44/4 49/43/4 52/52/4
f  57/53/4 50/54/4 53/55/4
f  50/54/4 57/53/4 54/56/4
f  3/34/5 54/46/5 27/57/5
f  51/37/3 52/58/3 55/47/3
f  51/49/2 56/48/2 58/59/2
f  3/34/5 13/60/5 56/61/5
f  58/62/3 53/63/3 52/64/3
f  59/65/3 57/66/3 53/63/3
f  60/67/4 54/68/4 57/69/4
f  54/68/4 60/67/4 27/70/4
f  3/34/5 27/57/5 13/60/5
f  52/58/3 51/37/3 58/71/3
f  61/72/2 58/73/2 56/74/2
f  61/75/5 56/61/5 13/60/5
f  53/63/3 58/62/3 59/65/3
f  57/66/3 59/65/3 62/76/3
f  62/77/3 60/78/3 57/79/3
f  60/80/6 15/81/6 27/82/6
f  13/60/5 27/57/5 15/83/5
f  58/73/2 61/72/2 59/84/2
f  13/85/2 59/86/2 61/87/2
f  59/86/2 13/85/2 62/88/2
f  60/78/3 62/77/3 63/89/3
f  15/81/6 60/80/6 63/90/6
f  15/91/2 62/92/2 13/93/2
f  62/92/2 15/91/2 63/94/2

# Mesh 'mesh5_mesh5-geometry' with 36 faces
g mesh5_mesh5-geometry
usemtl material_1_24
f  46//3 3//3 49//3
f  50//3 49//3 3//3
f  3//6 46//6 51//6
f  49//2 52//2 46//2
f  50//2 53//2 49//2
f  54//3 50//3 3//3
f  55//6 51//6 46//6
f  3//4 51//4 56//4
f  55//2 46//2 52//2
f  52//2 49//2 53//2
f  53//2 50//2 57//2
f  54//2 57//2 50//2
f  27//3 54//3 3//3
f  55//5 52//5 51//5
f  58//4 56//4 51//4
f  56//3 13//3 3//3
f  52//5 53//5 58//5
f  53//5 57//5 59//5
f  57//2 54//2 60//2
f  27//2 60//2 54//2
f  13//3 27//3 3//3
f  58//5 51//5 52//5
f  56//4 58//4 61//4
f  13//3 56//3 61//3
f  59//5 58//5 53//5
f  62//5 59//5 57//5
f  57//5 60//5 62//5
f  27//1 15//1 60//1
f  15//3 27//3 13//3
f  59//4 61//4 58//4
f  61//4 59//4 13//4
f  62//4 13//4 59//4
f  63//5 62//5 60//5
f  63//1 60//1 15//1
f  13//4 62//4 15//4
f  63//4 15//4 62//4

