# File produced by Open Asset Import Library (http://www.assimp.sf.net)
# (assimp v3.2.202087883)

mtllib model_normalized.mtl

# 72 vertex positions
v -0.301801 -0.186670 0.120720
v 0.301801 -0.186670 -0.120720
v 0.301801 -0.186670 0.120720
v -0.301801 -0.186670 -0.120720
v 0.301801 -0.126309 0.120720
v -0.301801 -0.126309 -0.120720
v 0.301801 -0.126309 -0.120720
v -0.301801 -0.126309 0.120720
v -0.392341 -0.126309 0.171021
v 0.392341 -0.126309 0.201201
v 0.392341 -0.126309 0.171021
v 0.422522 -0.126309 0.171021
v 0.392341 -0.126309 -0.171021
v -0.422522 -0.126309 -0.171021
v -0.392341 -0.126309 -0.171021
v 0.392341 -0.126309 -0.201201
v -0.392341 -0.096129 0.171021
v -0.422522 -0.096129 0.171021
v -0.392341 -0.126309 0.201201
v 0.422522 -0.126309 0.201201
v 0.392341 -0.096129 0.201201
v 0.392341 -0.096129 0.171021
v 0.422522 -0.126309 -0.171021
v -0.422522 -0.126309 0.171021
v -0.392341 -0.126309 -0.201201
v 0.392341 -0.096129 -0.171021
v 0.422522 -0.126309 -0.201201
v -0.392341 -0.096129 -0.171021
v -0.392341 -0.096129 0.201201
v -0.422522 -0.096129 -0.171021
v 0.422522 -0.096129 0.171021
v 0.422522 -0.096129 0.201201
v -0.422522 -0.096129 -0.201201
v -0.422522 -0.126309 -0.201201
v 0.392341 -0.096129 -0.201201
v -0.392341 -0.096129 -0.201201
v -0.422522 -0.126309 0.201201
v -0.422522 -0.096129 0.201201
v -0.422522 0.135252 0.171021
v 0.422522 -0.096129 -0.171021
v -0.422522 0.135252 -0.201201
v 0.422522 -0.096129 -0.201201
v -0.392341 0.165432 0.171021
v -0.392341 0.135252 0.171021
v -0.422522 0.135252 0.201201
v -0.422522 0.135252 -0.171021
v -0.422522 0.165432 0.171021
v 0.422522 0.135252 -0.171021
v 0.422522 0.165432 0.171021
v 0.392341 0.135252 0.171021
v 0.422522 0.135252 0.171021
v 0.392341 0.165432 0.171021
v -0.422522 0.165432 -0.201201
v -0.392341 0.135252 -0.201201
v -0.422522 0.165432 -0.171021
v -0.392341 0.165432 0.201201
v 0.392341 0.165432 0.201201
v -0.422522 0.165432 0.201201
v 0.422522 0.135252 -0.201201
v 0.422522 0.165432 0.201201
v 0.392341 0.165432 -0.171021
v -0.392341 0.165432 -0.201201
v -0.392341 0.165432 -0.171021
v 0.422522 0.165432 -0.171021
v 0.392341 0.165432 -0.201201
v 0.422522 0.165432 -0.201201
v -0.392341 0.135252 0.201201
v -0.392341 0.135252 -0.171021
v 0.422522 0.135252 0.201201
v 0.392341 0.135252 0.201201
v 0.392341 0.135252 -0.201201
v 0.392341 0.135252 -0.171021

# 9 UV coordinates
vt 0 0 0
vt 1.36364 1.63636 0
vt 1.29545 1.85606 0
vt 1.36364 1.81818 0
vt 1.81818 1.81818 0
vt 1.88636 1.85606 0
vt 1.88636 1.59848 0
vt 1.81818 1.63636 0
vt 1.29545 1.59848 0

# 6 vertex normals
vn 0 -0.0254 0
vn 0.0254 0 0
vn 0 0 0.0254
vn -0.0254 0 0
vn 0 0 -0.0254
vn 0 0.0254 0

# Mesh 'mesh1_mesh1-geometry' with 10 faces
g mesh1_mesh1-geometry
usemtl material_0_24
f  1/1/1 2/1/1 3/1/1
f  2/1/1 1/1/1 4/1/1
f  2/1/2 5/1/2 3/1/2
f  5/1/3 1/1/3 3/1/3
f  1/1/4 6/1/4 4/1/4
f  6/1/5 2/1/5 4/1/5
f  5/1/2 2/1/2 7/1/2
f  1/1/3 5/1/3 8/1/3
f  6/1/4 1/1/4 8/1/4
f  2/1/5 6/1/5 7/1/5

# Mesh 'mesh1_mesh1-geometry' with 110 faces
g mesh1_mesh1-geometry
usemtl material_1_24
f  3/1/6 2/1/6 1/1/6
f  4/1/6 1/1/6 2/1/6
f  3/1/4 5/1/4 2/1/4
f  3/1/5 1/1/5 5/1/5
f  4/1/2 6/1/2 1/1/2
f  4/1/3 2/1/3 6/1/3
f  7/1/4 2/1/4 5/1/4
f  8/1/5 5/1/5 1/1/5
f  8/1/2 1/1/2 6/1/2
f  7/1/3 6/1/3 2/1/3
f  7/1/1 5/1/1 6/1/1
f  8/1/1 6/1/1 5/1/1
f  9/1/6 10/1/6 11/1/6
f  12/1/6 13/1/6 11/1/6
f  14/1/6 9/1/6 15/1/6
f  13/1/6 16/1/6 15/1/6
f  17/1/3 18/1/3 9/1/3
f  10/1/6 9/1/6 19/1/6
f  20/1/6 11/1/6 10/1/6
f  11/1/2 21/1/2 10/1/2
f  11/1/3 12/1/3 22/1/3
f  21/1/2 11/1/2 22/1/2
f  13/1/6 12/1/6 23/1/6
f  11/1/6 20/1/6 12/1/6
f  9/1/6 14/1/6 24/1/6
f  15/1/6 25/1/6 14/1/6
f  25/1/6 15/1/6 16/1/6
f  16/1/2 26/1/2 13/1/2
f  16/1/6 13/1/6 27/1/6
f  15/1/4 28/1/4 25/1/4
f  22/1/1 21/1/1 17/1/1
f  17/1/1 28/1/1 22/1/1
f  29/1/1 17/1/1 21/1/1
f  17/1/1 29/1/1 18/1/1
f  24/1/3 9/1/3 18/1/3
f  18/1/1 30/1/1 17/1/1
f  24/1/6 19/1/6 9/1/6
f  22/1/1 26/1/1 31/1/1
f  26/1/1 22/1/1 28/1/1
f  31/1/3 22/1/3 12/1/3
f  21/1/1 22/1/1 32/1/1
f  12/1/4 31/1/4 23/1/4
f  23/1/6 27/1/6 13/1/6
f  20/1/4 32/1/4 12/1/4
f  30/1/2 14/1/2 33/1/2
f  34/1/6 14/1/6 25/1/6
f  28/1/1 17/1/1 30/1/1
f  26/1/2 16/1/2 35/1/2
f  16/1/3 27/1/3 35/1/3
f  28/1/1 36/1/1 26/1/1
f  30/1/1 33/1/1 28/1/1
f  36/1/4 25/1/4 28/1/4
f  19/1/5 37/1/5 29/1/5
f  38/1/1 18/1/1 29/1/1
f  24/1/2 18/1/2 37/1/2
f  18/1/2 39/1/2 38/1/2
f  19/1/6 24/1/6 37/1/6
f  40/1/1 31/1/1 26/1/1
f  31/1/1 32/1/1 22/1/1
f  31/1/4 12/1/4 32/1/4
f  40/1/4 23/1/4 31/1/4
f  23/1/4 40/1/4 27/1/4
f  34/1/2 33/1/2 14/1/2
f  33/1/2 41/1/2 30/1/2
f  34/1/3 25/1/3 33/1/3
f  36/1/3 33/1/3 25/1/3
f  26/1/1 35/1/1 40/1/1
f  35/1/1 26/1/1 36/1/1
f  42/1/3 35/1/3 27/1/3
f  36/1/1 28/1/1 33/1/1
f  38/1/5 29/1/5 37/1/5
f  38/1/2 37/1/2 18/1/2
f  43/1/3 39/1/3 44/1/3
f  45/1/2 38/1/2 39/1/2
f  42/1/4 27/1/4 40/1/4
f  46/1/2 30/1/2 41/1/2
f  33/1/3 36/1/3 41/1/3
f  42/1/1 40/1/1 35/1/1
f  39/1/3 43/1/3 47/1/3
f  39/1/2 47/1/2 45/1/2
f  40/1/4 48/1/4 42/1/4
f  49/1/3 50/1/3 51/1/3
f  50/1/3 49/1/3 52/1/3
f  41/1/2 53/1/2 46/1/2
f  54/1/3 41/1/3 36/1/3
f  46/1/2 55/1/2 39/1/2
f  43/1/1 56/1/1 47/1/1
f  56/1/1 43/1/1 57/1/1
f  47/1/1 55/1/1 43/1/1
f  47/1/2 39/1/2 55/1/2
f  58/1/2 45/1/2 47/1/2
f  59/1/4 42/1/4 48/1/4
f  57/1/1 52/1/1 60/1/1
f  52/1/1 57/1/1 43/1/1
f  49/1/1 60/1/1 52/1/1
f  52/1/1 61/1/1 49/1/1
f  55/1/2 46/1/2 53/1/2
f  53/1/3 41/1/3 62/1/3
f  54/1/3 62/1/3 41/1/3
f  63/1/1 43/1/1 55/1/1
f  55/1/1 53/1/1 63/1/1
f  63/1/1 62/1/1 61/1/1
f  58/1/1 47/1/1 56/1/1
f  48/1/4 64/1/4 59/1/4
f  64/1/1 49/1/1 61/1/1
f  62/1/1 63/1/1 53/1/1
f  61/1/1 65/1/1 64/1/1
f  65/1/1 61/1/1 62/1/1
f  66/1/4 59/1/4 64/1/4
f  66/1/1 64/1/1 65/1/1

# Mesh 'mesh1_mesh1-geometry' with 234 faces
g mesh1_mesh1-geometry
usemtl material_2_24
f  6/1/6 5/1/6 7/1/6
f  5/1/6 11/1/6 7/1/6
f  5/1/6 6/1/6 8/1/6
f  9/1/6 5/1/6 8/1/6
f  6/1/6 15/1/6 8/1/6
f  7/1/6 15/1/6 6/1/6
f  11/1/6 5/1/6 9/1/6
f  13/1/6 7/1/6 11/1/6
f  9/1/6 8/1/6 15/1/6
f  7/1/6 13/1/6 15/1/6
f  17/1/5 11/1/5 9/1/5
f  9/1/3 11/1/3 17/1/3
f  11/1/1 10/1/1 9/1/1
f  13/1/2 22/1/2 11/1/2
f  11/1/4 22/1/4 13/1/4
f  11/1/1 13/1/1 12/1/1
f  15/1/1 9/1/1 14/1/1
f  15/1/2 17/1/2 9/1/2
f  9/1/4 17/1/4 15/1/4
f  15/1/1 16/1/1 13/1/1
f  28/1/5 13/1/5 15/1/5
f  15/1/3 13/1/3 28/1/3
f  11/1/5 17/1/5 22/1/5
f  22/1/3 17/1/3 11/1/3
f  29/1/2 9/1/2 17/1/2
f  9/1/5 18/1/5 17/1/5
f  19/1/1 9/1/1 10/1/1
f  10/1/4 21/1/4 11/1/4
f  22/1/2 13/1/2 26/1/2
f  26/1/4 13/1/4 22/1/4
f  22/1/5 12/1/5 11/1/5
f  22/1/4 11/1/4 21/1/4
f  23/1/1 12/1/1 13/1/1
f  24/1/1 14/1/1 9/1/1
f  30/1/5 15/1/5 14/1/5
f  14/1/3 15/1/3 30/1/3
f  17/1/2 15/1/2 28/1/2
f  28/1/4 15/1/4 17/1/4
f  16/1/1 15/1/1 25/1/1
f  13/1/4 26/1/4 16/1/4
f  13/1/5 28/1/5 26/1/5
f  26/1/3 28/1/3 13/1/3
f  15/1/5 30/1/5 28/1/5
f  28/1/3 30/1/3 15/1/3
f  25/1/2 28/1/2 15/1/2
f  17/1/6 21/1/6 22/1/6
f  9/1/2 29/1/2 19/1/2
f  21/1/6 17/1/6 29/1/6
f  17/1/2 67/1/2 29/1/2
f  29/1/4 67/1/4 17/1/4
f  18/1/6 29/1/6 17/1/6
f  18/1/5 9/1/5 24/1/5
f  17/1/6 30/1/6 18/1/6
f  39/1/5 17/1/5 18/1/5
f  18/1/3 17/1/3 39/1/3
f  21/1/3 19/1/3 10/1/3
f  10/1/5 19/1/5 21/1/5
f  20/1/5 10/1/5 32/1/5
f  21/1/5 32/1/5 10/1/5
f  26/1/5 23/1/5 13/1/5
f  13/1/3 23/1/3 26/1/3
f  31/1/6 26/1/6 22/1/6
f  12/1/5 22/1/5 31/1/5
f  21/1/4 50/1/4 22/1/4
f  22/1/2 50/1/2 21/1/2
f  32/1/6 22/1/6 21/1/6
f  23/1/2 31/1/2 12/1/2
f  24/1/4 30/1/4 14/1/4
f  14/1/2 30/1/2 24/1/2
f  30/1/6 17/1/6 28/1/6
f  36/1/5 16/1/5 25/1/5
f  25/1/3 16/1/3 36/1/3
f  35/1/4 16/1/4 26/1/4
f  26/1/6 36/1/6 28/1/6
f  68/1/3 30/1/3 28/1/3
f  28/1/5 30/1/5 68/1/5
f  28/1/6 33/1/6 30/1/6
f  28/1/2 25/1/2 36/1/2
f  19/1/3 21/1/3 29/1/3
f  29/1/5 21/1/5 19/1/5
f  67/1/2 17/1/2 44/1/2
f  44/1/4 17/1/4 67/1/4
f  67/1/3 38/1/3 29/1/3
f  29/1/5 38/1/5 67/1/5
f  29/1/6 18/1/6 38/1/6
f  30/1/4 24/1/4 18/1/4
f  18/1/2 24/1/2 30/1/2
f  17/1/5 39/1/5 44/1/5
f  44/1/3 39/1/3 17/1/3
f  38/1/4 39/1/4 18/1/4
f  69/1/3 21/1/3 32/1/3
f  32/1/5 21/1/5 69/1/5
f  23/1/5 26/1/5 40/1/5
f  40/1/3 26/1/3 23/1/3
f  26/1/6 31/1/6 40/1/6
f  50/1/5 31/1/5 22/1/5
f  22/1/3 31/1/3 50/1/3
f  22/1/6 32/1/6 31/1/6
f  50/1/4 21/1/4 70/1/4
f  70/1/2 21/1/2 50/1/2
f  31/1/2 23/1/2 40/1/2
f  30/1/4 41/1/4 33/1/4
f  16/1/5 36/1/5 35/1/5
f  35/1/3 36/1/3 16/1/3
f  26/1/4 71/1/4 35/1/4
f  35/1/2 71/1/2 26/1/2
f  40/1/6 35/1/6 26/1/6
f  36/1/6 26/1/6 35/1/6
f  36/1/2 68/1/2 28/1/2
f  28/1/4 68/1/4 36/1/4
f  33/1/6 28/1/6 36/1/6
f  30/1/3 68/1/3 46/1/3
f  46/1/5 68/1/5 30/1/5
f  44/1/2 56/1/2 67/1/2
f  67/1/4 56/1/4 44/1/4
f  45/1/1 44/1/1 67/1/1
f  67/1/6 44/1/6 45/1/6
f  50/1/1 67/1/1 44/1/1
f  44/1/6 67/1/6 50/1/6
f  38/1/3 67/1/3 45/1/3
f  45/1/5 67/1/5 38/1/5
f  39/1/1 68/1/1 44/1/1
f  44/1/6 68/1/6 39/1/6
f  44/1/5 39/1/5 43/1/5
f  44/1/1 45/1/1 39/1/1
f  39/1/6 45/1/6 44/1/6
f  39/1/4 38/1/4 45/1/4
f  21/1/3 69/1/3 70/1/3
f  70/1/5 69/1/5 21/1/5
f  31/1/2 69/1/2 32/1/2
f  32/1/4 69/1/4 31/1/4
f  48/1/3 26/1/3 40/1/3
f  40/1/5 26/1/5 48/1/5
f  31/1/5 50/1/5 51/1/5
f  51/1/3 50/1/3 31/1/3
f  67/1/1 50/1/1 70/1/1
f  70/1/6 50/1/6 67/1/6
f  70/1/4 52/1/4 50/1/4
f  50/1/2 52/1/2 70/1/2
f  41/1/4 30/1/4 46/1/4
f  41/1/5 36/1/5 33/1/5
f  71/1/4 26/1/4 72/1/4
f  72/1/2 26/1/2 71/1/2
f  71/1/5 42/1/5 35/1/5
f  35/1/3 42/1/3 71/1/3
f  35/1/6 40/1/6 42/1/6
f  68/1/2 36/1/2 54/1/2
f  54/1/4 36/1/4 68/1/4
f  68/1/1 39/1/1 46/1/1
f  46/1/6 39/1/6 68/1/6
f  63/1/3 46/1/3 68/1/3
f  68/1/5 46/1/5 63/1/5
f  56/1/2 44/1/2 43/1/2
f  43/1/4 44/1/4 56/1/4
f  67/1/3 57/1/3 56/1/3
f  56/1/5 57/1/5 67/1/5
f  67/1/5 45/1/5 56/1/5
f  43/1/5 50/1/5 44/1/5
f  44/1/3 50/1/3 43/1/3
f  68/1/2 43/1/2 44/1/2
f  47/1/5 43/1/5 39/1/5
f  69/1/5 70/1/5 60/1/5
f  69/1/2 31/1/2 51/1/2
f  51/1/4 31/1/4 69/1/4
f  26/1/3 48/1/3 72/1/3
f  72/1/5 48/1/5 26/1/5
f  42/1/2 48/1/2 40/1/2
f  50/1/1 48/1/1 51/1/1
f  51/1/6 48/1/6 50/1/6
f  51/1/5 50/1/5 49/1/5
f  57/1/3 67/1/3 70/1/3
f  70/1/5 67/1/5 57/1/5
f  52/1/4 70/1/4 57/1/4
f  57/1/2 70/1/2 52/1/2
f  52/1/5 49/1/5 50/1/5
f  50/1/5 43/1/5 52/1/5
f  52/1/3 43/1/3 50/1/3
f  61/1/4 50/1/4 52/1/4
f  52/1/2 50/1/2 61/1/2
f  36/1/5 41/1/5 54/1/5
f  68/1/1 71/1/1 72/1/1
f  72/1/6 71/1/6 68/1/6
f  72/1/4 65/1/4 71/1/4
f  71/1/2 65/1/2 72/1/2
f  42/1/5 71/1/5 59/1/5
f  59/1/3 71/1/3 42/1/3
f  54/1/2 63/1/2 68/1/2
f  68/1/4 63/1/4 54/1/4
f  71/1/1 68/1/1 54/1/1
f  54/1/6 68/1/6 71/1/6
f  39/1/4 55/1/4 46/1/4
f  46/1/3 63/1/3 55/1/3
f  55/1/5 63/1/5 46/1/5
f  43/1/2 68/1/2 63/1/2
f  68/1/3 61/1/3 63/1/3
f  63/1/5 61/1/5 68/1/5
f  57/1/6 43/1/6 56/1/6
f  58/1/5 56/1/5 45/1/5
f  48/1/1 50/1/1 72/1/1
f  72/1/6 50/1/6 48/1/6
f  50/1/4 61/1/4 72/1/4
f  72/1/2 61/1/2 50/1/2
f  61/1/3 68/1/3 72/1/3
f  72/1/5 68/1/5 61/1/5
f  43/1/6 55/1/6 47/1/6
f  55/1/4 39/1/4 47/1/4
f  57/1/5 60/1/5 70/1/5
f  69/1/4 60/1/4 51/1/4
f  64/1/3 72/1/3 48/1/3
f  48/1/5 72/1/5 64/1/5
f  48/1/2 42/1/2 59/1/2
f  48/1/2 49/1/2 51/1/2
f  51/1/4 49/1/4 48/1/4
f  49/1/4 51/1/4 60/1/4
f  43/1/6 57/1/6 52/1/6
f  49/1/6 61/1/6 52/1/6
f  65/1/4 72/1/4 61/1/4
f  61/1/2 72/1/2 65/1/2
f  71/1/3 59/1/3 65/1/3
f  71/1/5 62/1/5 65/1/5
f  65/1/3 62/1/3 71/1/3
f  63/1/2 54/1/2 62/1/2
f  62/1/4 54/1/4 63/1/4
f  62/1/5 71/1/5 54/1/5
f  54/1/3 71/1/3 62/1/3
f  55/1/6 43/1/6 63/1/6
f  61/1/6 62/1/6 63/1/6
f  72/1/3 64/1/3 61/1/3
f  61/1/5 64/1/5 72/1/5
f  49/1/2 48/1/2 64/1/2
f  64/1/4 48/1/4 49/1/4
f  61/1/6 49/1/6 64/1/6
f  62/1/6 61/1/6 65/1/6
f  66/1/3 65/1/3 59/1/3

# Mesh 'mesh1_mesh1-geometry' with 8 faces
g mesh1_mesh1-geometry
usemtl material_5_1_8
f  7/2/1 11/3/1 5/4/1
f  8/5/1 5/4/1 9/6/1
f  8/5/1 15/7/1 6/8/1
f  6/8/1 15/7/1 7/2/1
f  9/6/1 5/4/1 11/3/1
f  11/3/1 7/2/1 13/9/1
f  15/7/1 8/5/1 9/6/1
f  15/7/1 13/9/1 7/2/1

# Mesh 'mesh1_mesh1-geometry' with 4 faces
g mesh1_mesh1-geometry
usemtl material_4_24
f  17//4 9//4 29//4
f  19//4 29//4 9//4
f  44//4 43//4 68//4
f  63//4 68//4 43//4

# Mesh 'mesh1_mesh1-geometry' with 48 faces
g mesh1_mesh1-geometry
usemtl material_3_24
f  10//1 11//1 20//1
f  12//1 20//1 11//1
f  14//1 25//1 15//1
f  27//1 13//1 16//1
f  9//1 19//1 24//1
f  32//3 10//3 20//3
f  10//3 32//3 21//3
f  13//1 27//1 23//1
f  12//2 32//2 20//2
f  33//4 14//4 30//4
f  25//1 14//1 34//1
f  35//5 27//5 16//5
f  29//3 37//3 19//3
f  37//4 18//4 24//4
f  37//1 24//1 19//1
f  32//2 12//2 31//2
f  27//2 40//2 23//2
f  14//4 33//4 34//4
f  33//5 25//5 34//5
f  25//5 33//5 36//5
f  27//5 35//5 42//5
f  37//3 29//3 38//3
f  18//4 37//4 38//4
f  40//2 27//2 42//2
f  56//3 45//3 67//3
f  45//4 47//4 39//4
f  60//3 70//3 69//3
f  46//4 53//4 41//4
f  47//6 56//6 43//6
f  45//3 56//3 58//3
f  47//4 45//4 58//4
f  70//3 60//3 57//3
f  51//2 60//2 69//2
f  60//2 51//2 49//2
f  60//6 52//6 57//6
f  52//6 60//6 49//6
f  53//4 46//4 55//4
f  62//5 41//5 53//5
f  41//5 62//5 54//5
f  65//5 59//5 71//5
f  63//6 53//6 55//6
f  56//6 47//6 58//6
f  59//2 64//2 48//2
f  53//6 63//6 62//6
f  64//6 65//6 61//6
f  59//5 65//5 66//5
f  64//2 59//2 66//2
f  65//6 64//6 66//6

# Mesh 'mesh1_mesh1-geometry' with 2 faces
g mesh1_mesh1-geometry
usemtl material_6_24
f  22//6 28//6 17//6
f  28//6 22//6 26//6

# Mesh 'mesh1_mesh1-geometry' with 4 faces
g mesh1_mesh1-geometry
usemtl material_7_24
f  44//1 72//1 50//1
f  72//1 44//1 68//1
f  52//6 63//6 43//6
f  63//6 52//6 61//6

# Mesh 'mesh1_mesh1-geometry' with 4 faces
g mesh1_mesh1-geometry
usemtl material_8_24
f  50//6 72//6 44//6
f  68//6 44//6 72//6
f  43//1 63//1 52//1
f  61//1 52//1 63//1

