# File produced by Open Asset Import Library (http://www.assimp.sf.net)
# (assimp v3.2.202087883)

mtllib model_normalized.mtl

# 104 vertex positions
v 0.205062 0.148331 -0.104687
v 0.350933 0.042689 -0.111638
v 0.350933 0.042689 -0.104687
v 0.205062 0.148331 -0.111638
v 0.353793 0.046637 -0.108163
v 0.207921 0.152279 -0.108163
v 0.347731 -0.130419 0.146452
v 0.356632 -0.215793 0.146452
v 0.347731 -0.215793 0.146452
v 0.356632 -0.130419 0.146452
v 0.347731 -0.215793 0.155353
v 0.356632 -0.130419 -0.146773
v 0.356632 -0.121517 0.155353
v 0.347731 -0.121517 0.155353
v 0.347731 -0.130419 -0.146773
v 0.356632 -0.215793 0.155353
v 0.347731 -0.215793 -0.146773
v 0.356632 -0.121517 -0.155674
v 0.347731 -0.121517 -0.155674
v 0.356632 -0.215793 -0.146773
v 0.356632 -0.215793 -0.155674
v 0.347731 -0.215793 -0.155674
v 0.205062 0.148331 0.110823
v 0.350933 0.042689 0.103872
v 0.350933 0.042689 0.110823
v 0.205062 0.148331 0.103872
v 0.353793 0.046637 0.107348
v 0.207921 0.152279 0.107348
v 0.348202 -0.121517 0.111420
v 0.348202 0.148991 0.102688
v 0.348202 -0.121517 0.102688
v 0.348202 0.148991 0.111420
v 0.356935 -0.121517 0.102688
v 0.356935 0.148991 0.111420
v 0.356935 0.148991 0.102688
v 0.356935 -0.121517 0.111420
v 0.348202 -0.121517 -0.104091
v 0.348202 0.148991 -0.112823
v 0.348202 -0.121517 -0.112823
v 0.348202 0.148991 -0.104091
v 0.356935 -0.121517 -0.112823
v 0.356935 0.148991 -0.104091
v 0.356935 0.148991 -0.112823
v 0.356935 -0.121517 -0.104091
v -0.204273 0.148331 0.104688
v -0.350145 0.042689 0.111638
v -0.350145 0.042689 0.104688
v -0.204273 0.148331 0.111638
v -0.353005 0.046637 0.108163
v -0.207128 0.152279 0.108163
v -0.346939 -0.130419 -0.146452
v -0.355844 -0.215793 -0.146452
v -0.346939 -0.215793 -0.146452
v -0.355844 -0.130419 -0.146452
v -0.346939 -0.215793 -0.155353
v -0.355844 -0.130419 0.146773
v -0.355844 -0.121517 -0.155353
v -0.346939 -0.121517 -0.155353
v -0.346939 -0.130419 0.146773
v -0.355844 -0.215793 -0.155353
v -0.346939 -0.215793 0.146773
v -0.355844 -0.121517 0.155674
v -0.346939 -0.121517 0.155674
v -0.355844 -0.215793 0.146773
v -0.355844 -0.215793 0.155674
v -0.346939 -0.215793 0.155674
v -0.204273 0.148331 -0.110823
v -0.350145 0.042689 -0.103872
v -0.350145 0.042689 -0.110823
v -0.204273 0.148331 -0.103872
v -0.353005 0.046637 -0.107348
v -0.207128 0.152279 -0.107348
v -0.347413 -0.121517 -0.111420
v -0.347413 0.148991 -0.102688
v -0.347413 -0.121517 -0.102688
v -0.347413 0.148991 -0.111420
v -0.356146 -0.121517 -0.102688
v -0.356146 0.148991 -0.111420
v -0.356146 0.148991 -0.102688
v -0.356146 -0.121517 -0.111420
v -0.347413 -0.121517 0.104091
v -0.347413 0.148991 0.112823
v -0.347413 -0.121517 0.112823
v -0.347413 0.148991 0.104091
v -0.356146 -0.121517 0.112823
v -0.356146 0.148991 0.104091
v -0.356146 0.148991 0.112823
v -0.356146 -0.121517 0.104091
v 0.408327 0.174180 0.205249
v 0.380960 0.174180 0.177882
v 0.408327 0.174180 -0.205248
v -0.412667 0.174180 0.205249
v 0.380960 0.174180 -0.177882
v -0.385301 0.174180 0.177882
v -0.412667 0.174180 -0.205248
v -0.385301 0.174180 -0.177882
v 0.408327 0.181021 0.205249
v 0.380960 0.146813 -0.177882
v 0.408327 0.181021 -0.205248
v -0.412667 0.181021 0.205249
v -0.385301 0.146813 0.177882
v -0.412667 0.181021 -0.205248
v 0.380960 0.146813 0.177882
v -0.385301 0.146813 -0.177882

# 0 UV coordinates

# 34 vertex normals
vn -0.00682348 -0.00942195 0.0225793
vn -0.00682348 -0.00942195 -0.0225793
vn 0.00682348 0.00942195 -0.0225793
vn 0.00682348 0.00942195 0.0225793
vn 0.0148983 0.0205718 0
vn -0.0148983 -0.0205718 0
vn -0.0205718 0.0148983 0
vn 0.0205718 -0.0148983 -0
vn -0.0146647 -0.0146647 -0.0146647
vn 0.0179605 0 -0.0179605
vn -0.0179605 0 -0.0179605
vn 0.0146647 -0.0146647 -0.0146647
vn -0.0179605 0 0.0179605
vn 0.0146647 -0.0146647 0.0146647
vn 0.0146647 0.0146647 0.0146647
vn -0.0146647 0.0146647 0.0146647
vn -0.0146647 -0.0146647 0.0146647
vn 0.0179605 0 0.0179605
vn 0.0146647 0.0146647 -0.0146647
vn -0.0146647 0.0146647 -0.0146647
vn 0 -0.0254 0
vn 0 0.0254 0
vn 0.00682348 -0.00942195 -0.0225793
vn 0.00682348 -0.00942195 0.0225793
vn -0.00682348 0.00942195 0.0225793
vn -0.00682348 0.00942195 -0.0225793
vn -0.0148983 0.0205718 0
vn 0.0148983 -0.0205718 0
vn 0.0205718 0.0148983 0
vn -0.0205718 -0.0148983 0
vn 0.0254 0 0
vn -0.0254 0 0
vn 0 0 0.0254
vn 0 -0 -0.0254

# Mesh 'mesh1_mesh1-geometry' with 12 faces
g mesh1_mesh1-geometry
usemtl material_0_24
f  1//1 2//2 3//1
f  2//2 1//1 4//2
f  3//3 2//4 1//3
f  4//4 1//3 2//4
f  5//5 1//1 3//1
f  3//3 1//3 5//6
f  4//2 5//5 2//2
f  2//4 5//6 4//4
f  1//1 5//5 6//5
f  6//6 5//6 1//3
f  5//5 4//2 6//5
f  6//6 4//4 5//6

# Mesh 'mesh1_mesh1-geometry' with 2 faces
g mesh1_mesh1-geometry
usemtl material_1_24
f  1//7 6//7 4//7
f  4//8 6//8 1//8

# Mesh 'mesh2_mesh2-geometry' with 24 faces
g mesh2_mesh2-geometry
usemtl material_0_24
f  7//9 8//10 9//11
f  8//10 7//9 10//12
f  11//13 7//9 9//11
f  7//9 12//14 10//12
f  10//12 13//15 8//10
f  14//16 7//9 11//13
f  12//14 7//9 15//17
f  12//14 13//15 10//12
f  8//10 13//15 16//18
f  13//15 11//13 16//18
f  14//16 15//17 7//9
f  11//13 13//15 14//16
f  17//13 12//14 15//17
f  12//14 18//19 13//15
f  19//20 15//17 14//16
f  13//15 19//20 14//16
f  12//14 17//13 20//18
f  19//20 17//13 15//17
f  18//19 12//14 21//10
f  19//20 13//15 18//19
f  20//18 21//10 12//14
f  17//13 19//20 22//11
f  21//10 19//20 18//19
f  19//20 21//10 22//11

# Mesh 'mesh2_mesh2-geometry' with 32 faces
g mesh2_mesh2-geometry
usemtl material_1_24
f  9//18 8//13 7//15
f  10//16 7//15 8//13
f  8//21 11//21 9//21
f  9//22 11//22 8//22
f  9//18 7//15 11//10
f  10//16 12//20 7//15
f  8//13 13//9 10//16
f  11//21 8//21 16//21
f  16//22 8//22 11//22
f  11//10 7//15 14//12
f  15//19 7//15 12//20
f  10//16 13//9 12//20
f  16//11 13//9 8//13
f  16//11 11//10 13//9
f  7//15 15//19 14//12
f  14//12 13//9 11//10
f  15//19 12//20 17//10
f  13//9 18//17 12//20
f  14//12 15//19 19//14
f  14//12 19//14 13//9
f  20//11 17//10 12//20
f  15//19 17//10 19//14
f  21//13 12//20 18//17
f  18//17 13//9 19//14
f  17//21 21//21 20//21
f  20//22 21//22 17//22
f  12//20 21//13 20//11
f  22//18 19//14 17//10
f  18//17 19//14 21//13
f  21//21 17//21 22//21
f  22//22 17//22 21//22
f  22//18 21//13 19//14

# Mesh 'mesh3_mesh3-geometry' with 12 faces
g mesh3_mesh3-geometry
usemtl material_0_24
f  23//1 24//2 25//1
f  24//2 23//1 26//2
f  25//3 24//4 23//3
f  26//4 23//3 24//4
f  27//5 23//1 25//1
f  25//3 23//3 27//6
f  26//2 27//5 24//2
f  24//4 27//6 26//4
f  23//1 27//5 28//5
f  28//6 27//6 23//3
f  27//5 26//2 28//5
f  28//6 26//4 27//6

# Mesh 'mesh3_mesh3-geometry' with 2 faces
g mesh3_mesh3-geometry
usemtl material_1_24
f  23//7 28//7 26//7
f  26//8 28//8 23//8

# Mesh 'mesh4_mesh4-geometry' with 8 faces
g mesh4_mesh4-geometry
usemtl material_0_24
f  29//13 30//11 31//11
f  30//11 29//13 32//13
f  30//11 33//10 31//11
f  29//13 34//18 32//13
f  33//10 30//11 35//10
f  34//18 29//13 36//18
f  34//18 33//10 35//10
f  33//10 34//18 36//18

# Mesh 'mesh4_mesh4-geometry' with 8 faces
g mesh4_mesh4-geometry
usemtl material_1_24
f  31//18 30//18 29//10
f  32//10 29//10 30//18
f  31//18 33//13 30//18
f  32//10 34//11 29//10
f  35//13 30//18 33//13
f  36//11 29//10 34//11
f  35//13 33//13 34//11
f  36//11 34//11 33//13

# Mesh 'mesh5_mesh5-geometry' with 8 faces
g mesh5_mesh5-geometry
usemtl material_0_24
f  37//13 38//11 39//11
f  38//11 37//13 40//13
f  38//11 41//10 39//11
f  37//13 42//18 40//13
f  41//10 38//11 43//10
f  42//18 37//13 44//18
f  42//18 41//10 43//10
f  41//10 42//18 44//18

# Mesh 'mesh5_mesh5-geometry' with 8 faces
g mesh5_mesh5-geometry
usemtl material_1_24
f  39//18 38//18 37//10
f  40//10 37//10 38//18
f  39//18 41//13 38//18
f  40//10 42//11 37//10
f  43//13 38//18 41//13
f  44//11 37//10 42//11
f  43//13 41//13 42//11
f  44//11 42//11 41//13

# Mesh 'mesh6_mesh6-geometry' with 3 faces
g mesh6_mesh6-geometry
usemtl material_1_0
l  20 21
l  21 22
l  22 17

# Mesh 'mesh7_mesh7-geometry' with 1 faces
g mesh7_mesh7-geometry
usemtl material_1_0
l  8 16

# Mesh 'mesh1_mesh1-geometry' with 12 faces
g mesh1_mesh1-geometry
usemtl material_0_24
f  45//23 46//24 47//23
f  46//24 45//23 48//24
f  47//25 46//26 45//25
f  48//26 45//25 46//26
f  49//27 45//23 47//23
f  47//25 45//25 49//28
f  48//24 49//27 46//24
f  46//26 49//28 48//26
f  45//23 49//27 50//27
f  50//28 49//28 45//25
f  49//27 48//24 50//27
f  50//28 48//26 49//28

# Mesh 'mesh1_mesh1-geometry' with 2 faces
g mesh1_mesh1-geometry
usemtl material_1_24
f  45//29 50//29 48//29
f  48//30 50//30 45//30

# Mesh 'mesh2_mesh2-geometry' with 24 faces
g mesh2_mesh2-geometry
usemtl material_0_24
f  51//14 52//13 53//18
f  52//13 51//14 54//17
f  55//10 51//14 53//18
f  51//14 56//9 54//17
f  54//17 57//20 52//13
f  58//19 51//14 55//10
f  56//9 51//14 59//12
f  56//9 57//20 54//17
f  52//13 57//20 60//11
f  57//20 55//10 60//11
f  58//19 59//12 51//14
f  55//10 57//20 58//19
f  61//10 56//9 59//12
f  56//9 62//16 57//20
f  63//15 59//12 58//19
f  57//20 63//15 58//19
f  56//9 61//10 64//11
f  63//15 61//10 59//12
f  62//16 56//9 65//13
f  63//15 57//20 62//16
f  64//11 65//13 56//9
f  61//10 63//15 66//18
f  65//13 63//15 62//16
f  63//15 65//13 66//18

# Mesh 'mesh2_mesh2-geometry' with 32 faces
g mesh2_mesh2-geometry
usemtl material_1_24
f  53//11 52//10 51//20
f  54//19 51//20 52//10
f  52//21 55//21 53//21
f  53//22 55//22 52//22
f  53//11 51//20 55//13
f  54//19 56//15 51//20
f  52//10 57//14 54//19
f  55//21 52//21 60//21
f  60//22 52//22 55//22
f  55//13 51//20 58//17
f  59//16 51//20 56//15
f  54//19 57//14 56//15
f  60//18 57//14 52//10
f  60//18 55//13 57//14
f  51//20 59//16 58//17
f  58//17 57//14 55//13
f  59//16 56//15 61//13
f  57//14 62//12 56//15
f  58//17 59//16 63//9
f  58//17 63//9 57//14
f  64//18 61//13 56//15
f  59//16 61//13 63//9
f  65//10 56//15 62//12
f  62//12 57//14 63//9
f  61//21 65//21 64//21
f  64//22 65//22 61//22
f  56//15 65//10 64//18
f  66//11 63//9 61//13
f  62//12 63//9 65//10
f  65//21 61//21 66//21
f  66//22 61//22 65//22
f  66//11 65//10 63//9

# Mesh 'mesh3_mesh3-geometry' with 12 faces
g mesh3_mesh3-geometry
usemtl material_0_24
f  67//23 68//24 69//23
f  68//24 67//23 70//24
f  69//25 68//26 67//25
f  70//26 67//25 68//26
f  71//27 67//23 69//23
f  69//25 67//25 71//28
f  70//24 71//27 68//24
f  68//26 71//28 70//26
f  67//23 71//27 72//27
f  72//28 71//28 67//25
f  71//27 70//24 72//27
f  72//28 70//26 71//28

# Mesh 'mesh3_mesh3-geometry' with 2 faces
g mesh3_mesh3-geometry
usemtl material_1_24
f  67//29 72//29 70//29
f  70//30 72//30 67//30

# Mesh 'mesh4_mesh4-geometry' with 8 faces
g mesh4_mesh4-geometry
usemtl material_0_24
f  73//10 74//18 75//18
f  74//18 73//10 76//10
f  74//18 77//13 75//18
f  73//10 78//11 76//10
f  77//13 74//18 79//13
f  78//11 73//10 80//11
f  78//11 77//13 79//13
f  77//13 78//11 80//11

# Mesh 'mesh4_mesh4-geometry' with 8 faces
g mesh4_mesh4-geometry
usemtl material_1_24
f  75//11 74//11 73//13
f  76//13 73//13 74//11
f  75//11 77//10 74//11
f  76//13 78//18 73//13
f  79//10 74//11 77//10
f  80//18 73//13 78//18
f  79//10 77//10 78//18
f  80//18 78//18 77//10

# Mesh 'mesh5_mesh5-geometry' with 8 faces
g mesh5_mesh5-geometry
usemtl material_0_24
f  81//10 82//18 83//18
f  82//18 81//10 84//10
f  82//18 85//13 83//18
f  81//10 86//11 84//10
f  85//13 82//18 87//13
f  86//11 81//10 88//11
f  86//11 85//13 87//13
f  85//13 86//11 88//11

# Mesh 'mesh5_mesh5-geometry' with 8 faces
g mesh5_mesh5-geometry
usemtl material_1_24
f  83//11 82//11 81//13
f  84//13 81//13 82//11
f  83//11 85//10 82//11
f  84//13 86//18 81//13
f  87//10 82//11 85//10
f  88//18 81//13 86//18
f  87//10 85//10 86//18
f  88//18 86//18 85//10

# Mesh 'mesh6_mesh6-geometry' with 3 faces
g mesh6_mesh6-geometry
usemtl material_1_0
l  64 65
l  65 66
l  66 61

# Mesh 'mesh7_mesh7-geometry' with 1 faces
g mesh7_mesh7-geometry
usemtl material_1_0
l  52 60

# Mesh 'mesh8_mesh8-geometry' with 8 faces
g mesh8_mesh8-geometry
usemtl material_2_24
f  89//21 90//21 91//21
f  90//21 89//21 92//21
f  93//21 91//21 90//21
f  90//21 92//21 94//21
f  91//21 93//21 95//21
f  94//21 92//21 96//21
f  95//21 93//21 96//21
f  95//21 96//21 92//21

# Mesh 'mesh8_mesh8-geometry' with 42 faces
g mesh8_mesh8-geometry
usemtl material_0_24
f  91//22 90//22 89//22
f  92//22 89//22 90//22
f  90//22 91//22 93//22
f  91//31 97//31 89//31
f  89//32 97//32 91//32
f  97//33 92//33 89//33
f  89//34 92//34 97//34
f  94//22 92//22 90//22
f  95//22 93//22 91//22
f  90//31 98//31 93//31
f  93//32 98//32 90//32
f  97//31 91//31 99//31
f  99//32 91//32 97//32
f  92//33 97//33 100//33
f  100//34 97//34 92//34
f  96//22 92//22 94//22
f  101//33 90//33 94//33
f  94//34 90//34 101//34
f  96//22 93//22 95//22
f  102//34 91//34 95//34
f  95//33 91//33 102//33
f  98//31 90//31 103//31
f  103//32 90//32 98//32
f  98//34 96//34 93//34
f  93//33 96//33 98//33
f  91//34 102//34 99//34
f  99//33 102//33 91//33
f  99//21 97//21 102//21
f  100//21 102//21 97//21
f  102//32 92//32 100//32
f  100//31 92//31 102//31
f  92//22 96//22 95//22
f  96//32 101//32 94//32
f  94//31 101//31 96//31
f  90//33 101//33 103//33
f  103//34 101//34 90//34
f  92//32 102//32 95//32
f  95//31 102//31 92//31
f  96//34 98//34 104//34
f  104//33 98//33 96//33
f  101//32 96//32 104//32
f  104//31 96//31 101//31

# Mesh 'mesh8_mesh8-geometry' with 2 faces
g mesh8_mesh8-geometry
usemtl material_3_24
f  102//22 97//22 99//22
f  97//22 102//22 100//22

