# File produced by Open Asset Import Library (http://www.assimp.sf.net)
# (assimp v3.2.202087883)

mtllib model_normalized.mtl

# 129 vertex positions
v 0.335494 -0.219040 0.306378
v 0.184049 -0.204735 0.306378
v 0.177154 -0.219040 0.306378
v 0.335494 0.180855 0.306378
v 0.177154 -0.204735 0.306378
v 0.335494 -0.204735 0.153987
v 0.184049 -0.088040 0.306378
v 0.177154 -0.204735 0.286508
v 0.335494 -0.219040 0.147093
v 0.335494 -0.088040 0.153987
v -0.298823 -0.088040 0.306378
v 0.184049 -0.088040 0.286508
v 0.177154 -0.204735 0.279613
v 0.184049 -0.204735 0.286508
v 0.177154 -0.219040 0.279613
v 0.309875 -0.204735 0.279613
v 0.309875 -0.219040 0.279613
v 0.335494 -0.204735 0.147093
v 0.335494 -0.088040 -0.327939
v 0.316770 -0.088040 0.153987
v -0.298823 0.157847 0.306378
v 0.309875 -0.204735 0.147093
v 0.309875 -0.219040 0.147093
v 0.316770 -0.204735 0.147093
v 0.335494 0.156621 -0.327939
v 0.316770 -0.204735 0.153987
v -0.312612 0.157847 0.306378
v -0.298823 0.157847 0.286508
v -0.268985 -0.088040 0.286508
v 0.309875 -0.204735 0.286508
v 0.335494 0.156621 -0.341729
v 0.316770 0.156683 -0.327939
v 0.316770 -0.088040 -0.327939
v 0.316770 -0.204735 0.286508
v -0.312612 0.180855 0.306378
v -0.298823 -0.088040 0.286508
v -0.292139 -0.088040 0.286508
v 0.316770 0.156683 0.286508
v 0.335494 0.180855 -0.341729
v 0.316770 -0.088040 -0.286245
v -0.268985 -0.204735 0.286508
v -0.036822 0.156683 0.286508
v 0.316770 0.156683 -0.341729
v 0.316770 -0.088040 -0.316104
v 0.316770 0.156683 -0.286245
v -0.292139 0.157847 0.286508
v -0.292139 -0.204735 0.286508
v -0.268985 0.157847 0.286508
v -0.036822 0.157847 -0.341729
v 0.316770 0.156683 -0.316104
v 0.093440 0.156683 -0.286245
v 0.316770 -0.204735 -0.286245
v -0.032636 0.180855 -0.337386
v 0.331151 0.180855 0.302034
v 0.331151 0.180855 -0.337386
v -0.067414 0.180855 -0.199925
v -0.308269 0.180855 0.302034
v -0.292139 0.157847 0.076191
v -0.268985 -0.204735 0.076191
v -0.036822 0.157847 0.286508
v -0.036822 0.180855 -0.341729
v 0.093440 0.156683 -0.316104
v 0.093440 -0.204735 -0.286245
v 0.316770 -0.204735 -0.316104
v -0.033852 0.180855 -0.304921
v -0.051486 0.180855 -0.233259
v -0.087718 0.180855 -0.168980
v -0.292139 -0.204735 0.076191
v -0.299034 -0.204735 0.062401
v -0.292139 -0.204735 0.300297
v -0.268985 0.157847 0.076191
v -0.268985 -0.204735 0.300297
v 0.079650 -0.204735 -0.279350
v -0.040231 0.180855 -0.268492
v -0.112029 0.180855 -0.141130
v -0.275793 0.180855 -0.062953
v -0.308269 0.180855 -0.061759
v -0.262090 -0.204735 0.300297
v -0.299034 -0.204735 0.300297
v 0.093440 -0.204735 -0.316104
v 0.079650 -0.204735 -0.322999
v 0.330559 -0.204735 -0.316104
v 0.330559 -0.204735 -0.279350
v -0.139890 0.180855 -0.116808
v -0.239376 0.180855 -0.069359
v -0.262090 -0.204735 0.062401
v -0.299034 -0.219040 0.300297
v 0.330559 -0.204735 -0.286245
v 0.330559 -0.204735 -0.322999
v 0.079650 -0.219040 -0.279350
v -0.170786 0.180855 -0.096504
v -0.204158 0.180855 -0.080597
v -0.262090 -0.219040 0.062401
v -0.262090 -0.219040 0.300297
v -0.299034 -0.219040 0.062401
v 0.330559 -0.219040 -0.322999
v 0.330559 -0.219040 -0.279350
v 0.079650 -0.219040 -0.322999
v -0.312612 0.157847 0.286508
v -0.312612 0.180855 -0.065939
v -0.312612 0.157847 -0.065939
v -0.276254 0.157847 -0.067296
v -0.038179 0.157847 -0.305355
v -0.055530 0.180855 -0.234887
v -0.071204 0.180855 -0.202042
v -0.276254 0.180855 -0.067296
v -0.038179 0.180855 -0.305355
v -0.044455 0.180855 -0.269524
v -0.091187 0.180855 -0.171640
v -0.240418 0.157847 -0.073539
v -0.044455 0.157847 -0.269524
v -0.055530 0.157847 -0.234887
v -0.071204 0.157847 -0.202042
v -0.091187 0.157847 -0.171640
v -0.115107 0.180855 -0.144224
v -0.240418 0.180855 -0.073539
v -0.115107 0.157847 -0.144224
v -0.142523 0.180855 -0.120282
v -0.205760 0.180855 -0.084669
v -0.205760 0.157847 -0.084669
v -0.172925 0.180855 -0.100304
v -0.142523 0.157847 -0.120282
v -0.172925 0.157847 -0.100304
v -0.289490 -0.075377 0.306378
v -0.252085 -0.075377 0.306378
v -0.289490 -0.054996 0.306378
v -0.252085 -0.054996 0.306378
v 0.316770 0.156683 0.306378
v -0.036822 0.156683 0.306378

# 4 UV coordinates
vt 0 0 0
vt 1 0 0
vt 0 1 0
vt 1 1 0

# 34 vertex normals
vn 0 0 0.0254
vn 0 -0 -0.0254
vn 0.0254 0 0
vn -0.0254 0 0
vn 0 0.0254 0
vn -0 -0.0254 0
vn -8.36422e-05 -0.0253999 0
vn 8.36422e-05 0.0253999 0
vn 0.000948741 0 0.0253823
vn 0.00267132 0 0.0252591
vn 0.0253823 0 0.000948741
vn 0.0252591 0 0.00267132
vn 0.00607146 0 0.0246637
vn 0.0246637 0 0.00607146
vn 0.0236127 0 0.00935949
vn 0.0221256 0 0.0124747
vn 0.0202299 0 0.0153594
vn 0.0179605 0 0.0179605
vn 0.00935949 0 0.0236127
vn 0.0153594 0 0.0202299
vn 0.0124747 0 0.0221256
vn -0.000948741 0 -0.0253823
vn -0.00267132 0 -0.0252591
vn -0.0252591 0 -0.00267132
vn -0.0253823 0 -0.000948741
vn -0.00607146 0 -0.0246637
vn -0.0246637 0 -0.00607146
vn -0.0236127 0 -0.00935949
vn -0.0221256 0 -0.0124747
vn -0.0202299 0 -0.0153594
vn -0.0179605 0 -0.0179605
vn -0.00935949 0 -0.0236127
vn -0.0153594 0 -0.0202299
vn -0.0124747 0 -0.0221256

# Mesh 'mesh1_mesh1-geometry' with 167 faces
g mesh1_mesh1-geometry
usemtl material_0_24
f  1//1 2//1 3//1
f  2//1 1//1 4//1
f  3//2 2//2 1//2
f  4//2 1//2 2//2
f  5//1 3//1 2//1
f  2//2 3//2 5//2
f  1//3 6//3 4//3
f  4//4 6//4 1//4
f  2//1 4//1 7//1
f  7//2 4//2 2//2
f  8//4 3//4 5//4
f  2//5 8//5 5//5
f  9//3 6//3 1//3
f  1//4 6//4 9//4
f  10//3 4//3 6//3
f  6//4 4//4 10//4
f  7//1 4//1 11//1
f  11//2 4//2 7//2
f  12//4 2//4 7//4
f  13//4 3//4 8//4
f  8//5 2//5 14//5
f  3//4 13//4 15//4
f  15//2 16//2 17//2
f  6//3 9//3 18//3
f  18//4 9//4 6//4
f  19//3 4//3 10//3
f  10//4 4//4 19//4
f  6//2 20//2 10//2
f  11//1 4//1 21//1
f  21//2 4//2 11//2
f  11//6 12//6 7//6
f  2//4 12//4 14//4
f  14//5 13//5 8//5
f  22//2 9//2 23//2
f  17//4 22//4 23//4
f  16//2 15//2 13//2
f  22//4 17//4 16//4
f  9//2 22//2 18//2
f  24//5 6//5 18//5
f  25//3 4//3 19//3
f  19//4 4//4 25//4
f  20//6 19//6 10//6
f  20//2 6//2 26//2
f  21//1 4//1 27//1
f  27//2 4//2 21//2
f  28//4 11//4 21//4
f  12//6 11//6 29//6
f  12//2 30//2 14//2
f  30//5 13//5 14//5
f  13//5 30//5 16//5
f  30//5 22//5 16//5
f  18//2 22//2 24//2
f  6//5 24//5 26//5
f  31//3 4//3 25//3
f  25//4 4//4 31//4
f  19//2 32//2 25//2
f  19//6 20//6 33//6
f  34//4 20//4 26//4
f  27//1 4//1 35//1
f  35//2 4//2 27//2
f  11//4 28//4 36//4
f  29//6 11//6 37//6
f  38//2 12//2 29//2
f  30//2 12//2 34//2
f  34//5 22//5 30//5
f  22//5 26//5 24//5
f  4//3 31//3 39//3
f  39//4 31//4 4//4
f  32//2 19//2 33//2
f  33//6 20//6 40//6
f  38//4 20//4 34//4
f  26//5 22//5 34//5
f  28//2 37//2 36//2
f  37//6 11//6 36//6
f  29//1 37//1 41//1
f  34//2 12//2 38//2
f  38//2 29//2 42//2
f  31//1 39//1 43//1
f  44//4 32//4 33//4
f  20//4 45//4 40//4
f  33//6 40//6 44//6
f  45//4 20//4 38//4
f  37//2 28//2 46//2
f  46//4 47//4 37//4
f  47//1 41//1 37//1
f  41//3 48//3 29//3
f  48//2 42//2 29//2
f  49//1 43//1 39//1
f  32//4 44//4 50//4
f  51//1 40//1 45//1
f  40//3 52//3 44//3
f  53//5 54//5 55//5
f  55//6 54//6 53//6
f  54//5 56//5 57//5
f  57//6 56//6 54//6
f  58//4 47//4 46//4
f  59//3 48//3 41//3
f  42//2 48//2 60//2
f  61//1 49//1 39//1
f  44//2 62//2 50//2
f  63//1 40//1 51//1
f  64//3 44//3 52//3
f  40//1 63//1 52//1
f  54//5 53//5 65//5
f  65//6 53//6 54//6
f  54//5 66//5 56//5
f  56//6 66//6 54//6
f  57//5 56//5 67//5
f  67//6 56//6 57//6
f  47//4 58//4 68//4
f  68//5 69//5 47//5
f  47//5 69//5 70//5
f  48//3 59//3 71//3
f  72//5 59//5 41//5
f  64//2 62//2 44//2
f  62//4 63//4 51//4
f  73//5 52//5 63//5
f  54//5 65//5 74//5
f  74//6 65//6 54//6
f  54//5 74//5 66//5
f  66//6 74//6 54//6
f  57//5 67//5 75//5
f  75//6 67//6 57//6
f  57//5 76//5 77//5
f  77//6 76//6 57//6
f  59//2 58//2 71//2
f  58//2 59//2 68//2
f  59//5 69//5 68//5
f  72//1 70//1 78//1
f  70//5 69//5 79//5
f  59//5 72//5 78//5
f  62//2 64//2 80//2
f  63//4 62//4 80//4
f  64//5 81//5 80//5
f  82//5 81//5 64//5
f  83//5 52//5 73//5
f  73//5 63//5 81//5
f  80//5 81//5 63//5
f  57//5 75//5 84//5
f  84//6 75//6 57//6
f  57//5 85//5 76//5
f  76//6 85//6 57//6
f  59//5 86//5 69//5
f  70//1 79//1 78//1
f  69//4 87//4 79//4
f  86//5 59//5 78//5
f  52//5 83//5 88//5
f  81//5 82//5 89//5
f  90//1 83//1 73//1
f  81//4 90//4 73//4
f  57//5 84//5 91//5
f  91//6 84//6 57//6
f  57//5 92//5 85//5
f  85//6 92//6 57//6
f  93//2 69//2 86//2
f  78//1 79//1 94//1
f  87//4 69//4 95//4
f  87//1 94//1 79//1
f  78//3 93//3 86//3
f  96//2 81//2 89//2
f  83//1 90//1 97//1
f  90//4 81//4 98//4
f  57//5 91//5 92//5
f  92//6 91//6 57//6
f  69//2 93//2 95//2
f  93//3 78//3 94//3
f  81//2 96//2 98//2

# Mesh 'mesh1_mesh1-geometry' with 8 faces
g mesh1_mesh1-geometry
usemtl material_3_24
f  17//6 1//6 3//6
f  1//6 17//6 9//6
f  17//6 3//6 15//6
f  23//6 9//6 17//6
f  93//6 87//6 95//6
f  87//6 93//6 94//6
f  90//6 96//6 97//6
f  96//6 90//6 98//6

# Mesh 'mesh1_mesh1-geometry' with 219 faces
g mesh1_mesh1-geometry
usemtl material_2_24
f  3//5 1//5 17//5
f  5//3 3//3 8//3
f  5//6 8//6 2//6
f  9//5 17//5 1//5
f  15//5 3//5 17//5
f  7//3 2//3 12//3
f  8//3 3//3 13//3
f  14//6 2//6 8//6
f  17//5 9//5 23//5
f  15//3 13//3 3//3
f  17//1 16//1 15//1
f  10//1 20//1 6//1
f  7//5 12//5 11//5
f  14//3 12//3 2//3
f  8//6 13//6 14//6
f  23//1 9//1 22//1
f  23//3 22//3 17//3
f  13//1 15//1 16//1
f  16//3 17//3 22//3
f  18//1 22//1 9//1
f  18//6 6//6 24//6
f  10//5 19//5 20//5
f  26//1 6//1 20//1
f  21//3 11//3 28//3
f  29//5 11//5 12//5
f  14//1 30//1 12//1
f  14//6 13//6 30//6
f  16//6 30//6 13//6
f  16//6 22//6 30//6
f  24//1 22//1 18//1
f  26//6 24//6 6//6
f  25//1 32//1 19//1
f  33//5 20//5 19//5
f  26//3 20//3 34//3
f  27//6 28//6 21//6
f  21//5 28//5 27//5
f  36//3 28//3 11//3
f  37//5 11//5 29//5
f  29//1 12//1 38//1
f  34//1 12//1 30//1
f  30//6 22//6 34//6
f  24//6 26//6 22//6
f  32//7 31//7 25//7
f  25//8 31//8 32//8
f  33//1 19//1 32//1
f  40//5 20//5 33//5
f  34//3 20//3 38//3
f  34//6 22//6 26//6
f  35//6 54//6 4//6
f  27//3 99//3 35//3
f  28//6 27//6 99//6
f  99//5 27//5 28//5
f  36//1 37//1 28//1
f  36//5 11//5 37//5
f  46//2 29//2 37//2
f  37//1 29//1 46//1
f  41//2 37//2 29//2
f  38//1 12//1 34//1
f  42//1 29//1 38//1
f  4//6 55//6 39//6
f  31//7 32//7 43//7
f  43//8 32//8 31//8
f  33//3 32//3 44//3
f  40//3 45//3 20//3
f  44//5 40//5 33//5
f  38//3 20//3 45//3
f  55//6 4//6 54//6
f  57//6 54//6 35//6
f  35//3 99//3 100//3
f  46//1 28//1 37//1
f  29//2 46//2 48//2
f  48//1 46//1 29//1
f  37//3 47//3 46//3
f  37//2 41//2 47//2
f  29//4 48//4 41//4
f  29//1 42//1 48//1
f  61//6 39//6 55//6
f  50//3 44//3 32//3
f  45//2 40//2 51//2
f  50//4 40//4 45//4
f  45//3 40//3 50//3
f  40//4 50//4 44//4
f  44//3 50//3 40//3
f  44//4 52//4 40//4
f  100//6 57//6 35//6
f  101//3 100//3 99//3
f  48//5 58//5 46//5
f  46//6 58//6 48//6
f  46//3 47//3 58//3
f  41//5 68//5 47//5
f  47//6 68//6 41//6
f  41//6 70//6 47//6
f  47//5 70//5 41//5
f  41//4 48//4 59//4
f  60//1 48//1 42//1
f  53//6 61//6 55//6
f  50//1 62//1 44//1
f  51//2 40//2 63//2
f  45//5 62//5 51//5
f  51//6 62//6 45//6
f  62//5 45//5 50//5
f  50//6 45//6 62//6
f  52//4 44//4 64//4
f  52//2 63//2 40//2
f  57//6 100//6 77//6
f  101//9 102//10 100//9
f  58//5 48//5 71//5
f  71//6 48//6 58//6
f  68//3 58//3 47//3
f  68//5 41//5 59//5
f  59//6 41//6 68//6
f  47//6 69//6 68//6
f  70//6 41//6 72//6
f  72//5 41//5 70//5
f  70//6 69//6 47//6
f  71//4 59//4 48//4
f  41//6 59//6 72//6
f  49//11 61//11 103//12
f  65//6 61//6 53//6
f  44//1 62//1 64//1
f  51//3 63//3 62//3
f  80//5 52//5 64//5
f  64//6 52//6 80//6
f  82//6 52//6 64//6
f  64//5 52//5 82//5
f  63//6 52//6 73//6
f  52//5 80//5 63//5
f  63//6 80//6 52//6
f  56//6 104//6 66//6
f  67//6 105//6 56//6
f  100//6 106//6 77//6
f  106//10 100//9 102//10
f  71//1 58//1 59//1
f  68//1 59//1 58//1
f  68//6 69//6 59//6
f  78//2 70//2 72//2
f  79//6 69//6 70//6
f  78//6 72//6 59//6
f  107//12 103//12 61//11
f  107//6 61//6 65//6
f  80//1 64//1 62//1
f  80//3 62//3 63//3
f  80//6 81//6 64//6
f  52//6 82//6 88//6
f  88//5 82//5 52//5
f  64//6 81//6 82//6
f  73//6 52//6 83//6
f  81//6 63//6 73//6
f  63//6 81//6 80//6
f  74//6 107//6 65//6
f  66//6 108//6 74//6
f  104//6 108//6 66//6
f  105//6 104//6 56//6
f  109//6 105//6 67//6
f  75//6 109//6 67//6
f  77//6 106//6 76//6
f  102//10 110//13 106//10
f  69//6 86//6 59//6
f  78//2 79//2 70//2
f  79//3 87//3 69//3
f  78//6 59//6 86//6
f  103//12 107//12 111//14
f  82//4 97//4 88//4
f  88//3 97//3 82//3
f  88//6 83//6 52//6
f  89//6 82//6 81//6
f  73//2 83//2 90//2
f  73//3 90//3 81//3
f  108//6 107//6 74//6
f  104//15 112//15 108//14
f  105//16 113//16 104//15
f  109//17 114//17 105//16
f  115//6 109//6 75//6
f  84//6 115//6 75//6
f  106//6 116//6 76//6
f  76//6 116//6 85//6
f  116//13 106//10 110//13
f  86//1 69//1 93//1
f  94//2 79//2 78//2
f  95//3 69//3 87//3
f  79//2 94//2 87//2
f  86//4 93//4 78//4
f  108//14 111//14 107//12
f  89//4 97//4 82//4
f  82//3 97//3 89//3
f  88//4 97//4 83//4
f  83//3 97//3 88//3
f  89//1 81//1 96//1
f  97//2 90//2 83//2
f  98//3 81//3 90//3
f  111//14 108//14 112//15
f  112//15 104//15 113//16
f  113//16 105//16 114//17
f  114//17 109//17 117//18
f  115//18 117//18 109//17
f  118//6 115//6 84//6
f  91//6 118//6 84//6
f  85//6 119//6 92//6
f  116//6 119//6 85//6
f  110//13 120//19 116//13
f  95//1 93//1 69//1
f  94//4 78//4 93//4
f  95//5 87//5 93//5
f  94//5 93//5 87//5
f  97//4 89//4 96//4
f  96//3 89//3 97//3
f  98//1 96//1 81//1
f  97//5 96//5 90//5
f  98//5 90//5 96//5
f  115//18 118//20 117//18
f  121//6 118//6 91//6
f  92//6 121//6 91//6
f  119//6 121//6 92//6
f  119//19 116//13 120//19
f  122//20 117//18 118//20
f  118//20 121//21 122//20
f  121//21 119//19 123//21
f  120//19 123//21 119//19
f  123//21 122//20 121//21

# Mesh 'mesh1_mesh1-geometry' with 62 faces
g mesh1_mesh1-geometry
usemtl material_1_24
f  4//5 54//5 35//5
f  35//4 99//4 27//4
f  43//2 39//2 31//2
f  39//5 55//5 4//5
f  54//5 4//5 55//5
f  35//5 54//5 57//5
f  100//4 99//4 35//4
f  39//2 43//2 49//2
f  55//5 39//5 61//5
f  35//5 57//5 100//5
f  99//4 100//4 101//4
f  39//2 49//2 61//2
f  55//5 61//5 53//5
f  77//5 100//5 57//5
f  100//22 102//23 101//22
f  103//24 61//25 49//25
f  53//5 61//5 65//5
f  66//5 104//5 56//5
f  56//5 105//5 67//5
f  77//5 106//5 100//5
f  102//23 100//22 106//23
f  61//25 103//24 107//24
f  65//5 61//5 107//5
f  65//5 107//5 74//5
f  74//5 108//5 66//5
f  66//5 108//5 104//5
f  56//5 104//5 105//5
f  67//5 105//5 109//5
f  67//5 109//5 75//5
f  76//5 106//5 77//5
f  106//23 110//26 102//23
f  111//27 107//24 103//24
f  74//5 107//5 108//5
f  108//27 112//28 104//28
f  104//28 113//29 105//29
f  105//29 114//30 109//30
f  75//5 109//5 115//5
f  75//5 115//5 84//5
f  76//5 116//5 106//5
f  85//5 116//5 76//5
f  110//26 106//23 116//26
f  107//24 111//27 108//27
f  112//28 108//27 111//27
f  113//29 104//28 112//28
f  114//30 105//29 113//29
f  117//31 109//30 114//30
f  109//30 117//31 115//31
f  84//5 115//5 118//5
f  84//5 118//5 91//5
f  92//5 119//5 85//5
f  85//5 119//5 116//5
f  116//26 120//32 110//26
f  117//31 118//33 115//31
f  91//5 118//5 121//5
f  91//5 121//5 92//5
f  92//5 121//5 119//5
f  120//32 116//26 119//32
f  118//33 117//31 122//33
f  122//33 121//34 118//33
f  123//34 119//32 121//34
f  119//32 123//34 120//32
f  121//34 122//33 123//34

# Mesh 'mesh2_mesh2-geometry' with 4 faces
g mesh2_mesh2-geometry
usemtl material_2_1_0
f  124/1/1 125/2/1 126/3/1
f  124/1/2 126/3/2 125/2/2
f  127/4/1 126/3/1 125/2/1
f  127/4/2 125/2/2 126/3/2

# Mesh 'mesh3_mesh3-geometry' with 1 faces
g mesh3_mesh3-geometry
usemtl material_2_0
l  28 21

# Mesh 'mesh4_mesh4-geometry' with 1 faces
g mesh4_mesh4-geometry
usemtl material_2_0
l  38 128

# Mesh 'mesh5_mesh5-geometry' with 1 faces
g mesh5_mesh5-geometry
usemtl material_2_0
l  42 129

# Mesh 'mesh6_mesh6-geometry' with 3 faces
g mesh6_mesh6-geometry
usemtl material_2_0
l  50 45
l  50 62
l  62 51

# Mesh 'mesh7_mesh7-geometry' with 3 faces
g mesh7_mesh7-geometry
usemtl material_2_0
l  48 71
l  46 48
l  46 58

# Mesh 'mesh8_mesh8-geometry' with 1 faces
g mesh8_mesh8-geometry
usemtl material_2_0
l  70 72

# Mesh 'mesh9_mesh9-geometry' with 1 faces
g mesh9_mesh9-geometry
usemtl material_2_0
l  88 82

