# File produced by Open Asset Import Library (http://www.assimp.sf.net)
# (assimp v3.2.202087883)

mtllib model_normalized.mtl

# 84 vertex positions
v -0.351720 -0.199952 0.211032
v -0.407995 -0.199952 0.196963
v -0.351720 -0.199952 0.196963
v -0.422064 -0.199952 0.211032
v -0.407995 -0.094435 0.196963
v -0.351720 0.067356 0.196963
v -0.422064 -0.199952 0.140688
v -0.422064 0.123631 0.211032
v -0.408005 -0.108504 0.196963
v -0.351720 0.123631 0.196963
v -0.351720 0.067356 0.211032
v -0.407995 -0.199952 0.140688
v -0.351720 0.123631 0.211032
v -0.407995 0.067356 0.140688
v 0.407989 -0.109063 0.196963
v -0.408005 -0.108504 -0.196963
v -0.407995 0.123631 0.196963
v 0.351721 0.067356 0.211032
v 0.351721 0.123631 0.196963
v -0.422064 0.067356 0.140688
v 0.407996 -0.094994 0.196963
v 0.407989 -0.109063 -0.196963
v -0.407995 -0.094435 -0.196963
v 0.407996 0.123631 0.196963
v 0.351721 0.067356 0.196963
v -0.422064 0.123631 0.140688
v -0.407995 0.123631 0.140688
v 0.407996 0.067356 0.140688
v 0.407996 -0.094994 -0.196963
v -0.407995 -0.199952 -0.196963
v -0.407995 0.067356 -0.140688
v 0.407996 0.123631 0.140688
v 0.351721 -0.199952 0.196963
v 0.351721 0.123631 0.211032
v -0.422064 0.067356 -0.140688
v -0.407995 0.123631 -0.140688
v 0.407996 -0.199952 0.140688
v 0.407996 0.067356 -0.140688
v 0.407996 0.123631 -0.196963
v -0.351720 -0.199952 -0.196963
v -0.407995 -0.199952 -0.140688
v -0.407995 0.123631 -0.196963
v 0.422065 0.123631 0.140688
v 0.422065 -0.199952 0.211032
v 0.351721 -0.199952 0.211032
v 0.422065 0.123631 0.211032
v -0.422064 0.123631 -0.140688
v 0.407996 0.123631 -0.140688
v 0.407996 -0.199952 0.196963
v 0.422065 0.067356 0.140688
v 0.407996 -0.199952 -0.196963
v 0.351721 0.123631 -0.196963
v -0.422064 -0.199952 -0.211032
v -0.422064 -0.199952 -0.140688
v 0.422065 0.123631 -0.140688
v -0.422064 0.123631 -0.211032
v 0.422065 -0.199952 0.140688
v 0.407996 -0.199952 -0.140688
v 0.422065 0.123631 -0.211032
v -0.351720 -0.199952 -0.211032
v -0.351720 0.123631 -0.196963
v 0.422065 0.067356 -0.140688
v 0.422065 -0.199952 -0.140688
v 0.351721 0.067356 -0.196963
v 0.351721 0.123631 -0.211032
v -0.351720 0.123631 -0.211032
v -0.351720 0.067356 -0.211032
v -0.351720 0.067356 -0.196963
v 0.422065 -0.199952 -0.211032
v 0.351721 -0.199952 -0.196963
v 0.351721 0.067356 -0.211032
v 0.351721 -0.199952 -0.211032
v -0.407995 0.130666 0.196963
v -0.351720 0.130666 0.196963
v 0.351721 0.130666 0.196963
v 0.407996 0.130666 0.140688
v 0.407996 0.130666 0.196963
v -0.407995 0.130666 0.140688
v 0.407996 0.130666 -0.140688
v -0.407995 0.130666 -0.140688
v 0.407996 0.130666 -0.196963
v 0.351721 0.130666 -0.196963
v -0.351720 0.130666 -0.196963
v -0.407995 0.130666 -0.196963

# 174 UV coordinates
vt -0.984252 0.164042 0
vt -0.951444 0.032808 0
vt -0.951444 0.164042 0
vt -0.984252 0 0
vt -0.032808 0 0
vt -0.032808 0.246063 0
vt -0.164042 0 0
vt -0.951444 0.62336 0
vt -0.951444 0 0
vt -0.82021 0 0
vt 0.164042 0 0
vt 0 0.754593 0
vt 0 0 0
vt -0.032786 0.213255 0
vt -0.164042 0.754593 0
vt -0.984252 0.62336 0
vt -0.164042 0.62336 0
vt -0.82021 0.032808 0
vt 0.984252 0.754593 0
vt 0.82021 0 0
vt 0.984252 0 0
vt 0.164042 0.754593 0
vt -0.951442 0 0
vt -0.820209 0.62336 0
vt -0.951442 0.213255 0
vt -0.951442 0.246063 0
vt 1.93567 0.211952 0
vt 0.032808 0.246063 0
vt 0.032786 0.213255 0
vt 0.951444 0.246085 0
vt 0.032808 0.213277 0
vt 0.951444 0.213277 0
vt -0.032808 0.754593 0
vt -0.984252 1.80446 0
vt 0.164042 0.62336 0
vt -1.80446 0.754593 0
vt -0.032808 0.62336 0
vt -0.820209 0 0
vt 0.82021 0.62336 0
vt 0.951444 0.164042 0
vt 0.984252 0.164042 0
vt -0.951442 0.754593 0
vt 1.9357 0.24476 0
vt -0.951444 0.03264 0
vt -0.032808 1.93553 0
vt -0.951444 1.93553 0
vt 0.032808 0.246085 0
vt -0.032808 0.03264 0
vt 0.951444 0.032808 0
vt 0.951444 1.9357 0
vt -0.951444 1.80446 0
vt 1.80446 0.62336 0
vt -1.80446 0.62336 0
vt 0.951444 1.80446 0
vt 0 0.62336 0
vt 0.82021 0.754593 0
vt -0.820209 0.754593 0
vt 0.820131 0.623366 0
vt 0.951365 0.211958 0
vt 0.951365 0.244767 0
vt -1.93567 0.211952 0
vt -1.9357 0.754593 0
vt -1.9357 0.24476 0
vt -0.951444 0.213277 0
vt -0.032808 0.246085 0
vt -0.951444 0.246085 0
vt 0.032808 1.93553 0
vt 0.951444 0.03264 0
vt 0.951444 1.93553 0
vt -0.032808 0.213277 0
vt 0.032808 0.03264 0
vt 0.032808 0 0
vt -0.164043 0.62336 0
vt -0.03281 0.213255 0
vt -0.03281 0.246063 0
vt 0.82021 1.9357 0
vt 0.82021 0.032808 0
vt 0.951444 0 0
vt 0.984252 0.62336 0
vt 0.951444 0.62336 0
vt 1.80446 0.754593 0
vt 0.984252 1.80446 0
vt -0.82021 0.62336 0
vt -0.82021 0.754593 0
vt 0.820131 7e-06 0
vt 0.951365 0.7546 0
vt -1.80446 0 0
vt 0.032887 0.211958 0
vt 0.164121 0.623366 0
vt 0.032887 0.244767 0
vt 1.9357 0.754593 0
vt -0.164043 0 0
vt -0.03281 0 0
vt -0.03281 0.754593 0
vt 0.820131 0.7546 0
vt 0.82021 1.9685 0
vt 1.9685 0 0
vt 0.984252 1.9685 0
vt -0.164042 0.032808 0
vt 0.164042 0.032808 0
vt 0.164042 1.9357 0
vt 0.951365 7e-06 0
vt -1.9685 0.62336 0
vt -1.9357 0 0
vt -1.9357 0.62336 0
vt 0.032887 7e-06 0
vt 0.032887 0.7546 0
vt -0.032808 0.164042 0
vt -0.032808 0.032808 0
vt 0.032808 0.754593 0
vt 0.032808 0.62336 0
vt -0.164043 0.754593 0
vt 0.164042 1.9685 0
vt 1.80446 0 0
vt 1.9685 0.754593 0
vt -0.984252 1.9685 0
vt 0.032808 1.9357 0
vt -0.82021 1.9357 0
vt -0.951444 1.9357 0
vt -1.9685 0 0
vt -0.164042 1.9357 0
vt -0.82021 1.9685 0
vt 0.164121 7e-06 0
vt 1.9357 -0 0
vt 0.164121 0.7546 0
vt 0.032808 1.80446 0
vt 0 1.9685 0
vt 0 0.164042 0
vt 0.032808 0.032808 0
vt -0.984252 0.754593 0
vt -0.164042 1.9685 0
vt -0.032808 1.9357 0
vt 1.9357 0.62336 0
vt 0 1.80446 0
vt 0.032808 0.164042 0
vt 1.9685 0.62336 0
vt -1.9685 0.754593 0
vt -0.032808 1.80446 0
vt 0.054681 0.251531 0
vt 0.010936 0.256999 0
vt 0.010936 0.251531 0
vt 0.601487 0.251531 0
vt 0.054681 0.256999 0
vt 0.317148 0.256999 0
vt 0.273403 0.251531 0
vt 0.317148 0.251531 0
vt 0.645232 0.251531 0
vt 0.601487 0.256999 0
vt -0.273403 0.256999 0
vt -0.317148 0.251531 0
vt -0.273403 0.251531 0
vt 0.317148 0.645232 0
vt 0.317148 0.010936 0
vt 0.317148 0.054681 0
vt 0.273403 0.256999 0
vt 0.645232 0.256999 0
vt 0.317148 0.601487 0
vt -0.317148 0.256999 0
vt -0.054681 0.256999 0
vt 0.273403 0.645232 0
vt 0.273403 0.010936 0
vt -0.054681 0.251531 0
vt -0.601487 0.251531 0
vt -0.645232 0.256999 0
vt -0.645232 0.251531 0
vt 0.054681 0.645232 0
vt -0.010936 0.256999 0
vt -0.010936 0.251531 0
vt 0.054681 0.010936 0
vt -0.601487 0.256999 0
vt 0.010936 0.645232 0
vt 0.010936 0.601487 0
vt 0.010936 0.010936 0
vt 0.010936 0.054681 0

# 62 vertex normals
vn 0.0146647 -0.0146647 0.0146647
vn 0.0146649 -0.0146649 -0.0146643
vn 0.0146647 -0.0146647 -0.0146647
vn -0.0146647 -0.0146647 0.0146647
vn 0.0179609 -5.08e-08 -0.0179601
vn 0.0179605 0 -0.0179605
vn -0.0146647 -0.0146647 -0.0146647
vn -0.0146647 0.0146647 0.0146647
vn 0 0 -0.0254
vn 0.0179605 0 0.0179605
vn 0 0.0179605 0.0179605
vn 0.0146547 -0.0146747 0.0146647
vn -0.0146547 0.0146747 0.0146647
vn -0.0146747 -0.0146547 0.0146647
vn -0.0146747 -0.0146547 -0.0146647
vn 0 -0.0254 0
vn 0 -0.0179605 0.0179605
vn -0.0179605 0 -0.0179605
vn 0 0.0254 0
vn 0.0146747 0.0146547 0.0146647
vn 0.0146547 -0.0146747 -0.0146647
vn -0.0146547 0.0146747 -0.0146647
vn -0.0179605 0.0179605 0
vn 0.0254 -7.62e-08 1.0414e-06
vn -0.0179601 5.08e-08 -0.0179609
vn 0.0146747 0.0146547 -0.0146647
vn 0.0146649 -0.0146649 0.0146643
vn 0.0179609 -5.08e-08 0.0179601
vn -0.0179605 0 0.0179605
vn -0.0179605 -0.0179605 0
vn 0.0254 0 0
vn -0.0146645 -0.0146645 -0.0146651
vn -0.0179601 5.08e-08 0.0179609
vn -0.0254 7.62e-08 -1.0414e-06
vn 0.0179605 0.0179605 0
vn 0.0146647 0.0146647 0.0146647
vn -0.0146645 -0.0146645 0.0146651
vn 0 0 0.0254
vn 0.0254 -7.62e-08 -1.0414e-06
vn -0.0254 0 0
vn -0.0146647 0.0146647 -0.0146647
vn 0.0179605 -0.0179605 0
vn -0.0254 7.62e-08 1.0414e-06
vn 0.0146647 0.0146647 -0.0146647
vn 0 0.0179605 -0.0179605
vn 0 -0.0179605 -0.0179605
vn -0.0146649 0.0146649 0.0146643
vn -0.0179609 5.08e-08 0.0179601
vn 0 -0.0113592 -0.0227184
vn 0.0179601 -5.08e-08 0.0179609
vn -0.0179609 5.08e-08 -0.0179601
vn -0.0146649 0.0146649 -0.0146643
vn 0.0146645 0.0146645 0.0146651
vn 0.0179601 -5.08e-08 -0.0179609
vn -0.0227184 -0.0113592 0
vn 0.0227184 -0.0113592 0
vn 0.0146645 0.0146645 -0.0146651
vn 0 -0.0113592 0.0227184
vn 0 0.0113592 0.0227184
vn 0.0227184 0.0113592 0
vn -0.0227184 0.0113592 0
vn 0 0.0113592 -0.0227184

# Mesh 'mesh1_mesh1-geometry' with 166 faces
g mesh1_mesh1-geometry
usemtl material_0_1_8
f  1/1/1 2/2/2 3/3/3
f  4/4/4 2/2/2 1/1/1
f  2/5/2 5/6/5 3/7/3
f  6/8/6 1/4/1 3/9/3
f  7/10/7 2/2/2 4/4/4
f  1/11/1 8/12/8 4/13/4
f  5/6/5 2/5/2 9/14/5
f  3/7/3 5/6/5 10/15/9
f  1/4/1 6/8/6 11/16/10
f  3/7/3 10/15/9 6/17/6
f  2/2/2 7/10/7 12/18/2
f  8/19/8 7/20/7 4/21/4
f  8/12/8 1/11/1 13/22/11
f  2/23/2 14/24/5 9/25/5
f  9/25/5 14/24/5 5/26/5
f  15/27/12 5/28/13 9/29/14
f  5/30/13 16/31/15 9/32/14
f  10/15/9 5/6/5 17/33/5
f  6/3/16 18/34/17 11/1/17
f  13/22/11 1/11/1 11/35/10
f  19/36/9 6/17/9 10/15/9
f  7/13/7 14/37/5 12/5/2
f  14/24/5 2/23/2 12/38/2
f  7/20/7 8/19/8 20/39/18
f  10/40/19 8/21/8 13/41/11
f  5/26/5 14/24/5 17/42/5
f  5/28/13 15/27/12 21/43/20
f  9/44/14 22/45/21 15/46/12
f  16/31/15 5/30/13 23/47/22
f  22/45/21 9/44/14 16/48/15
f  10/40/16 17/49/16 24/50/16
f  17/49/19 8/21/8 10/40/19
f  18/34/17 6/3/16 25/51/16
f  18/52/17 13/22/11 11/35/17
f  6/17/9 19/36/9 25/53/9
f  19/54/16 10/40/16 24/50/16
f  13/41/11 19/54/19 10/40/19
f  14/37/5 7/13/7 20/55/18
f  20/39/18 8/19/8 26/56/23
f  17/42/5 14/24/5 27/57/24
f  28/58/25 15/59/25 21/60/25
f  15/61/25 24/62/25 21/63/25
f  15/64/12 29/65/26 21/66/20
f  29/67/26 5/68/13 21/69/20
f  29/65/26 15/64/12 22/70/21
f  5/68/13 29/67/26 23/71/22
f  30/72/27 23/28/28 16/29/28
f  31/73/28 16/74/28 23/75/28
f  23/6/22 22/61/21 16/14/15
f  24/50/16 17/49/16 32/76/16
f  27/77/19 8/21/8 17/49/19
f  33/78/7 18/79/29 25/80/18
f  13/22/11 18/52/17 34/81/11
f  24/62/25 25/53/18 19/36/9
f  34/82/11 24/50/19 19/54/19
f  19/54/19 13/41/11 34/82/11
f  35/7/30 14/18/16 20/10/30
f  8/21/8 27/77/19 26/20/23
f  26/56/23 35/35/30 20/39/30
f  14/83/31 36/15/31 27/84/31
f  17/49/16 27/77/16 32/76/16
f  37/85/32 15/59/25 28/58/25
f  28/58/25 21/60/25 24/86/25
f  33/87/7 24/62/25 15/61/25
f  22/88/33 38/89/33 29/90/33
f  39/91/33 22/27/33 29/43/33
f  22/61/21 23/6/22 29/63/26
f  23/28/28 30/72/27 40/11/1
f  16/74/28 41/92/27 30/93/27
f  41/92/27 16/74/28 31/73/28
f  31/73/28 23/75/28 42/94/28
f  28/58/25 24/86/25 32/95/34
f  24/50/19 43/96/35 32/76/19
f  18/52/29 44/97/1 34/81/11
f  18/79/29 33/78/7 45/21/4
f  25/53/18 24/62/25 33/87/7
f  46/98/36 24/50/19 34/82/11
f  14/18/16 35/7/30 31/99/16
f  36/100/19 26/20/23 27/77/19
f  35/35/30 26/56/23 47/22/23
f  36/15/31 14/83/31 31/17/31
f  27/77/16 36/100/16 48/101/16
f  32/76/16 27/77/16 48/101/16
f  15/59/25 37/85/32 49/102/32
f  50/103/6 37/104/32 28/105/25
f  49/104/32 33/87/7 15/61/25
f  51/106/37 38/89/33 22/88/33
f  29/90/33 38/89/33 39/107/33
f  22/27/33 39/91/33 52/81/38
f  53/13/7 40/108/1 30/109/27
f  23/28/28 40/11/1 42/110/28
f  54/7/4 30/109/27 41/99/27
f  35/55/29 41/72/27 31/111/28
f  31/73/28 42/94/28 36/112/39
f  32/56/40 38/35/40 28/39/40
f  43/96/35 24/50/19 46/98/36
f  55/113/35 32/76/19 43/96/35
f  44/97/1 18/52/29 45/114/4
f  34/81/11 44/97/1 46/115/36
f  33/51/7 44/116/1 45/34/4
f  26/20/23 36/100/19 47/11/23
f  56/12/41 35/35/29 47/22/23
f  48/101/16 36/100/16 39/117/16
f  32/76/19 55/113/35 48/101/19
f  38/35/40 32/56/40 48/22/40
f  37/118/32 44/116/1 49/119/32
f  37/104/32 50/103/6 57/120/3
f  38/121/16 50/122/42 28/118/16
f  49/119/32 44/116/1 33/51/7
f  38/89/33 51/106/37 58/123/37
f  52/81/38 51/124/37 22/27/33
f  39/107/33 38/89/33 48/125/43
f  39/117/16 36/100/16 52/126/16
f  59/127/44 52/126/19 39/117/19
f  40/108/1 53/13/7 60/128/3
f  53/13/7 30/109/27 54/7/4
f  42/110/28 40/11/1 61/22/38
f  41/72/27 35/55/29 54/13/4
f  36/100/16 42/129/16 52/126/16
f  42/129/19 47/11/23 36/100/19
f  46/130/36 50/83/6 43/84/35
f  50/83/42 55/15/35 43/84/35
f  44/4/1 50/83/6 46/130/36
f  53/13/7 35/35/29 56/12/41
f  42/129/19 56/13/41 47/11/23
f  55/113/35 39/117/19 48/101/19
f  44/116/1 37/118/32 57/122/3
f  50/83/6 44/4/1 57/10/3
f  50/122/42 38/121/16 62/131/42
f  51/132/37 63/131/1 58/121/37
f  63/97/1 38/133/33 58/124/37
f  64/52/29 51/124/37 52/81/38
f  52/126/19 59/127/44 65/134/45
f  59/127/44 39/117/19 55/113/35
f  53/13/7 66/15/45 60/7/3
f  67/55/6 40/5/1 60/13/3
f  35/35/29 53/13/7 54/11/4
f  61/22/38 40/11/1 68/35/10
f  61/135/16 52/126/16 42/129/16
f  66/128/45 42/129/19 61/135/19
f  55/15/35 50/83/42 62/17/42
f  66/15/45 53/13/7 56/12/41
f  56/13/41 42/129/19 66/128/45
f  62/17/10 59/12/44 55/15/35
f  38/133/33 63/97/1 62/136/10
f  51/132/37 69/127/3 63/131/1
f  51/124/37 64/52/29 70/114/4
f  61/22/38 64/52/38 52/81/38
f  59/137/44 71/53/18 65/36/45
f  65/134/45 61/135/19 52/126/19
f  60/7/3 66/15/45 67/17/6
f  40/5/1 67/55/6 68/37/10
f  64/52/38 61/22/38 68/35/38
f  61/135/19 65/134/45 66/128/45
f  63/7/1 59/12/44 62/17/10
f  69/127/3 51/132/37 72/134/7
f  59/12/44 63/7/1 69/13/3
f  64/111/29 72/13/7 70/72/4
f  72/134/7 51/132/37 70/138/4
f  72/13/7 64/111/29 71/55/18
f  64/138/16 67/128/46 71/134/46
f  71/53/18 59/137/44 72/87/7
f  67/17/46 65/36/45 71/53/46
f  65/36/45 67/17/46 66/15/45
f  67/128/46 64/138/16 68/108/16
f  72/87/7 59/137/44 69/120/3

# Mesh 'mesh1_mesh1-geometry' with 232 faces
g mesh1_mesh1-geometry
usemtl material_1_24
f  3/13/8 2/13/47 1/13/41
f  1/13/41 2/13/47 4/13/44
f  3/13/8 5/13/48 2/13/47
f  3/13/8 1/13/41 6/13/29
f  4/13/44 2/13/47 7/13/36
f  4/13/44 8/13/3 1/13/41
f  9/13/48 2/13/47 5/13/48
f  10/13/38 5/13/48 3/13/8
f  11/13/18 6/13/29 1/13/41
f  6/13/29 10/13/38 3/13/8
f  12/13/47 7/13/36 2/13/47
f  4/13/44 7/13/36 8/13/3
f  13/13/46 1/13/41 8/13/3
f  9/13/48 14/13/48 2/13/47
f  5/13/48 14/13/48 9/13/48
f  9/13/26 5/13/21 15/13/22
f  9/13/26 16/13/20 5/13/21
f  17/13/48 5/13/48 10/13/38
f  11/13/45 18/13/45 6/13/19
f  10/13/31 11/13/31 6/13/31
f  6/13/40 11/13/40 10/13/40
f  11/13/18 1/13/41 13/13/46
f  10/13/38 6/13/38 19/13/38
f  12/13/47 14/13/48 7/13/36
f  12/13/47 2/13/47 14/13/48
f  20/13/10 8/13/3 7/13/36
f  13/13/46 8/13/3 10/13/16
f  17/13/48 14/13/48 5/13/48
f  21/13/15 15/13/22 5/13/21
f  15/13/22 22/13/13 9/13/26
f  23/13/12 5/13/21 16/13/20
f  16/13/20 9/13/26 22/13/13
f  24/13/19 17/13/19 10/13/19
f  10/13/16 8/13/3 17/13/16
f  17/13/9 73/13/3 10/13/9
f  25/13/19 6/13/19 18/13/45
f  11/13/45 13/13/46 18/13/45
f  11/13/31 10/13/31 13/13/31
f  13/13/40 10/13/40 11/13/40
f  25/13/38 19/13/38 6/13/38
f  24/13/19 10/13/19 19/13/19
f  10/13/16 19/13/16 13/13/46
f  10/13/9 74/13/49 19/13/9
f  20/13/10 7/13/36 14/13/48
f  26/13/42 8/13/3 20/13/10
f  27/13/34 14/13/48 17/13/48
f  21/13/50 15/13/50 28/13/50
f  21/13/50 24/13/50 15/13/50
f  21/13/15 29/13/14 15/13/22
f  21/13/15 5/13/21 29/13/14
f  22/13/13 15/13/22 29/13/14
f  23/13/12 29/13/14 5/13/21
f  16/13/51 23/13/51 30/13/52
f  23/13/51 16/13/51 31/13/51
f  16/13/20 22/13/13 23/13/12
f  32/13/19 17/13/19 24/13/19
f  17/13/16 8/13/3 27/13/16
f  74/13/49 10/13/9 73/13/3
f  17/13/31 27/13/31 73/13/3
f  34/13/40 25/13/40 18/13/40
f  18/13/31 25/13/31 34/13/31
f  25/13/10 18/13/6 33/13/36
f  34/13/46 18/13/45 13/13/46
f  25/13/40 34/13/40 19/13/40
f  19/13/31 34/13/31 25/13/31
f  19/13/38 25/13/10 24/13/50
f  19/13/16 24/13/16 34/13/46
f  19/13/9 75/13/49 24/13/9
f  34/13/46 13/13/46 19/13/16
f  75/13/49 19/13/9 74/13/49
f  20/13/9 27/13/9 14/13/9
f  14/13/38 27/13/38 20/13/38
f  20/13/35 14/13/19 35/13/35
f  26/13/42 27/13/16 8/13/3
f  20/13/35 35/13/35 26/13/42
f  27/13/9 20/13/9 26/13/9
f  26/13/38 20/13/38 27/13/38
f  27/13/40 36/13/40 14/13/40
f  32/13/19 27/13/19 17/13/19
f  28/13/50 15/13/50 37/13/53
f  24/13/50 21/13/50 28/13/50
f  15/13/50 24/13/50 33/13/36
f  29/13/54 38/13/54 22/13/54
f  29/13/54 22/13/54 39/13/54
f  29/13/14 23/13/12 22/13/13
f  40/13/41 30/13/52 23/13/51
f  30/13/52 41/13/52 16/13/51
f  31/13/51 16/13/51 41/13/52
f  42/13/51 23/13/51 31/13/51
f  32/13/24 24/13/50 28/13/50
f  32/13/16 43/13/30 24/13/16
f  32/13/40 24/13/40 76/13/55
f  74/13/49 73/13/3 77/13/7
f  78/13/56 73/13/3 27/13/31
f  34/13/46 44/13/41 18/13/6
f  45/13/44 33/13/36 18/13/6
f  33/13/36 24/13/50 25/13/10
f  34/13/46 24/13/16 46/13/7
f  77/13/7 24/13/9 75/13/49
f  75/13/49 74/13/49 77/13/7
f  31/13/19 35/13/35 14/13/19
f  27/13/16 26/13/42 36/13/16
f  47/13/42 26/13/42 35/13/35
f  31/13/40 14/13/40 36/13/40
f  48/13/19 36/13/19 27/13/19
f  27/13/31 36/13/31 78/13/56
f  48/13/19 27/13/19 32/13/19
f  49/13/53 37/13/53 15/13/50
f  28/13/50 37/13/53 50/13/29
f  15/13/50 33/13/36 49/13/53
f  22/13/54 38/13/54 51/13/57
f  39/13/54 38/13/54 29/13/54
f  52/13/9 39/13/54 22/13/54
f  30/13/52 40/13/41 53/13/36
f  42/13/51 40/13/41 23/13/51
f  41/13/52 30/13/52 54/13/44
f  31/13/51 41/13/52 35/13/6
f  36/13/43 42/13/51 31/13/51
f  43/13/9 28/13/9 32/13/9
f  32/13/38 28/13/38 43/13/38
f  28/13/31 38/13/31 32/13/31
f  46/13/7 24/13/16 43/13/30
f  43/13/30 32/13/16 55/13/30
f  77/13/7 76/13/55 24/13/40
f  76/13/55 79/13/55 32/13/40
f  77/13/7 73/13/3 76/13/55
f  73/13/3 78/13/56 76/13/55
f  45/13/44 18/13/6 44/13/41
f  46/13/7 44/13/41 34/13/46
f  45/13/44 44/13/41 33/13/36
f  31/13/38 47/13/38 35/13/38
f  35/13/9 47/13/9 31/13/9
f  47/13/42 36/13/16 26/13/42
f  47/13/42 35/13/6 56/13/1
f  47/13/38 31/13/38 36/13/38
f  36/13/9 31/13/9 47/13/9
f  39/13/19 36/13/19 48/13/19
f  80/13/56 78/13/56 36/13/31
f  48/13/16 55/13/30 32/13/16
f  48/13/40 32/13/40 79/13/55
f  48/13/31 32/13/31 38/13/31
f  49/13/53 44/13/41 37/13/53
f  57/13/8 50/13/29 37/13/53
f  28/13/9 43/13/9 50/13/9
f  50/13/38 43/13/38 28/13/38
f  28/13/19 50/13/23 38/13/19
f  33/13/36 44/13/41 49/13/53
f  58/13/57 51/13/57 38/13/54
f  22/13/54 51/13/57 52/13/9
f  48/13/39 38/13/54 39/13/54
f  52/13/19 36/13/19 39/13/19
f  39/13/16 52/13/16 59/13/4
f  39/13/38 81/13/4 52/13/38
f  60/13/8 53/13/36 40/13/41
f  54/13/44 30/13/52 53/13/36
f  61/13/9 40/13/41 42/13/51
f  54/13/44 35/13/6 41/13/52
f  52/13/19 42/13/19 36/13/19
f  36/13/16 47/13/42 42/13/16
f  36/13/31 42/13/31 80/13/56
f  43/13/30 50/13/29 46/13/7
f  43/13/30 55/13/30 50/13/23
f  76/13/55 78/13/56 79/13/55
f  46/13/7 50/13/29 44/13/41
f  56/13/1 35/13/6 53/13/36
f  47/13/42 56/13/1 42/13/16
f  48/13/16 39/13/16 55/13/30
f  39/13/40 48/13/40 81/13/4
f  78/13/56 80/13/56 79/13/55
f  48/13/38 62/13/38 55/13/38
f  55/13/9 62/13/9 48/13/9
f  79/13/55 81/13/4 48/13/40
f  62/13/38 48/13/38 38/13/38
f  38/13/9 48/13/9 62/13/9
f  57/13/8 37/13/53 44/13/41
f  57/13/8 44/13/41 50/13/29
f  62/13/23 38/13/19 50/13/23
f  58/13/57 63/13/41 51/13/57
f  58/13/57 38/13/54 63/13/41
f  52/13/9 51/13/57 64/13/6
f  65/13/17 59/13/4 52/13/16
f  55/13/30 39/13/16 59/13/4
f  82/13/58 52/13/38 81/13/4
f  60/13/8 66/13/17 53/13/36
f  60/13/8 40/13/41 67/13/29
f  54/13/44 53/13/36 35/13/6
f  68/13/18 40/13/41 61/13/9
f  42/13/19 52/13/19 61/13/19
f  61/13/16 42/13/16 66/13/17
f  61/13/38 83/13/58 42/13/38
f  84/13/1 80/13/56 42/13/31
f  62/13/23 50/13/23 55/13/30
f  56/13/1 53/13/36 66/13/17
f  66/13/17 42/13/16 56/13/1
f  79/13/55 80/13/56 81/13/4
f  55/13/30 59/13/4 62/13/18
f  62/13/18 63/13/41 38/13/54
f  63/13/41 69/13/8 51/13/57
f  70/13/44 64/13/6 51/13/57
f  52/13/40 71/13/40 64/13/40
f  64/13/31 71/13/31 52/13/31
f  52/13/9 64/13/9 61/13/9
f  65/13/17 71/13/10 59/13/4
f  71/13/40 52/13/40 65/13/40
f  65/13/31 52/13/31 71/13/31
f  52/13/16 61/13/16 65/13/17
f  52/13/38 82/13/58 61/13/38
f  81/13/4 80/13/56 82/13/58
f  67/13/29 66/13/17 60/13/8
f  68/13/18 67/13/29 40/13/41
f  68/13/31 66/13/31 61/13/31
f  61/13/40 66/13/40 68/13/40
f  68/13/9 61/13/9 64/13/9
f  66/13/17 65/13/17 61/13/16
f  84/13/1 42/13/38 83/13/58
f  83/13/58 61/13/38 82/13/58
f  80/13/56 84/13/1 82/13/58
f  62/13/18 59/13/4 63/13/41
f  72/13/36 51/13/57 69/13/8
f  69/13/8 63/13/41 59/13/4
f  70/13/44 72/13/36 64/13/6
f  70/13/44 51/13/57 72/13/36
f  71/13/10 64/13/6 72/13/36
f  71/13/11 67/13/11 64/13/19
f  72/13/36 59/13/4 71/13/10
f  71/13/11 65/13/17 67/13/11
f  66/13/31 68/13/31 67/13/31
f  67/13/40 68/13/40 66/13/40
f  66/13/17 67/13/11 65/13/17
f  68/13/19 64/13/19 67/13/11
f  83/13/58 82/13/58 84/13/1
f  69/13/8 59/13/4 72/13/36

# Mesh 'mesh1_mesh1-geometry' with 34 faces
g mesh1_mesh1-geometry
usemtl material_2_2_8
f  10/139/38 73/140/8 17/141/38
f  19/142/38 74/143/59 10/139/38
f  73/140/8 10/139/38 74/143/59
f  73/144/8 27/145/40 17/146/40
f  24/147/38 75/148/59 19/142/38
f  74/143/59 19/142/38 75/148/59
f  76/149/60 24/150/31 32/151/31
f  77/152/36 73/153/8 74/154/59
f  27/145/40 73/144/8 78/155/61
f  75/148/59 24/147/38 77/156/36
f  77/152/36 74/154/59 75/157/59
f  78/155/61 36/139/40 27/145/40
f  24/150/31 76/149/60 77/158/36
f  32/151/31 79/159/60 76/149/60
f  76/160/60 73/153/8 77/152/36
f  76/160/60 78/161/61 73/153/8
f  36/139/40 78/155/61 80/143/61
f  79/159/60 32/151/31 48/162/31
f  52/163/9 81/164/44 39/165/9
f  80/143/61 42/141/40 36/139/40
f  79/166/60 78/161/61 76/160/60
f  81/167/44 48/162/31 39/168/31
f  79/166/60 80/169/61 78/161/61
f  48/162/31 81/167/44 79/159/60
f  81/164/44 52/163/9 82/170/62
f  42/168/9 83/159/62 61/162/9
f  42/141/40 80/143/61 84/140/41
f  81/171/44 80/169/61 79/166/60
f  61/162/9 82/170/62 52/163/9
f  82/172/62 80/169/61 81/171/44
f  83/159/62 42/168/9 84/167/41
f  82/170/62 61/162/9 83/159/62
f  82/172/62 84/173/41 80/169/61
f  84/173/41 82/172/62 83/174/62

