# File produced by Open Asset Import Library (http://www.assimp.sf.net)
# (assimp v3.2.202087883)

mtllib model_normalized.mtl

# 57 vertex positions
v -0.211984 -0.142229 -0.377979
v 0.270215 -0.142229 -0.441218
v 0.270215 -0.142229 -0.377979
v -0.211984 -0.142229 -0.441218
v 0.270215 -0.029585 -0.377979
v 0.209940 -0.103145 -0.377979
v -0.275223 -0.142229 -0.377979
v -0.211984 -0.103145 -0.441218
v 0.270215 0.005493 -0.441218
v -0.211984 -0.103145 -0.377979
v -0.275223 -0.142229 -0.441218
v -0.275223 0.005493 -0.441218
v 0.209940 -0.103145 -0.441218
v 0.270215 0.005493 0.234650
v 0.209940 -0.029585 -0.377979
v -0.275223 -0.029585 -0.377979
v -0.211984 -0.029585 -0.441218
v 0.235804 0.005493 0.234650
v 0.270215 -0.029585 0.234650
v 0.209940 -0.029585 -0.441218
v 0.209940 -0.029585 0.234650
v -0.211984 -0.029585 -0.377979
v 0.235804 0.005493 -0.415527
v 0.235804 0.081578 0.234650
v 0.270215 -0.142229 0.234650
v -0.275223 0.005493 0.234650
v -0.275223 -0.029585 0.234650
v -0.211984 -0.029585 0.234650
v 0.270215 0.253015 0.234650
v 0.270215 -0.142229 0.297890
v 0.209940 -0.099024 0.234650
v -0.245408 0.005493 0.234650
v -0.211984 -0.029585 0.297890
v -0.245408 0.005493 -0.415527
v 0.209940 0.172139 0.234650
v 0.270215 0.253015 0.297890
v 0.194624 -0.142229 0.297890
v 0.194624 -0.099024 0.234650
v 0.209940 -0.099024 0.297890
v -0.275223 -0.142229 0.297890
v -0.275223 0.253015 0.234650
v -0.211984 -0.099024 0.234650
v 0.209940 -0.029585 0.297890
v -0.223704 0.172139 0.234650
v 0.209940 0.224648 0.234650
v 0.194624 -0.142229 0.234650
v -0.275223 -0.142229 0.234650
v -0.245408 0.081578 0.234650
v 0.209940 0.172139 0.297890
v -0.211984 -0.099024 0.297890
v -0.275223 0.253015 0.297890
v -0.223704 0.172139 0.297890
v 0.209940 0.224648 0.297890
v -0.223704 0.224648 0.234650
v -0.223704 0.224648 0.297890
v 0.235804 0.081578 -0.415527
v -0.245408 0.081578 -0.415527

# 110 UV coordinates
vt -3.83333 0.444444 0
vt -0.444444 0 0
vt -0.444444 0.444444 0
vt -3.83333 0 0
vt 0 0 0
vt -0.444444 0.791667 0
vt -0.868056 0.274682 0
vt -4.27778 0.444444 0
vt 3.83333 0 0
vt 3.83333 0.274682 0
vt 0.444444 0 0
vt 0 1.03819 0
vt -3.83333 0.274682 0
vt -4.27778 0 0
vt 4.27778 1.03819 0
vt 0.868056 0.274682 0
vt -4.75 1.03819 0
vt 0.444444 1.03819 0
vt -0.868056 0.791667 0
vt 0.868056 0.444444 0
vt 3.83333 0.444444 0
vt 4.27778 0 0
vt -4.27778 0.791667 0
vt 3.83333 0.791667 0
vt 0.868056 0 0
vt 0.686287 4.75 0
vt 0.444444 4.75 0
vt -4.75 0.791667 0
vt 0.868056 0.791667 0
vt -0.868056 4.75 0
vt -0.868056 0.444444 0
vt 0 0.791667 0
vt 0.444444 0.274682 0
vt 0.444444 0.791667 0
vt 0 0.274682 0
vt -0.444444 0.274682 0
vt -3.83333 0.791667 0
vt 0.686287 0.180556 0
vt 0.686287 1.57292 0
vt 0.686287 1.03819 0
vt -4.75 0 0
vt -0.444444 4.75 0
vt -0.868056 0 0
vt 4.75 1.03819 0
vt -4.27778 4.75 0
vt -3.83333 4.75 0
vt 0.444444 2.77778 0
vt -5.19444 0 0
vt 0.868056 0.303646 0
vt 4.75 0.791667 0
vt 4.06823 4.75 0
vt 4.27778 4.75 0
vt -3.83333 5.19444 0
vt 4.06823 0.180556 0
vt 0.868056 2.20939 0
vt -5.19444 2.77778 0
vt -4.75 2.77778 0
vt -0.975694 5.19444 0
vt -0.444444 5.19444 0
vt 0.975694 0.303646 0
vt 5.19444 0.303646 0
vt 4.75 0.303646 0
vt 5.19444 0 0
vt 4.27778 2.77778 0
vt 4.06823 1.03819 0
vt 3.83333 0.303646 0
vt 4.27778 0.791667 0
vt -0.868056 5.19444 0
vt -5.19444 0.791667 0
vt -4.75 0.303646 0
vt 3.9157 2.20939 0
vt 0.868056 2.5784 0
vt 0.444444 5.19444 0
vt -0.868056 0.303646 0
vt -0.444444 2.77778 0
vt -0.975694 4.75 0
vt -0.975694 0 0
vt 0.975694 0 0
vt 0.975694 4.75 0
vt 0.868056 5.19444 0
vt 0.868056 4.75 0
vt 5.19444 0.791667 0
vt 4.75 0 0
vt 4.75 2.77778 0
vt 4.06823 1.57292 0
vt -0.868056 2.20939 0
vt -5.19444 0.303646 0
vt 3.9157 4.75 0
vt 5.19444 2.20939 0
vt 4.75 2.5784 0
vt 4.75 2.20939 0
vt 4.27778 5.19444 0
vt -4.27778 5.19444 0
vt 3.83333 5.19444 0
vt 5.19444 2.77778 0
vt -3.9157 2.20939 0
vt -4.27778 2.77778 0
vt -3.83333 0.303646 0
vt 3.83333 4.75 0
vt 3.9157 5.19444 0
vt 5.19444 2.5784 0
vt 3.9157 2.5784 0
vt -3.9157 2.5784 0
vt -0.868056 2.5784 0
vt -4.75 2.20939 0
vt -5.19444 2.5784 0
vt -5.19444 2.20939 0
vt -3.9157 5.19444 0
vt -3.9157 4.75 0
vt -4.75 2.5784 0

# 6 vertex normals
vn 0 -0.0254 0
vn 0.0254 0 0
vn 0 0 0.0254
vn 0 0 -0.0254
vn 0 0.0254 0
vn -0.0254 0 0

# Mesh 'mesh1_mesh1-geometry' with 114 faces
g mesh1_mesh1-geometry
usemtl material_0_1_8
f  1/1/1 2/2/1 3/3/1
f  2/2/1 1/1/1 4/4/1
f  3/2/2 2/5/2 5/6/2
f  3/2/3 6/7/3 1/4/3
f  7/8/1 4/4/1 1/1/1
f  4/9/4 8/10/4 2/11/4
f  9/12/2 5/6/2 2/5/2
f  6/7/3 3/2/3 5/6/3
f  10/13/3 1/4/3 6/7/3
f  4/4/1 7/8/1 11/14/1
f  10/13/3 7/14/3 1/4/3
f  4/9/4 12/15/4 8/10/4
f  13/16/4 2/11/4 8/10/4
f  5/6/2 9/12/2 14/17/2
f  2/11/4 13/16/4 9/18/4
f  6/7/3 5/6/3 15/19/3
f  6/20/5 8/9/5 10/21/5
f  7/11/6 12/12/6 11/5/6
f  12/15/4 4/9/4 11/22/4
f  7/14/3 10/13/3 16/23/3
f  8/10/4 12/15/4 17/24/4
f  8/9/5 6/20/5 13/25/5
f  9/11/5 18/26/5 14/27/5
f  5/6/2 14/17/2 19/28/2
f  9/18/4 13/16/4 20/29/4
f  5/3/1 21/30/1 15/31/1
f  20/32/6 6/33/6 15/34/6
f  8/35/2 22/6/2 10/36/2
f  12/12/6 7/11/6 16/34/6
f  16/23/3 10/13/3 22/37/3
f  17/24/4 12/15/4 20/29/4
f  22/6/2 8/35/2 17/32/2
f  6/33/6 20/32/6 13/35/6
f  18/26/5 9/11/5 23/38/5
f  24/39/4 14/18/4 18/40/4
f  19/28/2 14/17/2 25/41/2
f  21/30/1 5/3/1 19/42/1
f  9/18/4 20/29/4 12/15/4
f  15/31/1 21/30/1 20/43/1
f  12/12/6 16/34/6 26/44/6
f  22/1/1 27/45/1 16/8/1
f  20/43/1 21/30/1 17/4/1
f  17/4/1 28/46/1 22/1/1
f  12/22/5 23/38/5 9/11/5
f  14/18/4 24/39/4 29/47/4
f  25/41/2 14/17/2 30/48/2
f  25/11/4 31/49/4 19/34/4
f  19/34/4 31/49/4 21/29/4
f  26/44/6 16/34/6 27/50/6
f  32/51/5 12/22/5 26/52/5
f  27/45/1 22/1/1 28/46/1
f  17/4/1 21/30/1 33/53/1
f  17/4/1 33/53/1 28/46/1
f  23/38/5 12/22/5 34/54/5
f  29/47/4 24/39/4 35/55/4
f  36/56/2 14/17/2 29/57/2
f  30/48/2 14/17/2 36/56/2
f  37/58/1 25/42/1 30/59/1
f  25/11/4 38/60/4 31/49/4
f  39/61/6 21/50/6 31/62/6
f  27/50/6 40/63/6 26/44/6
f  34/54/5 12/22/5 32/51/5
f  41/64/4 32/65/4 26/15/4
f  42/66/4 27/67/4 28/24/4
f  33/53/1 21/30/1 43/68/1
f  33/69/2 42/70/2 28/28/2
f  35/55/4 24/39/4 44/71/4
f  29/47/4 35/55/4 45/72/4
f  41/52/5 36/73/5 29/27/5
f  39/74/3 30/2/3 36/75/3
f  25/42/1 37/58/1 46/76/1
f  30/2/3 39/74/3 37/77/3
f  38/60/4 25/11/4 46/78/4
f  38/79/5 39/80/5 31/81/5
f  21/50/6 39/61/6 43/82/6
f  40/63/6 27/50/6 47/83/6
f  26/44/6 40/63/6 41/84/6
f  32/65/4 41/64/4 48/85/4
f  42/66/4 47/22/4 27/67/4
f  43/19/3 49/86/3 33/37/3
f  42/70/2 33/69/2 50/87/2
f  48/85/4 44/71/4 24/39/4
f  44/88/5 49/80/5 35/81/5
f  49/89/6 45/90/6 35/91/6
f  29/47/4 45/72/4 41/64/4
f  36/73/5 41/52/5 51/92/5
f  39/74/3 36/75/3 43/19/3
f  40/93/1 46/76/1 37/58/1
f  37/77/3 39/74/3 40/14/3
f  38/60/4 46/78/4 42/66/4
f  39/80/5 38/79/5 50/94/5
f  46/76/1 40/93/1 47/45/1
f  41/84/6 40/63/6 51/95/6
f  48/85/4 41/64/4 44/71/4
f  47/22/4 42/66/4 46/78/4
f  43/19/3 36/75/3 49/86/3
f  52/96/3 33/37/3 49/86/3
f  51/97/3 50/98/3 33/37/3
f  50/94/5 38/79/5 42/99/5
f  49/80/5 44/88/5 52/100/5
f  45/90/6 49/89/6 53/101/6
f  54/102/4 41/64/4 45/72/4
f  51/97/3 55/103/3 36/75/3
f  50/98/3 40/14/3 39/74/3
f  40/14/3 50/98/3 51/97/3
f  44/71/4 41/64/4 54/102/4
f  49/86/3 36/75/3 53/104/3
f  51/97/3 33/37/3 52/96/3
f  44/105/2 55/106/2 52/107/2
f  55/108/1 45/30/1 53/68/1
f  45/30/1 55/108/1 54/109/1
f  51/97/3 52/96/3 55/103/3
f  53/104/3 36/75/3 55/103/3
f  55/106/2 44/105/2 54/110/2

# Mesh 'mesh1_mesh1-geometry' with 122 faces
g mesh1_mesh1-geometry
usemtl material_1_24
f  3//5 2//5 1//5
f  4//5 1//5 2//5
f  5//6 2//6 3//6
f  1//4 6//4 3//4
f  1//5 4//5 7//5
f  2//3 8//3 4//3
f  2//6 5//6 9//6
f  5//4 3//4 6//4
f  6//4 1//4 10//4
f  11//5 7//5 4//5
f  1//4 7//4 10//4
f  8//3 12//3 4//3
f  8//3 2//3 13//3
f  14//6 9//6 5//6
f  9//3 13//3 2//3
f  15//4 5//4 6//4
f  10//1 8//1 6//1
f  11//2 12//2 7//2
f  11//3 4//3 12//3
f  16//4 10//4 7//4
f  17//3 12//3 8//3
f  13//1 6//1 8//1
f  14//1 18//1 9//1
f  19//6 14//6 5//6
f  20//3 13//3 9//3
f  15//5 21//5 5//5
f  15//2 6//2 20//2
f  10//6 22//6 8//6
f  16//2 7//2 12//2
f  22//4 10//4 16//4
f  20//3 12//3 17//3
f  17//6 8//6 22//6
f  13//2 20//2 6//2
f  23//1 9//1 18//1
f  18//3 14//3 24//3
f  25//6 14//6 19//6
f  19//5 5//5 21//5
f  12//3 20//3 9//3
f  20//5 21//5 15//5
f  26//2 16//2 12//2
f  16//5 27//5 22//5
f  17//5 21//5 20//5
f  22//5 28//5 17//5
f  9//1 23//1 12//1
f  18//6 24//6 23//6
f  29//3 24//3 14//3
f  30//6 14//6 25//6
f  19//3 31//3 25//3
f  21//3 31//3 19//3
f  27//2 16//2 26//2
f  26//1 12//1 32//1
f  28//5 22//5 27//5
f  33//5 21//5 17//5
f  28//5 33//5 17//5
f  34//1 12//1 23//1
f  56//6 23//6 24//6
f  35//3 24//3 29//3
f  29//6 14//6 36//6
f  36//6 14//6 30//6
f  30//5 25//5 37//5
f  31//3 38//3 25//3
f  31//2 21//2 39//2
f  26//2 40//2 27//2
f  32//1 12//1 34//1
f  26//3 32//3 41//3
f  28//3 27//3 42//3
f  43//5 21//5 33//5
f  28//6 42//6 33//6
f  34//3 23//3 57//3
f  56//3 57//3 23//3
f  56//1 24//1 57//1
f  44//3 24//3 35//3
f  45//3 35//3 29//3
f  29//1 36//1 41//1
f  36//4 30//4 39//4
f  46//5 37//5 25//5
f  37//4 39//4 30//4
f  46//3 25//3 38//3
f  31//1 39//1 38//1
f  43//2 39//2 21//2
f  47//2 27//2 40//2
f  41//2 40//2 26//2
f  34//2 57//2 32//2
f  48//3 41//3 32//3
f  27//3 47//3 42//3
f  33//4 49//4 43//4
f  50//6 33//6 42//6
f  48//1 57//1 24//1
f  24//3 44//3 48//3
f  35//1 49//1 44//1
f  35//2 45//2 49//2
f  41//3 45//3 29//3
f  51//1 41//1 36//1
f  43//4 36//4 39//4
f  37//5 46//5 40//5
f  40//4 39//4 37//4
f  42//3 46//3 38//3
f  50//1 38//1 39//1
f  47//5 40//5 46//5
f  51//2 40//2 41//2
f  48//2 32//2 57//2
f  44//3 41//3 48//3
f  46//3 42//3 47//3
f  49//4 36//4 43//4
f  49//4 33//4 52//4
f  33//4 50//4 51//4
f  42//1 38//1 50//1
f  52//1 44//1 49//1
f  53//2 49//2 45//2
f  45//3 41//3 54//3
f  36//4 55//4 51//4
f  39//4 40//4 50//4
f  51//4 50//4 40//4
f  54//3 41//3 44//3
f  53//4 36//4 49//4
f  52//4 33//4 51//4
f  52//6 55//6 44//6
f  53//5 45//5 55//5
f  54//5 55//5 45//5
f  55//4 52//4 51//4
f  55//4 36//4 53//4
f  54//6 44//6 55//6

# Mesh 'mesh1_mesh1-geometry' with 8 faces
g mesh1_mesh1-geometry
usemtl material_2_24
f  23//2 24//2 18//2
f  24//2 23//2 56//2
f  57//4 23//4 34//4
f  23//4 57//4 56//4
f  57//5 24//5 56//5
f  32//6 57//6 34//6
f  24//5 57//5 48//5
f  57//6 32//6 48//6

