# File produced by Open Asset Import Library (http://www.assimp.sf.net)
# (assimp v3.2.202087883)

mtllib model_normalized.mtl

# 94 vertex positions
v 0.401956 -0.248661 -0.114861
v 0.430672 -0.248661 -0.172291
v 0.430672 -0.248661 -0.114861
v 0.401956 -0.248661 -0.172291
v 0.430672 0.095921 -0.114861
v 0.401956 0.038491 -0.114861
v 0.373241 -0.248661 -0.114861
v 0.401956 0.095921 -0.172291
v 0.430672 0.095921 -0.172291
v 0.430672 0.038491 -0.114861
v 0.373241 -0.248661 -0.172291
v 0.430672 0.124636 -0.114861
v 0.430672 0.095921 -0.057430
v 0.401956 0.038491 0.114861
v 0.373241 0.038491 -0.114861
v 0.373241 0.038491 -0.143576
v -0.430672 0.124636 -0.172291
v 0.373241 0.038491 -0.172291
v 0.430672 0.124636 -0.172291
v 0.430672 0.124636 -0.057430
v 0.430672 0.038491 0.114861
v 0.373241 0.038491 0.114861
v 0.373241 0.095921 -0.143576
v 0.373241 0.095921 -0.172291
v -0.373241 0.095921 -0.057430
v 0.373241 0.095921 -0.114861
v 0.373241 0.095921 -0.057430
v -0.430672 0.124636 -0.114861
v 0.430672 0.095921 -0.000000
v 0.430672 0.124636 -0.000000
v 0.430672 -0.248661 0.114861
v 0.401956 -0.248661 0.114861
v -0.373241 0.038491 -0.143576
v -0.373241 0.095921 -0.172291
v -0.373241 0.038491 -0.172291
v -0.373241 0.095921 -0.114861
v -0.373241 0.095921 -0.000000
v 0.373241 0.095921 -0.000000
v -0.430672 0.124636 -0.057430
v -0.430672 0.095921 -0.114861
v 0.430672 0.095921 0.057430
v 0.430672 0.095921 0.172291
v 0.373241 -0.248661 0.114861
v -0.373241 0.095921 -0.143576
v -0.401956 0.095921 -0.172291
v -0.373241 0.038491 -0.114861
v -0.373241 0.038491 0.114861
v 0.373241 0.095921 0.057430
v -0.430672 0.095921 -0.057430
v -0.430672 0.095921 -0.172291
v 0.430672 0.124636 0.057430
v 0.430672 0.095921 0.114861
v -0.430672 0.124636 -0.000000
v -0.373241 0.095921 0.057430
v 0.401956 -0.248661 0.172291
v 0.430672 -0.248661 0.172291
v 0.373241 -0.248661 0.172291
v -0.373241 -0.248661 -0.114861
v -0.430672 0.095921 -0.000000
v 0.373241 0.095921 0.114861
v -0.430672 0.038491 0.114861
v -0.430672 -0.248661 -0.114861
v 0.430672 0.124636 0.114861
v 0.430672 0.124636 0.172291
v -0.373241 -0.248661 -0.172291
v -0.401956 -0.248661 -0.172291
v -0.401956 -0.248661 -0.114861
v -0.401956 0.038491 0.114861
v -0.430672 0.095921 0.057430
v -0.373241 0.095921 0.114861
v -0.430672 0.038491 -0.114861
v -0.430672 -0.248661 -0.172291
v -0.430672 0.124636 0.057430
v 0.401956 0.095921 0.172291
v 0.373241 0.038491 0.143576
v -0.401956 0.038491 -0.114861
v -0.430672 0.095921 0.114861
v -0.373241 0.095921 0.143576
v -0.430672 0.124636 0.114861
v 0.373241 0.038491 0.172291
v 0.373241 0.095921 0.172291
v 0.373241 0.095921 0.143576
v -0.401956 -0.248661 0.114861
v -0.430672 -0.248661 0.172291
v -0.373241 -0.248661 0.114861
v -0.430672 0.124636 0.172291
v -0.373241 0.095921 0.172291
v -0.373241 0.038491 0.172291
v -0.373241 -0.248661 0.172291
v -0.430672 -0.248661 0.114861
v -0.430672 0.095921 0.172291
v -0.373241 0.038491 0.143576
v -0.401956 0.095921 0.172291
v -0.401956 -0.248661 0.172291

# 95 UV coordinates
vt -0.018519 0.037037 0
vt 0 0 0
vt 0 0.037037 0
vt -0.018519 0 0
vt -0.037037 0.222222 0
vt -0.037037 0 0
vt 0.018519 0 0
vt 0.018519 0.185185 0
vt -0.037037 0.037037 0
vt 0.018519 0.222222 0
vt 0 0.222222 0
vt -0.037037 0.185185 0
vt 0 0.185185 0
vt -0.018519 0.185185 0
vt 0.037037 0 0
vt -0.037037 0.240741 0
vt -0.074074 0.222222 0
vt 0.555483 0.240741 0
vt 0.037037 0.185185 0
vt 0 0.240741 0
vt -0.074074 0.240741 0
vt -0.185185 0.185185 0
vt 0.037037 0.222222 0
vt -0.518446 0.074074 0
vt -0.037037 0.074074 0
vt 0.185185 0.185185 0
vt 0.074074 0.222222 0
vt 0.555483 0 0
vt 0.555483 0.037037 0
vt 0 0.074074 0
vt -0.111111 0.222222 0
vt -0.111111 0.240741 0
vt -0.518446 0.018519 0
vt -0.037037 0.018519 0
vt -0.518446 0.185185 0
vt 0.518446 0.222222 0
vt 0.518446 0.185185 0
vt -0.518446 0.037037 0
vt -0.518446 0.111111 0
vt 0.111111 0.222222 0
vt 0.555483 0.074074 0
vt 0.037037 0.240741 0
vt -0.148148 0.222222 0
vt 0 0.111111 0
vt -0.037037 0.111111 0
vt -0.222222 0.222222 0
vt -0.185185 0 0
vt -0.518446 -0 0
vt -0.518446 0.222222 0
vt 0.536964 0.222222 0
vt 0.148148 0.222222 0
vt 0.074074 0.240741 0
vt -0.148148 0.240741 0
vt -0.185185 0.222222 0
vt 0.555483 0.111111 0
vt -0.518446 0.148148 0
vt -0.018519 0.222222 0
vt -0.222222 0 0
vt 0.222222 0 0
vt 0.185185 0 0
vt 0.555483 0.222222 0
vt 0.185185 0.222222 0
vt -0.037037 0.148148 0
vt 0 0.148148 0
vt -0.185185 0.240741 0
vt 0.111111 0.240741 0
vt -0.222222 0.240741 0
vt 0.536964 0 0
vt 0.518446 -0 0
vt 0.536964 0.185185 0
vt 0.518446 0.037037 0
vt 0.555483 0.148148 0
vt 0.203704 0.185185 0
vt 0.536964 0.037037 0
vt 0.148148 0.240741 0
vt -0.203704 0.222222 0
vt -0.518446 0.203704 0
vt 0.555483 0.185185 0
vt -0.536964 0 0
vt -0.555483 0.037037 0
vt -0.555483 0 0
vt 0.222222 0.185185 0
vt 0.203704 0.222222 0
vt -0.536964 0.037037 0
vt -0.037037 0.203704 0
vt 0.185185 0.240741 0
vt 0.222222 0.222222 0
vt -0.203704 0.185185 0
vt 0.222222 0.240741 0
vt -0.555483 0.222222 0
vt -0.555483 0.240741 0
vt -0.536964 0.222222 0
vt -0.536964 0.185185 0
vt -0.555483 0.185185 0
vt -0.222222 0.185185 0

# 6 vertex normals
vn 0 -0.0254 0
vn 0.0254 0 0
vn 0 0 0.0254
vn 0 0 -0.0254
vn -0.0254 0 0
vn 0 0.0254 0

# Mesh 'mesh1_mesh1-geometry' with 182 faces
g mesh1_mesh1-geometry
usemtl material_0_1_8
f  1/1/1 2/2/1 3/3/1
f  2/2/1 1/1/1 4/4/1
f  2/2/2 5/5/2 3/6/2
f  1/7/3 3/2/3 6/8/3
f  7/9/1 4/4/1 1/1/1
f  8/10/4 2/2/4 4/7/4
f  5/5/2 2/2/2 9/11/2
f  3/6/2 5/5/2 10/12/2
f  10/13/3 6/8/3 3/2/3
f  6/14/3 7/6/3 1/4/3
f  4/4/1 7/9/1 11/6/1
f  2/2/4 8/10/4 9/11/4
f  11/15/4 8/10/4 4/7/4
f  9/11/2 12/16/2 5/5/2
f  13/17/2 10/12/2 5/5/2
f  10/3/1 14/14/1 6/1/1
f  7/6/3 6/14/3 15/12/3
f  16/8/5 11/2/5 7/15/5
f  8/10/4 17/18/4 9/11/4
f  8/10/4 11/15/4 18/19/4
f  12/16/2 9/11/2 19/20/2
f  20/21/2 5/5/2 12/16/2
f  10/12/2 13/17/2 21/22/2
f  5/5/2 20/21/2 13/17/2
f  14/14/1 10/3/1 21/13/1
f  22/12/1 6/1/1 14/14/1
f  6/1/1 22/12/1 15/9/1
f  23/10/5 7/15/5 15/19/5
f  11/2/5 16/8/5 18/13/5
f  16/8/5 7/15/5 23/10/5
f  24/23/4 17/18/4 8/10/4
f  9/11/4 17/18/4 19/20/4
f  8/10/4 18/19/4 24/23/4
f  25/24/1 26/9/1 27/25/1
f  26/23/5 22/26/5 27/27/5
f  17/28/6 12/3/6 19/2/6
f  28/29/6 20/30/6 12/3/6
f  12/3/6 17/28/6 28/29/6
f  21/22/2 13/17/2 29/31/2
f  30/32/2 13/17/2 20/21/2
f  31/2/4 14/8/4 21/13/4
f  32/7/4 22/19/4 14/8/4
f  26/23/5 15/19/5 22/26/5
f  15/19/5 26/23/5 23/10/5
f  33/33/1 18/6/1 16/34/1
f  23/5/3 33/35/3 16/12/3
f  34/36/4 17/18/4 24/23/4
f  35/37/4 24/23/4 18/19/4
f  26/9/1 25/24/1 36/38/1
f  27/25/1 37/39/1 25/24/1
f  27/27/5 22/26/5 38/40/5
f  36/38/1 23/34/1 26/9/1
f  20/30/6 28/29/6 39/41/6
f  17/20/5 40/23/5 28/42/5
f  13/17/2 30/32/2 29/31/2
f  21/22/2 29/31/2 41/43/2
f  39/41/6 30/44/6 20/30/6
f  37/39/1 27/25/1 38/45/1
f  14/8/4 31/2/4 32/7/4
f  21/22/2 42/46/2 31/47/2
f  22/19/4 32/7/4 43/15/4
f  18/6/1 33/33/1 35/48/1
f  33/35/3 23/5/3 44/49/3
f  45/50/4 17/18/4 34/36/4
f  24/23/4 35/37/4 34/36/4
f  46/12/2 36/5/2 25/17/2
f  47/22/2 25/17/2 37/31/2
f  38/40/5 22/26/5 48/51/5
f  49/27/5 28/42/5 40/23/5
f  23/34/1 36/38/1 44/33/1
f  28/42/5 49/27/5 39/52/5
f  40/23/5 17/20/5 50/11/5
f  51/53/2 29/31/2 30/32/2
f  29/31/2 51/53/2 41/43/2
f  21/22/2 41/43/2 52/54/2
f  30/44/6 39/41/6 53/55/6
f  38/45/1 54/56/1 37/39/1
f  31/13/1 55/57/1 32/14/1
f  42/46/2 21/22/2 52/54/2
f  31/47/2 42/46/2 56/58/2
f  32/14/1 57/5/1 43/12/1
f  57/59/5 22/26/5 43/60/5
f  58/6/2 35/13/2 33/14/2
f  36/5/2 33/14/2 44/57/2
f  17/18/4 45/50/4 50/61/4
f  35/37/4 45/50/4 34/36/4
f  58/6/2 36/5/2 46/12/2
f  46/12/2 25/17/2 47/22/2
f  59/40/5 39/52/5 49/27/5
f  47/22/2 37/31/2 54/43/2
f  48/51/5 22/26/5 60/62/5
f  54/56/1 38/45/1 48/63/1
f  40/23/5 61/26/5 49/27/5
f  50/11/5 62/15/5 40/23/5
f  53/55/6 51/64/6 30/44/6
f  63/65/2 41/43/2 51/53/2
f  41/43/2 63/65/2 52/54/2
f  39/52/5 59/40/5 53/66/5
f  55/57/1 31/13/1 56/11/1
f  57/5/1 32/14/1 55/57/1
f  52/54/2 64/67/2 42/46/2
f  42/11/3 55/4/3 56/2/3
f  22/26/5 57/59/5 60/62/5
f  35/13/2 58/6/2 65/2/2
f  33/14/2 36/5/2 58/6/2
f  66/68/4 50/61/4 45/50/4
f  65/69/4 45/50/4 35/37/4
f  49/27/5 61/26/5 59/40/5
f  58/69/3 46/37/3 67/68/3
f  47/37/1 68/70/1 46/71/1
f  69/51/5 53/66/5 59/40/5
f  59/40/5 61/26/5 69/51/5
f  47/22/2 54/43/2 70/54/2
f  70/35/1 48/63/1 60/12/1
f  48/63/1 70/35/1 54/56/1
f  61/26/5 40/23/5 71/19/5
f  62/15/5 50/11/5 72/2/5
f  40/23/5 62/15/5 71/19/5
f  51/64/6 53/55/6 73/72/6
f  73/72/6 63/13/6 51/64/6
f  64/67/2 52/54/2 63/65/2
f  74/57/3 57/6/3 55/4/3
f  64/20/3 74/57/3 42/11/3
f  55/4/3 42/11/3 74/57/3
f  60/62/5 57/59/5 75/73/5
f  65/69/1 58/71/1 66/68/1
f  50/61/4 66/68/4 72/28/4
f  45/50/4 65/69/4 66/68/4
f  76/70/3 67/68/3 46/37/3
f  67/74/1 66/68/1 58/71/1
f  76/74/1 46/71/1 68/70/1
f  53/66/5 69/51/5 73/75/5
f  69/51/5 61/26/5 77/62/5
f  47/22/2 70/54/2 78/76/2
f  60/12/1 78/77/1 70/35/1
f  61/78/1 71/29/1 68/70/1
f  66/79/1 62/80/1 72/81/1
f  62/28/3 67/68/3 71/78/3
f  63/13/6 73/72/6 79/78/6
f  79/78/6 64/11/6 63/13/6
f  77/62/5 73/75/5 69/51/5
f  57/6/3 74/57/3 80/12/3
f  74/57/3 64/20/3 81/5/3
f  75/73/5 57/59/5 80/82/5
f  82/83/5 60/62/5 75/73/5
f  76/70/3 71/78/3 67/68/3
f  62/80/1 66/79/1 67/84/1
f  76/74/1 68/70/1 71/29/1
f  83/68/4 61/78/4 68/70/4
f  61/26/5 84/59/5 77/62/5
f  47/22/2 78/76/2 85/47/2
f  78/77/1 60/12/1 82/85/1
f  73/75/5 77/62/5 79/86/5
f  64/11/6 79/78/6 86/61/6
f  80/12/3 74/57/3 81/5/3
f  81/5/3 64/20/3 87/49/3
f  88/49/1 75/85/1 80/5/1
f  75/19/4 78/36/4 82/23/4
f  85/37/1 89/36/1 83/70/1
f  61/78/4 83/68/4 90/28/4
f  84/59/5 61/26/5 90/60/5
f  77/62/5 84/59/5 91/87/5
f  91/87/5 79/86/5 77/62/5
f  85/47/2 78/76/2 92/88/2
f  79/86/5 91/87/5 86/89/5
f  91/90/3 64/20/3 86/91/3
f  81/5/3 88/35/3 80/12/3
f  87/49/3 64/20/3 93/92/3
f  88/35/3 81/5/3 87/49/3
f  75/85/1 88/49/1 92/77/1
f  78/36/4 75/19/4 92/37/4
f  94/50/1 83/70/1 89/36/1
f  85/47/2 92/88/2 89/58/2
f  83/93/1 84/90/1 90/94/1
f  84/81/3 93/92/3 91/90/3
f  93/92/3 64/20/3 91/90/3
f  93/92/3 88/35/3 87/49/3
f  89/58/2 92/88/2 88/95/2
f  84/90/1 83/93/1 94/92/1
f  88/35/3 94/79/3 89/48/3
f  93/92/3 84/81/3 94/79/3
f  94/79/3 88/35/3 93/92/3

# Mesh 'mesh1_mesh1-geometry' with 306 faces
g mesh1_mesh1-geometry
usemtl material_1_24
f  3//6 2//6 1//6
f  4//6 1//6 2//6
f  3//5 5//5 2//5
f  6//4 3//4 1//4
f  1//6 4//6 7//6
f  4//3 2//3 8//3
f  9//5 2//5 5//5
f  10//5 5//5 3//5
f  3//4 6//4 10//4
f  1//4 7//4 6//4
f  11//6 7//6 4//6
f  9//3 8//3 2//3
f  4//3 8//3 11//3
f  26//1 9//1 5//1
f  5//6 9//6 26//6
f  5//5 12//5 9//5
f  5//5 10//5 13//5
f  6//6 14//6 10//6
f  15//4 6//4 7//4
f  7//2 11//2 16//2
f  9//1 26//1 8//1
f  8//6 26//6 9//6
f  9//3 17//3 8//3
f  18//3 11//3 8//3
f  5//1 27//1 26//1
f  26//6 27//6 5//6
f  26//4 28//4 5//4
f  5//3 28//3 26//3
f  19//5 9//5 12//5
f  12//5 5//5 20//5
f  5//4 28//4 12//4
f  12//3 28//3 5//3
f  21//5 13//5 10//5
f  13//5 20//5 5//5
f  27//1 5//1 13//1
f  13//6 5//6 27//6
f  21//6 10//6 14//6
f  14//6 6//6 22//6
f  15//6 22//6 6//6
f  15//2 7//2 23//2
f  18//2 16//2 11//2
f  23//2 7//2 16//2
f  8//1 26//1 24//1
f  24//6 26//6 8//6
f  8//3 17//3 24//3
f  19//3 17//3 9//3
f  24//3 18//3 8//3
f  27//6 26//6 25//6
f  27//2 22//2 26//2
f  36//4 28//4 26//4
f  26//3 28//3 36//3
f  19//1 12//1 17//1
f  12//1 20//1 28//1
f  28//1 17//1 12//1
f  29//5 13//5 21//5
f  13//4 39//4 20//4
f  20//3 39//3 13//3
f  20//5 13//5 30//5
f  27//4 39//4 13//4
f  13//3 39//3 27//3
f  13//1 38//1 27//1
f  27//6 38//6 13//6
f  21//3 14//3 31//3
f  14//3 22//3 32//3
f  22//2 15//2 26//2
f  23//2 26//2 15//2
f  16//6 18//6 33//6
f  16//4 33//4 23//4
f  24//1 26//1 23//1
f  23//6 26//6 24//6
f  24//3 17//3 34//3
f  18//3 24//3 35//3
f  36//6 25//6 26//6
f  25//4 39//4 27//4
f  27//3 39//3 25//3
f  25//6 37//6 27//6
f  38//2 22//2 27//2
f  28//4 36//4 40//4
f  40//3 36//3 28//3
f  26//6 23//6 36//6
f  39//1 28//1 20//1
f  28//2 40//2 17//2
f  29//5 30//5 13//5
f  38//1 13//1 29//1
f  29//6 13//6 38//6
f  41//5 29//5 21//5
f  20//1 30//1 39//1
f  38//6 27//6 37//6
f  32//3 31//3 14//3
f  31//5 42//5 21//5
f  43//3 32//3 22//3
f  35//6 33//6 18//6
f  44//4 23//4 33//4
f  24//1 23//1 44//1
f  44//6 23//6 24//6
f  34//3 17//3 45//3
f  24//1 44//1 34//1
f  34//6 44//6 24//6
f  34//3 35//3 24//3
f  49//1 36//1 25//1
f  25//6 36//6 49//6
f  25//5 36//5 46//5
f  39//4 25//4 49//4
f  49//3 25//3 39//3
f  59//1 25//1 37//1
f  37//6 25//6 59//6
f  37//5 25//5 47//5
f  48//2 22//2 38//2
f  40//1 44//1 36//1
f  36//6 44//6 40//6
f  36//1 49//1 40//1
f  40//6 49//6 36//6
f  40//2 28//2 49//2
f  44//6 36//6 23//6
f  39//2 49//2 28//2
f  50//2 17//2 40//2
f  29//4 53//4 30//4
f  30//3 53//3 29//3
f  30//5 29//5 51//5
f  38//4 53//4 29//4
f  29//3 53//3 38//3
f  29//1 48//1 38//1
f  38//6 48//6 29//6
f  48//1 29//1 41//1
f  41//6 29//6 48//6
f  41//5 51//5 29//5
f  52//5 41//5 21//5
f  53//1 39//1 30//1
f  37//4 53//4 38//4
f  38//3 53//3 37//3
f  37//6 54//6 38//6
f  32//6 55//6 31//6
f  52//5 21//5 42//5
f  56//5 42//5 31//5
f  43//6 57//6 32//6
f  43//2 22//2 57//2
f  33//5 35//5 58//5
f  44//5 33//5 36//5
f  50//3 45//3 17//3
f  34//3 45//3 35//3
f  45//1 34//1 44//1
f  44//6 34//6 45//6
f  25//1 59//1 49//1
f  49//6 59//6 25//6
f  46//5 36//5 58//5
f  47//5 25//5 46//5
f  49//2 39//2 59//2
f  53//4 37//4 59//4
f  59//3 37//3 53//3
f  37//1 69//1 59//1
f  59//6 69//6 37//6
f  54//5 37//5 47//5
f  60//2 22//2 48//2
f  48//6 38//6 54//6
f  44//1 40//1 45//1
f  45//6 40//6 44//6
f  49//2 61//2 40//2
f  45//1 40//1 50//1
f  50//6 40//6 45//6
f  40//2 62//2 50//2
f  30//1 51//1 53//1
f  41//1 60//1 48//1
f  48//6 60//6 41//6
f  48//4 73//4 41//4
f  41//3 73//3 48//3
f  51//5 41//5 63//5
f  41//4 73//4 51//4
f  51//3 73//3 41//3
f  52//5 63//5 41//5
f  60//1 41//1 52//1
f  52//6 41//6 60//6
f  53//2 59//2 39//2
f  69//1 37//1 54//1
f  54//6 37//6 69//6
f  56//6 31//6 55//6
f  55//6 32//6 57//6
f  42//5 64//5 52//5
f  74//1 52//1 42//1
f  42//6 52//6 74//6
f  56//4 55//4 42//4
f  60//2 57//2 22//2
f  65//5 58//5 35//5
f  58//5 36//5 33//5
f  45//3 50//3 66//3
f  35//3 45//3 65//3
f  59//2 61//2 49//2
f  67//4 46//4 58//4
f  46//6 68//6 47//6
f  59//2 53//2 69//2
f  69//2 61//2 59//2
f  70//5 54//5 47//5
f  60//6 48//6 70//6
f  54//4 73//4 48//4
f  48//3 73//3 54//3
f  54//6 70//6 48//6
f  71//2 40//2 61//2
f  72//2 50//2 62//2
f  71//2 62//2 40//2
f  73//1 53//1 51//1
f  51//1 63//1 73//1
f  63//5 52//5 64//5
f  52//4 79//4 63//4
f  63//3 79//3 52//3
f  52//1 74//1 60//1
f  60//6 74//6 52//6
f  60//4 79//4 52//4
f  52//3 79//3 60//3
f  54//1 77//1 69//1
f  69//6 77//6 54//6
f  73//4 54//4 69//4
f  69//3 54//3 73//3
f  55//4 57//4 74//4
f  42//4 74//4 64//4
f  74//4 42//4 55//4
f  75//2 57//2 60//2
f  66//6 58//6 65//6
f  72//3 66//3 50//3
f  66//3 65//3 45//3
f  46//4 67//4 76//4
f  58//6 66//6 67//6
f  68//6 46//6 76//6
f  83//3 47//3 68//3
f  68//4 47//4 83//4
f  73//2 69//2 53//2
f  77//2 61//2 69//2
f  77//1 54//1 70//1
f  70//6 54//6 77//6
f  78//5 70//5 47//5
f  70//4 79//4 60//4
f  60//3 79//3 70//3
f  70//6 78//6 60//6
f  68//6 71//6 61//6
f  72//6 62//6 66//6
f  71//4 67//4 62//4
f  79//1 73//1 63//1
f  63//1 64//1 79//1
f  60//1 74//1 81//1
f  81//6 74//6 60//6
f  69//2 73//2 77//2
f  80//4 74//4 57//4
f  81//4 64//4 74//4
f  80//2 57//2 75//2
f  75//2 60//2 82//2
f  67//4 71//4 76//4
f  67//6 66//6 62//6
f  71//6 68//6 76//6
f  47//3 83//3 85//3
f  85//4 83//4 47//4
f  68//3 61//3 83//3
f  77//2 84//2 61//2
f  70//1 93//1 77//1
f  77//6 93//6 70//6
f  79//4 70//4 77//4
f  77//3 70//3 79//3
f  78//1 93//1 70//1
f  70//6 93//6 78//6
f  85//5 78//5 47//5
f  82//6 60//6 78//6
f  79//2 77//2 73//2
f  86//1 79//1 64//1
f  81//4 74//4 80//4
f  60//1 81//1 82//1
f  82//6 81//6 60//6
f  87//4 64//4 81//4
f  80//6 75//6 88//6
f  80//5 82//5 75//5
f  75//2 82//2 80//2
f  82//3 78//3 75//3
f  83//6 89//6 85//6
f  90//3 83//3 61//3
f  90//2 61//2 84//2
f  91//2 84//2 77//2
f  77//1 93//1 91//1
f  91//6 93//6 77//6
f  77//2 79//2 91//2
f  93//1 78//1 87//1
f  87//6 78//6 93//6
f  92//5 78//5 85//5
f  82//1 87//1 78//1
f  78//6 87//6 82//6
f  86//2 91//2 79//2
f  86//4 64//4 91//4
f  80//4 88//4 81//4
f  82//5 80//5 81//5
f  81//2 80//2 82//2
f  87//1 82//1 81//1
f  81//6 82//6 87//6
f  93//4 64//4 87//4
f  87//4 81//4 88//4
f  92//6 88//6 75//6
f  92//3 75//3 78//3
f  89//6 83//6 94//6
f  89//5 92//5 85//5
f  90//6 84//6 83//6
f  91//4 93//4 84//4
f  91//4 64//4 93//4
f  87//2 92//2 78//2
f  78//5 92//5 87//5
f  87//4 88//4 93//4
f  92//2 87//2 88//2
f  88//5 87//5 92//5
f  88//5 92//5 89//5
f  94//6 83//6 84//6
f  89//4 94//4 88//4
f  94//4 84//4 93//4
f  93//4 88//4 94//4

# Mesh 'mesh2_mesh2-geometry' with 1 faces
g mesh2_mesh2-geometry
usemtl material_1_0
l  25 49

# Mesh 'mesh3_mesh3-geometry' with 1 faces
g mesh3_mesh3-geometry
usemtl material_1_0
l  37 59

# Mesh 'mesh4_mesh4-geometry' with 1 faces
g mesh4_mesh4-geometry
usemtl material_1_0
l  54 69

# Mesh 'mesh5_mesh5-geometry' with 1 faces
g mesh5_mesh5-geometry
usemtl material_1_0
l  40 36

# Mesh 'mesh6_mesh6-geometry' with 1 faces
g mesh6_mesh6-geometry
usemtl material_1_0
l  77 70

# Mesh 'mesh7_mesh7-geometry' with 1 faces
g mesh7_mesh7-geometry
usemtl material_1_0
l  5 26

# Mesh 'mesh8_mesh8-geometry' with 1 faces
g mesh8_mesh8-geometry
usemtl material_1_0
l  13 27

# Mesh 'mesh9_mesh9-geometry' with 1 faces
g mesh9_mesh9-geometry
usemtl material_1_0
l  29 38

# Mesh 'mesh10_mesh10-geometry' with 1 faces
g mesh10_mesh10-geometry
usemtl material_1_0
l  41 48

# Mesh 'mesh11_mesh11-geometry' with 1 faces
g mesh11_mesh11-geometry
usemtl material_1_0
l  52 60

# Mesh 'mesh12_mesh12-geometry' with 1 faces
g mesh12_mesh12-geometry
usemtl material_1_0
l  87 78

# Mesh 'mesh13_mesh13-geometry' with 1 faces
g mesh13_mesh13-geometry
usemtl material_1_0
l  81 82

# Mesh 'mesh14_mesh14-geometry' with 1 faces
g mesh14_mesh14-geometry
usemtl material_1_0
l  44 34

# Mesh 'mesh15_mesh15-geometry' with 1 faces
g mesh15_mesh15-geometry
usemtl material_1_0
l  68 47

