# File produced by Open Asset Import Library (http://www.assimp.sf.net)
# (assimp v3.2.202087883)

mtllib model_normalized.mtl

# 71 vertex positions
v -0.173781 -0.040203 0.063390
v -0.148575 -0.040203 -0.247611
v -0.148575 -0.040203 0.063390
v -0.173781 -0.040203 -0.247611
v -0.148575 -0.040203 -0.272818
v -0.148575 -0.040203 0.088596
v 0.162426 -0.040203 -0.272818
v -0.148575 -0.022807 0.063390
v -0.173781 -0.022807 -0.272818
v -0.173781 -0.022807 0.063390
v 0.162426 -0.040203 -0.247611
v 0.162426 -0.022807 0.088596
v 0.162426 -0.040203 0.063390
v 0.162426 -0.022807 0.063390
v -0.148575 -0.022807 0.088596
v 0.162426 -0.040203 0.088596
v 0.187632 -0.040203 -0.247611
v 0.187632 -0.022807 0.063390
v 0.187632 -0.022807 -0.272818
v 0.187632 -0.040203 0.063390
v -0.148575 -0.402327 0.063390
v -0.173781 -0.402327 -0.247611
v -0.148575 -0.402327 -0.272818
v -0.173781 -0.402327 0.063390
v -0.148575 -0.402327 -0.247611
v -0.173781 -0.402327 -0.272818
v -0.173781 -0.402327 0.088596
v -0.148575 -0.402327 0.088596
v -0.173781 0.457185 0.063390
v -0.173781 0.457185 0.088596
v 0.162426 -0.402327 -0.247611
v -0.148575 0.335323 0.063390
v 0.187632 0.457185 0.088596
v 0.162426 -0.402327 -0.272818
v 0.187632 -0.402327 -0.272818
v 0.162426 0.066726 0.067294
v -0.148575 0.066726 0.067294
v 0.162426 0.335323 0.063390
v -0.148575 0.271352 0.067294
v 0.187632 0.457185 0.063390
v -0.148575 0.335323 0.088596
v 0.162426 -0.402327 0.063390
v 0.187632 -0.402327 -0.247611
v -0.148575 0.066726 0.088596
v 0.162426 0.066726 0.088596
v -0.148575 0.271352 0.088596
v 0.162426 0.335323 0.088596
v 0.162426 -0.402327 0.088596
v 0.187632 -0.402327 0.063390
v -0.148575 0.083768 0.088596
v 0.162426 0.271352 0.067294
v 0.162426 0.083768 0.067294
v -0.148575 0.254312 0.067294
v -0.148575 0.254312 0.088596
v 0.162426 0.271352 0.088596
v 0.162426 0.083768 0.088596
v -0.148575 0.156259 0.088596
v -0.148575 0.083768 0.067294
v 0.162426 0.254312 0.067294
v -0.148575 0.173299 0.067294
v -0.148575 0.173299 0.088596
v 0.162426 0.254312 0.088596
v 0.187632 -0.402327 0.088596
v 0.162426 0.156259 0.067294
v 0.162426 0.156259 0.088596
v -0.148575 0.156259 0.067294
v 0.162426 0.173299 0.088596
v 0.162426 0.173299 0.067294
v -0.148575 -0.030262 0.063390
v -0.148575 -0.030262 0.088596
v -0.173781 -0.030262 0.063390

# 124 UV coordinates
vt -1.018 2.3675 0
vt -0.947 0.1775 0
vt -0.947 2.3675 0
vt -1.018 0.1775 0
vt -0.947 0 0
vt -0.947 2.545 0
vt -0.071 0 0
vt 0.947 2.3675 0
vt 1.018 0 0
vt 1.018 2.3675 0
vt -0.071 0.1775 0
vt 0.071 2.545 0
vt -0.071 2.3675 0
vt 0.071 2.3675 0
vt 0.947 2.545 0
vt -0.071 2.545 0
vt 0 0.1775 0
vt 0 2.3675 0
vt 0 0 0
vt 0.4735 -0.51 0
vt 0.509 -0 0
vt 0.4735 -0 0
vt 0.4735 0.0245 0
vt 0.0355 0 0
vt -0.509 -0.51 0
vt -0.4735 0 0
vt -0.509 0 0
vt -0.0355 0 0
vt -0 -0.51 0
vt 0.509 -0.51 0
vt -0.4735 -0.51 0
vt 0 0.0245 0
vt 0.0355 -0.51 0
vt -0.0355 -0.51 0
vt 0.509 0.0245 0
vt 0.4735 0.7005 0
vt 0.509 0.7005 0
vt -0.509 0.7005 0
vt 0.4735 0.528875 0
vt 0 0.509 0
vt 0.509 0.4735 0
vt 0.509 0.509 0
vt -0.4735 0.0245 0
vt 0.479 0.150594 0
vt -0.0355 0.0245 0
vt -0.479 0.150594 0
vt -0.509 0.0245 0
vt 0.0355 0.528875 0
vt -0.4735 0.528875 0
vt -0.479 0.438781 0
vt 0 0.4735 0
vt 0 0.7005 0
vt -0.4735 0.150594 0
vt 0.0355 0.0245 0
vt 0.509 0.150594 0
vt -0.509 0.150594 0
vt -0.509 0.528875 0
vt -0.4735 0.7005 0
vt -0.4735 0.438781 0
vt -0.0355 0.528875 0
vt -0.4735 0.174594 0
vt 0.479 0.438781 0
vt -0.0355 0.150594 0
vt -0.479 0.414781 0
vt -0.509 0.438781 0
vt -0.4735 0.414781 0
vt -0.0355 0.438781 0
vt -0.4735 0.276687 0
vt 0.509 0.528875 0
vt 0.479 0.174594 0
vt -0.0355 0.174594 0
vt -0.479 0.300687 0
vt -0.4735 0.300687 0
vt -0.0355 0.414781 0
vt 0.509 0.438781 0
vt -0.479 0.174594 0
vt -0.509 0.276687 0
vt -0.509 0.174594 0
vt 0.479 0.276687 0
vt -0.0355 0.276687 0
vt 0.509 0.174594 0
vt -0.509 0.414781 0
vt -0.479 0.276687 0
vt -0.509 0.300687 0
vt -0.0355 0.300687 0
vt 0.479 0.300687 0
vt 0.509 0.276687 0
vt 0.479 0.414781 0
vt 0.509 0.300687 0
vt 0.509 0.414781 0
vt -0.071 1.14897 0
vt -0.947 1.23511 0
vt -0.947 1.14897 0
vt -0.071 1.16231 0
vt -0.071 1.23511 0
vt -0.947 1.16231 0
vt -0.947 0.365422 0
vt -0.071 0.423659 0
vt -0.947 0.423659 0
vt -0.071 0.365422 0
vt 0.071 0.365422 0
vt 0.947 0.423659 0
vt 0.071 0.423659 0
vt 0.947 1.06472 0
vt 0.071 1.00648 0
vt 0.947 1.00648 0
vt 0.947 0.365422 0
vt 0.071 1.23511 0
vt 0.947 1.16231 0
vt 0.947 1.23511 0
vt -0.947 1.00648 0
vt -0.071 1.06472 0
vt -0.947 1.06472 0
vt 0.071 1.16231 0
vt 0.071 1.06472 0
vt -0.071 1.00648 0
vt -0.947 0.671393 0
vt -0.071 0.72963 0
vt -0.947 0.72963 0
vt 0.947 0.72963 0
vt 0.071 0.671393 0
vt 0.947 0.671393 0
vt -0.071 0.671393 0
vt 0.071 0.72963 0

# 6 vertex normals
vn 0 -0.3048 0
vn 0 0.3048 0
vn 0 0 0.3048
vn 0.3048 -0 -0
vn 0 -0 -0.3048
vn -0.3048 0 0

# Mesh 'mesh1_mesh1-geometry' with 16 faces
g mesh1_mesh1-geometry
usemtl material_0_1_8
f  1/1/1 2/2/1 3/3/1
f  2/2/1 1/1/1 4/4/1
f  5/5/1 3/3/1 2/2/1
f  5/5/1 6/6/1 3/3/1
f  7/7/1 6/6/1 5/5/1
f  8/8/2 9/9/2 10/10/2
f  11/11/1 6/6/1 7/7/1
f  12/12/2 9/9/2 8/8/2
f  13/13/1 6/6/1 11/11/1
f  14/14/2 9/9/2 12/12/2
f  15/15/2 12/12/2 8/8/2
f  6/6/1 13/13/1 16/16/1
f  17/17/1 13/13/1 11/11/1
f  9/9/2 18/18/2 19/19/2
f  18/18/2 9/9/2 14/14/2
f  13/13/1 17/17/1 20/18/1

# Mesh 'mesh1_mesh1-geometry' with 180 faces
g mesh1_mesh1-geometry
usemtl material_1_24
f  3/19/2 2/19/2 1/19/2
f  4/19/2 1/19/2 2/19/2
f  2/19/2 3/19/2 5/19/2
f  3/19/3 1/19/3 21/19/3
f  1/19/4 4/19/4 10/19/4
f  4/19/5 2/19/5 22/19/5
f  3/19/2 6/19/2 5/19/2
f  5/19/6 23/19/6 2/19/6
f  24/19/3 21/19/3 1/19/3
f  3/19/6 21/19/6 6/19/6
f  10/19/4 4/19/4 9/19/4
f  24/19/4 1/19/4 10/19/4
f  25/19/5 22/19/5 2/19/5
f  22/19/4 26/19/4 4/19/4
f  5/19/2 6/19/2 7/19/2
f  25/19/6 2/19/6 23/19/6
f  5/19/3 9/19/3 23/19/3
f  21/19/1 27/19/1 24/19/1
f  24/19/2 27/19/2 21/19/2
f  28/19/6 6/19/6 21/19/6
f  26/19/4 9/19/4 4/19/4
f  10/19/1 9/19/1 8/19/1
f  29/19/4 24/19/4 10/19/4
f  22/19/1 23/19/1 25/19/1
f  25/19/2 23/19/2 22/19/2
f  23/19/1 22/19/1 26/19/1
f  26/19/2 22/19/2 23/19/2
f  7/19/2 6/19/2 11/19/2
f  7/19/3 9/19/3 5/19/3
f  26/19/3 23/19/3 9/19/3
f  27/19/1 21/19/1 28/19/1
f  28/19/2 21/19/2 27/19/2
f  27/19/4 24/19/4 30/19/4
f  28/19/5 27/19/5 6/19/5
f  8/19/1 9/19/1 12/19/1
f  10/19/3 8/19/3 29/19/3
f  30/19/4 24/19/4 29/19/4
f  11/19/2 6/19/2 13/19/2
f  11/19/4 31/19/4 7/19/4
f  9/19/3 7/19/3 19/19/3
f  30/19/5 6/19/5 27/19/5
f  12/19/1 9/19/1 14/19/1
f  8/19/1 12/19/1 15/19/1
f  32/19/3 29/19/3 8/19/3
f  30/19/1 29/19/1 33/19/1
f  16/19/2 13/19/2 6/19/2
f  11/19/2 13/19/2 17/19/2
f  34/19/4 7/19/4 31/19/4
f  11/19/5 17/19/5 31/19/5
f  19/19/3 7/19/3 35/19/3
f  19/19/1 18/19/1 9/19/1
f  15/19/5 6/19/5 30/19/5
f  14/19/1 9/19/1 18/19/1
f  12/19/4 14/19/4 36/19/4
f  12/19/5 6/19/5 15/19/5
f  15/19/6 37/19/6 8/19/6
f  38/19/3 29/19/3 32/19/3
f  8/19/6 39/19/6 32/19/6
f  40/19/1 33/19/1 29/19/1
f  33/19/5 41/19/5 30/19/5
f  13/19/4 16/19/4 42/19/4
f  6/19/5 12/19/5 16/19/5
f  20/19/2 17/19/2 13/19/2
f  34/19/3 35/19/3 7/19/3
f  35/19/1 31/19/1 34/19/1
f  34/19/2 31/19/2 35/19/2
f  43/19/5 31/19/5 17/19/5
f  35/19/6 17/19/6 19/19/6
f  18/19/6 19/19/6 17/19/6
f  44/19/5 15/19/5 30/19/5
f  14/19/3 18/19/3 38/19/3
f  38/19/4 36/19/4 14/19/4
f  45/19/4 12/19/4 36/19/4
f  39/19/6 8/19/6 37/19/6
f  44/19/6 37/19/6 15/19/6
f  29/19/3 38/19/3 40/19/3
f  32/19/2 41/19/2 38/19/2
f  41/19/6 32/19/6 39/19/6
f  40/19/6 18/19/6 33/19/6
f  41/19/5 46/19/5 30/19/5
f  41/19/5 33/19/5 47/19/5
f  48/19/4 42/19/4 16/19/4
f  42/19/3 49/19/3 13/19/3
f  12/19/5 33/19/5 16/19/5
f  20/19/6 18/19/6 17/19/6
f  20/19/3 13/19/3 49/19/3
f  31/19/1 35/19/1 43/19/1
f  43/19/2 35/19/2 31/19/2
f  17/19/6 35/19/6 43/19/6
f  50/19/5 44/19/5 30/19/5
f  40/19/3 38/19/3 18/19/3
f  36/19/4 38/19/4 51/19/4
f  45/19/5 33/19/5 12/19/5
f  45/19/2 36/19/2 44/19/2
f  45/19/6 52/19/6 36/19/6
f  36/19/4 52/19/4 45/19/4
f  53/19/6 39/19/6 37/19/6
f  37/19/4 50/19/4 44/19/4
f  44/19/6 50/19/6 37/19/6
f  37/19/2 44/19/2 36/19/2
f  47/19/2 38/19/2 41/19/2
f  46/19/6 41/19/6 39/19/6
f  20/19/6 33/19/6 18/19/6
f  46/19/5 54/19/5 30/19/5
f  47/19/5 33/19/5 55/19/5
f  49/19/1 48/19/1 42/19/1
f  42/19/2 48/19/2 49/19/2
f  16/19/5 33/19/5 48/19/5
f  49/19/6 33/19/6 20/19/6
f  50/19/5 56/19/5 44/19/5
f  57/19/5 50/19/5 30/19/5
f  47/19/4 51/19/4 38/19/4
f  52/19/4 36/19/4 51/19/4
f  56/19/5 33/19/5 45/19/5
f  45/19/5 44/19/5 56/19/5
f  52/19/6 45/19/6 56/19/6
f  56/19/4 45/19/4 52/19/4
f  52/19/3 58/19/3 36/19/3
f  53/19/3 59/19/3 39/19/3
f  46/19/4 53/19/4 39/19/4
f  39/19/6 53/19/6 46/19/6
f  60/19/6 53/19/6 37/19/6
f  50/19/4 37/19/4 58/19/4
f  58/19/6 37/19/6 50/19/6
f  37/19/3 36/19/3 58/19/3
f  46/19/1 39/19/1 55/19/1
f  54/19/5 61/19/5 30/19/5
f  46/19/5 55/19/5 54/19/5
f  53/19/4 46/19/4 54/19/4
f  54/19/6 46/19/6 53/19/6
f  55/19/5 33/19/5 62/19/5
f  55/19/4 51/19/4 47/19/4
f  48/19/1 49/19/1 63/19/1
f  63/19/2 49/19/2 48/19/2
f  63/19/5 48/19/5 33/19/5
f  63/19/6 33/19/6 49/19/6
f  50/19/1 58/19/1 56/19/1
f  50/19/6 57/19/6 58/19/6
f  61/19/5 57/19/5 30/19/5
f  64/19/4 52/19/4 51/19/4
f  65/19/5 33/19/5 56/19/5
f  52/19/4 64/19/4 56/19/4
f  52/19/1 56/19/1 58/19/1
f  51/19/3 39/19/3 59/19/3
f  53/19/2 54/19/2 59/19/2
f  53/19/6 60/19/6 54/19/6
f  66/19/6 60/19/6 37/19/6
f  58/19/6 66/19/6 37/19/6
f  51/19/1 55/19/1 39/19/1
f  61/19/6 54/19/6 60/19/6
f  62/19/5 54/19/5 55/19/5
f  62/19/5 33/19/5 67/19/5
f  51/19/6 62/19/6 55/19/6
f  55/19/4 62/19/4 51/19/4
f  66/19/6 58/19/6 57/19/6
f  61/19/5 67/19/5 57/19/5
f  66/19/4 61/19/4 57/19/4
f  57/19/6 61/19/6 66/19/6
f  68/19/4 64/19/4 51/19/4
f  67/19/5 33/19/5 65/19/5
f  65/19/4 56/19/4 64/19/4
f  62/19/6 51/19/6 59/19/6
f  59/19/4 51/19/4 62/19/4
f  59/19/4 68/19/4 51/19/4
f  62/19/2 59/19/2 54/19/2
f  66/19/3 64/19/3 60/19/3
f  61/19/4 66/19/4 60/19/4
f  60/19/6 66/19/6 61/19/6
f  61/19/1 60/19/1 67/19/1
f  62/19/4 67/19/4 59/19/4
f  66/19/2 57/19/2 64/19/2
f  65/19/5 57/19/5 67/19/5
f  68/19/3 60/19/3 64/19/3
f  65/19/6 68/19/6 64/19/6
f  64/19/4 68/19/4 65/19/4
f  68/19/6 65/19/6 67/19/6
f  67/19/4 65/19/4 68/19/4
f  65/19/2 64/19/2 57/19/2
f  68/19/4 59/19/4 67/19/4
f  68/19/1 67/19/1 60/19/1

# Mesh 'mesh1_mesh1-geometry' with 98 faces
g mesh1_mesh1-geometry
usemtl material_2_2_8
f  21/20/5 1/21/5 3/22/5
f  10/23/6 4/24/6 1/22/6
f  22/25/3 2/26/3 4/27/3
f  2/28/4 23/29/4 5/19/4
f  1/21/5 21/20/5 24/30/5
f  6/27/4 21/31/4 3/26/4
f  9/32/6 4/24/6 10/23/6
f  10/23/6 1/22/6 24/20/6
f  2/26/3 22/25/3 25/31/3
f  4/24/6 26/29/6 22/33/6
f  23/29/4 2/28/4 25/34/4
f  23/20/5 9/35/5 5/22/5
f  21/31/4 6/27/4 28/25/4
f  4/24/6 9/32/6 26/29/6
f  10/23/6 24/20/6 29/36/6
f  5/22/5 9/35/5 7/24/5
f  9/35/5 23/20/5 26/30/5
f  30/37/6 24/20/6 27/30/6
f  6/26/3 27/25/3 28/31/3
f  29/37/5 8/23/5 10/35/5
f  29/36/6 24/20/6 30/37/6
f  7/19/6 31/33/6 11/24/6
f  19/32/5 7/24/5 9/35/5
f  27/25/3 6/26/3 30/38/3
f  8/23/5 29/37/5 32/39/5
f  33/40/2 29/41/2 30/42/2
f  31/33/6 7/19/6 34/29/6
f  31/34/3 17/19/3 11/28/3
f  35/29/5 7/24/5 19/32/5
f  30/38/3 6/26/3 15/43/3
f  36/44/6 14/23/6 12/35/6
f  15/43/3 6/26/3 12/45/3
f  8/43/4 37/46/4 15/47/4
f  32/39/5 29/37/5 38/48/5
f  32/49/4 39/50/4 8/43/4
f  29/41/2 33/40/2 40/51/2
f  30/38/3 41/49/3 33/52/3
f  42/20/6 16/21/6 13/22/6
f  16/28/3 12/45/3 6/26/3
f  7/24/5 35/29/5 34/33/5
f  17/19/3 31/34/3 43/29/3
f  19/32/4 17/28/4 35/29/4
f  17/28/4 19/32/4 18/43/4
f  30/38/3 15/43/3 44/53/3
f  38/48/5 18/32/5 14/54/5
f  14/23/6 36/44/6 38/39/6
f  36/44/6 12/35/6 45/55/6
f  37/46/4 8/43/4 39/50/4
f  15/47/4 37/46/4 44/56/4
f  40/52/5 38/48/5 29/37/5
f  39/50/4 32/49/4 41/57/4
f  33/38/4 18/43/4 40/58/4
f  30/38/3 46/59/3 41/49/3
f  47/60/3 33/52/3 41/49/3
f  16/21/6 42/20/6 48/30/6
f  13/24/5 49/29/5 42/33/5
f  16/28/3 33/52/3 12/45/3
f  17/28/4 18/43/4 20/26/4
f  49/29/5 13/24/5 20/19/5
f  43/34/4 35/29/4 17/28/4
f  30/38/3 44/53/3 50/61/3
f  18/32/5 38/48/5 40/52/5
f  51/62/6 38/39/6 36/44/6
f  12/45/3 33/52/3 45/63/3
f  37/46/4 39/50/4 53/64/4
f  39/50/4 41/57/4 46/65/4
f  18/43/4 33/38/4 20/26/4
f  30/38/3 54/66/3 46/59/3
f  55/67/3 33/52/3 47/60/3
f  48/34/3 33/52/3 16/28/3
f  20/26/4 33/38/4 49/31/4
f  30/38/3 50/61/3 57/68/3
f  38/39/6 51/62/6 47/69/6
f  51/62/6 36/44/6 52/70/6
f  45/63/3 33/52/3 56/71/3
f  37/46/4 53/64/4 60/72/4
f  30/38/3 61/73/3 54/66/3
f  62/74/3 33/52/3 55/67/3
f  47/69/6 51/62/6 55/75/6
f  33/52/3 48/34/3 63/29/3
f  49/31/4 33/38/4 63/25/4
f  58/76/4 57/77/4 50/78/4
f  30/38/3 57/68/3 61/73/3
f  51/62/6 52/70/6 64/79/6
f  56/71/3 33/52/3 65/80/3
f  56/81/6 64/79/6 52/70/6
f  54/82/4 60/72/4 53/64/4
f  37/46/4 60/72/4 66/83/4
f  37/46/4 66/83/4 58/76/4
f  60/72/4 54/82/4 61/84/4
f  67/85/3 33/52/3 62/74/3
f  57/77/4 58/76/4 66/83/4
f  51/62/6 64/79/6 68/86/6
f  65/80/3 33/52/3 67/85/3
f  64/79/6 56/81/6 65/87/6
f  51/62/6 68/86/6 59/88/6
f  59/88/6 67/89/6 62/90/6
f  67/89/6 59/88/6 68/86/6

# Mesh 'mesh1_mesh1-geometry' with 26 faces
g mesh1_mesh1-geometry
usemtl material_3_3_8
f  38/91/1 41/92/1 32/93/1
f  44/92/1 36/94/1 45/95/1
f  36/94/1 44/92/1 37/96/1
f  41/92/1 38/91/1 47/95/1
f  44/97/3 56/98/3 50/99/3
f  56/98/3 44/97/3 45/100/3
f  36/101/5 58/102/5 52/103/5
f  39/104/5 59/105/5 53/106/5
f  58/102/5 36/101/5 37/107/5
f  55/108/2 39/109/2 46/110/2
f  54/111/3 55/112/3 46/113/3
f  56/108/2 58/109/2 50/110/2
f  58/109/2 56/108/2 52/114/2
f  59/105/5 39/104/5 51/115/5
f  59/94/1 54/92/1 53/96/1
f  39/109/2 55/108/2 51/114/2
f  55/112/3 54/111/3 62/116/3
f  57/117/3 67/118/3 61/119/3
f  54/92/1 59/94/1 62/95/1
f  60/120/5 64/121/5 66/122/5
f  67/108/2 60/109/2 61/110/2
f  64/94/1 57/92/1 66/96/1
f  67/118/3 57/117/3 65/123/3
f  64/121/5 60/120/5 68/124/5
f  57/92/1 64/94/1 65/95/1
f  60/109/2 67/108/2 68/114/2

# Mesh 'mesh2_mesh2-geometry' with 3 faces
g mesh2_mesh2-geometry
usemtl material_1_0
l  69 70
l  69 71
l  69 8

# Mesh 'mesh3_mesh3-geometry' with 2 faces
g mesh3_mesh3-geometry
usemtl material_1_0
l  31 43
l  34 31

# Mesh 'mesh4_mesh4-geometry' with 2 faces
g mesh4_mesh4-geometry
usemtl material_1_0
l  42 48
l  48 63

# Mesh 'mesh5_mesh5-geometry' with 3 faces
g mesh5_mesh5-geometry
usemtl material_1_0
l  21 24
l  21 28
l  27 28

