# File produced by Open Asset Import Library (http://www.assimp.sf.net)
# (assimp v3.2.202087883)

mtllib model_normalized.mtl

# 98 vertex positions
v 0.327783 -0.142754 -0.179487
v 0.355562 -0.142754 -0.207265
v 0.355562 -0.142754 -0.179487
v 0.327783 -0.142754 -0.207265
v 0.359034 -0.121052 -0.176014
v 0.324311 -0.121052 -0.176014
v 0.324311 -0.121052 -0.210738
v 0.359034 -0.121052 -0.210738
v 0.355562 -0.142754 0.179034
v 0.324311 -0.121052 0.175562
v 0.359034 -0.121052 0.175562
v 0.327783 -0.142754 0.179034
v 0.324311 -0.121052 0.210285
v 0.359034 -0.121052 0.210285
v 0.341673 -0.142754 0.179034
v 0.327783 -0.142754 0.206813
v 0.355562 -0.142754 0.206813
v -0.370160 -0.142754 0.206813
v -0.338909 -0.121052 0.210285
v -0.373633 -0.121052 0.210285
v -0.338909 -0.121052 -0.210738
v -0.338909 -0.121052 -0.176014
v -0.342381 -0.142754 -0.207265
v -0.370160 -0.142754 0.179034
v -0.373633 -0.121052 0.175562
v -0.342381 -0.142754 0.206813
v -0.373633 -0.121052 -0.210738
v -0.370160 -0.142754 -0.207265
v -0.342381 -0.142754 -0.179487
v -0.342381 -0.142754 0.179034
v -0.338909 -0.121052 0.175562
v -0.373633 -0.121052 -0.176014
v -0.370160 -0.142754 -0.179487
v 0.322141 -0.121052 -0.212908
v 0.359034 -0.121052 -0.212908
v 0.361205 -0.121052 0.212456
v -0.336739 -0.121052 -0.212908
v 0.322141 -0.012541 -0.212908
v 0.361205 -0.121052 -0.212908
v -0.375803 -0.121052 0.212456
v 0.361205 0.165418 0.212456
v -0.011205 -0.012541 -0.212908
v -0.375803 -0.121052 -0.212908
v 0.395928 0.165418 -0.212908
v -0.354101 0.165418 0.212456
v -0.375803 0.165418 0.212456
v -0.003393 -0.012541 -0.212908
v -0.336739 -0.012541 -0.212908
v 0.322141 0.043885 -0.212908
v 0.361205 0.165418 -0.212908
v 0.339502 0.165418 0.212456
v -0.410526 0.165418 -0.212908
v -0.003393 -0.012541 0.090923
v 0.322141 -0.012541 -0.234610
v -0.011205 -0.012541 0.090923
v -0.336739 -0.012541 0.090923
v -0.011205 -0.012541 -0.234610
v 0.322141 0.043885 0.038838
v 0.322141 0.061247 -0.212908
v 0.330822 0.165418 0.169051
v -0.375803 0.165418 -0.212908
v 0.322141 -0.012541 0.090923
v -0.003393 0.043885 0.038838
v -0.003393 -0.012541 -0.234610
v -0.011205 0.043885 0.038838
v -0.336739 0.043885 -0.212908
v -0.336739 -0.012541 -0.234610
v -0.003393 0.043885 -0.234610
v 0.322141 0.043885 -0.234610
v -0.345420 0.165418 0.169051
v 0.322141 0.165418 0.169051
v -0.336739 0.061247 -0.212908
v 0.322141 0.043885 0.090923
v -0.011205 0.043885 0.090923
v -0.003393 0.043885 0.090923
v -0.336739 0.043885 0.038838
v -0.336739 0.043885 -0.234610
v -0.011205 0.043885 -0.234610
v 0.322141 0.061247 0.049999
v -0.336739 0.165418 0.169051
v 0.322141 0.061247 0.102084
v -0.003393 0.165418 0.169051
v -0.003393 0.244239 0.167637
v -0.336739 0.043885 0.090923
v -0.011205 0.244239 0.167637
v -0.336739 0.061247 0.049999
v 0.322141 0.061247 0.090923
v -0.011205 0.165418 0.169051
v -0.336739 0.061247 0.102084
v 0.330822 0.043885 0.090923
v 0.322141 0.244239 0.167637
v -0.003393 0.219138 0.203585
v -0.336739 0.061247 0.090923
v -0.336739 0.219138 0.203585
v -0.336739 0.244239 0.167637
v 0.322141 0.219138 0.203585
v -0.011205 0.219138 0.203585
v -0.345420 0.043885 0.090923

# 335 UV coordinates
vt -0.034996 0.034996 0
vt 0 0 0
vt 0 0.034996 0
vt -0.034996 0 0
vt -0.03937 0.027688 0
vt 0.004374 0.033217 0
vt -0.034996 0.005529 0
vt 0 0.005529 0
vt 0.03937 0.033217 0
vt 0.034996 0.005529 0
vt 0.03937 0.027688 0
vt 0.034996 -0 0
vt 0.004374 0.027688 0
vt -0.03937 0.033217 0
vt -0.004374 0.033217 0
vt -0.004374 0.027688 0
vt -0 -0.076887 0
vt 0.03937 -0.049199 0
vt -0.004374 -0.049199 0
vt 0.486658 0.005529 0
vt 0.526028 0.033217 0
vt 0.482283 0.033217 0
vt -0.526028 0.027688 0
vt -0.486658 -0 0
vt -0.482283 0.027688 0
vt 0.017498 -0.076887 0
vt -0.034996 0.082416 0
vt 0.004374 0.110104 0
vt -0.03937 0.110104 0
vt 0.521654 0.005529 0
vt 0.034996 -0.076887 0
vt -0.521654 -0 0
vt 0 0.486658 0
vt -0.034996 0.521654 0
vt -0.017498 0.486658 0
vt 0 0.082416 0
vt -0.034996 0.486658 0
vt 0 0.521654 0
vt -0.914261 0.082416 0
vt -0.874891 0.110104 0
vt -0.918635 0.110104 0
vt -0.004374 -0.111227 0
vt 0.03937 -0.111227 0
vt 0 -0.138916 0
vt 0.486658 0.144445 0
vt 0.526028 0.172133 0
vt 0.482283 0.172133 0
vt -0.879265 0.082416 0
vt 0.521654 0.144445 0
vt -0.918635 0.027688 0
vt -0.874891 0.027688 0
vt -0.914261 -0 0
vt 0.034996 -0.138916 0
vt -0.879265 -0 0
vt -0.526028 -0.111227 0
vt -0.486658 -0.138916 0
vt -0.482283 -0.111227 0
vt 0.879265 -0.076887 0
vt 0.918635 -0.049199 0
vt 0.874891 -0.049199 0
vt 0.914261 -0.076887 0
vt -0.914261 0.521654 0
vt -0.879265 0.486658 0
vt -0.879265 0.521654 0
vt -0.521654 -0.138916 0
vt -0.914261 0.486658 0
vt 0.004374 0.172133 0
vt 0 0.144445 0
vt -0.03937 0.172133 0
vt -0.914261 0.005529 0
vt -0.874891 0.033217 0
vt -0.918635 0.033217 0
vt -0.914261 0.034996 0
vt -0.879265 0.034996 0
vt -0.879265 0.005529 0
vt -0.034996 0.144445 0
vt 0 0.64 0
vt -0.641527 0.64 0
vt -0.641527 0 0
vt -0.721718 0.50636 0
vt 0 0.101114 0
vt -0.641527 0.101114 0
vt 0.080191 0.607473 0
vt 0.641527 0.101114 0
vt 0.721718 0.607473 0
vt 0.641527 -0 0
vt 0.721718 0.50636 0
vt 0.080191 0.50636 0
vt -0.721718 0.607473 0
vt -0.080191 0.607473 0
vt -0.080191 0.50636 0
vt 0.721718 -0.08 0
vt -0.080191 0.72 0
vt -0.080191 -0.08 0
vt -0.080191 8.82 0
vt 0.721718 0.72 0
vt 0.721718 8.82 0
vt 0.771838 -0.13 0
vt -0.080191 -0.13 0
vt 0.721718 9.62 0
vt 16.0382 9.62 0
vt -0.13031 9.67 0
vt -0.080191 9.62 0
vt -0.080191 -0.899756 0
vt 0.721718 -0.899756 0
vt -0 -1.40612 0
vt 8.84105 0.607473 0
vt 9.64296 0.607473 0
vt 8.92124 0.101114 0
vt 15.9881 -0.13 0
vt 0.771838 3 0
vt -0.080191 0.5 0
vt 0.771838 0.5 0
vt -0.13031 -0.13 0
vt -8.84105 0.50636 0
vt -8.92124 -0 0
vt -9.64296 0.50636 0
vt 0.320764 -1.40612 0
vt 16.8902 9.67 0
vt -0.721718 2.01359 0
vt 0.080191 2.01359 0
vt -0.641527 1.50723 0
vt 9.56277 0.101114 0
vt 0.641527 -1.40612 0
vt -0.771838 3 0
vt -15.9881 0.5 0
vt -0.771838 0.5 0
vt 16.0382 -0.08 0
vt -0.13031 0.5 0
vt 9.69308 7.1 0
vt 9.69308 0.5 0
vt -9.56277 -0 0
vt -0.320764 8.9 0
vt -0.641527 9.54 0
vt 0 8.9 0
vt 16.8401 9.62 0
vt 0 1.50723 0
vt -0.641527 8.9 0
vt -8.47017 3 0
vt 16.8902 -0.13 0
vt 16.0382 0.72 0
vt -0.93222 7.1 0
vt 9.65034 7.15865 0
vt -0.205725 7.15865 0
vt -0.140481 0.510662 0
vt 16.389 7.1 0
vt -0.13031 7.1 0
vt 16.8902 7.1 0
vt 16.8902 0.5 0
vt 0 9.54 0
vt 16.8401 8.82 0
vt -16.8401 2.01359 0
vt -16.0382 2.01359 0
vt -16.7599 1.50723 0
vt -8.28974 3 0
vt -15.9881 3 0
vt 16.8401 -0.08 0
vt -16.8902 0.5 0
vt 0 -2.54049 0
vt 0.721718 -2.03413 0
vt -0.080191 -2.03413 0
vt 16.0382 8.82 0
vt 0.771838 4.3 0
vt -0.93222 -0.13 0
vt 0.370883 7.1 0
vt -8.28672 0.5 0
vt 1.56934 7.1 0
vt -8.28672 7.1 0
vt 8.84105 3.14796 0
vt 9.64296 3.14796 0
vt 8.92124 2.6416 0
vt -16.1184 1.50723 0
vt 9.56277 2.6416 0
vt -9.69308 2.52395 0
vt 0.13031 2.52395 0
vt 0.13031 9.17226 0
vt -0.771838 -0.13 0
vt -8.28974 6.87 0
vt -8.28974 -0.13 0
vt -0.771838 -0.63 0
vt -8.47017 6.87 0
vt -8.47017 -0.13 0
vt -15.9881 6.87 0
vt -15.9881 -0.13 0
vt -8.47017 -0.63 0
vt 16.8401 0.72 0
vt -16.7599 -0 0
vt -16.0382 0.50636 0
vt -16.8401 0.50636 0
vt -17.6921 7.1 0
vt 0.641527 -2.54049 0
vt -16.1184 -0 0
vt -8.84105 -2.03413 0
vt -8.92124 -2.54049 0
vt -9.64296 -2.03413 0
vt -5.68353 4.3 0
vt 0.13031 3 0
vt 0.13031 4.3 0
vt 0.631504 3 0
vt 0.771838 4.7 0
vt 0.57136 8.67 0
vt -16.8902 -0.13 0
vt -16.389 9.67 0
vt -16.8902 9.67 0
vt 16.389 9.67 0
vt 0.370883 9.67 0
vt -17.6921 -0.13 0
vt 16.0382 -0.899756 0
vt 16.8401 -0.899756 0
vt 16.1184 -1.40612 0
vt 16.7599 -1.40612 0
vt -16.1184 9.54 0
vt -16.1184 8.9 0
vt -16.7599 9.54 0
vt -9.56277 -2.54049 0
vt -16.7599 8.9 0
vt -0.771838 6.87 0
vt 5.68353 4.3 0
vt -0.13031 3 0
vt 6.8864 3 0
vt -8.28974 -0.63 0
vt -6.8864 3 0
vt -0.13031 4.3 0
vt -15.9881 -0.63 0
vt -0.721718 3.14796 0
vt 0 2.6416 0
vt 0.080191 3.14796 0
vt -15.9881 4.3 0
vt -16.8401 0.607473 0
vt -16.0382 0.607473 0
vt -16.7599 0.101114 0
vt -16.1184 0.64 0
vt -16.7599 0.64 0
vt -16.1184 0.101114 0
vt 0.13031 4.7 0
vt 8.28974 -0.63 0
vt 0.771838 5.67 0
vt 0.631504 4.3 0
vt 8.70863 6.69228 0
vt -0.140233 6.69228 0
vt -0.068697 4.13007 0
vt -16.1885 8.67 0
vt 0.771838 8.67 0
vt -15.9881 4.7 0
vt -16.8902 7.1 0
vt -0.771838 4.3 0
vt -8.47017 4.3 0
vt -0.631504 4.3 0
vt 6.8864 4.3 0
vt -0.631504 3 0
vt 8.28974 4.3 0
vt 8.28974 3 0
vt -6.8864 4.3 0
vt 15.9881 3 0
vt 8.47017 4.3 0
vt 8.47017 3 0
vt -0.641527 2.6416 0
vt -5.94129 4.7 0
vt 0.771838 -0.63 0
vt 8.28974 5.67 0
vt 5.94129 4.61982 0
vt 8.69069 7.02814 0
vt -0.13031 4.61982 0
vt 7.37966 12.5284 0
vt -1.46921 12.5284 0
vt -1.39767 9.96621 0
vt 15.9881 8.67 0
vt 16.1885 8.67 0
vt 0.57136 10.6607 0
vt 0.771838 7.8076 0
vt 0.771838 10.6607 0
vt 8.28974 8.67 0
vt -8.28974 4.3 0
vt 0.771838 6.87 0
vt 8.28974 6.87 0
vt 8.65802 8.91597 0
vt 15.9881 5.67 0
vt 8.47017 6.87 0
vt 8.47017 5.67 0
vt -8.65802 8.91597 0
vt 15.9881 -0.63 0
vt 5.94129 4.7 0
vt 15.9881 4.3 0
vt 8.47017 -0.63 0
vt -0.13031 4.7 0
vt 0.771838 6.68316 0
vt 8.28974 12.1707 0
vt 0.771838 7.15869 0
vt 8.28974 6.68316 0
vt 6.8864 4.61982 0
vt 5.94129 6.00834 0
vt 8.69069 8.41666 0
vt -0.13031 6.00834 0
vt 8.47017 8.67 0
vt 15.9881 10.6607 0
vt 15.9881 7.8076 0
vt 16.1885 10.6607 0
vt 0.57136 7.33207 0
vt 7.14415 4.61982 0
vt 8.28974 10.6607 0
vt -7.14415 4.7 0
vt -8.69069 7.1 0
vt 8.28974 12.1321 0
vt 0.771838 7.33207 0
vt 8.28974 7.33207 0
vt 8.47017 10.6607 0
vt 8.47017 7.33207 0
vt 8.69069 7.1 0
vt 15.9881 6.87 0
vt 15.9881 7.33207 0
vt 15.9881 7.15869 0
vt 8.47017 6.68316 0
vt 15.9881 6.68316 0
vt 8.47017 12.1707 0
vt -6.8864 4.7 0
vt 0.771838 12.1707 0
vt 6.8864 6.00834 0
vt 15.9881 12.1321 0
vt 7.14415 4.7 0
vt 7.14415 6.00834 0
vt -9.48823 8.33766 0
vt 0.771838 12.1321 0
vt 9.48823 8.33766 0
vt 6.8864 4.7 0
vt 15.9881 12.1707 0
vt -8.28974 -1.97748 0
vt -0.771838 -2.98764 0
vt -0.771838 -1.97748 0
vt 8.47017 12.1321 0
vt 16.1885 7.33207 0
vt -8.28974 -2.98764 0
vt 15.9881 -2.98764 0
vt 8.47017 -1.97748 0
vt 8.47017 -2.98764 0
vt 15.9881 -1.97748 0

# 32 vertex normals
vn 0 -0.001 0
vn 0.000987441 -0.000157991 0
vn 0 -0.000157991 0.000987441
vn -0.000987441 -0.000157991 0
vn 0 -0.000157991 -0.000987441
vn 0 0.001 0
vn -0.000987441 0.000157991 0
vn 0 0.000157991 -0.000987441
vn 0.000987441 0.000157991 0
vn 0 0.000157991 0.000987441
vn 0 -0 -0.001
vn 0 0 0.001
vn -0.001 0 0
vn 0.001 -0 -0
vn -0.00098949 0.000119938 -8.0775e-05
vn 0.00098949 -0.000119938 8.0775e-05
vn 0.000996685 -0 -8.1362e-05
vn -0.000996685 0 8.1362e-05
vn 0.000992734 0.000120331 0
vn -0.000992734 -0.000120331 0
vn -0.000933743 0.000350154 -7.4275e-05
vn 0.000933743 -0.000350154 7.4275e-05
vn -0.000996546 8.3045e-05 0
vn 0.000996546 -8.3045e-05 0
vn -0.000933743 -0.000350154 7.4275e-05
vn 0.000933743 0.000350154 -7.4275e-05
vn 0 0.000540758 -0.000841178
vn 0 -0.000540758 0.000841178
vn -0.000996546 -8.3045e-05 0
vn 0.000996546 8.3045e-05 0
vn 0 0.000819906 0.000572498
vn -0 -0.000819906 -0.000572498

# Mesh 'mesh1_mesh1-geometry' with 42 faces
g mesh1_mesh1-geometry
usemtl material_0_1_8
f  1/1/1 2/2/1 3/3/1
f  2/2/1 1/1/1 4/4/1
f  2/2/2 5/5/2 3/4/2
f  5/6/3 1/7/3 3/8/3
f  6/9/4 4/8/4 1/10/4
f  7/11/5 2/2/5 4/12/5
f  5/5/2 2/2/2 8/13/2
f  1/7/3 5/6/3 6/14/3
f  4/8/4 6/9/4 7/15/4
f  2/2/5 7/11/5 8/16/5
f  9/17/5 10/18/5 11/19/5
f  12/20/4 13/21/4 10/22/4
f  14/23/2 9/24/2 11/25/2
f  15/26/5 10/18/5 9/17/5
f  16/27/3 14/28/3 13/29/3
f  13/21/4 12/20/4 16/30/4
f  10/18/5 15/26/5 12/31/5
f  9/24/2 14/23/2 17/32/2
f  9/33/1 16/34/1 15/35/1
f  14/28/3 16/27/3 17/36/3
f  15/35/1 16/34/1 12/37/1
f  16/34/1 9/33/1 17/38/1
f  18/39/3 19/40/3 20/41/3
f  21/42/2 22/43/2 23/44/2
f  24/45/4 20/46/4 25/47/4
f  19/40/3 18/39/3 26/48/3
f  20/46/4 24/45/4 18/49/4
f  27/50/5 21/51/5 28/52/5
f  29/53/2 23/44/2 22/43/2
f  23/54/5 28/52/5 21/51/5
f  19/55/2 30/56/2 31/57/2
f  30/58/5 25/59/5 31/60/5
f  25/59/5 30/58/5 24/61/5
f  18/62/1 30/63/1 26/64/1
f  30/56/2 19/55/2 26/65/2
f  30/63/1 18/62/1 24/66/1
f  27/67/4 28/68/4 32/69/4
f  33/70/3 22/71/3 32/72/3
f  33/73/1 23/54/1 29/74/1
f  22/71/3 33/70/3 29/75/3
f  23/54/1 33/73/1 28/52/1
f  33/76/4 32/69/4 28/68/4

# Mesh 'mesh1_mesh1-geometry' with 402 faces
g mesh1_mesh1-geometry
usemtl material_1_2_8
f  3/77/6 2/2/6 1/78/6
f  4/79/6 1/78/6 2/2/6
f  3/79/7 5/80/7 2/2/7
f  3/81/8 1/82/8 5/83/8
f  1/84/9 4/81/9 6/85/9
f  4/86/10 2/2/10 7/87/10
f  8/88/7 2/2/7 5/80/7
f  6/89/8 5/83/8 1/82/8
f  7/90/9 6/85/9 4/81/9
f  8/91/10 7/87/10 2/2/10
f  7/92/6 5/93/6 8/94/6
f  8/94/1 5/93/1 7/92/1
f  11/95/6 8/94/6 5/93/6
f  5/93/1 8/94/1 11/95/1
f  5/93/6 7/92/6 6/96/6
f  6/96/1 7/92/1 5/93/1
f  10/97/6 5/93/6 6/96/6
f  6/96/1 5/93/1 10/97/1
f  7/92/6 34/98/6 6/96/6
f  6/96/1 34/98/1 7/92/1
f  8/94/6 34/98/6 7/92/6
f  7/92/1 34/98/1 8/94/1
f  11/95/6 35/99/6 8/94/6
f  8/94/1 35/99/1 11/95/1
f  11/95/6 5/93/6 10/97/6
f  10/97/1 5/93/1 11/95/1
f  10/97/6 6/96/6 13/100/6
f  13/100/1 6/96/1 10/97/1
f  19/101/6 6/96/6 34/98/6
f  34/98/1 6/96/1 19/101/1
f  34/98/6 8/94/6 35/99/6
f  35/99/1 8/94/1 34/98/1
f  36/102/6 35/99/6 11/95/6
f  11/95/1 35/99/1 36/102/1
f  10/97/6 14/103/6 11/95/6
f  11/95/1 14/103/1 10/97/1
f  11/104/10 10/105/10 9/106/10
f  19/101/6 13/100/6 6/96/6
f  6/96/1 13/100/1 19/101/1
f  14/103/6 10/97/6 13/100/6
f  13/100/1 10/97/1 14/103/1
f  10/107/9 13/108/9 12/109/9
f  19/101/6 34/98/6 37/110/6
f  37/110/1 34/98/1 19/101/1
f  38/111/11 35/112/11 34/113/11
f  34/113/12 35/112/12 38/111/12
f  35/99/6 36/102/6 39/114/6
f  39/114/1 36/102/1 35/99/1
f  14/103/6 36/102/6 11/95/6
f  11/95/1 36/102/1 14/103/1
f  11/115/7 9/116/7 14/117/7
f  9/106/10 10/105/10 15/118/10
f  40/119/6 13/100/6 19/101/6
f  19/101/1 13/100/1 40/119/1
f  40/119/6 14/103/6 13/100/6
f  13/100/1 14/103/1 40/119/1
f  13/120/8 14/121/8 16/122/8
f  16/123/9 12/109/9 13/108/9
f  12/124/10 15/118/10 10/105/10
f  38/125/12 37/126/12 34/127/12
f  34/127/11 37/126/11 38/125/11
f  19/101/6 37/110/6 21/128/6
f  21/128/1 37/110/1 19/101/1
f  35/112/11 38/111/11 39/129/11
f  39/129/12 38/111/12 35/112/12
f  41/130/13 39/129/13 36/131/13
f  36/131/14 39/129/14 41/130/14
f  36/102/6 14/103/6 40/119/6
f  40/119/1 14/103/1 36/102/1
f  17/132/7 14/117/7 9/116/7
f  15/133/6 16/134/6 9/135/6
f  40/119/6 19/101/6 20/136/6
f  20/136/1 19/101/1 40/119/1
f  17/137/8 16/122/8 14/121/8
f  12/138/6 16/134/6 15/133/6
f  37/126/12 38/125/12 42/139/12
f  42/139/11 38/125/11 37/126/11
f  43/140/6 21/128/6 37/110/6
f  37/110/1 21/128/1 43/140/1
f  19/101/6 21/128/6 22/141/6
f  22/141/1 21/128/1 19/101/1
f  39/129/11 38/111/11 44/142/11
f  44/142/12 38/111/12 39/129/12
f  41/143/15 44/144/15 39/145/15
f  39/145/16 44/144/16 41/143/16
f  36/129/11 45/146/11 41/147/11
f  41/147/12 45/146/12 36/129/12
f  46/148/11 36/129/11 40/149/11
f  40/149/12 36/129/12 46/148/12
f  17/150/6 9/135/6 16/134/6
f  19/101/6 25/151/6 20/136/6
f  20/136/1 25/151/1 19/101/1
f  20/152/8 19/153/8 18/154/8
f  40/119/6 20/136/6 43/140/6
f  43/140/1 20/136/1 40/119/1
f  42/139/12 38/125/12 47/155/12
f  47/155/11 38/125/11 42/139/11
f  48/156/12 37/126/12 42/139/12
f  42/139/11 37/126/11 48/156/11
f  21/128/6 43/140/6 27/157/6
f  27/157/1 43/140/1 21/128/1
f  48/156/12 43/158/12 37/126/12
f  37/126/11 43/158/11 48/156/11
f  27/157/6 22/141/6 21/128/6
f  21/128/1 22/141/1 27/157/1
f  23/159/7 22/160/7 21/161/7
f  19/101/6 22/141/6 31/162/6
f  31/162/1 22/141/1 19/101/1
f  44/142/11 38/111/11 49/163/11
f  49/163/12 38/111/12 44/142/12
f  50/114/6 41/102/6 44/164/6
f  44/164/1 41/102/1 50/114/1
f  36/129/11 46/148/11 45/146/11
f  45/146/12 46/148/12 36/129/12
f  41/147/11 45/146/11 51/165/11
f  51/165/12 45/146/12 41/147/12
f  40/166/17 52/167/17 46/168/17
f  46/168/18 52/167/18 40/166/18
f  25/151/6 19/101/6 31/162/6
f  31/162/1 19/101/1 25/151/1
f  25/151/6 43/140/6 20/136/6
f  20/136/1 43/140/1 25/151/1
f  25/169/9 20/170/9 24/171/9
f  26/172/8 18/154/8 19/153/8
f  18/173/9 24/171/9 20/170/9
f  40/174/19 43/175/19 52/176/19
f  52/176/20 43/175/20 40/174/20
f  38/177/1 53/178/1 47/179/1
f  47/179/6 53/178/6 38/177/6
f  47/179/1 54/180/1 38/177/1
f  38/177/6 54/180/6 47/179/6
f  47/179/1 55/181/1 42/182/1
f  42/182/6 55/181/6 47/179/6
f  42/182/1 56/183/1 48/184/1
f  48/184/6 56/183/6 42/182/6
f  48/184/1 57/185/1 42/182/1
f  42/182/6 57/185/6 48/184/6
f  27/157/6 43/140/6 32/186/6
f  32/186/1 43/140/1 27/157/1
f  28/187/10 21/188/10 27/189/10
f  43/158/12 48/156/12 52/190/12
f  52/190/11 48/156/11 43/158/11
f  22/141/6 27/157/6 32/186/6
f  32/186/1 27/157/1 22/141/1
f  22/160/7 23/159/7 29/191/7
f  21/188/10 28/187/10 23/192/10
f  32/186/6 31/162/6 22/141/6
f  22/141/1 31/162/1 32/186/1
f  31/193/7 30/194/7 19/195/7
f  58/196/14 38/197/14 49/198/14
f  49/198/13 38/197/13 58/196/13
f  54/199/14 49/198/14 38/197/14
f  38/197/13 49/198/13 54/199/13
f  44/142/11 49/163/11 59/200/11
f  59/200/12 49/163/12 44/142/12
f  41/102/6 50/114/6 60/201/6
f  60/201/1 50/114/1 41/102/1
f  44/142/11 59/200/11 50/147/11
f  50/147/12 59/200/12 44/142/12
f  61/202/1 45/203/1 46/204/1
f  46/204/6 45/203/6 61/202/6
f  60/201/6 45/205/6 51/206/6
f  51/206/1 45/205/1 60/201/1
f  41/102/6 60/201/6 51/206/6
f  51/206/1 60/201/1 41/102/1
f  61/202/1 46/204/1 52/207/1
f  52/207/6 46/204/6 61/202/6
f  31/162/6 32/186/6 25/151/6
f  25/151/1 32/186/1 31/162/1
f  31/208/10 25/209/10 30/210/10
f  32/186/6 43/140/6 25/151/6
f  25/151/1 43/140/1 32/186/1
f  24/211/10 30/210/10 25/209/10
f  26/212/6 30/213/6 18/214/6
f  26/215/7 19/195/7 30/194/7
f  24/216/6 18/214/6 30/213/6
f  53/178/1 38/177/1 62/217/1
f  62/217/6 38/177/6 53/178/6
f  55/181/1 47/179/1 53/178/1
f  53/178/6 47/179/6 55/181/6
f  63/218/13 47/219/13 53/220/13
f  53/220/14 47/219/14 63/218/14
f  54/180/1 47/179/1 64/221/1
f  64/221/6 47/179/6 54/180/6
f  56/183/1 42/182/1 55/181/1
f  55/181/6 42/182/6 56/183/6
f  42/197/14 65/196/14 55/222/14
f  55/222/13 65/196/13 42/197/13
f  56/220/13 66/223/13 48/219/13
f  48/219/14 66/223/14 56/220/14
f  57/185/1 48/184/1 67/224/1
f  67/224/6 48/184/6 57/185/6
f  57/199/14 65/196/14 42/197/14
f  42/197/13 65/196/13 57/199/13
f  32/225/9 28/226/9 27/227/9
f  52/190/12 48/156/12 66/228/12
f  66/228/11 48/156/11 52/190/11
f  32/229/8 22/230/8 33/231/8
f  29/232/6 23/192/6 33/233/6
f  29/234/8 33/231/8 22/230/8
f  28/187/6 33/233/6 23/192/6
f  38/197/14 58/196/14 62/222/14
f  62/222/13 58/196/13 38/197/13
f  59/235/14 58/196/14 49/198/14
f  49/198/13 58/196/13 59/235/13
f  49/98/6 68/236/6 58/237/6
f  58/237/1 68/236/1 49/98/1
f  49/198/14 54/199/14 69/238/14
f  69/238/13 54/199/13 49/198/13
f  60/239/21 50/240/21 59/241/21
f  59/241/22 50/240/22 60/239/22
f  45/203/1 61/202/1 70/242/1
f  70/242/6 61/202/6 45/203/6
f  45/205/6 60/201/6 71/243/6
f  71/243/1 60/201/1 45/205/1
f  52/190/12 72/244/12 61/245/12
f  61/245/11 72/244/11 52/190/11
f  73/246/12 53/155/12 62/125/12
f  62/125/11 53/155/11 73/246/11
f  53/155/12 74/247/12 55/139/12
f  55/139/11 74/247/11 53/155/11
f  68/248/13 47/219/13 63/218/13
f  63/218/14 47/219/14 68/248/14
f  63/218/13 53/220/13 75/249/13
f  75/249/14 53/220/14 63/218/14
f  47/219/13 68/248/13 64/250/13
f  64/250/14 68/248/14 47/219/14
f  68/251/11 54/111/11 64/252/11
f  64/252/12 54/111/12 68/251/12
f  74/247/12 56/156/12 55/139/12
f  55/139/11 56/156/11 74/247/11
f  55/222/14 65/196/14 74/253/14
f  74/253/13 65/196/13 55/222/13
f  66/223/13 56/220/13 76/218/13
f  76/218/14 56/220/14 66/223/14
f  77/248/13 48/219/13 66/223/13
f  66/223/14 48/219/14 77/248/14
f  48/219/13 77/248/13 67/250/13
f  67/250/14 77/248/14 48/219/14
f  67/254/11 78/255/11 57/256/11
f  57/256/12 78/255/12 67/254/12
f  65/196/14 57/199/14 78/238/14
f  78/238/13 57/199/13 65/196/13
f  28/226/9 32/225/9 33/257/9
f  52/190/12 66/228/12 72/244/12
f  72/244/11 66/228/11 52/190/11
f  62/222/14 58/196/14 73/253/14
f  73/253/13 58/196/13 62/222/13
f  58/196/14 59/235/14 79/258/14
f  79/258/13 59/235/13 58/196/13
f  68/236/6 49/98/6 69/259/6
f  69/259/1 49/98/1 68/236/1
f  58/237/6 68/236/6 63/260/6
f  63/260/1 68/236/1 58/237/1
f  54/111/11 68/251/11 69/163/11
f  69/163/12 68/251/12 54/111/12
f  79/261/23 60/262/23 59/263/23
f  59/263/24 60/262/24 79/261/24
f  70/264/25 61/265/25 72/266/25
f  72/266/26 61/265/26 70/264/26
f  45/205/6 80/267/6 70/268/6
f  70/268/1 80/267/1 45/205/1
f  60/269/27 81/270/27 71/271/27
f  71/271/28 81/270/28 60/269/28
f  45/205/6 71/243/6 82/272/6
f  82/272/1 71/243/1 45/205/1
f  53/155/12 73/246/12 75/273/12
f  75/273/11 73/246/11 53/155/11
f  74/247/12 53/155/12 75/273/12
f  75/273/11 53/155/11 74/247/11
f  73/274/6 63/260/6 75/275/6
f  75/275/1 63/260/1 73/274/1
f  75/249/13 83/276/13 63/218/13
f  63/218/14 83/276/14 75/249/14
f  56/156/12 74/247/12 84/228/12
f  84/228/11 74/247/11 56/156/11
f  76/277/6 74/278/6 65/279/6
f  65/279/1 74/278/1 76/277/1
f  85/280/14 74/253/14 65/196/14
f  65/196/13 74/253/13 85/280/13
f  76/218/13 56/220/13 84/249/13
f  84/249/14 56/220/14 76/218/14
f  76/277/6 77/281/6 66/110/6
f  66/110/1 77/281/1 76/277/1
f  86/282/13 66/223/13 76/218/13
f  76/218/14 66/223/14 86/282/14
f  78/255/11 67/254/11 77/283/11
f  77/283/12 67/254/12 78/255/12
f  77/281/6 65/279/6 78/284/6
f  78/284/1 65/279/1 77/281/1
f  66/223/13 86/282/13 72/285/13
f  72/285/14 86/282/14 66/223/14
f  63/260/6 73/274/6 58/237/6
f  58/237/1 73/274/1 63/260/1
f  79/258/14 73/253/14 58/196/14
f  58/196/13 73/253/13 79/258/13
f  58/286/27 83/287/27 79/288/27
f  79/288/28 83/287/28 58/286/28
f  83/287/27 58/286/27 63/289/27
f  63/289/28 58/286/28 83/287/28
f  60/262/23 79/261/23 87/290/23
f  87/290/24 79/261/24 60/262/24
f  86/291/29 70/292/29 72/293/29
f  72/293/30 70/292/30 86/291/30
f  45/205/6 88/294/6 80/267/6
f  80/267/1 88/294/1 45/205/1
f  80/295/27 89/296/27 70/297/27
f  70/297/28 89/296/28 80/295/28
f  90/298/27 81/270/27 60/269/27
f  60/269/28 81/270/28 90/298/28
f  60/262/23 87/290/23 81/299/23
f  81/299/24 87/290/24 60/262/24
f  81/270/27 82/300/27 71/271/27
f  71/271/28 82/300/28 81/270/28
f  81/301/14 91/280/14 71/302/14
f  71/302/13 91/280/13 81/301/13
f  92/303/27 71/271/27 82/300/27
f  82/300/28 71/271/28 92/303/28
f  45/205/6 82/272/6 88/294/6
f  88/294/1 82/272/1 45/205/1
f  82/300/27 73/304/27 75/305/27
f  75/305/28 73/304/28 82/300/28
f  88/306/27 75/305/27 74/307/27
f  74/307/28 75/305/28 88/306/28
f  83/276/13 75/249/13 82/308/13
f  82/308/14 75/249/14 83/276/14
f  74/278/6 76/277/6 84/309/6
f  84/309/1 76/277/1 74/278/1
f  89/296/27 74/307/27 84/310/27
f  84/310/28 74/307/28 89/296/28
f  65/279/6 77/281/6 76/277/6
f  76/277/1 77/281/1 65/279/1
f  86/311/27 65/312/27 76/313/27
f  76/313/28 65/312/28 86/311/28
f  74/253/14 85/280/14 88/302/14
f  88/302/13 85/280/13 74/253/13
f  65/312/27 86/311/27 85/314/27
f  85/314/28 86/311/28 65/312/28
f  84/249/13 86/282/13 76/218/13
f  76/218/14 86/282/14 84/249/14
f  73/253/14 79/258/14 87/315/14
f  87/315/13 79/258/13 73/253/13
f  79/288/27 83/287/27 91/316/27
f  91/316/28 83/287/28 79/288/28
f  91/280/14 87/315/14 79/258/14
f  79/258/13 87/315/13 91/280/13
f  70/292/29 86/291/29 93/317/29
f  93/317/30 86/291/30 70/292/30
f  88/306/27 89/296/27 80/295/27
f  80/295/28 89/296/28 88/306/28
f  94/318/27 88/306/27 80/295/27
f  80/295/28 88/306/28 94/318/28
f  95/276/13 89/319/13 80/308/13
f  80/308/14 89/319/14 95/276/14
f  84/310/27 70/297/27 89/296/27
f  89/296/28 70/297/28 84/310/28
f  70/292/29 93/317/29 89/320/29
f  89/320/30 93/317/30 70/292/30
f  81/270/27 90/298/27 73/304/27
f  73/304/28 90/298/28 81/270/28
f  81/301/14 73/253/14 87/315/14
f  87/315/13 73/253/13 81/301/13
f  87/315/14 91/280/14 81/301/14
f  81/301/13 91/280/13 87/315/13
f  73/304/27 82/300/27 81/270/27
f  81/270/28 82/300/28 73/304/28
f  71/302/14 91/280/14 96/321/14
f  96/321/13 91/280/13 71/302/13
f  71/271/27 92/303/27 96/322/27
f  96/322/28 92/303/28 71/271/28
f  83/276/13 82/308/13 92/323/13
f  92/323/14 82/308/14 83/276/14
f  75/305/27 88/306/27 82/300/27
f  82/300/28 88/306/28 75/305/28
f  74/307/27 89/296/27 88/306/27
f  88/306/28 89/296/28 74/307/28
f  89/319/13 93/324/13 84/249/13
f  84/249/14 93/324/14 89/319/14
f  88/302/14 85/280/14 97/321/14
f  97/321/13 85/280/13 88/302/13
f  85/314/27 86/311/27 95/325/27
f  95/325/28 86/311/28 85/314/28
f  86/282/13 84/249/13 93/324/13
f  93/324/14 84/249/14 86/282/14
f  83/326/31 96/327/31 91/328/31
f  91/328/32 96/327/32 83/326/32
f  93/324/13 95/276/13 86/282/13
f  86/282/14 95/276/14 93/324/14
f  88/306/27 94/318/27 97/329/27
f  97/329/28 94/318/28 88/306/28
f  95/276/13 80/308/13 94/323/13
f  94/323/14 80/308/14 95/276/14
f  95/276/13 93/324/13 89/319/13
f  89/319/14 93/324/14 95/276/14
f  70/297/27 84/310/27 98/330/27
f  98/330/28 84/310/28 70/297/28
f  96/327/31 83/326/31 92/331/31
f  92/331/32 83/326/32 96/327/32
f  94/332/32 85/333/32 97/334/32
f  97/334/31 85/333/31 94/332/31
f  85/333/32 94/332/32 95/335/32
f  95/335/31 94/332/31 85/333/31

# Mesh 'mesh2_mesh2-geometry' with 1 faces
g mesh2_mesh2-geometry
usemtl material_2_0
l  4 23

