# File produced by Open Asset Import Library (http://www.assimp.sf.net)
# (assimp v3.2.202087883)

mtllib model_normalized.mtl

# 56 vertex positions
v 0.392205 0.129148 0.235463
v -0.392206 0.117381 0.235463
v 0.392205 0.117381 0.235463
v -0.392206 0.129148 0.235463
v 0.364750 0.117381 0.208008
v 0.392205 0.117381 -0.235183
v -0.392206 0.129148 -0.235183
v -0.364749 0.117381 0.208008
v 0.392205 0.129148 -0.235183
v -0.392206 0.117381 -0.235183
v 0.364750 0.117381 -0.207728
v -0.364749 0.117381 -0.207728
v -0.364749 0.074239 0.208008
v 0.364750 0.074239 -0.207728
v 0.364750 0.074239 0.208008
v -0.364749 0.074239 -0.207728
v 0.356906 0.074239 0.200165
v -0.356904 0.074239 -0.199884
v -0.356904 0.074239 0.200165
v 0.356906 0.074239 -0.199884
v -0.356904 0.117381 0.200165
v 0.356906 0.117381 -0.199884
v 0.356906 0.117381 0.200165
v -0.356904 0.117381 -0.199884
v 0.352984 0.117381 0.196243
v 0.352984 0.117381 -0.195962
v -0.352986 0.117381 -0.195962
v 0.333374 0.117381 0.196243
v 0.333374 0.117381 -0.195962
v -0.333374 0.117381 -0.195962
v -0.352986 0.117381 -0.176352
v 0.333374 0.117381 0.172710
v 0.352984 -0.274823 0.215852
v 0.352984 0.117381 0.172710
v 0.372594 -0.274823 -0.215572
v -0.352986 -0.274823 -0.215572
v -0.352986 0.117381 0.176632
v -0.372594 -0.274823 -0.195962
v -0.333374 0.117381 0.196243
v 0.352984 -0.274823 0.196243
v 0.372594 -0.274823 0.196243
v 0.372594 -0.274823 0.215852
v 0.352984 0.117381 -0.176352
v 0.352984 -0.274823 -0.195962
v 0.333374 0.117381 -0.176352
v 0.352984 -0.274823 -0.215572
v 0.372594 -0.274823 -0.195962
v -0.372594 -0.274823 -0.215572
v -0.352986 -0.274823 -0.195962
v -0.352986 0.117381 0.196243
v -0.333374 0.117381 -0.176352
v -0.333374 0.117381 0.176632
v -0.372594 -0.274823 0.196243
v -0.372594 -0.274823 0.215852
v -0.352986 -0.274823 0.196243
v -0.352986 -0.274823 0.215852

# 156 UV coordinates
vt -0.631558 1.01096 0
vt -1.61307 0.981514 0
vt -0.631558 0.981514 0
vt -1.61307 1.01096 0
vt -0.665911 1.41084 0
vt -0.631558 1.47955 0
vt -1.61307 1.47955 0
vt -0.150866 0.981514 0
vt -0.739774 1.01096 0
vt -0.739774 0.981514 0
vt 0.631558 1.47955 0
vt 1.61307 0.301732 0
vt 1.61307 1.47955 0
vt 0.150866 1.01096 0
vt 0.739774 0.981514 0
vt 0.739774 1.01096 0
vt -0.631558 0.301732 0
vt -1.57872 1.41084 0
vt -0.150866 1.01096 0
vt 0.631558 0.301732 0
vt 0.150866 0.981514 0
vt -0.665911 0.370438 0
vt -1.57872 0.370438 0
vt -1.57872 0.873547 0
vt -0.665911 0.981514 0
vt -1.57872 0.981514 0
vt 0.631558 0.981514 0
vt 1.61307 1.01096 0
vt 0.631558 1.01096 0
vt 1.61307 0.981514 0
vt -1.61307 0.301732 0
vt -0.705421 0.981514 0
vt -0.185219 0.873547 0
vt -0.185219 0.981514 0
vt 0.185219 0.981514 0
vt 0.705421 0.873547 0
vt 0.705421 0.981514 0
vt -0.665911 0.873547 0
vt -0.705421 0.873547 0
vt 0.665911 0.873547 0
vt 1.57872 0.981514 0
vt 0.665911 0.981514 0
vt 0.185219 0.873547 0
vt -0.675726 1.39121 0
vt 1.57872 0.873547 0
vt -1.5689 0.390069 0
vt -1.5689 1.39121 0
vt -0.675726 0.390069 0
vt 1.5689 0.981514 0
vt 0.675726 0.873547 0
vt 1.5689 0.873547 0
vt 0.695606 0.873547 0
vt 0.195034 0.981514 0
vt 0.195034 0.873547 0
vt -0.675726 0.981514 0
vt -1.5689 0.873547 0
vt -0.675726 0.873547 0
vt -0.195034 0.873547 0
vt -0.695606 0.981514 0
vt -0.695606 0.873547 0
vt 0.675726 0.981514 0
vt 0.695606 0.981514 0
vt -1.5689 0.981514 0
vt -0.195034 0.981514 0
vt -0.680634 1.3814 0
vt -0.680634 0.399884 0
vt -1.564 0.399884 0
vt -0.705172 1.3814 0
vt -0.705172 0.399884 0
vt -1.53946 0.399884 0
vt -1.564 0.44896 0
vt -0.705172 1.32251 0
vt -0.680634 -0.071434 0
vt -0.680634 0.911305 0
vt -0.705172 0.911305 0
vt -0.680634 1.32251 0
vt 0.656096 0.017519 0
vt 0.705172 1.00026 0
vt 0.680634 1.00026 0
vt 1.564 0.017519 0
vt 1.564 1.00026 0
vt 1.53946 1.00026 0
vt -1.564 1.33232 0
vt 0.199942 0.824085 0
vt 0.199942 -0.158655 0
vt 0.22448 0.824085 0
vt -1.53946 1.3814 0
vt 0.690699 0.067978 0
vt 0.690699 1.05072 0
vt 0.661253 1.05072 0
vt -0.690699 1.04827 0
vt -0.690699 0.065528 0
vt -0.661253 1.04827 0
vt -0.656096 -0.071434 0
vt 0.715237 0.067978 0
vt -0.680634 0.44896 0
vt 0.199942 1.05072 0
vt 0.199942 0.067978 0
vt 0.22448 1.05072 0
vt -0.705172 0.44896 0
vt 0.680634 0.017519 0
vt -0.199942 1.04827 0
vt -0.199942 0.065528 0
vt -0.175404 0.065528 0
vt 1.58853 0.017519 0
vt -0.199942 0.826535 0
vt -0.199942 -0.156204 0
vt -0.175404 -0.156204 0
vt -1.564 1.3814 0
vt -1.53946 0.44896 0
vt 0.175404 -0.158655 0
vt -1.58853 0.019969 0
vt -1.53946 1.00271 0
vt -1.564 1.00271 0
vt 0.656096 -0.082735 0
vt 0.705172 0.900544 0
vt 0.680634 0.900544 0
vt 0.680634 -0.082735 0
vt -0.715237 0.065528 0
vt -0.680634 1.43047 0
vt -0.656096 1.3814 0
vt -0.656096 1.43047 0
vt -0.22448 1.04827 0
vt -0.680634 0.019969 0
vt -0.680634 1.00271 0
vt -0.705172 1.00271 0
vt 0.175404 0.067978 0
vt -0.656096 0.350808 0
vt -0.680634 0.350808 0
vt -0.656096 0.399884 0
vt -1.53946 1.33232 0
vt -0.22448 0.826535 0
vt -1.564 0.350808 0
vt -1.58853 0.399884 0
vt -1.58853 0.350808 0
vt 0.690699 -0.158655 0
vt 0.690699 0.824085 0
vt 0.666161 0.824085 0
vt -1.564 0.019969 0
vt -1.58853 -0.071434 0
vt -1.53946 0.911305 0
vt -1.564 0.911305 0
vt -0.656096 0.019969 0
vt -0.690699 0.826535 0
vt -0.690699 -0.156204 0
vt -0.666161 0.826535 0
vt 1.564 -0.068984 0
vt 1.564 0.913756 0
vt 1.53946 0.913756 0
vt 0.715237 -0.158655 0
vt 1.58853 -0.068984 0
vt -1.564 -0.071434 0
vt -0.715237 -0.156204 0
vt -1.58853 1.43047 0
vt -1.58853 1.3814 0
vt -1.564 1.43047 0

# 16 vertex normals
vn 0 0 1
vn 0 -1 0
vn 1 0 0
vn 0 1 0
vn -1 0 0
vn 0 0 -1
vn 0 0.049938 0.998752
vn 0 0.049938 -0.998752
vn -0.998752 0.049938 0
vn -0.998752 -0.049938 0
vn 0.998752 0.049938 0
vn 0.998752 -0.049938 0
vn 0 -0.049938 0.998752
vn -0 -0.059892 -0.998205
vn -0 -0.049938 -0.998752
vn 0 0.059892 0.998205

# Mesh 'mesh1_mesh1-geometry' with 108 faces
g mesh1_mesh1-geometry
usemtl material_0_1_8
f  1/1/1 2/2/1 3/3/1
f  2/2/1 1/1/1 4/4/1
f  5/5/2 3/6/2 2/7/2
f  6/8/3 1/9/3 3/10/3
f  1/11/4 7/12/4 4/13/4
f  7/14/5 2/15/5 4/16/5
f  3/6/2 5/5/2 6/17/2
f  5/5/2 2/7/2 8/18/2
f  1/9/3 6/8/3 9/19/3
f  7/12/4 1/11/4 9/20/4
f  2/15/5 7/14/5 10/21/5
f  11/22/2 6/17/2 5/5/2
f  8/18/2 2/7/2 12/23/2
f  13/24/1 5/25/1 8/26/1
f  6/27/6 7/28/6 9/29/6
f  7/28/6 6/27/6 10/30/6
f  10/31/2 12/23/2 2/7/2
f  6/17/2 11/22/2 10/31/2
f  5/32/3 14/33/3 11/34/3
f  12/35/5 13/36/5 8/37/5
f  5/25/1 13/24/1 15/38/1
f  10/31/2 11/22/2 12/23/2
f  14/33/3 5/32/3 15/39/3
f  14/40/6 12/41/6 11/42/6
f  13/36/5 12/35/5 16/43/5
f  17/44/2 15/5/2 13/18/2
f  15/5/2 17/44/2 14/22/2
f  12/41/6 14/40/6 16/45/6
f  16/23/2 18/46/2 13/18/2
f  17/44/2 13/18/2 19/47/2
f  20/48/2 14/22/2 17/44/2
f  14/22/2 20/48/2 16/23/2
f  16/23/2 20/48/2 18/46/2
f  19/47/2 13/18/2 18/46/2
f  21/49/6 17/50/6 19/51/6
f  17/52/5 22/53/5 20/54/5
f  22/55/1 18/56/1 20/57/1
f  18/58/3 21/59/3 19/60/3
f  17/50/6 21/49/6 23/61/6
f  22/53/5 17/52/5 23/62/5
f  18/56/1 22/55/1 24/63/1
f  21/59/3 18/58/3 24/64/3
f  25/65/2 23/44/2 21/47/2
f  23/44/2 25/65/2 22/48/2
f  22/48/2 26/66/2 24/46/2
f  24/46/2 27/67/2 21/47/2
f  25/65/2 21/47/2 28/68/2
f  26/66/2 22/48/2 25/65/2
f  24/46/2 26/66/2 29/69/2
f  24/46/2 30/70/2 27/67/2
f  31/71/2 21/47/2 27/67/2
f  28/68/2 21/47/2 32/72/2
f  33/73/7 25/74/7 28/75/7
f  26/66/2 25/65/2 34/76/2
f  35/77/8 29/78/8 26/79/8
f  24/46/2 29/69/2 30/70/2
f  36/80/8 27/81/8 30/82/8
f  37/83/2 21/47/2 31/71/2
f  27/84/9 38/85/9 31/86/9
f  32/72/2 21/47/2 39/87/2
f  40/88/10 28/89/10 32/90/10
f  25/91/11 41/92/11 34/93/11
f  25/74/7 33/73/7 42/94/7
f  28/89/10 40/88/10 33/95/10
f  26/66/2 34/76/2 43/96/2
f  29/97/10 44/98/10 45/99/10
f  45/100/2 39/87/2 29/69/2
f  29/78/8 35/77/8 46/101/8
f  26/102/11 47/103/11 35/104/11
f  30/70/2 29/69/2 39/87/2
f  27/81/8 36/80/8 48/105/8
f  30/106/12 49/107/12 36/108/12
f  50/109/2 21/47/2 37/83/2
f  51/110/2 37/83/2 31/71/2
f  38/85/9 27/84/9 48/111/9
f  38/112/13 51/113/13 31/114/13
f  39/87/2 21/47/2 50/109/2
f  32/72/2 39/87/2 45/100/2
f  41/115/14 32/116/14 34/117/14
f  32/72/2 43/96/2 34/76/2
f  32/116/14 41/115/14 40/118/14
f  41/92/11 25/91/11 42/119/11
f  33/120/2 41/121/2 42/122/2
f  41/121/2 33/120/2 40/65/2
f  47/103/11 26/102/11 43/123/11
f  44/124/13 43/125/13 45/126/13
f  43/96/2 32/72/2 45/100/2
f  44/98/10 29/97/10 46/127/10
f  35/128/2 44/66/2 46/129/2
f  44/66/2 35/128/2 47/130/2
f  30/70/2 39/87/2 52/131/2
f  49/107/12 30/106/12 51/132/12
f  30/70/2 52/131/2 51/110/2
f  36/133/2 38/134/2 48/135/2
f  38/134/2 36/133/2 49/67/2
f  53/136/9 50/137/9 37/138/9
f  37/83/2 51/110/2 52/131/2
f  51/113/13 38/112/13 49/139/13
f  54/140/7 39/141/7 50/142/7
f  43/125/13 44/124/13 47/143/13
f  39/144/12 55/145/12 52/146/12
f  55/147/15 37/148/15 52/149/15
f  50/137/9 53/136/9 54/150/9
f  37/148/15 55/147/15 53/151/15
f  39/141/7 54/140/7 56/152/7
f  55/145/12 39/144/12 56/153/12
f  55/109/2 54/154/2 53/155/2
f  54/154/2 55/109/2 56/156/2

# Mesh 'mesh1_mesh1-geometry' with 124 faces
g mesh1_mesh1-geometry
usemtl material_1_24
f  3//6 2//6 1//6
f  4//6 1//6 2//6
f  2//4 3//4 5//4
f  3//5 1//5 6//5
f  4//2 7//2 1//2
f  4//3 2//3 7//3
f  6//4 5//4 3//4
f  8//4 2//4 5//4
f  9//5 6//5 1//5
f  9//2 1//2 7//2
f  10//3 7//3 2//3
f  5//4 6//4 11//4
f  12//4 2//4 8//4
f  8//6 5//6 13//6
f  9//1 7//1 6//1
f  10//1 6//1 7//1
f  2//4 12//4 10//4
f  10//4 11//4 6//4
f  11//5 14//5 5//5
f  8//3 13//3 12//3
f  15//6 13//6 5//6
f  12//4 11//4 10//4
f  15//5 5//5 14//5
f  11//1 12//1 14//1
f  16//3 12//3 13//3
f  13//4 15//4 17//4
f  14//4 17//4 15//4
f  16//1 14//1 12//1
f  13//4 18//4 16//4
f  19//4 13//4 17//4
f  17//4 14//4 20//4
f  16//4 20//4 14//4
f  18//4 20//4 16//4
f  18//4 13//4 19//4
f  19//1 17//1 21//1
f  20//3 22//3 17//3
f  20//6 18//6 22//6
f  19//5 21//5 18//5
f  23//1 21//1 17//1
f  23//3 17//3 22//3
f  24//6 22//6 18//6
f  24//5 18//5 21//5
f  21//4 23//4 25//4
f  22//4 25//4 23//4
f  24//4 26//4 22//4
f  21//4 27//4 24//4
f  28//4 21//4 25//4
f  25//4 22//4 26//4
f  29//4 26//4 24//4
f  27//4 30//4 24//4
f  27//4 21//4 31//4
f  32//4 21//4 28//4
f  28//2 34//2 25//2
f  25//4 34//4 28//4
f  28//15 25//15 33//15
f  34//4 25//4 26//4
f  26//2 45//2 29//2
f  29//4 45//4 26//4
f  26//13 29//13 35//13
f  30//4 29//4 24//4
f  30//2 31//2 27//2
f  27//4 31//4 30//4
f  30//13 27//13 36//13
f  31//4 21//4 37//4
f  31//12 38//12 27//12
f  39//4 21//4 32//4
f  34//2 28//2 32//2
f  32//4 28//4 34//4
f  32//11 28//11 40//11
f  34//10 41//10 25//10
f  42//15 33//15 25//15
f  33//11 40//11 28//11
f  43//4 34//4 26//4
f  45//2 26//2 43//2
f  43//4 26//4 45//4
f  45//11 44//11 29//11
f  29//4 39//4 45//4
f  46//13 35//13 29//13
f  35//10 47//10 26//10
f  39//4 29//4 30//4
f  31//2 30//2 51//2
f  51//4 30//4 31//4
f  48//13 36//13 27//13
f  36//9 49//9 30//9
f  37//4 21//4 50//4
f  31//4 37//4 51//4
f  48//12 27//12 38//12
f  31//8 51//8 38//8
f  50//4 21//4 39//4
f  45//4 39//4 32//4
f  34//16 32//16 41//16
f  34//4 43//4 32//4
f  40//16 41//16 32//16
f  42//10 25//10 41//10
f  42//4 41//4 33//4
f  40//4 33//4 41//4
f  43//10 26//10 47//10
f  45//8 43//8 44//8
f  45//4 32//4 43//4
f  46//11 29//11 44//11
f  46//4 44//4 35//4
f  47//4 35//4 44//4
f  52//4 39//4 30//4
f  51//9 30//9 49//9
f  51//4 52//4 30//4
f  48//4 38//4 36//4
f  49//4 36//4 38//4
f  52//2 50//2 37//2
f  37//4 50//4 52//4
f  37//12 50//12 53//12
f  52//4 51//4 37//4
f  49//8 38//8 51//8
f  50//2 52//2 39//2
f  39//4 52//4 50//4
f  50//15 39//15 54//15
f  47//8 44//8 43//8
f  52//9 55//9 39//9
f  52//7 37//7 55//7
f  54//12 53//12 50//12
f  53//7 55//7 37//7
f  56//15 54//15 39//15
f  56//9 39//9 55//9
f  53//4 54//4 55//4
f  56//4 55//4 54//4

