# File produced by Open Asset Import Library (http://www.assimp.sf.net)
# (assimp v3.2.202087883)

mtllib model_normalized.mtl

# 40 vertex positions
v 0.425829 0.123574 0.225439
v 0.400780 -0.143613 0.225439
v 0.425829 -0.143613 0.225439
v 0.400780 0.073476 0.225439
v 0.425829 -0.143613 0.200390
v -0.400780 0.073476 0.225439
v 0.400780 0.073476 0.200390
v 0.400780 -0.143613 0.200390
v 0.425829 0.073476 0.200390
v -0.425829 0.123574 0.225439
v 0.425829 0.123574 -0.225439
v -0.425829 -0.143613 0.225439
v -0.400780 0.123574 0.200390
v -0.400780 0.073476 0.200390
v 0.425829 0.073476 -0.200390
v 0.400780 0.123574 -0.200390
v -0.400780 -0.143613 0.225439
v -0.425829 0.073476 0.200390
v -0.425829 0.123574 -0.225439
v 0.400780 0.123574 0.200390
v -0.400780 -0.143613 0.200390
v -0.400780 0.106875 0.200390
v 0.400780 0.073476 -0.200390
v 0.425829 -0.143613 -0.225439
v -0.400780 0.123574 -0.200390
v -0.425829 -0.143613 0.200390
v 0.400780 0.106875 0.200390
v -0.400780 0.073476 -0.200390
v 0.400780 0.106875 -0.200390
v 0.400780 -0.143613 -0.200390
v 0.425829 -0.143613 -0.200390
v 0.400780 0.073476 -0.225439
v -0.425829 0.073476 -0.200390
v -0.400780 0.106875 -0.200390
v 0.400780 -0.143613 -0.225439
v -0.425829 -0.143613 -0.200390
v -0.400780 0.073476 -0.225439
v -0.425829 -0.143613 -0.225439
v -0.400780 -0.143613 -0.225439
v -0.400780 -0.143613 -0.200390

# 54 UV coordinates
vt 4.25 1.33333 0
vt 4.125 -0 0
vt 4.25 -0 0
vt 4.125 1.08333 0
vt -4.125 0 0
vt -4.25 0.125 0
vt -4.25 0 0
vt 0.125 -0 0
vt 0 1.33333 0
vt 0 -0 0
vt 0.125 1.08333 0
vt -0.125 1.08333 0
vt 0 1.08333 0
vt -4.125 0.125 0
vt -0.125 0 0
vt -4.125 1.08333 0
vt -4.25 1.08333 0
vt 2.25 1.33333 0
vt 0.125 0.125 0
vt -0.125 0.125 0
vt -4.25 2.125 0
vt 2.125 1.08333 0
vt 4.25 2.25 0
vt 4.125 2.125 0
vt 0 2.25 0
vt 4.125 0.125 0
vt -0.125 1.25 0
vt -4.125 2.125 0
vt 2.25 -0 0
vt 0.125 2.125 0
vt -2.25 1.33333 0
vt -4.125 1.25 0
vt 0.125 1.25 0
vt -2.125 1.25 0
vt -2.125 1.08333 0
vt 4.25 1.08333 0
vt 2.125 -0 0
vt -4.25 1.33333 0
vt 0 0.125 0
vt -0.125 2.125 0
vt 2.125 1.25 0
vt 4.125 1.25 0
vt -2.25 1.08333 0
vt -2.125 -0 0
vt -4.25 2.25 0
vt 0 2.125 0
vt -4.125 2.25 0
vt -2.25 -0 0
vt -0.125 2.25 0
vt 2.25 1.08333 0
vt 1.45628 0.015788 0
vt 0.044515 0.72167 0
vt 0.044515 0.015788 0
vt 1.45628 0.72167 0

# 6 vertex normals
vn 0 0 0.0254
vn 0 0 -0.0254
vn 0 -0.0254 0
vn 0 0.0254 0
vn 0.0254 0 0
vn -0.0254 -0 0

# Mesh 'mesh1_mesh1-geometry' with 150 faces
g mesh1_mesh1-geometry
usemtl material_0_1_8
f  1/1/1 2/2/1 3/3/1
f  2/2/1 1/1/1 4/4/1
f  3/3/2 2/2/2 1/1/2
f  4/4/2 1/1/2 2/2/2
f  2/5/3 5/6/3 3/7/3
f  3/7/4 5/6/4 2/5/4
f  5/8/5 1/9/5 3/10/5
f  3/10/6 1/9/6 5/8/6
f  4/4/1 1/1/1 6/11/1
f  6/11/2 1/1/2 4/4/2
f  7/12/6 2/10/6 4/13/6
f  4/13/5 2/10/5 7/12/5
f  5/6/3 2/5/3 8/14/3
f  8/14/4 2/5/4 5/6/4
f  1/9/5 5/8/5 9/11/5
f  9/11/6 5/8/6 1/9/6
f  10/9/1 6/11/1 1/1/1
f  1/1/2 6/11/2 10/9/2
f  6/15/3 7/14/3 4/5/3
f  4/5/4 7/14/4 6/15/4
f  2/10/6 7/12/6 8/15/6
f  8/15/5 7/12/5 2/10/5
f  7/16/2 5/7/2 8/5/2
f  8/5/1 5/7/1 7/16/1
f  5/7/2 7/16/2 9/17/2
f  9/17/1 7/16/1 5/7/1
f  1/9/5 9/11/5 11/18/5
f  11/18/6 9/11/6 1/9/6
f  12/10/1 6/11/1 10/9/1
f  10/9/2 6/11/2 12/10/2
f  13/19/4 10/10/4 1/3/4
f  1/3/3 10/10/3 13/19/3
f  7/14/3 6/15/3 14/20/3
f  14/20/4 6/15/4 7/14/4
f  7/14/3 15/21/3 9/6/3
f  9/6/4 15/21/4 7/14/4
f  11/18/5 9/11/5 15/22/5
f  15/22/6 9/11/6 11/18/6
f  11/23/4 16/24/4 1/3/4
f  1/3/3 16/24/3 11/23/3
f  6/11/1 12/10/1 17/8/1
f  17/8/2 12/10/2 6/11/2
f  10/9/6 18/12/6 12/10/6
f  12/10/5 18/12/5 10/9/5
f  10/10/4 13/19/4 19/25/4
f  19/25/3 13/19/3 10/10/3
f  13/19/4 1/3/4 20/26/4
f  20/26/3 1/3/3 13/19/3
f  6/13/5 21/8/5 14/11/5
f  14/11/6 21/8/6 6/13/6
f  22/27/2 7/16/2 14/12/2
f  14/12/1 7/16/1 22/27/1
f  15/21/3 7/14/3 23/28/3
f  23/28/4 7/14/4 15/21/4
f  11/18/5 15/22/5 24/29/5
f  24/29/6 15/22/6 11/18/6
f  11/23/4 25/30/4 16/24/4
f  16/24/3 25/30/3 11/23/3
f  20/26/4 1/3/4 16/24/4
f  16/24/3 1/3/3 20/26/3
f  12/10/3 21/20/3 17/15/3
f  17/15/4 21/20/4 12/10/4
f  21/8/5 6/13/5 17/10/5
f  17/10/6 6/13/6 21/8/6
f  18/12/6 10/9/6 19/31/6
f  19/31/5 10/9/5 18/12/5
f  26/15/6 12/10/6 18/12/6
f  18/12/5 12/10/5 26/15/5
f  25/30/4 19/25/4 13/19/4
f  13/19/3 19/25/3 25/30/3
f  13/19/3 25/30/3 20/26/3
f  21/15/2 18/13/2 14/12/2
f  14/12/1 18/13/1 21/15/1
f  7/16/2 22/27/2 27/32/2
f  27/32/1 22/27/1 7/16/1
f  28/22/5 22/33/5 14/11/5
f  14/11/6 22/33/6 28/22/6
f  7/12/6 29/34/6 23/35/6
f  23/35/5 29/34/5 7/12/5
f  30/2/1 15/36/1 23/4/1
f  23/4/2 15/36/2 30/2/2
f  24/29/5 15/22/5 31/37/5
f  31/37/6 15/22/6 24/29/6
f  24/7/2 32/16/2 11/38/2
f  11/38/1 32/16/1 24/7/1
f  19/25/4 25/30/4 11/23/4
f  11/23/3 25/30/3 19/25/3
f  16/24/3 20/26/3 25/30/3
f  21/20/3 12/10/3 26/39/3
f  26/39/4 12/10/4 21/20/4
f  18/12/6 19/31/6 33/35/6
f  33/35/5 19/31/5 18/12/5
f  18/13/2 21/15/2 26/10/2
f  26/10/1 21/15/1 18/13/1
f  18/39/3 28/40/3 14/20/3
f  14/20/4 28/40/4 18/39/4
f  22/20/3 29/28/3 27/14/3
f  27/14/4 29/28/4 22/20/4
f  29/34/6 7/12/6 27/27/6
f  27/27/5 7/12/5 29/34/5
f  22/33/5 28/22/5 34/41/5
f  34/41/6 28/22/6 22/33/6
f  29/42/1 28/11/1 23/4/1
f  23/4/2 28/11/2 29/42/2
f  15/36/1 30/2/1 31/3/1
f  31/3/2 30/2/2 15/36/2
f  32/43/6 30/44/6 23/35/6
f  23/35/5 30/44/5 32/43/5
f  30/28/3 24/45/3 31/21/3
f  31/21/4 24/45/4 30/28/4
f  32/16/2 24/7/2 35/5/2
f  35/5/1 24/7/1 32/16/1
f  11/38/2 32/16/2 19/9/2
f  19/9/1 32/16/1 11/38/1
f  33/35/6 19/31/6 36/44/6
f  36/44/5 19/31/5 33/35/5
f  28/40/3 18/39/3 33/46/3
f  33/46/4 18/39/4 28/40/4
f  29/28/3 22/20/3 34/40/3
f  34/40/4 22/20/4 29/28/4
f  28/11/1 29/42/1 34/33/1
f  34/33/2 29/42/2 28/11/2
f  28/40/3 32/47/3 23/28/3
f  23/28/4 32/47/4 28/40/4
f  30/44/6 32/43/6 35/48/6
f  35/48/5 32/43/5 30/44/5
f  24/45/3 30/28/3 35/47/3
f  35/47/4 30/28/4 24/45/4
f  37/12/2 19/9/2 32/16/2
f  32/16/1 19/9/1 37/12/1
f  36/44/6 19/31/6 38/48/6
f  38/48/5 19/31/5 36/44/5
f  36/10/1 28/11/1 33/13/1
f  33/13/2 28/11/2 36/10/2
f  32/47/3 28/40/3 37/49/3
f  37/49/4 28/40/4 32/47/4
f  39/15/2 19/9/2 37/12/2
f  37/12/1 19/9/1 39/15/1
f  19/9/2 39/15/2 38/10/2
f  38/10/1 39/15/1 19/9/1
f  39/49/3 36/46/3 38/25/3
f  38/25/4 36/46/4 39/49/4
f  28/11/1 36/10/1 40/8/1
f  40/8/2 36/10/2 28/11/2
f  28/22/5 39/29/5 37/50/5
f  37/50/6 39/29/6 28/22/6
f  36/46/3 39/49/3 40/40/3
f  40/40/4 39/49/4 36/46/4
f  39/29/5 28/22/5 40/37/5
f  40/37/6 28/22/6 39/29/6

# Mesh 'mesh1_mesh1-geometry' with 2 faces
g mesh1_mesh1-geometry
usemtl material_1_2_8
f  20/51/4 25/52/4 13/53/4
f  25/52/4 20/51/4 16/54/4

