# File produced by Open Asset Import Library (http://www.assimp.sf.net)
# (assimp v3.2.202087883)

mtllib model_normalized.mtl

# 60 vertex positions
v -0.426334 0.097109 -0.213167
v -0.426334 0.079346 0.213167
v -0.426334 0.097109 0.213167
v -0.426334 0.079346 -0.213167
v 0.426334 0.097109 0.213167
v 0.426334 0.079346 -0.213167
v 0.426334 0.079346 0.213167
v 0.426334 0.097109 -0.213167
v -0.373042 0.079346 0.195403
v -0.408570 0.079346 0.177639
v -0.408570 0.079346 0.195403
v -0.373042 0.079346 0.177639
v -0.408570 -0.204877 0.195403
v -0.373042 0.061582 0.195403
v 0.373042 0.079346 0.195403
v -0.373042 0.061582 0.177639
v -0.408570 0.079346 -0.177639
v -0.408570 -0.204877 0.177639
v -0.373042 0.079346 0.159875
v -0.373042 0.061582 0.159875
v -0.373042 0.079346 -0.177639
v -0.408570 0.061582 0.177639
v -0.373042 -0.204877 0.177639
v -0.373042 -0.204877 0.195403
v 0.373042 0.061582 0.159875
v 0.373042 0.061582 0.195403
v 0.373042 0.079346 0.159875
v -0.373042 0.061582 -0.159875
v -0.408570 0.079346 -0.195403
v -0.408570 0.061582 -0.177639
v -0.373042 0.061582 -0.177639
v 0.408570 0.079346 0.195403
v 0.373042 0.079346 0.177639
v -0.373042 0.079346 -0.159875
v -0.373042 0.079346 -0.195403
v 0.373042 0.061582 0.177639
v 0.373042 -0.204877 0.195403
v 0.408570 0.079346 0.177639
v 0.373042 0.079346 -0.159875
v 0.373042 0.061582 -0.195403
v -0.373042 0.061582 -0.195403
v -0.408570 -0.204877 -0.177639
v 0.408570 0.061582 -0.177639
v 0.408570 -0.204877 0.195403
v 0.408570 0.061582 0.177639
v 0.373042 0.061582 -0.159875
v 0.373042 0.079346 -0.195403
v -0.373042 -0.204877 -0.195403
v -0.408570 -0.204877 -0.195403
v -0.373042 -0.204877 -0.177639
v 0.373042 -0.204877 0.177639
v 0.408570 -0.204877 0.177639
v 0.373042 0.079346 -0.177639
v 0.373042 0.061582 -0.177639
v 0.408570 0.079346 -0.177639
v 0.373042 -0.204877 -0.177639
v 0.408570 0.079346 -0.195403
v 0.408570 -0.204877 -0.195403
v 0.373042 -0.204877 -0.195403
v 0.408570 -0.204877 -0.177639

# 13 UV coordinates
vt -1.33333 0.067963 0
vt 0 0 0
vt 0 0.067963 0
vt -1.33333 0 0
vt 2.66667 0.067963 0
vt 2.66667 0 0
vt 0 1.63112 0
vt -2.66667 0 0
vt -2.66667 1.63112 0
vt 2.66667 1.63112 0
vt -2.66667 0.067963 0
vt 1.33333 0 0
vt 1.33333 0.067963 0

# 6 vertex normals
vn -0.0254 0 0
vn 0.0254 0 0
vn 0 0 0.0254
vn 0 0 -0.0254
vn 0 0.0254 0
vn -0 -0.0254 0

# Mesh 'mesh1_mesh1-geometry' with 24 faces
g mesh1_mesh1-geometry
usemtl material_0_1_8
f  1/1/1 2/2/1 3/3/1
f  2/2/1 1/1/1 4/4/1
f  3/3/2 2/2/2 1/1/2
f  4/4/2 1/1/2 2/2/2
f  2/2/3 5/5/3 3/3/3
f  3/3/4 5/5/4 2/2/4
f  5/6/5 1/7/5 3/2/5
f  3/2/6 1/7/6 5/6/6
f  1/3/4 6/8/4 4/2/4
f  4/2/3 6/8/3 1/3/3
f  6/9/6 2/2/6 4/7/6
f  4/7/5 2/2/5 6/9/5
f  5/5/3 2/2/3 7/6/3
f  7/6/4 2/2/4 5/5/4
f  1/7/5 5/6/5 8/10/5
f  8/10/6 5/6/6 1/7/6
f  6/8/4 1/3/4 8/11/4
f  8/11/3 1/3/3 6/8/3
f  2/2/6 6/9/6 7/8/6
f  7/8/5 6/9/5 2/2/5
f  6/12/2 5/3/2 7/2/2
f  7/2/1 5/3/1 6/12/1
f  5/3/2 6/12/2 8/13/2
f  8/13/1 6/12/1 5/3/1

# Mesh 'mesh2_mesh2-geometry' with 12 faces
g mesh2_mesh2-geometry
usemtl material_1_0
l  3 5
l  2 3
l  1 3
l  7 5
l  5 8
l  4 2
l  2 7
l  4 1
l  8 1
l  7 6
l  6 8
l  6 4

# Mesh 'mesh3_mesh3-geometry' with 128 faces
g mesh3_mesh3-geometry
usemtl material_2_24
f  9//5 10//5 11//5
f  10//5 9//5 12//5
f  10//1 13//1 11//1
f  11//3 14//3 9//3
f  15//5 12//5 9//5
f  9//2 16//2 12//2
f  12//5 17//5 10//5
f  16//4 10//4 12//4
f  13//1 10//1 18//1
f  13//3 14//3 11//3
f  16//2 9//2 14//2
f  14//3 15//3 9//3
f  12//5 15//5 19//5
f  20//2 12//2 16//2
f  17//5 12//5 21//5
f  17//1 22//1 10//1
f  10//4 16//4 22//4
f  18//1 10//1 22//1
f  23//6 13//6 18//6
f  14//3 13//3 24//3
f  14//2 23//2 16//2
f  16//6 25//6 14//6
f  15//3 14//3 26//3
f  19//5 15//5 27//5
f  21//5 12//5 19//5
f  12//2 20//2 19//2
f  16//6 28//6 20//6
f  25//6 16//6 20//6
f  21//5 29//5 17//5
f  30//3 21//3 17//3
f  22//1 17//1 30//1
f  23//4 22//4 16//4
f  22//6 31//6 16//6
f  22//4 23//4 18//4
f  13//6 23//6 24//6
f  23//2 14//2 24//2
f  14//6 25//6 26//6
f  26//3 32//3 15//3
f  33//1 26//1 15//1
f  27//5 15//5 33//5
f  25//4 19//4 27//4
f  21//5 19//5 34//5
f  28//2 19//2 20//2
f  19//4 25//4 20//4
f  16//6 31//6 28//6
f  29//5 21//5 35//5
f  29//1 30//1 17//1
f  21//3 30//3 31//3
f  31//6 22//6 30//6
f  26//6 25//6 36//6
f  37//3 32//3 26//3
f  32//5 33//5 15//5
f  26//1 33//1 36//1
f  38//5 27//5 33//5
f  27//1 36//1 33//1
f  39//1 25//1 27//1
f  36//1 27//1 25//1
f  19//2 28//2 34//2
f  39//5 21//5 34//5
f  34//2 31//2 21//2
f  31//6 40//6 28//6
f  31//2 34//2 28//2
f  21//5 39//5 35//5
f  21//2 41//2 35//2
f  41//4 29//4 35//4
f  30//1 29//1 42//1
f  42//3 31//3 30//3
f  41//2 21//2 31//2
f  25//6 43//6 36//6
f  36//1 37//1 26//1
f  32//3 37//3 44//3
f  33//5 32//5 38//5
f  33//4 45//4 36//4
f  27//5 38//5 39//5
f  45//4 33//4 38//4
f  25//1 39//1 46//1
f  28//3 39//3 34//3
f  40//6 31//6 41//6
f  28//6 40//6 46//6
f  35//5 39//5 47//5
f  35//4 40//4 41//4
f  48//4 29//4 41//4
f  42//1 29//1 49//1
f  31//3 42//3 50//3
f  31//2 48//2 41//2
f  46//6 43//6 25//6
f  36//6 43//6 45//6
f  37//1 36//1 51//1
f  37//6 52//6 44//6
f  52//2 32//2 44//2
f  32//2 52//2 38//2
f  52//4 36//4 45//4
f  39//5 38//5 53//5
f  38//2 52//2 45//2
f  43//2 38//2 45//2
f  39//3 28//3 46//3
f  53//1 46//1 39//1
f  46//6 40//6 54//6
f  47//5 39//5 53//5
f  40//4 35//4 47//4
f  29//4 48//4 49//4
f  48//6 42//6 49//6
f  42//6 48//6 50//6
f  48//2 31//2 50//2
f  43//6 46//6 54//6
f  36//4 52//4 51//4
f  52//6 37//6 51//6
f  53//5 38//5 55//5
f  38//2 43//2 55//2
f  46//1 53//1 54//1
f  40//1 56//1 54//1
f  54//1 47//1 40//1
f  55//5 47//5 53//5
f  47//1 54//1 53//1
f  57//4 40//4 47//4
f  56//3 43//3 54//3
f  55//3 54//3 43//3
f  54//3 55//3 53//3
f  43//2 58//2 55//2
f  56//1 40//1 59//1
f  47//5 55//5 57//5
f  58//4 40//4 57//4
f  43//3 56//3 60//3
f  58//2 43//2 60//2
f  55//2 58//2 57//2
f  40//4 58//4 59//4
f  58//6 56//6 59//6
f  56//6 58//6 60//6

# Mesh 'mesh3_mesh3-geometry' with 128 faces
g mesh3_mesh3-geometry
usemtl material_1_24
f  11//6 10//6 9//6
f  12//6 9//6 10//6
f  11//2 13//2 10//2
f  9//4 14//4 11//4
f  9//6 12//6 15//6
f  12//1 16//1 9//1
f  10//6 17//6 12//6
f  12//3 10//3 16//3
f  18//2 10//2 13//2
f  11//4 14//4 13//4
f  14//1 9//1 16//1
f  9//4 15//4 14//4
f  19//6 15//6 12//6
f  16//1 12//1 20//1
f  21//6 12//6 17//6
f  10//2 22//2 17//2
f  22//3 16//3 10//3
f  22//2 10//2 18//2
f  18//5 13//5 23//5
f  24//4 13//4 14//4
f  16//1 23//1 14//1
f  14//5 25//5 16//5
f  26//4 14//4 15//4
f  27//6 15//6 19//6
f  19//6 12//6 21//6
f  19//1 20//1 12//1
f  20//5 28//5 16//5
f  20//5 16//5 25//5
f  17//6 29//6 21//6
f  17//4 21//4 30//4
f  30//2 17//2 22//2
f  16//3 22//3 23//3
f  16//5 31//5 22//5
f  18//3 23//3 22//3
f  24//5 23//5 13//5
f  24//1 14//1 23//1
f  26//5 25//5 14//5
f  15//4 32//4 26//4
f  15//2 26//2 33//2
f  33//6 15//6 27//6
f  27//3 19//3 25//3
f  34//6 19//6 21//6
f  20//1 19//1 28//1
f  20//3 25//3 19//3
f  28//5 31//5 16//5
f  35//6 21//6 29//6
f  17//2 30//2 29//2
f  31//4 30//4 21//4
f  30//5 22//5 31//5
f  36//5 25//5 26//5
f  26//4 32//4 37//4
f  15//6 33//6 32//6
f  36//2 33//2 26//2
f  33//6 27//6 38//6
f  33//2 36//2 27//2
f  27//2 25//2 39//2
f  25//2 27//2 36//2
f  34//1 28//1 19//1
f  34//6 21//6 39//6
f  21//1 31//1 34//1
f  28//5 40//5 31//5
f  28//1 34//1 31//1
f  35//6 39//6 21//6
f  35//1 41//1 21//1
f  35//3 29//3 41//3
f  42//2 29//2 30//2
f  30//4 31//4 42//4
f  31//1 21//1 41//1
f  36//5 43//5 25//5
f  26//2 37//2 36//2
f  44//4 37//4 32//4
f  38//6 32//6 33//6
f  36//3 45//3 33//3
f  39//6 38//6 27//6
f  38//3 33//3 45//3
f  46//2 39//2 25//2
f  34//4 39//4 28//4
f  41//5 31//5 40//5
f  46//5 40//5 28//5
f  47//6 39//6 35//6
f  41//3 40//3 35//3
f  41//3 29//3 48//3
f  49//2 29//2 42//2
f  50//4 42//4 31//4
f  41//1 48//1 31//1
f  25//5 43//5 46//5
f  45//5 43//5 36//5
f  51//2 36//2 37//2
f  44//5 52//5 37//5
f  44//1 32//1 52//1
f  38//1 52//1 32//1
f  45//3 36//3 52//3
f  53//6 38//6 39//6
f  45//1 52//1 38//1
f  45//1 38//1 43//1
f  46//4 28//4 39//4
f  39//2 46//2 53//2
f  54//5 40//5 46//5
f  53//6 39//6 47//6
f  47//3 35//3 40//3
f  49//3 48//3 29//3
f  49//5 42//5 48//5
f  50//5 48//5 42//5
f  50//1 31//1 48//1
f  54//5 46//5 43//5
f  51//3 52//3 36//3
f  51//5 37//5 52//5
f  55//6 38//6 53//6
f  55//1 43//1 38//1
f  54//2 53//2 46//2
f  54//2 56//2 40//2
f  40//2 47//2 54//2
f  53//6 47//6 55//6
f  53//2 54//2 47//2
f  47//3 40//3 57//3
f  54//4 43//4 56//4
f  43//4 54//4 55//4
f  53//4 55//4 54//4
f  55//1 58//1 43//1
f  59//2 40//2 56//2
f  57//6 55//6 47//6
f  57//3 40//3 58//3
f  60//4 56//4 43//4
f  60//1 43//1 58//1
f  57//1 58//1 55//1
f  59//3 58//3 40//3
f  59//5 56//5 58//5
f  60//5 58//5 56//5

