# File produced by Open Asset Import Library (http://www.assimp.sf.net)
# (assimp v3.2.202087883)

mtllib model_normalized.mtl

# 103 vertex positions
v 0.190579 0.163059 -0.298217
v 0.190579 0.131608 -0.278559
v 0.190579 0.163059 -0.278559
v 0.190579 -0.045307 -0.278559
v -0.206496 0.163059 -0.278559
v 0.190579 -0.116073 -0.278559
v 0.265277 0.131608 -0.278559
v -0.206496 0.131608 -0.278559
v 0.320317 0.163059 -0.333600
v 0.190579 -0.159319 -0.278559
v -0.206496 -0.045307 -0.278559
v 0.265277 -0.045307 -0.278559
v 0.265277 0.131608 -0.258902
v -0.206496 -0.159319 -0.298217
v -0.206496 0.163059 -0.298217
v 0.284934 0.163059 -0.298217
v 0.190579 -0.159319 -0.298217
v 0.265277 -0.116073 -0.278559
v -0.206496 -0.116073 -0.278559
v 0.190579 -0.045307 0.283636
v 0.265277 -0.045307 0.232527
v -0.281193 0.131608 -0.258902
v -0.300850 0.163059 -0.298217
v 0.284934 0.163059 -0.227451
v 0.284934 -0.159319 -0.298217
v 0.265277 -0.159319 -0.278559
v 0.245619 -0.116073 -0.258902
v -0.206496 -0.045307 0.283636
v 0.265277 -0.045307 0.283636
v 0.265277 -0.045307 -0.227451
v -0.281193 0.131608 -0.278559
v 0.265277 0.163059 -0.258902
v -0.281193 -0.045307 -0.278559
v -0.336233 0.163059 -0.333600
v 0.284934 0.163059 0.232527
v 0.265277 -0.159319 -0.258902
v 0.245619 -0.116073 0.263979
v -0.261536 -0.116073 -0.258902
v -0.206496 -0.159319 -0.278559
v -0.206496 -0.116073 0.283636
v 0.190579 0.131608 0.283636
v 0.265277 0.131608 0.263979
v 0.265277 -0.116073 -0.227451
v -0.281193 0.163059 -0.258902
v -0.300850 -0.159319 -0.298217
v -0.336233 0.163059 0.338676
v -0.336233 0.182716 -0.333600
v 0.284934 0.163059 0.303293
v 0.265277 0.163059 0.232527
v 0.284934 -0.159319 -0.227451
v 0.265277 -0.116073 -0.258902
v 0.265277 -0.116073 0.232527
v 0.245619 -0.064964 -0.258902
v -0.281193 -0.116073 -0.278559
v -0.281193 -0.159319 -0.278559
v -0.281193 -0.045307 -0.227451
v 0.190579 -0.116073 0.283636
v -0.206496 0.163059 0.283636
v 0.265277 0.131608 0.283636
v 0.190579 -0.159319 0.283636
v 0.265277 0.163059 -0.227451
v -0.281193 0.163059 -0.227451
v -0.300850 -0.159319 -0.227451
v -0.300850 0.163059 0.303293
v 0.320317 0.182716 -0.333600
v 0.320317 0.163059 0.338676
v 0.284934 -0.159319 0.232527
v 0.265277 -0.159319 -0.227451
v 0.265277 -0.116073 0.263979
v 0.245619 -0.064964 0.263979
v -0.281193 -0.116073 -0.227451
v -0.261536 -0.064964 -0.258902
v -0.281193 -0.045307 0.232527
v -0.206496 -0.159319 0.283636
v -0.206496 0.131608 0.283636
v 0.190579 0.163059 0.283636
v 0.265277 0.163059 0.263979
v -0.281193 0.163059 0.232527
v -0.300850 0.163059 -0.227451
v -0.336233 0.182716 0.338676
v 0.320317 0.182716 0.338676
v 0.190579 0.163059 0.303293
v 0.284934 -0.159319 0.303293
v 0.265277 -0.116073 0.283636
v 0.265277 -0.159319 0.232527
v -0.261536 -0.064964 0.263979
v -0.281193 -0.116073 0.232527
v -0.281193 -0.045307 0.283636
v -0.261536 -0.116073 0.263979
v 0.265277 -0.159319 0.283636
v -0.206496 0.163059 0.303293
v -0.281193 -0.116073 0.283636
v -0.281193 0.131608 0.283636
v 0.190579 -0.159319 0.303293
v -0.281193 0.163059 0.263979
v -0.300850 0.163059 0.232527
v -0.281193 -0.159319 -0.227451
v -0.206496 -0.159319 0.303293
v -0.281193 -0.159319 0.283636
v -0.281193 0.131608 0.263979
v -0.300850 -0.159319 0.303293
v -0.281193 -0.159319 0.232527
v -0.300850 -0.159319 0.232527

# 0 UV coordinates

# 6 vertex normals
vn -0.0254 -0 0
vn 0.0254 0 0
vn 0 0 -0.0254
vn -0 -0 0.0254
vn 0 -0.0254 0
vn 0 0.0254 0

# Mesh 'mesh1_mesh1-geometry' with 428 faces
g mesh1_mesh1-geometry
usemtl material_0_24
f  1//1 2//1 3//1
f  2//1 1//1 4//1
f  3//2 2//2 1//2
f  4//2 1//2 2//2
f  2//3 5//3 3//3
f  3//4 5//4 2//4
f  3//5 5//5 1//5
f  1//6 5//6 3//6
f  4//1 1//1 6//1
f  6//2 1//2 4//2
f  4//4 7//4 2//4
f  2//3 7//3 4//3
f  5//3 2//3 8//3
f  8//4 2//4 5//4
f  5//5 9//5 1//5
f  1//6 9//6 5//6
f  6//1 1//1 10//1
f  10//2 1//2 6//2
f  6//3 11//3 4//3
f  4//4 11//4 6//4
f  7//4 4//4 12//4
f  12//3 4//3 7//3
f  13//5 2//5 7//5
f  7//6 2//6 13//6
f  13//5 8//5 2//5
f  2//6 8//6 13//6
f  8//2 14//2 5//2
f  5//1 14//1 8//1
f  15//5 9//5 5//5
f  5//6 9//6 15//6
f  1//5 9//5 16//5
f  16//6 9//6 1//6
f  10//1 1//1 17//1
f  17//2 1//2 10//2
f  10//4 18//4 6//4
f  6//3 18//3 10//3
f  11//3 6//3 19//3
f  19//4 6//4 11//4
f  11//6 20//6 4//6
f  4//5 20//5 11//5
f  4//6 21//6 12//6
f  12//5 21//5 4//5
f  12//1 13//1 7//1
f  7//2 13//2 12//2
f  22//5 8//5 13//5
f  13//6 8//6 22//6
f  11//2 14//2 8//2
f  8//1 14//1 11//1
f  5//2 14//2 15//2
f  15//1 14//1 5//1
f  23//5 9//5 15//5
f  15//6 9//6 23//6
f  16//5 9//5 24//5
f  24//6 9//6 16//6
f  25//3 1//3 16//3
f  16//4 1//4 25//4
f  1//3 25//3 17//3
f  17//4 25//4 1//4
f  25//5 10//5 17//5
f  17//6 10//6 25//6
f  18//4 10//4 26//4
f  26//3 10//3 18//3
f  27//5 6//5 18//5
f  18//6 6//6 27//6
f  27//5 19//5 6//5
f  6//6 19//6 27//6
f  19//2 14//2 11//2
f  11//1 14//1 19//1
f  11//6 28//6 20//6
f  20//5 28//5 11//5
f  4//6 20//6 29//6
f  29//5 20//5 4//5
f  4//6 29//6 21//6
f  21//5 29//5 4//5
f  12//6 21//6 30//6
f  30//5 21//5 12//5
f  30//1 13//1 12//1
f  12//2 13//2 30//2
f  8//5 22//5 31//5
f  31//6 22//6 8//6
f  32//4 22//4 13//4
f  13//3 22//3 32//3
f  8//4 33//4 11//4
f  11//3 33//3 8//3
f  14//3 23//3 15//3
f  15//4 23//4 14//4
f  23//5 34//5 9//5
f  9//6 34//6 23//6
f  24//5 9//5 35//5
f  35//6 9//6 24//6
f  24//2 25//2 16//2
f  16//1 25//1 24//1
f  10//5 25//5 26//5
f  26//6 25//6 10//6
f  36//1 18//1 26//1
f  26//2 18//2 36//2
f  27//5 18//5 37//5
f  37//6 18//6 27//6
f  38//5 19//5 27//5
f  27//6 19//6 38//6
f  14//2 19//2 39//2
f  39//1 19//1 14//1
f  33//6 28//6 11//6
f  11//5 28//5 33//5
f  40//4 20//4 28//4
f  28//3 20//3 40//3
f  41//3 29//3 20//3
f  20//4 29//4 41//4
f  29//1 42//1 21//1
f  21//2 42//2 29//2
f  21//2 43//2 30//2
f  30//1 43//1 21//1
f  30//1 32//1 13//1
f  13//2 32//2 30//2
f  22//2 33//2 31//2
f  31//1 33//1 22//1
f  33//4 8//4 31//4
f  31//3 8//3 33//3
f  22//4 32//4 44//4
f  44//3 32//3 22//3
f  23//3 14//3 45//3
f  45//4 14//4 23//4
f  34//5 23//5 46//5
f  46//6 23//6 34//6
f  47//3 9//3 34//3
f  34//4 9//4 47//4
f  35//5 9//5 48//5
f  48//6 9//6 35//6
f  49//5 24//5 35//5
f  35//6 24//6 49//6
f  25//2 24//2 50//2
f  50//1 24//1 25//1
f  26//5 25//5 36//5
f  36//6 25//6 26//6
f  18//1 36//1 51//1
f  51//2 36//2 18//2
f  37//5 18//5 52//5
f  52//6 18//6 37//6
f  37//1 53//1 27//1
f  27//2 53//2 37//2
f  38//5 54//5 19//5
f  19//6 54//6 38//6
f  53//4 38//4 27//4
f  27//3 38//3 53//3
f  19//4 55//4 39//4
f  39//3 55//3 19//3
f  55//5 14//5 39//5
f  39//6 14//6 55//6
f  56//6 28//6 33//6
f  33//5 28//5 56//5
f  20//4 40//4 57//4
f  57//3 40//3 20//3
f  58//2 40//2 28//2
f  28//1 40//1 58//1
f  29//3 41//3 59//3
f  59//4 41//4 29//4
f  60//1 41//1 20//1
f  20//2 41//2 60//2
f  42//1 29//1 59//1
f  59//2 29//2 42//2
f  21//1 42//1 49//1
f  49//2 42//2 21//2
f  43//2 21//2 52//2
f  52//1 21//1 43//1
f  43//4 24//4 30//4
f  30//3 24//3 43//3
f  32//1 30//1 61//1
f  61//2 30//2 32//2
f  62//2 33//2 22//2
f  22//1 33//1 62//1
f  32//5 62//5 44//5
f  44//6 62//6 32//6
f  44//2 62//2 22//2
f  22//1 62//1 44//1
f  55//5 45//5 14//5
f  14//6 45//6 55//6
f  63//1 23//1 45//1
f  45//2 23//2 63//2
f  64//5 46//5 23//5
f  23//6 46//6 64//6
f  46//1 47//1 34//1
f  34//2 47//2 46//2
f  9//3 47//3 65//3
f  65//4 47//4 9//4
f  66//5 48//5 9//5
f  9//6 48//6 66//6
f  48//2 67//2 35//2
f  35//1 67//1 48//1
f  24//5 49//5 61//5
f  61//6 49//6 24//6
f  35//3 21//3 49//3
f  49//4 21//4 35//4
f  24//4 68//4 50//4
f  50//3 68//3 24//3
f  68//5 25//5 50//5
f  50//6 25//6 68//6
f  36//5 25//5 68//5
f  68//6 25//6 36//6
f  68//1 51//1 36//1
f  36//2 51//2 68//2
f  43//5 18//5 51//5
f  51//6 18//6 43//6
f  52//5 18//5 43//5
f  43//6 18//6 52//6
f  69//5 37//5 52//5
f  52//6 37//6 69//6
f  53//1 37//1 70//1
f  70//2 37//2 53//2
f  54//5 38//5 71//5
f  71//6 38//6 54//6
f  55//4 19//4 54//4
f  54//3 19//3 55//3
f  38//4 53//4 72//4
f  72//3 53//3 38//3
f  73//6 28//6 56//6
f  56//5 28//5 73//5
f  33//2 62//2 56//2
f  56//1 62//1 33//1
f  40//5 37//5 57//5
f  57//6 37//6 40//6
f  60//1 20//1 57//1
f  57//2 20//2 60//2
f  58//2 74//2 40//2
f  40//1 74//1 58//1
f  58//2 28//2 75//2
f  75//1 28//1 58//1
f  41//5 42//5 59//5
f  59//6 42//6 41//6
f  60//1 76//1 41//1
f  41//2 76//2 60//2
f  49//1 42//1 77//1
f  77//2 42//2 49//2
f  35//3 52//3 21//3
f  21//4 52//4 35//4
f  68//4 24//4 43//4
f  43//3 24//3 68//3
f  30//4 24//4 61//4
f  61//3 24//3 30//3
f  77//5 32//5 61//5
f  61//6 32//6 77//6
f  62//5 32//5 78//5
f  78//6 32//6 62//6
f  45//5 55//5 63//5
f  63//6 55//6 45//6
f  23//1 63//1 79//1
f  79//2 63//2 23//2
f  46//5 64//5 66//5
f  66//6 64//6 46//6
f  64//5 23//5 79//5
f  79//6 23//6 64//6
f  47//1 46//1 80//1
f  80//2 46//2 47//2
f  47//6 81//6 65//6
f  65//5 81//5 47//5
f  81//2 9//2 65//2
f  65//1 9//1 81//1
f  66//5 82//5 48//5
f  48//6 82//6 66//6
f  9//2 81//2 66//2
f  66//1 81//1 9//1
f  67//2 48//2 83//2
f  83//1 48//1 67//1
f  67//3 52//3 35//3
f  35//4 52//4 67//4
f  77//5 61//5 49//5
f  49//6 61//6 77//6
f  51//1 68//1 43//1
f  43//2 68//2 51//2
f  84//5 37//5 69//5
f  69//6 37//6 84//6
f  85//1 69//1 52//1
f  52//2 69//2 85//2
f  37//3 86//3 70//3
f  70//4 86//4 37//4
f  86//5 53//5 70//5
f  70//6 53//6 86//6
f  71//5 38//5 87//5
f  87//6 38//6 71//6
f  71//2 55//2 54//2
f  54//1 55//1 71//1
f  53//5 86//5 72//5
f  72//6 86//6 53//6
f  86//2 38//2 72//2
f  72//1 38//1 86//1
f  28//6 73//6 88//6
f  88//5 73//5 28//5
f  56//1 87//1 73//1
f  73//2 87//2 56//2
f  79//4 56//4 62//4
f  62//3 56//3 79//3
f  40//5 89//5 37//5
f  37//6 89//6 40//6
f  57//5 37//5 84//5
f  84//6 37//6 57//6
f  57//3 90//3 60//3
f  60//4 90//4 57//4
f  91//2 74//2 58//2
f  58//1 74//1 91//1
f  74//3 92//3 40//3
f  40//4 92//4 74//4
f  28//3 93//3 75//3
f  75//4 93//4 28//4
f  75//4 76//4 58//4
f  58//3 76//3 75//3
f  75//5 42//5 41//5
f  41//6 42//6 75//6
f  94//1 76//1 60//1
f  60//2 76//2 94//2
f  76//4 75//4 41//4
f  41//3 75//3 76//3
f  42//3 95//3 77//3
f  77//4 95//4 42//4
f  95//5 32//5 77//5
f  77//6 32//6 95//6
f  78//5 32//5 95//5
f  95//6 32//6 78//6
f  96//5 62//5 78//5
f  78//6 62//6 96//6
f  97//5 63//5 55//5
f  55//6 63//6 97//6
f  63//4 71//4 79//4
f  79//3 71//3 63//3
f  66//5 64//5 91//5
f  91//6 64//6 66//6
f  81//4 46//4 66//4
f  66//3 46//3 81//3
f  64//5 79//5 96//5
f  96//6 79//6 64//6
f  46//4 81//4 80//4
f  80//3 81//3 46//3
f  81//6 47//6 80//6
f  80//5 47//5 81//5
f  66//5 91//5 82//5
f  82//6 91//6 66//6
f  94//4 48//4 82//4
f  82//3 48//3 94//3
f  48//4 94//4 83//4
f  83//3 94//3 48//3
f  83//5 90//5 67//5
f  67//6 90//6 83//6
f  52//3 67//3 85//3
f  85//4 67//4 52//4
f  69//1 90//1 84//1
f  84//2 90//2 69//2
f  90//1 69//1 85//1
f  85//2 69//2 90//2
f  86//3 37//3 89//3
f  89//4 37//4 86//4
f  87//5 38//5 92//5
f  92//6 38//6 87//6
f  87//1 56//1 71//1
f  71//2 56//2 87//2
f  55//2 71//2 97//2
f  97//1 71//1 55//1
f  38//2 86//2 89//2
f  89//1 86//1 38//1
f  73//2 93//2 88//2
f  88//1 93//1 73//1
f  93//3 28//3 88//3
f  88//4 28//4 93//4
f  87//3 96//3 73//3
f  73//4 96//4 87//4
f  79//4 71//4 56//4
f  56//3 71//3 79//3
f  62//5 96//5 79//5
f  79//6 96//6 62//6
f  92//5 89//5 40//5
f  40//6 89//6 92//6
f  90//3 57//3 84//3
f  84//4 57//4 90//4
f  90//5 94//5 60//5
f  60//6 94//6 90//6
f  74//2 91//2 98//2
f  98//1 91//1 74//1
f  76//5 91//5 58//5
f  58//6 91//6 76//6
f  92//3 74//3 99//3
f  99//4 74//4 92//4
f  93//5 42//5 75//5
f  75//6 42//6 93//6
f  76//1 94//1 82//1
f  82//2 94//2 76//2
f  95//3 42//3 100//3
f  100//4 42//4 95//4
f  95//2 73//2 78//2
f  78//1 73//1 95//1
f  73//3 96//3 78//3
f  78//4 96//4 73//4
f  71//4 63//4 97//4
f  97//3 63//3 71//3
f  101//4 91//4 64//4
f  64//3 91//3 101//3
f  96//1 101//1 64//1
f  64//2 101//2 96//2
f  82//5 91//5 76//5
f  76//6 91//6 82//6
f  94//5 90//5 83//5
f  83//6 90//6 94//6
f  67//5 90//5 85//5
f  85//6 90//6 67//6
f  89//5 92//5 38//5
f  38//6 92//6 89//6
f  92//2 102//2 87//2
f  87//1 102//1 92//1
f  93//2 73//2 100//2
f  100//1 73//1 93//1
f  102//3 96//3 87//3
f  87//4 96//4 102//4
f  91//4 101//4 98//4
f  98//3 101//3 91//3
f  98//5 99//5 74//5
f  74//6 99//6 98//6
f  102//2 92//2 99//2
f  99//1 92//1 102//1
f  42//5 93//5 100//5
f  100//6 93//6 42//6
f  100//2 73//2 95//2
f  95//1 73//1 100//1
f  101//1 96//1 103//1
f  103//2 96//2 101//2
f  96//3 102//3 103//3
f  103//4 102//4 96//4
f  101//5 99//5 98//5
f  98//6 99//6 101//6
f  101//5 102//5 99//5
f  99//6 102//6 101//6
f  102//5 101//5 103//5
f  103//6 101//6 102//6

# Mesh 'mesh2_mesh2-geometry' with 154 faces
g mesh2_mesh2-geometry
usemtl material_0_0
l  1 3
l  1 17
l  1 16
l  3 2
l  3 5
l  17 10
l  17 25
l  16 24
l  16 25
l  2 4
l  2 7
l  2 8
l  5 15
l  5 8
l  6 10
l  10 26
l  25 50
l  61 24
l  24 50
l  4 6
l  11 4
l  4 12
l  7 12
l  13 7
l  8 11
l  31 8
l  15 14
l  23 15
l  19 6
l  6 18
l  36 26
l  18 26
l  68 50
l  61 30
l  61 32
l  11 19
l  33 11
l  30 12
l  32 13
l  22 13
l  31 33
l  22 31
l  45 14
l  39 14
l  79 23
l  23 45
l  19 39
l  19 54
l  51 18
l  68 36
l  51 36
l  43 68
l  30 43
l  30 21
l  44 32
l  56 33
l  44 22
l  63 45
l  55 39
l  79 62
l  79 63
l  54 55
l  71 54
l  51 43
l  43 52
l  21 52
l  29 21
l  49 21
l  62 44
l  62 56
l  73 56
l  56 71
l  63 97
l  97 55
l  71 97
l  87 71
l  52 69
l  52 85
l  29 20
l  59 29
l  49 35
l  77 49
l  88 73
l  78 73
l  73 87
l  92 87
l  87 102
l  69 37
l  84 69
l  90 85
l  85 67
l  20 28
l  41 20
l  20 57
l  41 59
l  59 42
l  35 67
l  35 48
l  95 77
l  77 42
l  88 92
l  28 88
l  93 88
l  78 95
l  96 78
l  40 92
l  92 99
l  103 102
l  102 99
l  27 37
l  37 89
l  70 37
l  57 84
l  84 90
l  60 90
l  67 83
l  28 40
l  75 28
l  41 75
l  76 41
l  57 40
l  57 60
l  100 42
l  48 83
l  48 82
l  95 100
l  75 93
l  100 93
l  64 96
l  96 103
l  40 74
l  74 99
l  101 103
l  38 27
l  53 27
l  86 89
l  89 38
l  70 53
l  86 70
l  94 60
l  83 94
l  58 75
l  76 58
l  82 76
l  82 94
l  91 64
l  64 101
l  98 74
l  98 101
l  72 38
l  72 53
l  86 72
l  91 58
l  91 98

# Mesh 'mesh3_mesh3-geometry' with 12 faces
g mesh3_mesh3-geometry
usemtl material_0_0
l  65 47
l  81 65
l  9 65
l  80 47
l  34 47
l  80 81
l  66 81
l  9 34
l  66 9
l  46 80
l  46 34
l  46 66

