# File produced by Open Asset Import Library (http://www.assimp.sf.net)
# (assimp v3.2.202087883)

mtllib model_normalized.mtl

# 33 vertex positions
v -0.421181 -0.095952 -0.174038
v -0.444944 -0.095952 -0.150272
v -0.444944 -0.095952 -0.174038
v -0.421181 -0.095952 -0.150272
v 0.447497 0.081316 -0.174038
v -0.421181 0.081316 -0.150272
v -0.421181 0.081316 -0.174038
v -0.444944 0.081316 0.140036
v -0.444944 0.081316 -0.150272
v -0.421181 0.081316 0.140036
v -0.421181 0.081316 0.163799
v -0.421070 0.081316 0.163799
v -0.421181 -0.095952 0.140036
v -0.444944 -0.095952 0.163799
v -0.444944 -0.095952 0.140036
v 0.471262 -0.095952 -0.174038
v 0.447497 -0.095952 -0.150272
v 0.447497 -0.095952 -0.174038
v 0.447497 0.081316 0.163799
v -0.421181 -0.095952 0.163799
v 0.471262 -0.095952 -0.150272
v 0.447497 0.081316 0.140036
v 0.471262 0.081316 -0.150272
v 0.471262 0.081316 0.140036
v 0.447497 0.081316 -0.150272
v 0.471262 -0.095952 0.163799
v 0.447497 -0.095952 0.140036
v 0.471262 -0.095952 0.140036
v 0.447497 -0.095952 0.163799
v -0.444944 0.119531 -0.174038
v -0.444944 0.119531 0.163799
v 0.471262 0.119531 -0.174038
v 0.471262 0.119531 0.163799

# 63 UV coordinates
vt -7.63061 10.1545 0
vt -7.16811 9.69202 0
vt -7.16811 10.1545 0
vt -7.63061 9.69202 0
vt -24.5369 10.1545 0
vt -7.16811 4.04202 0
vt -7.63061 4.04202 0
vt -7.63061 3.57952 0
vt -7.63277 3.57952 0
vt -7.16811 3.57952 0
vt -24.9994 10.1545 0
vt -24.5369 9.69202 0
vt -24.5369 3.57952 0
vt -24.9994 9.69202 0
vt -24.5369 4.04202 0
vt -24.9994 4.04202 0
vt -24.9994 3.57952 0
vt 0 0 0
vt -1.34611 0 0
vt -1.41035 0.582465 0
vt -1.41035 0 0
vt -0.995571 0.582465 0
vt -1.05981 0 0
vt -0.995571 0 0
vt 1.41035 0 0
vt 1.34611 0.479167 0
vt 1.34611 0 0
vt 1.05981 0.479167 0
vt 0.995571 0 0
vt 1.05981 0 0
vt -1.34611 0.479167 0
vt -1.05981 0.479167 0
vt 1.41035 0.479167 0
vt 0.995571 0.479167 0
vt -0.561392 0.479167 0
vt -3.4079 0.479167 0
vt -0.497156 0.582465 0
vt -3.47213 0.582465 0
vt -0.497156 0 0
vt 3.47213 0.497156 0
vt 0.995571 1.41035 0
vt 0.995571 0.497156 0
vt -3.47213 0 0
vt 3.47213 1.41035 0
vt -0.995571 0.479167 0
vt -0.561392 0 0
vt 0.995571 0.582465 0
vt 3.47213 0.582465 0
vt -3.4079 0 0
vt 1.41035 0.582465 0
vt 0.497156 0.582465 0
vt 0.561392 0.479167 0
vt 0.497156 0.479167 0
vt 0.561392 0 0
vt 1.06011 0.479167 0
vt -1.41035 0.479167 0
vt 0.497156 0 0
vt 3.4079 0.479167 0
vt 3.47213 0.479167 0
vt 3.4079 0 0
vt 3.47213 0 0
vt -3.47213 0.479167 0
vt -0.497156 0.479167 0

# 6 vertex normals
vn 0 -0.0254 0
vn 0 0.0254 0
vn 0.0254 0 0
vn -0 -0 0.0254
vn -0.0254 -0 0
vn 0 0 -0.0254

# Mesh 'mesh1_mesh1-geometry' with 19 faces
g mesh1_mesh1-geometry
usemtl material_0_1_8
f  1/1/1 2/2/1 3/3/1
f  2/2/1 1/1/1 4/4/1
f  5/5/1 6/4/1 7/1/1
f  6/4/1 8/6/1 9/2/1
f  6/4/1 5/5/1 10/7/1
f  8/6/1 6/4/1 10/7/1
f  10/7/1 5/5/1 11/8/1
f  11/8/1 5/5/1 12/9/1
f  13/7/1 14/10/1 15/6/1
f  16/11/1 17/12/1 18/5/1
f  12/9/1 5/5/1 19/13/1
f  14/10/1 13/7/1 20/8/1
f  17/12/1 16/11/1 21/14/1
f  22/15/1 23/14/1 24/16/1
f  19/13/1 5/5/1 25/12/1
f  23/14/1 22/15/1 25/12/1
f  26/17/1 27/15/1 28/16/1
f  19/13/1 25/12/1 22/15/1
f  27/15/1 26/17/1 29/13/1

# Mesh 'mesh1_mesh1-geometry' with 62 faces
g mesh1_mesh1-geometry
usemtl material_1_24
f  3/18/2 2/18/2 1/18/2
f  4/18/2 1/18/2 2/18/2
f  3/18/3 30/18/3 2/18/3
f  3/18/4 1/18/4 30/18/4
f  4/18/5 6/18/5 1/18/5
f  4/18/6 2/18/6 6/18/6
f  2/18/3 30/18/3 9/18/3
f  7/18/4 30/18/4 1/18/4
f  7/18/5 1/18/5 6/18/5
f  9/18/6 6/18/6 2/18/6
f  9/18/3 30/18/3 8/18/3
f  5/18/4 30/18/4 7/18/4
f  7/18/2 6/18/2 5/18/2
f  9/18/2 8/18/2 6/18/2
f  30/18/3 31/18/3 8/18/3
f  30/18/4 5/18/4 32/18/4
f  10/18/2 5/18/2 6/18/2
f  10/18/2 6/18/2 8/18/2
f  14/18/3 8/18/3 31/18/3
f  31/18/1 30/18/1 33/18/1
f  32/18/4 5/18/4 16/18/4
f  32/18/1 33/18/1 30/18/1
f  11/18/2 5/18/2 10/18/2
f  10/18/4 8/18/4 13/18/4
f  8/18/3 14/18/3 15/18/3
f  31/18/6 11/18/6 14/18/6
f  33/18/6 11/18/6 31/18/6
f  18/18/4 16/18/4 5/18/4
f  16/18/5 23/18/5 32/18/5
f  32/18/5 24/18/5 33/18/5
f  12/18/2 5/18/2 11/18/2
f  10/18/5 13/18/5 11/18/5
f  15/18/4 13/18/4 8/18/4
f  15/18/2 14/18/2 13/18/2
f  20/18/6 14/18/6 11/18/6
f  11/18/6 33/18/6 12/18/6
f  18/18/2 17/18/2 16/18/2
f  18/18/3 5/18/3 17/18/3
f  23/18/5 24/18/5 32/18/5
f  21/18/5 23/18/5 16/18/5
f  24/18/5 28/18/5 33/18/5
f  19/18/2 5/18/2 12/18/2
f  20/18/5 11/18/5 13/18/5
f  20/18/2 13/18/2 14/18/2
f  12/18/6 33/18/6 19/18/6
f  21/18/2 16/18/2 17/18/2
f  25/18/3 17/18/3 5/18/3
f  24/18/2 23/18/2 22/18/2
f  21/18/6 17/18/6 23/18/6
f  26/18/5 33/18/5 28/18/5
f  24/18/4 22/18/4 28/18/4
f  25/18/2 5/18/2 19/18/2
f  19/18/6 33/18/6 29/18/6
f  25/18/6 23/18/6 17/18/6
f  25/18/2 22/18/2 23/18/2
f  26/18/6 29/18/6 33/18/6
f  28/18/2 27/18/2 26/18/2
f  27/18/4 28/18/4 22/18/4
f  22/18/2 25/18/2 19/18/2
f  19/18/3 29/18/3 22/18/3
f  29/18/2 26/18/2 27/18/2
f  27/18/3 22/18/3 29/18/3

# Mesh 'mesh1_mesh1-geometry' with 43 faces
g mesh1_mesh1-geometry
usemtl material_2_2_8
f  2/19/5 30/20/5 3/21/5
f  30/22/6 1/23/6 3/24/6
f  1/25/3 6/26/3 4/27/3
f  6/28/4 2/29/4 4/30/4
f  9/31/5 30/20/5 2/19/5
f  1/23/6 30/22/6 7/32/6
f  6/26/3 1/25/3 7/33/3
f  2/29/4 6/28/4 9/34/4
f  8/35/5 30/20/5 9/31/5
f  7/32/6 30/22/6 5/36/6
f  8/35/5 31/37/5 30/20/5
f  32/38/6 5/36/6 30/22/6
f  31/37/5 8/35/5 14/39/5
f  33/40/2 30/41/2 31/42/2
f  16/43/6 5/36/6 32/38/6
f  30/41/2 33/40/2 32/44/2
f  13/23/6 8/45/6 10/32/6
f  15/46/5 14/39/5 8/35/5
f  14/29/4 11/28/4 31/47/4
f  31/47/4 11/28/4 33/48/4
f  5/36/6 16/43/6 18/49/6
f  32/50/3 23/26/3 16/25/3
f  33/51/3 24/52/3 32/50/3
f  11/53/3 13/54/3 10/52/3
f  8/45/6 13/23/6 15/24/6
f  11/28/4 14/29/4 20/30/4
f  12/55/4 33/48/4 11/28/4
f  17/19/5 5/56/5 18/21/5
f  32/50/3 24/52/3 23/26/3
f  16/25/3 23/26/3 21/27/3
f  33/51/3 28/54/3 24/52/3
f  13/54/3 11/53/3 20/57/3
f  19/58/4 33/48/4 12/55/4
f  5/56/5 17/19/5 25/31/5
f  23/59/4 17/60/4 21/61/4
f  28/54/3 33/51/3 26/57/3
f  28/43/6 22/36/6 24/62/6
f  29/60/4 33/48/4 19/58/4
f  17/60/4 23/59/4 25/58/4
f  33/48/4 29/60/4 26/61/4
f  22/36/6 28/43/6 27/49/6
f  22/35/5 29/39/5 19/63/5
f  29/39/5 22/35/5 27/46/5

