# File produced by Open Asset Import Library (http://www.assimp.sf.net)
# (assimp v3.2.202087883)

mtllib model_normalized.mtl

# 101 vertex positions
v -0.289894 -0.435165 0.234355
v -0.303062 -0.435165 -0.257251
v -0.289894 -0.435165 -0.257251
v -0.303062 -0.435165 0.234355
v -0.303062 0.073999 -0.257251
v -0.289894 -0.144470 0.111454
v -0.303062 0.073999 0.234355
v -0.289894 -0.006112 -0.257251
v -0.289894 -0.131302 0.111454
v -0.289894 -0.144470 0.234355
v -0.289894 -0.226331 0.234355
v -0.303062 0.091556 0.234355
v -0.303062 0.091556 -0.257251
v -0.289894 0.013916 -0.257251
v -0.289894 -0.006112 0.234355
v 0.350950 -0.144470 0.111454
v 0.364118 0.091556 0.234355
v -0.285505 0.073999 -0.260669
v -0.289894 0.033944 -0.257251
v -0.289894 0.013916 0.234355
v 0.140261 -0.006112 -0.257251
v -0.289894 0.073999 0.234355
v -0.289894 0.033944 0.234355
v -0.289894 -0.131302 0.234355
v 0.350950 -0.131302 0.111454
v 0.350950 -0.144470 0.234355
v -0.248089 0.091556 -0.267953
v 0.364118 0.091556 -0.257251
v -0.289894 0.073999 -0.257251
v -0.289894 0.040803 -0.257251
v 0.140261 0.013916 -0.257251
v -0.289894 0.040803 0.234355
v 0.140261 0.013916 0.234355
v 0.140261 -0.006112 0.234355
v 0.350950 -0.006112 0.234355
v 0.350950 -0.006112 -0.257251
v 0.350950 -0.226331 0.234355
v 0.350950 -0.131302 0.234355
v -0.192775 0.091556 -0.276728
v 0.140261 0.073999 0.234355
v 0.309145 0.091556 -0.267953
v 0.364118 0.073999 -0.257251
v -0.248089 0.073999 -0.267953
v -0.285505 0.073999 -0.257251
v 0.140261 0.033944 -0.257251
v -0.076728 0.050463 0.234355
v 0.140261 0.033944 0.234355
v 0.140261 0.040803 0.234355
v 0.350950 -0.435165 0.234355
v 0.364118 0.073999 0.234355
v -0.137189 0.091556 -0.283563
v -0.192775 0.073999 -0.276728
v 0.346561 0.073999 0.234355
v 0.140261 0.073999 -0.257251
v 0.346561 0.073999 -0.260669
v 0.253831 0.091556 -0.276728
v 0.364118 -0.435165 -0.257251
v 0.140261 0.040803 -0.257251
v 0.350950 0.073999 -0.257251
v -0.079000 0.050762 0.234355
v 0.350950 0.073999 0.234355
v 0.350950 -0.435165 -0.257251
v -0.081397 0.091556 -0.288452
v -0.137189 0.073999 -0.283563
v 0.346561 0.073999 -0.257251
v 0.142453 0.073999 -0.288452
v 0.309145 0.073999 -0.267953
v 0.198244 0.091556 -0.283563
v 0.364118 -0.435165 0.234355
v -0.081118 0.051639 0.234355
v -0.025469 0.091556 -0.291387
v -0.081397 0.073999 -0.288452
v 0.086525 0.073999 -0.291387
v 0.198244 0.073999 -0.283563
v -0.076728 0.068020 0.234355
v 0.253831 0.073999 -0.276728
v 0.142453 0.091556 -0.288452
v -0.082936 0.053034 0.234355
v -0.074456 0.050762 0.234355
v 0.030528 0.091556 -0.292366
v -0.025469 0.073999 -0.291387
v 0.030528 0.073999 -0.292366
v 0.086525 0.091556 -0.291387
v -0.079000 0.067721 0.234355
v -0.074456 0.067721 0.234355
v -0.084331 0.054852 0.234355
v -0.072339 0.051639 0.234355
v -0.081118 0.066844 0.234355
v -0.072339 0.066844 0.234355
v -0.085208 0.056969 0.234355
v -0.070520 0.053034 0.234355
v -0.082936 0.065449 0.234355
v -0.070520 0.065449 0.234355
v -0.085507 0.059241 0.234355
v -0.069126 0.054852 0.234355
v -0.084331 0.063631 0.234355
v -0.069126 0.063631 0.234355
v -0.085208 0.061514 0.234355
v -0.068248 0.056969 0.234355
v -0.068248 0.061514 0.234355
v -0.067950 0.059241 0.234355

# 181 UV coordinates
vt -1.55208 1.16667 0
vt -1.58333 0 0
vt -1.55208 0 0
vt -1.58333 1.16667 0
vt 1.58333 1.20833 0
vt 1.55208 0 0
vt 1.58333 0 0
vt -0 -0 0
vt -0.875 0.689868 0
vt -1.16667 -0 0
vt -1.58333 1.20833 0
vt 1.16667 0 0
vt 0 1.20833 0
vt 1.55208 1.01822 0
vt -0.875 0.721118 0
vt -1.16667 0.689868 0
vt -1.55208 0.495599 0
vt 1.16667 1.25 0
vt 1.16667 1.20833 0
vt 0 1.25 0
vt 1.55208 1.06575 0
vt -1.16667 1.01822 0
vt -0 1.01822 0
vt 1.55208 0.721118 0
vt 0.03125 0.689868 0
vt 1.55208 0.689868 0
vt -0.03125 0.875 0
vt -1.55208 0.875 0
vt -1.16667 0.495599 0
vt -1.55208 0.689868 0
vt -1.58333 1.25 0
vt 1.55416 1.25 0
vt 1.51171 1.20833 0
vt 1.55416 1.20833 0
vt 1.55208 1.11328 0
vt -1.16667 1.06575 0
vt -0 1.06575 0
vt 0.53125 1.01822 0
vt -1.16667 1.20833 0
vt 1.55208 1.16667 0
vt 0.53125 0 0
vt -1.16667 1.11328 0
vt -1.16667 0.721118 0
vt 0.03125 0.721118 0
vt -0.03125 1.16667 0
vt -0.03125 0.689868 0
vt -1.55208 0.721118 0
vt 1.58333 1.16667 0
vt 1.45287 -0.025398 0
vt -1.55208 1.20833 0
vt -0 1.16667 0
vt 1.42125 1.25 0
vt -1.54167 -0.008112 0
vt 1.55208 1.12955 0
vt -0 1.11328 0
vt -0.53125 0 0
vt 0.53125 1.06575 0
vt -1.16667 1.12955 0
vt -1.55208 1.01822 0
vt -1.55208 1.06575 0
vt -0.53125 1.06575 0
vt 0.53125 1.16667 0
vt -0.03125 1.01822 0
vt 0.03125 0.875 0
vt 1.55208 0.875 0
vt 0.875 0.721118 0
vt 0.875 0.689868 0
vt 1.16667 0.689868 0
vt 1.16667 0.495599 0
vt -0.03125 0.721118 0
vt -0.03125 0.495599 0
vt 1.3216 -0.046221 0
vt -0.53125 1.20833 0
vt -1.55208 1.12955 0
vt 0.130461 -0.025398 0
vt -1.16667 1.25 0
vt 1.42125 1.20833 0
vt -1.54167 0 0
vt 1.55208 1.20833 0
vt -0 1.12955 0
vt 0.53125 1.11328 0
vt -0.53125 1.16667 0
vt 0.03125 1.01822 0
vt 1.16667 1.01822 0
vt -1.0462 1.15248 0
vt -1.55208 1.11328 0
vt -0.53125 1.01822 0
vt -0.53125 1.11328 0
vt -0.03125 0 0
vt -0.53125 1.12955 0
vt 0.03125 1.16667 0
vt 1.16667 0.721118 0
vt 1.18969 -0.062443 0
vt 1.29804 1.20833 0
vt 1.43095 1.25 0
vt 1.29804 1.25 0
vt -0.041667 1.20833 0
vt 0.042449 1.20833 0
vt 0.13291 1.25 0
vt 0.26173 -0.046221 0
vt 1.43095 1.20833 0
vt 1.54167 0 0
vt 1.54167 -0.008112 0
vt 0.53125 1.12955 0
vt 1.16667 1.06575 0
vt 0.03125 1.20833 0
vt -1.05159 1.15319 0
vt -0.03125 1.20833 0
vt 1.16667 1.11328 0
vt 1.05728 -0.074044 0
vt 1.17317 1.20833 0
vt 1.30608 1.25 0
vt 1.17317 1.25 0
vt 1.30608 1.20833 0
vt 0.041667 0 0
vt 0.041667 1.16667 0
vt 0.526049 -0.074044 0
vt 1.16667 1.12955 0
vt 0.13291 1.20833 0
vt 0.132829 1.20833 0
vt 0.265739 1.25 0
vt 0.132829 1.25 0
vt 0.393646 -0.062443 0
vt 0.041667 -0.008112 0
vt 0.03125 0 0
vt -1.05662 1.15527 0
vt 0.924557 -0.08101 0
vt 1.04679 1.20833 0
vt 1.1797 1.25 0
vt 1.04679 1.25 0
vt 1.1797 1.20833 0
vt 0.658777 -0.08101 0
vt -1.0462 1.19415 0
vt 0.265739 1.20833 0
vt 0.265414 1.20833 0
vt 0.398325 1.25 0
vt 0.265414 1.25 0
vt 0.53125 1.20833 0
vt -1.06094 1.15858 0
vt -1.04081 1.15319 0
vt 0.791667 -0.083333 0
vt 0.91904 1.20833 0
vt 1.05195 1.25 0
vt 0.91904 1.25 0
vt 1.05195 1.20833 0
vt 0.041667 1.20833 0
vt 0.530505 1.25 0
vt 0.397594 1.20833 0
vt 0.530505 1.20833 0
vt 0.662117 1.25 0
vt 0.529207 1.20833 0
vt 0.662117 1.20833 0
vt -1.05159 1.19344 0
vt -1.04081 1.19344 0
vt 0.398325 1.20833 0
vt 0.397594 1.25 0
vt -1.06424 1.1629 0
vt -1.03579 1.15527 0
vt 0.790089 1.20833 0
vt 0.922999 1.25 0
vt 0.790089 1.25 0
vt 0.922999 1.20833 0
vt 0.793002 1.25 0
vt 0.660092 1.20833 0
vt 0.793002 1.20833 0
vt 0.529207 1.25 0
vt 0.660092 1.25 0
vt -1.05662 1.19135 0
vt -1.03579 1.19135 0
vt -1.06633 1.16792 0
vt -1.03147 1.15858 0
vt -1.06094 1.18804 0
vt -1.03147 1.18804 0
vt -1.06704 1.17331 0
vt -1.02816 1.1629 0
vt -1.06424 1.18373 0
vt -1.02816 1.18373 0
vt -1.06633 1.1787 0
vt -1.02608 1.16792 0
vt -1.02608 1.1787 0
vt -1.02537 1.17331 0

# 30 vertex normals
vn 0 -0.0254 0
vn 0 0 -0.0254
vn 0.0254 0 0
vn 0 0 0.0254
vn -0.0254 0 0
vn -0.00485374 0 -0.0249319
vn 0 0.0254 0
vn -0.00441721 0 -0.025013
vn -0.00354028 0 -0.0251521
vn 0.00485374 -0 -0.0249319
vn 0.00441721 -0 -0.025013
vn -0.002659 0 -0.0252604
vn 0.00354028 0 -0.0251521
vn -0.00177447 0 -0.0253379
vn 0.002659 0 -0.0252604
vn -0.000887781 0 -0.0253845
vn 0.00177447 0 -0.0253379
vn 0.000887781 0 -0.0253845
vn 0.00485374 0 0.0249319
vn 0.00441721 0 0.025013
vn 0.00354028 0 0.0251521
vn -0.00441721 0 0.025013
vn -0.00485374 0 0.0249319
vn 0.002659 0 0.0252604
vn -0.00354028 0 0.0251521
vn 0.00177447 0 0.0253379
vn -0.002659 0 0.0252604
vn 0.000887781 0 0.0253845
vn -0.00177447 0 0.0253379
vn -0.000887781 0 0.0253845

# Mesh 'mesh1_mesh1-geometry' with 288 faces
g mesh1_mesh1-geometry
usemtl material_0_1_8
f  1/1/1 2/2/1 3/3/1
f  2/2/1 1/1/1 4/4/1
f  5/5/2 3/6/2 2/7/2
f  3/8/3 6/9/3 1/10/3
f  1/3/4 7/11/4 4/2/4
f  4/12/5 5/13/5 2/8/5
f  3/6/2 5/5/2 8/14/2
f  6/9/3 3/8/3 9/15/3
f  1/10/3 6/9/3 10/16/3
f  7/11/4 1/3/4 11/17/4
f  12/18/5 4/12/5 7/19/5
f  5/13/5 4/12/5 13/20/5
f  8/14/2 5/5/2 14/21/2
f  15/22/3 3/8/3 8/23/3
f  3/8/3 15/22/3 9/15/3
f  9/24/2 16/25/2 6/26/2
f  16/27/1 10/1/1 6/28/1
f  1/10/3 10/16/3 11/29/3
f  7/11/4 11/17/4 10/30/4
f  13/20/5 4/12/5 12/18/5
f  7/11/4 17/20/4 12/31/4
f  13/32/6 18/33/6 5/34/6
f  14/21/2 5/5/2 19/35/2
f  20/36/3 8/23/3 14/37/3
f  14/21/2 21/38/2 8/14/2
f  14/37/3 22/39/3 8/23/3
f  8/23/3 20/36/3 15/22/3
f  15/40/7 21/41/7 8/6/7
f  8/6/1 21/41/1 15/40/1
f  8/23/3 23/42/3 15/22/3
f  9/15/3 15/22/3 24/43/3
f  16/25/2 9/24/2 25/44/2
f  10/1/1 16/27/1 26/45/1
f  11/17/4 26/46/4 10/30/4
f  10/30/2 26/46/2 11/17/2
f  7/11/4 10/30/4 24/47/4
f  12/48/7 27/49/7 13/7/7
f  22/50/4 17/20/4 7/11/4
f  28/8/7 12/48/7 17/51/7
f  27/52/8 18/33/6 13/32/6
f  18/53/1 29/3/1 5/2/1
f  19/35/2 5/5/2 30/54/2
f  19/55/3 22/39/3 14/37/3
f  31/56/1 20/1/1 14/3/1
f  14/3/7 20/1/7 31/56/7
f  21/38/2 14/21/2 31/57/2
f  8/23/3 22/39/3 32/58/3
f  7/11/4 15/59/4 20/60/4
f  15/59/4 33/61/4 20/60/4
f  15/22/3 23/42/3 20/36/3
f  21/41/7 15/40/7 34/62/7
f  34/62/1 15/40/1 21/41/1
f  23/42/3 8/23/3 32/58/3
f  7/11/4 24/47/4 15/59/4
f  24/47/4 35/63/4 15/59/4
f  15/59/2 35/63/2 24/47/2
f  24/40/7 25/64/7 9/65/7
f  25/66/5 36/23/5 16/67/5
f  26/68/5 25/66/5 16/67/5
f  26/68/5 16/67/5 37/69/5
f  38/70/4 10/30/4 26/46/4
f  26/46/4 11/17/4 37/71/4
f  37/71/2 11/17/2 26/46/2
f  10/30/4 38/70/4 24/47/4
f  12/48/7 39/72/7 27/49/7
f  40/73/4 17/20/4 22/50/4
f  7/11/4 32/74/4 22/50/4
f  12/48/7 28/8/7 41/75/7
f  17/76/3 42/13/3 28/20/3
f  18/33/6 27/52/8 43/77/8
f  29/3/1 18/53/1 44/78/1
f  30/54/2 5/5/2 29/79/2
f  32/58/3 19/55/3 30/80/3
f  30/54/2 45/81/2 19/35/2
f  30/80/3 22/39/3 19/55/3
f  20/1/1 31/56/1 33/82/1
f  33/82/7 31/56/7 20/1/7
f  31/57/2 36/83/2 21/38/2
f  34/84/5 31/37/5 21/23/5
f  46/85/4 22/50/4 32/74/4
f  32/74/2 22/50/2 46/85/2
f  7/11/4 20/60/4 23/86/4
f  33/61/4 15/59/4 34/87/4
f  33/61/4 47/88/4 20/60/4
f  20/60/2 47/88/2 33/61/2
f  23/86/4 20/60/4 47/88/4
f  47/88/2 20/60/2 23/86/2
f  15/59/4 35/63/4 34/87/4
f  34/87/2 35/63/2 15/59/2
f  36/89/1 34/82/1 21/56/1
f  7/11/4 23/86/4 32/74/4
f  19/55/3 32/58/3 23/42/3
f  23/86/4 48/90/4 32/74/4
f  35/63/4 24/47/4 38/70/4
f  38/70/2 24/47/2 35/63/2
f  25/64/7 24/40/7 38/91/7
f  36/23/5 25/66/5 35/84/5
f  36/23/5 49/12/5 16/67/5
f  25/66/5 26/68/5 38/92/5
f  16/67/5 49/12/5 37/69/5
f  37/71/4 50/13/4 26/46/4
f  26/46/4 50/13/4 38/70/4
f  12/48/7 51/93/7 39/72/7
f  52/94/9 27/95/8 39/96/9
f  53/97/4 17/20/4 40/73/4
f  22/1/1 54/56/1 40/82/1
f  22/50/4 53/97/4 40/73/4
f  40/73/2 53/97/2 22/50/2
f  28/20/10 55/98/10 41/99/11
f  12/48/7 41/75/7 56/100/7
f  42/13/3 17/76/3 57/8/3
f  55/98/10 28/20/10 42/13/10
f  27/95/8 52/94/9 43/101/8
f  44/102/7 43/49/7 18/103/7
f  18/103/1 43/49/1 44/102/1
f  44/78/1 22/1/1 29/3/1
f  22/39/3 30/80/3 29/13/3
f  58/56/1 32/1/1 30/3/1
f  30/3/7 32/1/7 58/56/7
f  45/81/2 30/54/2 58/104/2
f  23/40/7 45/41/7 19/6/7
f  19/6/1 45/41/1 23/40/1
f  31/37/5 34/84/5 33/105/5
f  33/105/5 45/55/5 31/37/5
f  36/83/2 31/57/2 59/106/2
f  22/50/4 46/85/4 60/107/4
f  60/107/2 46/85/2 22/50/2
f  48/90/4 46/85/4 32/74/4
f  32/74/2 46/85/2 48/90/2
f  34/87/4 61/108/4 33/61/4
f  34/87/4 61/108/4 33/61/4
f  33/61/2 61/108/2 34/87/2
f  33/61/4 61/108/4 47/88/4
f  45/55/5 33/105/5 47/109/5
f  33/61/4 61/108/4 47/88/4
f  47/88/2 61/108/2 33/61/2
f  45/41/7 23/40/7 47/62/7
f  47/62/1 23/40/1 45/41/1
f  48/90/4 23/86/4 47/88/4
f  61/108/4 34/87/4 35/63/4
f  34/82/1 36/89/1 35/45/1
f  61/108/4 34/87/4 35/63/4
f  35/63/2 34/87/2 61/108/2
f  32/1/1 58/56/1 48/82/1
f  48/82/7 58/56/7 32/1/7
f  35/84/5 25/66/5 38/92/5
f  38/70/4 50/13/4 35/63/4
f  35/84/5 59/13/5 36/23/5
f  49/12/5 36/23/5 62/8/5
f  49/89/4 50/13/4 37/71/4
f  12/48/7 63/110/7 51/93/7
f  64/111/12 39/112/9 51/113/12
f  39/112/9 64/111/12 52/114/9
f  61/108/4 17/20/4 53/97/4
f  65/115/7 40/62/7 53/116/7
f  53/116/1 40/62/1 65/115/1
f  40/73/4 61/108/4 53/97/4
f  54/56/1 22/1/1 44/78/1
f  40/62/7 66/117/7 54/41/7
f  54/41/1 66/117/1 40/62/1
f  54/13/5 48/118/5 40/19/5
f  22/50/4 61/108/4 53/97/4
f  53/97/2 61/108/2 22/50/2
f  41/99/11 55/98/10 67/119/11
f  67/120/11 56/121/13 41/122/11
f  12/48/7 56/100/7 68/123/7
f  57/8/3 17/76/3 69/10/3
f  57/8/2 36/83/2 42/13/2
f  55/124/7 59/125/7 42/8/7
f  44/102/7 52/72/7 43/49/7
f  43/49/1 52/72/1 44/102/1
f  59/106/2 45/81/2 58/104/2
f  47/109/5 58/80/5 45/55/5
f  59/106/2 31/57/2 45/81/2
f  42/13/2 36/83/2 59/106/2
f  22/50/4 60/107/4 70/126/4
f  70/126/2 60/107/2 22/50/2
f  48/90/4 61/108/4 46/85/4
f  46/85/2 61/108/2 48/90/2
f  47/88/4 61/108/4 48/90/4
f  47/88/4 61/108/4 48/90/4
f  48/90/2 61/108/2 47/88/2
f  58/80/5 47/109/5 48/118/5
f  35/63/4 50/13/4 61/108/4
f  59/13/5 35/84/5 61/19/5
f  48/118/5 54/13/5 58/80/5
f  36/83/2 57/8/2 62/125/2
f  57/8/1 49/45/1 62/89/1
f  50/13/4 49/89/4 69/8/4
f  12/48/7 71/127/7 63/110/7
f  72/128/14 51/129/12 63/130/14
f  51/129/12 72/128/14 64/131/12
f  44/102/7 64/93/7 52/72/7
f  52/72/1 64/93/1 44/102/1
f  17/20/4 61/108/4 50/13/4
f  53/116/7 61/91/7 59/125/7
f  40/62/7 65/115/7 55/124/7
f  55/124/1 65/115/1 40/62/1
f  59/125/7 65/115/7 53/116/7
f  48/90/4 61/108/4 40/73/4
f  54/41/7 73/132/7 44/102/7
f  44/102/1 73/132/1 54/41/1
f  40/62/7 74/123/7 66/117/7
f  66/117/1 74/123/1 40/62/1
f  73/132/7 54/41/7 66/117/7
f  66/117/1 54/41/1 73/132/1
f  22/50/4 75/133/4 61/108/4
f  61/108/2 75/133/2 22/50/2
f  40/62/7 55/124/7 67/75/7
f  67/75/1 55/124/1 40/62/1
f  56/121/13 67/120/11 76/134/13
f  76/135/13 68/136/15 56/137/13
f  12/48/7 68/123/7 77/117/7
f  69/10/3 17/76/3 50/39/3
f  49/45/1 57/8/1 69/51/1
f  59/125/7 55/124/7 65/115/7
f  59/106/2 58/104/2 54/138/2
f  22/50/4 70/126/4 78/139/4
f  78/139/2 70/126/2 22/50/2
f  46/85/4 61/108/4 79/140/4
f  79/140/2 61/108/2 46/85/2
f  12/48/7 80/141/7 71/127/7
f  81/142/16 63/143/14 71/144/16
f  63/143/14 81/142/16 72/145/14
f  44/102/7 72/110/7 64/93/7
f  64/93/1 72/110/1 44/102/1
f  59/106/2 54/138/2 65/146/2
f  44/102/7 73/132/7 82/141/7
f  82/141/1 73/132/1 44/102/1
f  40/62/7 76/100/7 74/123/7
f  74/123/1 76/100/1 40/62/1
f  77/147/17 74/148/15 66/149/17
f  83/150/18 66/151/17 73/152/18
f  22/50/4 84/153/4 75/133/4
f  75/133/2 84/153/2 22/50/2
f  85/154/4 61/108/4 75/133/4
f  75/133/2 61/108/2 85/154/2
f  40/62/7 67/75/7 76/100/7
f  76/100/1 67/75/1 40/62/1
f  68/136/15 76/135/13 74/155/15
f  74/148/15 77/147/17 68/156/15
f  12/48/7 77/117/7 83/132/7
f  22/50/4 78/139/4 86/157/4
f  86/157/2 78/139/2 22/50/2
f  79/140/4 61/108/4 87/158/4
f  87/158/2 61/108/2 79/140/2
f  12/48/7 83/132/7 80/141/7
f  82/159/2 71/160/16 80/161/2
f  71/160/16 82/159/2 81/162/16
f  44/102/7 81/127/7 72/110/7
f  72/110/1 81/127/1 44/102/1
f  80/163/2 73/164/18 82/165/2
f  44/102/7 82/141/7 81/127/7
f  81/127/1 82/141/1 44/102/1
f  66/151/17 83/150/18 77/166/17
f  73/164/18 80/163/2 83/167/18
f  22/50/4 88/168/4 84/153/4
f  84/153/2 88/168/2 22/50/2
f  89/169/4 61/108/4 85/154/4
f  85/154/2 61/108/2 89/169/2
f  22/50/4 86/157/4 90/170/4
f  90/170/2 86/157/2 22/50/2
f  87/158/4 61/108/4 91/171/4
f  91/171/2 61/108/2 87/158/2
f  22/50/4 92/172/4 88/168/4
f  88/168/2 92/172/2 22/50/2
f  93/173/4 61/108/4 89/169/4
f  89/169/2 61/108/2 93/173/2
f  22/50/4 90/170/4 94/174/4
f  94/174/2 90/170/2 22/50/2
f  91/171/4 61/108/4 95/175/4
f  95/175/2 61/108/2 91/171/2
f  22/50/4 96/176/4 92/172/4
f  92/172/2 96/176/2 22/50/2
f  97/177/4 61/108/4 93/173/4
f  93/173/2 61/108/2 97/177/2
f  22/50/4 94/174/4 98/178/4
f  98/178/2 94/174/2 22/50/2
f  95/175/4 61/108/4 99/179/4
f  99/179/2 61/108/2 95/175/2
f  22/50/4 98/178/4 96/176/4
f  96/176/2 98/178/2 22/50/2
f  100/180/4 61/108/4 97/177/4
f  97/177/2 61/108/2 100/180/2
f  99/179/4 61/108/4 101/181/4
f  101/181/2 61/108/2 99/179/2
f  101/181/4 61/108/4 100/180/4
f  100/180/2 61/108/2 101/181/2

# Mesh 'mesh1_mesh1-geometry' with 158 faces
g mesh1_mesh1-geometry
usemtl material_1_24
f  3//7 2//7 1//7
f  4//7 1//7 2//7
f  2//4 3//4 5//4
f  1//5 6//5 3//5
f  4//2 7//2 1//2
f  2//3 5//3 4//3
f  8//4 5//4 3//4
f  9//5 3//5 6//5
f  10//5 6//5 1//5
f  11//2 1//2 7//2
f  7//3 4//3 12//3
f  13//3 4//3 5//3
f  14//4 5//4 8//4
f  8//5 3//5 15//5
f  9//5 15//5 3//5
f  6//4 16//4 9//4
f  6//7 10//7 16//7
f  11//5 10//5 1//5
f  10//2 11//2 7//2
f  12//3 4//3 13//3
f  12//2 17//2 7//2
f  5//19 18//19 13//19
f  19//4 5//4 14//4
f  14//5 8//5 20//5
f  8//4 21//4 14//4
f  8//5 22//5 14//5
f  15//5 20//5 8//5
f  15//5 23//5 8//5
f  24//5 15//5 9//5
f  25//4 9//4 16//4
f  26//7 16//7 10//7
f  24//2 10//2 7//2
f  13//1 27//1 12//1
f  7//2 17//2 22//2
f  17//1 12//1 28//1
f  13//19 18//19 27//20
f  5//7 29//7 18//7
f  30//4 5//4 19//4
f  14//5 22//5 19//5
f  31//4 14//4 21//4
f  32//5 22//5 8//5
f  20//2 15//2 7//2
f  20//2 33//2 15//2
f  20//5 23//5 15//5
f  32//5 8//5 23//5
f  15//2 24//2 7//2
f  9//1 25//1 24//1
f  16//3 36//3 25//3
f  16//3 25//3 26//3
f  37//3 16//3 26//3
f  26//2 10//2 38//2
f  24//2 38//2 10//2
f  27//1 39//1 12//1
f  22//2 17//2 40//2
f  22//2 32//2 7//2
f  41//1 28//1 12//1
f  28//5 42//5 17//5
f  43//20 27//20 18//19
f  44//7 18//7 29//7
f  29//4 5//4 30//4
f  30//5 19//5 32//5
f  19//4 45//4 30//4
f  19//5 22//5 30//5
f  21//4 36//4 31//4
f  21//3 31//3 34//3
f  23//2 20//2 7//2
f  34//2 15//2 33//2
f  21//7 34//7 36//7
f  32//2 23//2 7//2
f  23//5 32//5 19//5
f  32//2 48//2 23//2
f  38//1 24//1 25//1
f  35//3 25//3 36//3
f  16//3 49//3 36//3
f  38//3 26//3 25//3
f  37//3 49//3 16//3
f  26//2 50//2 37//2
f  38//2 50//2 26//2
f  39//1 51//1 12//1
f  39//21 27//20 52//21
f  40//2 17//2 53//2
f  40//7 54//7 22//7
f  41//22 55//23 28//23
f  56//1 41//1 12//1
f  57//5 17//5 42//5
f  42//23 28//23 55//23
f  43//20 52//21 27//20
f  29//7 22//7 44//7
f  29//5 30//5 22//5
f  58//4 30//4 45//4
f  33//3 34//3 31//3
f  31//3 45//3 33//3
f  59//4 31//4 36//4
f  33//2 61//2 34//2
f  47//2 61//2 33//2
f  47//3 33//3 45//3
f  47//2 23//2 48//2
f  35//2 34//2 61//2
f  35//7 36//7 34//7
f  38//3 25//3 35//3
f  35//2 50//2 38//2
f  36//3 59//3 35//3
f  62//3 36//3 49//3
f  37//2 50//2 49//2
f  51//1 63//1 12//1
f  51//24 39//21 64//24
f  52//21 64//24 39//21
f  53//2 17//2 61//2
f  53//2 61//2 40//2
f  44//7 22//7 54//7
f  40//3 48//3 54//3
f  67//22 55//23 41//22
f  41//22 56//25 67//22
f  68//1 56//1 12//1
f  69//5 17//5 57//5
f  42//4 36//4 57//4
f  42//1 59//1 55//1
f  58//4 45//4 59//4
f  45//3 58//3 47//3
f  45//4 31//4 59//4
f  59//4 36//4 42//4
f  48//2 61//2 47//2
f  48//3 47//3 58//3
f  61//2 50//2 35//2
f  61//3 35//3 59//3
f  58//3 54//3 48//3
f  62//4 57//4 36//4
f  62//7 49//7 57//7
f  69//2 49//2 50//2
f  63//1 71//1 12//1
f  63//26 51//24 72//26
f  64//24 72//26 51//24
f  50//2 61//2 17//2
f  59//1 61//1 53//1
f  53//1 65//1 59//1
f  40//2 61//2 48//2
f  76//25 67//22 56//25
f  56//25 68//27 76//25
f  77//1 68//1 12//1
f  50//5 17//5 69//5
f  69//7 57//7 49//7
f  65//1 55//1 59//1
f  54//4 58//4 59//4
f  71//1 80//1 12//1
f  71//28 63//26 81//28
f  72//26 81//28 63//26
f  65//4 54//4 59//4
f  66//29 74//27 77//29
f  73//30 66//29 83//30
f  74//27 76//25 68//27
f  68//27 77//29 74//27
f  83//1 77//1 12//1
f  80//1 83//1 12//1
f  80//4 71//28 82//4
f  81//28 82//4 71//28
f  82//4 73//30 80//4
f  77//29 83//30 66//29
f  83//30 80//4 73//30

