# File produced by Open Asset Import Library (http://www.assimp.sf.net)
# (assimp v3.2.202087883)

mtllib model_normalized.mtl

# 76 vertex positions
v 0.399432 0.113873 0.280303
v 0.372804 0.113873 -0.252273
v 0.372804 0.113873 0.280303
v 0.399432 0.113873 -0.252273
v 0.372804 0.047301 0.280303
v 0.399432 0.047301 -0.252273
v 0.399432 0.047301 0.280303
v 0.372804 0.047301 -0.252273
v -0.372804 0.113873 0.280303
v -0.399432 0.047301 0.280303
v -0.372804 0.047301 0.280303
v -0.399432 0.113873 -0.252273
v -0.372804 0.113873 -0.252273
v 0.372804 -0.165729 0.266989
v 0.386118 0.047301 0.266989
v 0.372804 0.047301 0.266989
v -0.399432 0.113873 0.280303
v 0.386118 -0.165729 0.200417
v 0.386118 0.047301 0.200417
v 0.386118 -0.165729 -0.238959
v 0.372804 0.047301 -0.238959
v 0.386118 0.047301 -0.238959
v -0.372804 0.047301 -0.252273
v 0.386118 -0.165729 0.266989
v -0.386118 -0.165729 0.266989
v -0.372804 0.047301 0.266989
v -0.386118 0.047301 0.266989
v 0.372804 0.100559 0.200417
v 0.386118 0.047301 -0.172387
v 0.372804 -0.165729 -0.238959
v -0.399432 0.047301 -0.252273
v -0.372804 -0.165729 0.266989
v -0.386118 0.047301 0.200417
v 0.372804 0.100559 -0.172387
v 0.386118 0.100559 -0.172387
v 0.372804 -0.165729 0.200417
v 0.386118 0.100559 0.200417
v 0.386118 -0.165729 -0.172387
v -0.372804 -0.165729 -0.238959
v -0.386118 0.047301 -0.238959
v -0.372804 0.047301 -0.238959
v -0.386118 -0.165729 -0.172387
v -0.386118 0.047301 -0.172387
v -0.386118 -0.165729 0.200417
v 0.372804 -0.165729 -0.172387
v -0.386118 -0.165729 -0.238959
v -0.372804 0.100559 -0.172387
v -0.372804 -0.165729 0.200417
v -0.372804 -0.165729 -0.172387
v -0.386118 0.100559 -0.172387
v -0.372804 0.100559 0.200417
v -0.386118 0.100559 0.200417
v 0.006657 0.113873 -0.252273
v -0.006657 0.113873 -0.252273
v 0.006657 0.047301 -0.252273
v -0.319546 0.047301 0.266989
v -0.006657 0.047301 -0.252273
v 0.319546 0.047301 -0.238959
v 0.319546 0.047301 0.266989
v -0.319546 -0.165729 0.266989
v -0.319546 0.100559 0.266989
v -0.319546 0.047301 -0.238959
v 0.319546 -0.165729 0.266989
v -0.319546 -0.165729 0.200417
v 0.319546 0.100559 0.266989
v 0.319546 -0.165729 -0.238959
v 0.319546 0.100559 -0.238959
v 0.319546 0.100559 0.200417
v -0.319546 0.100559 0.200417
v 0.319546 -0.165729 -0.172387
v -0.319546 -0.165729 -0.238959
v -0.319546 0.100559 -0.238959
v 0.319546 -0.165729 0.200417
v 0.319546 0.100559 -0.172387
v -0.319546 0.100559 -0.172387
v -0.319546 -0.165729 -0.172387

# 140 UV coordinates
vt 1.9685 0 0
vt 1.90289 1.31234 0
vt 1.90289 0 0
vt 1.9685 1.31234 0
vt 1.90289 0.524934 0
vt 1.9685 0.688976 0
vt 1.90289 0.688976 0
vt 0 0.688976 0
vt 1.31234 0.524934 0
vt 1.31234 0.688976 0
vt -1.9685 0.524934 0
vt -1.90289 0.688976 0
vt -1.9685 0.688976 0
vt 1.9685 0.524934 0
vt 0 0.524934 0
vt -1.90289 0.524934 0
vt 0.065617 0.688976 0
vt 0.065617 0.524934 0
vt 0 1.31234 0
vt 0.065617 0 0
vt 0.065617 1.31234 0
vt 1.9357 0.524934 0
vt 0.032808 0.524934 0
vt 0.19685 0 0
vt 0.19685 0.524934 0
vt -1.9357 0 0
vt -1.9357 0.524934 0
vt 0 0 0
vt -0.065617 0.524934 0
vt -0.065617 0.688976 0
vt 1.9357 0 0
vt -1.31234 0.688976 0
vt 0.032808 0 0
vt -1.90289 0.656168 0
vt 1.11549 0.524934 0
vt 1.27953 0 0
vt 1.27953 0.524934 0
vt -1.90289 -0 0
vt -1.31234 0.524934 0
vt -0.19685 0.524934 0
vt -0.032808 0 0
vt -0.032808 0.524934 0
vt 1.90289 0.656168 0
vt 1.9357 0.656168 0
vt -1.9357 0.656168 0
vt 1.11549 -0 0
vt -0.065617 0 0
vt -1.27953 0.524934 0
vt -1.11549 0 0
vt -1.11549 0.524934 0
vt -0.19685 0 0
vt -1.27953 0 0
vt 0.065617 0.656168 0
vt 0.032808 0.656168 0
vt -0.065617 0.656168 0
vt -0.032808 0.656168 0
vt 0.358277 0.524934 0
vt 0.681313 0 0
vt 0.681313 0.524934 0
vt 0.34653 0.524934 0
vt -0.681313 0.209974 0
vt -0.358277 0.275591 0
vt -0.681313 0.275591 0
vt 0.681313 0.275591 0
vt 0.023494 0.209974 0
vt 0.681313 0.209974 0
vt 0.023494 0.524934 0
vt -0.358277 0.209974 0
vt -0.34653 0.275591 0
vt -0.681313 -0 0
vt -0.69306 0.013123 0
vt -0.704807 -0 0
vt 0.023494 0.275591 0
vt -0.023494 -0 0
vt -0.070481 0.013123 0
vt -0.704807 0.524934 0
vt -0.681313 0.511811 0
vt -0.681313 0.524934 0
vt 0.023494 0 0
vt -0.34653 0.209974 0
vt -0.023494 0.275591 0
vt -0.634326 0.511811 0
vt -0.358277 0.524934 0
vt -0.681313 0.013123 0
vt -0.023494 0.013123 0
vt -0.634326 0.013123 0
vt -0.69306 0.07874 0
vt -0.69306 0.511811 0
vt -0.023494 0.209974 0
vt -0.34653 0.524934 0
vt -0.011747 0.013123 0
vt 0.070481 0 0
vt 0.070481 0.209974 0
vt -0.070481 0.262467 0
vt -0.634326 0.209974 0
vt -0.070481 0.209974 0
vt -0.69306 0.446194 0
vt -0.023494 0.511811 0
vt -0.023494 0.524934 0
vt -0.070481 0.511811 0
vt 0.634326 0 0
vt 0.634326 0.209974 0
vt -0.011747 0.511811 0
vt 0.011747 0.209974 0
vt 0.011747 0 0
vt -0.634326 0.262467 0
vt 0.011747 0.262467 0
vt -0.399391 0.262467 0
vt -0.399391 0.209974 0
vt -0.634326 -0 0
vt 0.634326 0.262467 0
vt -0.011747 0.209974 0
vt -0.011747 0 0
vt -0.681313 0.07874 0
vt -0.011747 0.446194 0
vt -0.070481 0.07874 0
vt -0.011747 0.262467 0
vt 0.070481 0.262467 0
vt -0.681313 0.446194 0
vt -0.634326 0.446194 0
vt -0.458125 -0 0
vt -0.458125 0.262467 0
vt -0.458125 0.209974 0
vt -0.070481 0 0
vt -0.634326 0.07874 0
vt -0.011747 0.07874 0
vt -0.023494 0.07874 0
vt -0.023494 0.262467 0
vt -0.681313 0.262467 0
vt -0.399391 -0 0
vt 0.458125 0.262467 0
vt 0.458125 0 0
vt 0.458125 0.209974 0
vt -0.070481 0.446194 0
vt 0.399391 0.209974 0
vt 0.681313 0.262467 0
vt -0.023494 0.446194 0
vt 0.399391 0.262467 0
vt 0.399391 0 0
vt 0.023494 0.262467 0

# 6 vertex normals
vn 0 0.001 0
vn 0 0 0.001
vn 0.001 0 0
vn 0 0 -0.001
vn -0.001 0 0
vn -0 -0.001 0

# Mesh 'mesh1_mesh1-geometry' with 44 faces
g mesh1_mesh1-geometry
usemtl material_0_1_8
f  1/1/1 2/2/1 3/3/1
f  2/2/1 1/1/1 4/4/1
f  5/5/2 1/6/2 3/7/2
f  1/8/3 6/9/3 4/10/3
f  6/11/4 2/12/4 4/13/4
f  1/6/2 5/5/2 7/14/2
f  6/9/3 1/8/3 7/15/3
f  2/12/4 6/11/4 8/16/4
f  9/17/2 10/15/2 11/18/2
f  12/19/1 9/20/1 13/21/1
f  14/3/2 15/22/2 16/5/2
f  10/15/2 9/17/2 17/8/2
f  15/23/3 18/24/3 19/25/3
f  20/26/4 21/16/4 22/27/4
f  9/20/1 12/19/1 17/28/1
f  23/29/4 12/8/4 13/30/4
f  15/22/2 14/3/2 24/31/2
f  12/32/5 10/15/5 17/8/5
f  25/33/2 26/18/2 27/23/2
f  18/24/3 15/23/3 24/33/3
f  18/26/4 28/34/4 19/27/4
f  29/35/3 20/36/3 22/37/3
f  21/16/4 20/26/4 30/38/4
f  12/8/4 23/29/4 31/15/4
f  10/15/5 12/32/5 31/39/5
f  26/18/2 25/33/2 32/20/2
f  33/40/5 25/41/5 27/42/5
f  34/43/2 29/22/2 35/44/2
f  28/34/4 18/26/4 36/38/4
f  19/27/4 28/34/4 37/45/4
f  20/36/3 29/35/3 38/46/3
f  39/47/4 40/42/4 41/29/4
f  40/48/5 42/49/5 43/50/5
f  25/41/5 33/40/5 44/51/5
f  45/3/2 29/22/2 34/43/2
f  29/22/2 45/3/2 38/31/2
f  40/42/4 39/47/4 46/41/4
f  42/49/5 40/48/5 46/52/5
f  42/33/2 47/53/2 43/23/2
f  33/42/4 48/47/4 44/41/4
f  47/53/2 42/33/2 49/20/2
f  43/23/2 47/53/2 50/54/2
f  51/55/4 33/42/4 52/56/4
f  48/47/4 33/42/4 51/55/4

# Mesh 'mesh1_mesh1-geometry' with 148 faces
g mesh1_mesh1-geometry
usemtl material_1_24
f  3/28/6 2/28/6 1/28/6
f  4/28/6 1/28/6 2/28/6
f  2/28/6 3/28/6 53/28/6
f  3/28/4 1/28/4 5/28/4
f  4/28/5 6/28/5 1/28/5
f  4/28/2 2/28/2 6/28/2
f  53/28/6 3/28/6 54/28/6
f  2/28/2 53/28/2 8/28/2
f  7/28/4 5/28/4 1/28/4
f  5/28/4 11/28/4 3/28/4
f  7/28/5 1/28/5 6/28/5
f  8/28/2 6/28/2 2/28/2
f  54/28/6 3/28/6 13/28/6
f  53/28/2 54/28/2 55/28/2
f  55/28/2 8/28/2 53/28/2
f  7/28/1 15/28/1 5/28/1
f  9/28/4 3/28/4 11/28/4
f  5/28/1 56/28/1 11/28/1
f  6/28/1 15/28/1 7/28/1
f  8/28/1 21/28/1 6/28/1
f  9/28/6 13/28/6 3/28/6
f  54/28/2 13/28/2 57/28/2
f  57/28/2 55/28/2 54/28/2
f  8/28/1 55/28/1 58/28/1
f  16/28/1 5/28/1 15/28/1
f  11/28/4 10/28/4 9/28/4
f  56/28/1 26/28/1 11/28/1
f  59/28/1 56/28/1 5/28/1
f  15/28/1 6/28/1 19/28/1
f  22/28/1 6/28/1 21/28/1
f  21/28/1 8/28/1 58/28/1
f  13/28/6 9/28/6 12/28/6
f  23/28/2 57/28/2 13/28/2
f  55/28/1 57/28/1 58/28/1
f  16/28/1 59/28/1 5/28/1
f  16/28/4 15/28/4 14/28/4
f  17/28/4 9/28/4 10/28/4
f  11/28/1 27/28/1 10/28/1
f  26/28/1 27/28/1 11/28/1
f  56/28/4 60/28/4 26/28/4
f  56/28/2 59/28/2 61/28/2
f  19/28/1 6/28/1 29/28/1
f  19/28/5 18/28/5 15/28/5
f  29/28/1 6/28/1 22/28/1
f  22/28/2 21/28/2 20/28/2
f  21/28/2 58/28/2 30/28/2
f  17/28/6 12/28/6 9/28/6
f  13/28/2 12/28/2 23/28/2
f  57/28/1 23/28/1 41/28/1
f  58/28/1 57/28/1 62/28/1
f  59/28/4 16/28/4 63/28/4
f  24/28/4 14/28/4 15/28/4
f  14/28/4 63/28/4 16/28/4
f  17/28/3 10/28/3 12/28/3
f  40/28/1 10/28/1 27/28/1
f  27/28/4 26/28/4 25/28/4
f  32/28/4 26/28/4 60/28/4
f  60/28/5 56/28/5 64/28/5
f  65/28/2 61/28/2 59/28/2
f  61/28/5 64/28/5 56/28/5
f  29/28/3 35/28/3 19/28/3
f  24/28/5 15/28/5 18/28/5
f  19/28/2 28/28/2 18/28/2
f  22/28/5 20/28/5 29/28/5
f  30/28/2 20/28/2 21/28/2
f  66/28/2 30/28/2 58/28/2
f  31/28/2 23/28/2 12/28/2
f  41/28/1 23/28/1 40/28/1
f  62/28/1 57/28/1 41/28/1
f  58/28/4 62/28/4 67/28/4
f  63/28/3 68/28/3 59/28/3
f  24/28/1 18/28/1 14/28/1
f  14/28/1 36/28/1 63/28/1
f  31/28/3 12/28/3 10/28/3
f  10/28/1 40/28/1 31/28/1
f  43/28/1 40/28/1 27/28/1
f  32/28/4 25/28/4 26/28/4
f  27/28/3 25/28/3 33/28/3
f  60/28/1 64/28/1 32/28/1
f  65/28/1 67/28/1 61/28/1
f  65/28/3 59/28/3 68/28/3
f  69/28/5 64/28/5 61/28/5
f  37/28/3 19/28/3 35/28/3
f  35/28/4 29/28/4 34/28/4
f  36/28/2 18/28/2 28/28/2
f  37/28/2 28/28/2 19/28/2
f  38/28/5 29/28/5 20/28/5
f  30/28/1 45/28/1 20/28/1
f  66/28/1 70/28/1 30/28/1
f  58/28/3 67/28/3 66/28/3
f  23/28/1 31/28/1 40/28/1
f  41/28/2 40/28/2 39/28/2
f  62/28/2 41/28/2 71/28/2
f  72/28/4 67/28/4 62/28/4
f  73/28/3 68/28/3 63/28/3
f  36/28/1 14/28/1 18/28/1
f  73/28/1 63/28/1 36/28/1
f  43/28/3 42/28/3 40/28/3
f  33/28/1 43/28/1 27/28/1
f  32/28/1 48/28/1 25/28/1
f  44/28/3 33/28/3 25/28/3
f  64/28/1 48/28/1 32/28/1
f  61/28/1 67/28/1 69/28/1
f  74/28/1 67/28/1 65/28/1
f  68/28/1 74/28/1 65/28/1
f  69/28/2 51/28/2 64/28/2
f  37/28/1 35/28/1 28/28/1
f  34/28/4 29/28/4 45/28/4
f  35/28/1 34/28/1 28/28/1
f  36/28/2 28/28/2 73/28/2
f  38/28/4 45/28/4 29/28/4
f  38/28/1 20/28/1 45/28/1
f  45/28/1 30/28/1 70/28/1
f  66/28/3 67/28/3 70/28/3
f  46/28/2 39/28/2 40/28/2
f  39/28/2 71/28/2 41/28/2
f  62/28/5 71/28/5 72/28/5
f  72/28/1 75/28/1 67/28/1
f  68/28/2 73/28/2 28/28/2
f  46/28/3 40/28/3 42/28/3
f  43/28/4 47/28/4 42/28/4
f  33/28/5 52/28/5 43/28/5
f  44/28/1 25/28/1 48/28/1
f  44/28/2 48/28/2 33/28/2
f  48/28/2 64/28/2 51/28/2
f  69/28/1 67/28/1 75/28/1
f  74/28/3 70/28/3 67/28/3
f  74/28/1 68/28/1 34/28/1
f  69/28/1 75/28/1 51/28/1
f  45/28/4 70/28/4 34/28/4
f  28/28/1 34/28/1 68/28/1
f  46/28/1 42/28/1 39/28/1
f  71/28/1 39/28/1 49/28/1
f  72/28/5 71/28/5 75/28/5
f  49/28/4 42/28/4 47/28/4
f  50/28/4 47/28/4 43/28/4
f  50/28/5 43/28/5 52/28/5
f  52/28/2 33/28/2 51/28/2
f  51/28/2 33/28/2 48/28/2
f  74/28/4 34/28/4 70/28/4
f  75/28/1 47/28/1 51/28/1
f  49/28/1 39/28/1 42/28/1
f  76/28/1 71/28/1 49/28/1
f  76/28/5 75/28/5 71/28/5
f  47/28/4 75/28/4 49/28/4
f  50/28/1 52/28/1 47/28/1
f  51/28/1 47/28/1 52/28/1
f  76/28/4 49/28/4 75/28/4

# Mesh 'mesh1_mesh1-geometry' with 104 faces
g mesh1_mesh1-geometry
usemtl material_2_2_8
f  53/57/1 3/58/1 2/59/1
f  54/60/1 3/58/1 53/57/1
f  8/61/4 53/62/4 2/63/4
f  3/64/2 11/65/2 5/66/2
f  13/67/1 3/58/1 54/60/1
f  55/68/4 54/69/4 53/62/4
f  53/62/4 8/61/4 55/68/4
f  5/70/6 15/71/6 7/72/6
f  11/65/2 3/64/2 9/73/2
f  11/74/6 56/75/6 5/70/6
f  7/72/6 15/71/6 6/76/6
f  6/76/6 21/77/6 8/78/6
f  3/58/1 13/67/1 9/79/1
f  57/80/4 13/81/4 54/69/4
f  54/69/4 55/68/4 57/80/4
f  58/82/6 55/83/6 8/78/6
f  15/71/6 5/70/6 16/84/6
f  11/74/6 26/85/6 56/75/6
f  5/70/6 56/75/6 59/86/6
f  19/87/6 6/76/6 15/71/6
f  21/77/6 6/76/6 22/88/6
f  58/82/6 8/78/6 21/77/6
f  13/81/4 57/80/4 23/89/4
f  58/82/6 57/90/6 55/83/6
f  5/70/6 59/86/6 16/84/6
f  10/28/6 27/91/6 11/74/6
f  11/74/6 27/91/6 26/85/6
f  26/65/2 60/92/2 56/93/2
f  61/94/4 59/95/4 56/96/4
f  29/97/6 6/76/6 19/87/6
f  22/88/6 6/76/6 29/97/6
f  30/70/4 58/95/4 21/61/4
f  41/98/6 23/99/6 57/90/6
f  62/100/6 57/90/6 58/82/6
f  63/101/2 16/66/2 59/102/2
f  16/66/2 63/101/2 14/58/2
f  27/91/6 10/28/6 40/103/6
f  60/92/2 26/65/2 32/79/2
f  64/92/3 56/104/3 60/105/3
f  59/95/4 61/94/4 65/106/4
f  56/104/3 64/92/3 61/107/3
f  19/96/5 35/108/5 29/109/5
f  58/95/4 30/70/4 66/110/4
f  40/103/6 23/99/6 41/98/6
f  41/98/6 57/90/6 62/100/6
f  67/111/2 62/93/2 58/102/2
f  59/112/5 68/94/5 63/113/5
f  14/84/6 18/87/6 24/71/6
f  63/86/6 36/114/6 14/84/6
f  31/15/6 40/103/6 10/28/6
f  27/91/6 40/103/6 43/115/6
f  32/85/6 64/116/6 60/75/6
f  61/75/6 67/82/6 65/86/6
f  68/94/5 59/112/5 65/117/5
f  61/107/3 64/92/3 69/118/3
f  35/108/5 19/96/5 37/94/5
f  20/88/6 45/119/6 30/77/6
f  30/77/6 70/120/6 66/82/6
f  66/121/5 67/122/5 58/123/5
f  40/103/6 31/15/6 23/99/6
f  71/124/4 41/89/4 62/96/4
f  62/93/2 67/111/2 72/118/2
f  63/113/5 68/94/5 73/124/5
f  18/87/6 14/84/6 36/114/6
f  36/114/6 63/86/6 73/125/6
f  27/91/6 43/115/6 33/126/6
f  25/91/6 48/127/6 32/85/6
f  32/85/6 48/127/6 64/116/6
f  69/116/6 67/82/6 61/75/6
f  65/86/6 67/82/6 74/120/6
f  65/86/6 74/120/6 68/125/6
f  64/124/4 51/128/4 69/94/4
f  28/114/6 35/97/6 37/87/6
f  28/114/6 34/119/6 35/97/6
f  73/110/4 28/129/4 36/70/4
f  45/119/6 20/88/6 38/97/6
f  70/120/6 30/77/6 45/119/6
f  70/130/5 67/122/5 66/121/5
f  41/89/4 71/124/4 39/74/4
f  72/131/3 71/132/3 62/133/3
f  67/82/6 75/134/6 72/100/6
f  28/129/4 73/110/4 68/106/4
f  43/135/3 52/118/3 33/93/3
f  48/127/6 25/91/6 44/126/6
f  51/128/4 64/124/4 48/74/4
f  75/134/6 67/82/6 69/116/6
f  67/122/5 70/130/5 74/108/5
f  34/119/6 68/125/6 74/120/6
f  51/127/6 75/134/6 69/116/6
f  34/136/2 70/101/2 45/58/2
f  68/125/6 34/119/6 28/114/6
f  39/98/6 42/115/6 46/103/6
f  49/137/6 39/98/6 71/100/6
f  75/138/3 71/132/3 72/131/3
f  52/118/3 43/135/3 50/138/3
f  70/101/2 34/136/2 74/111/2
f  51/127/6 47/137/6 75/134/6
f  42/115/6 39/98/6 49/137/6
f  49/137/6 71/100/6 76/134/6
f  71/132/3 75/138/3 76/139/3
f  49/79/2 75/118/2 47/140/2
f  47/137/6 52/126/6 50/115/6
f  52/126/6 47/137/6 51/127/6
f  75/118/2 49/79/2 76/92/2

