# File produced by Open Asset Import Library (http://www.assimp.sf.net)
# (assimp v3.2.202087883)

mtllib model_normalized.mtl

# 46 vertex positions
v -0.400710 -0.126176 0.244898
v -0.388465 -0.126176 -0.244898
v -0.388465 -0.126176 0.244898
v -0.400710 -0.126176 -0.244898
v -0.388465 -0.113931 -0.232653
v -0.388465 -0.113931 0.244898
v -0.400710 0.065661 -0.244898
v -0.388465 -0.113931 -0.244898
v -0.388465 -0.113931 0.232653
v -0.400710 0.065661 0.244898
v -0.388465 0.065661 -0.232653
v -0.388465 0.065661 0.244898
v -0.388465 0.065661 -0.244898
v 0.436025 0.077906 0.244898
v -0.388465 0.065661 0.232653
v -0.400710 0.065661 0.232653
v -0.400710 -0.113931 0.232653
v -0.400710 0.077906 -0.244898
v 0.423780 0.065661 -0.232653
v 0.423780 0.065661 0.244898
v -0.400710 0.077906 0.244898
v -0.400710 0.065661 -0.232653
v 0.423780 0.065661 -0.244898
v -0.388465 0.077906 -0.232653
v 0.436025 0.065661 0.244898
v 0.423780 0.065661 0.232653
v 0.436025 0.065661 -0.244898
v 0.423780 -0.113931 -0.232653
v 0.423780 0.077906 -0.232653
v 0.436025 -0.126176 0.244898
v 0.436025 0.065661 0.232653
v 0.423780 -0.126176 0.244898
v 0.423780 0.077906 0.232653
v -0.388465 0.077906 0.232653
v 0.436025 0.077906 -0.244898
v 0.423780 -0.126176 -0.244898
v 0.436025 -0.113931 0.232653
v 0.436025 0.065661 -0.232653
v 0.423780 -0.113931 0.232653
v 0.436025 -0.126176 -0.244898
v 0.436025 -0.113931 -0.232653
v -0.400710 -0.113931 -0.232653
v 0.436025 0.118722 0.244898
v -0.400710 0.118722 -0.244898
v -0.400710 0.118722 0.244898
v 0.436025 0.118722 -0.244898

# 68 UV coordinates
vt -1.02336 0.599042 0
vt -1.00839 0 0
vt -1.00839 0.599042 0
vt -1.02336 0 0
vt 0 -0 0
vt -0.014976 0.014976 0
vt -0.599042 -0 0
vt -1.00839 0.014976 0
vt 1.02336 0.234625 0
vt 1.00839 0 0
vt 1.02336 0 0
vt 0 0.014976 0
vt -0.584065 0.014976 0
vt -1.02336 0.234625 0
vt -0.599042 0.014976 0
vt 1.00839 0.014976 0
vt -0.014976 0.234625 0
vt -1.00839 0.234625 0
vt -0.599042 0.234625 0
vt 1.00839 0.234625 0
vt 0 0.234625 0
vt 0 0.249601 0
vt -0.584065 0.234625 0
vt 1.02336 0.014976 0
vt 1.02336 0.249601 0
vt 0.014976 0.014976 0
vt -1.02336 0.249601 0
vt 1.00839 0.599042 0
vt 1.00839 0.584065 0
vt 0.014976 0.599042 0
vt 0.014976 0.234625 0
vt 0.014976 0 0
vt 1.00839 0.249601 0
vt 1.02336 0.584065 0
vt 0.014976 0.584065 0
vt 0.014976 0.249601 0
vt 0.584065 0.234625 0
vt -0.599042 0.249601 0
vt 0.599042 -0 0
vt 0.599042 0.234625 0
vt -0.014976 0.249601 0
vt 0.584065 0.249601 0
vt -0.584065 0.249601 0
vt -0.014976 -0 0
vt -1.00839 0.249601 0
vt 0.584065 0.014976 0
vt 0 0.584065 0
vt -0.014976 0.599042 0
vt 0 0.599042 0
vt 0 0.565176 0
vt -3.36286 0.47098 0
vt 0 0.47098 0
vt -3.36286 0.565176 0
vt 0 1.13035 0
vt 3.36286 0 0
vt 3.36286 1.13035 0
vt 1.13035 0.82021 0
vt 0 0.984252 0
vt 0 0.82021 0
vt 1.13035 0.984252 0
vt -1.13035 0.984252 0
vt -1.13035 0.82021 0
vt 3.36286 0.565176 0
vt 3.36286 0.47098 0
vt 0.049213 0.028259 0
vt 0.049213 1.10209 0
vt 3.31365 0.028259 0
vt 3.31365 1.10209 0

# 6 vertex normals
vn 0 -0.001 0
vn 0.001 -0 -0
vn 0 0 0.001
vn 0 0 -0.001
vn -0.001 0 0
vn 0 0.001 0

# Mesh 'mesh1_mesh1-geometry' with 68 faces
g mesh1_mesh1-geometry
usemtl material_0_1_8
f  1/1/1 2/2/1 3/3/1
f  2/2/1 1/1/1 4/4/1
f  2/5/2 5/6/2 3/7/2
f  6/8/3 1/4/3 3/2/3
f  7/9/4 2/10/4 4/11/4
f  5/6/2 2/5/2 8/12/2
f  3/7/2 5/6/2 9/13/2
f  1/4/3 6/8/3 10/14/3
f  3/7/2 9/13/2 6/15/2
f  2/10/4 7/9/4 8/16/4
f  8/12/2 11/17/2 5/6/2
f  10/14/3 6/8/3 12/18/3
f  9/13/2 12/19/2 6/15/2
f  8/16/4 7/9/4 13/20/4
f  11/17/2 8/12/2 13/21/2
f  12/18/3 14/22/3 10/14/3
f  12/19/2 9/13/2 15/23/2
f  16/9/4 9/16/4 17/24/4
f  18/25/4 13/20/4 7/9/4
f  11/16/1 13/10/1 19/26/1
f  20/17/3 14/22/3 12/18/3
f  10/14/3 14/22/3 21/27/3
f  9/16/4 16/9/4 15/20/4
f  12/28/1 15/29/1 20/30/1
f  11/16/1 15/29/1 22/24/1
f  13/20/4 18/25/4 23/31/4
f  23/32/1 19/26/1 13/10/1
f  11/20/3 19/31/3 24/33/3
f  16/34/1 22/24/1 15/29/1
f  14/22/3 20/17/3 25/21/3
f  26/35/1 20/30/1 15/29/1
f  11/31/2 24/36/2 15/37/2
f  23/31/4 18/25/4 27/21/4
f  19/31/5 23/21/5 28/26/5
f  29/36/3 24/33/3 19/31/3
f  20/17/3 30/5/3 25/21/3
f  31/23/2 14/38/2 25/19/2
f  26/37/5 32/39/5 20/40/5
f  26/17/4 15/18/4 33/41/4
f  34/42/2 15/37/2 24/36/2
f  27/21/4 18/25/4 35/22/4
f  27/21/4 36/32/4 23/31/4
f  36/5/5 28/26/5 23/21/5
f  29/41/5 19/17/5 33/43/5
f  30/5/3 20/17/3 32/44/3
f  30/7/2 37/13/2 25/19/2
f  25/19/2 37/13/2 31/23/2
f  38/17/2 14/38/2 31/23/2
f  14/38/2 27/21/2 35/22/2
f  34/45/4 33/41/4 15/18/4
f  39/46/5 32/39/5 26/37/5
f  26/35/1 19/26/1 31/47/1
f  26/17/4 31/21/4 39/6/4
f  26/23/5 33/43/5 19/17/5
f  36/32/4 27/21/4 40/5/4
f  28/26/5 36/5/5 32/39/5
f  38/12/1 31/47/1 19/26/1
f  32/48/1 40/5/1 30/49/1
f  30/7/2 41/6/2 37/13/2
f  37/12/4 39/6/4 31/21/4
f  27/21/2 14/38/2 38/17/2
f  28/26/5 32/39/5 39/46/5
f  41/6/2 40/5/2 27/21/2
f  40/5/1 32/48/1 36/44/1
f  28/26/6 37/47/6 41/12/6
f  41/6/2 27/21/2 38/17/2
f  40/5/2 41/6/2 30/7/2
f  37/47/6 28/26/6 39/35/6

# Mesh 'mesh1_mesh1-geometry' with 140 faces
g mesh1_mesh1-geometry
usemtl material_1_24
f  3/5/6 2/5/6 1/5/6
f  4/5/6 1/5/6 2/5/6
f  3/5/5 5/5/5 2/5/5
f  3/5/4 1/5/4 6/5/4
f  42/5/5 4/5/5 1/5/5
f  1/5/2 4/5/2 42/5/2
f  4/5/3 2/5/3 7/5/3
f  8/5/5 2/5/5 5/5/5
f  9/5/5 5/5/5 3/5/5
f  10/5/4 6/5/4 1/5/4
f  6/5/5 9/5/5 3/5/5
f  4/5/5 42/5/5 7/5/5
f  7/5/2 42/5/2 4/5/2
f  42/5/5 1/5/5 17/5/5
f  17/5/2 1/5/2 42/5/2
f  8/5/3 7/5/3 2/5/3
f  5/5/5 11/5/5 8/5/5
f  42/5/6 9/5/6 5/5/6
f  5/5/1 9/5/1 42/5/1
f  12/5/4 6/5/4 10/5/4
f  16/5/5 1/5/5 10/5/5
f  10/5/2 1/5/2 16/5/2
f  6/5/5 12/5/5 9/5/5
f  22/5/5 7/5/5 42/5/5
f  42/5/2 7/5/2 22/5/2
f  17/5/5 1/5/5 16/5/5
f  16/5/2 1/5/2 17/5/2
f  9/5/6 42/5/6 17/5/6
f  17/5/1 42/5/1 9/5/1
f  13/5/3 7/5/3 8/5/3
f  13/5/5 8/5/5 11/5/5
f  11/5/3 42/5/3 5/5/3
f  5/5/4 42/5/4 11/5/4
f  12/5/6 16/5/6 10/5/6
f  10/5/1 16/5/1 12/5/1
f  10/5/4 14/5/4 12/5/4
f  21/5/5 16/5/5 10/5/5
f  10/5/2 16/5/2 21/5/2
f  15/5/5 9/5/5 12/5/5
f  22/5/5 18/5/5 7/5/5
f  7/5/2 18/5/2 22/5/2
f  22/5/6 13/5/6 7/5/6
f  7/5/1 13/5/1 22/5/1
f  42/5/3 11/5/3 22/5/3
f  22/5/4 11/5/4 42/5/4
f  17/5/3 9/5/3 16/5/3
f  7/5/3 13/5/3 18/5/3
f  13/5/6 22/5/6 11/5/6
f  11/5/1 22/5/1 13/5/1
f  19/5/6 13/5/6 11/5/6
f  16/5/6 12/5/6 15/5/6
f  15/5/1 12/5/1 16/5/1
f  12/5/4 14/5/4 20/5/4
f  21/5/4 14/5/4 10/5/4
f  21/5/5 22/5/5 16/5/5
f  16/5/2 22/5/2 21/5/2
f  15/5/3 16/5/3 9/5/3
f  20/5/6 15/5/6 12/5/6
f  18/5/5 22/5/5 21/5/5
f  21/5/2 22/5/2 18/5/2
f  22/5/6 15/5/6 11/5/6
f  23/5/3 18/5/3 13/5/3
f  13/5/6 19/5/6 23/5/6
f  24/5/4 19/5/4 11/5/4
f  15/5/6 22/5/6 16/5/6
f  25/5/4 20/5/4 14/5/4
f  14/5/4 21/5/4 43/5/4
f  14/5/6 33/5/6 21/5/6
f  21/5/1 33/5/1 14/5/1
f  15/5/6 20/5/6 26/5/6
f  18/5/2 44/5/2 21/5/2
f  21/5/6 34/5/6 18/5/6
f  18/5/1 34/5/1 21/5/1
f  15/5/5 24/5/5 11/5/5
f  27/5/3 18/5/3 23/5/3
f  28/5/2 23/5/2 19/5/2
f  19/5/4 24/5/4 29/5/4
f  25/5/4 30/5/4 20/5/4
f  20/5/1 31/5/1 25/5/1
f  25/5/6 31/5/6 20/5/6
f  25/5/5 14/5/5 31/5/5
f  45/5/4 43/5/4 21/5/4
f  14/5/5 43/5/5 35/5/5
f  33/5/6 14/5/6 29/5/6
f  29/5/1 14/5/1 33/5/1
f  21/5/6 33/5/6 34/5/6
f  34/5/1 33/5/1 21/5/1
f  20/5/2 32/5/2 26/5/2
f  31/5/1 20/5/1 26/5/1
f  26/5/6 20/5/6 31/5/6
f  33/5/3 15/5/3 26/5/3
f  45/5/2 21/5/2 44/5/2
f  18/5/3 35/5/3 44/5/3
f  24/5/6 18/5/6 34/5/6
f  34/5/1 18/5/1 24/5/1
f  24/5/5 15/5/5 34/5/5
f  35/5/3 18/5/3 27/5/3
f  23/5/3 36/5/3 27/5/3
f  23/5/2 28/5/2 36/5/2
f  28/5/3 38/5/3 19/5/3
f  19/5/4 38/5/4 28/5/4
f  29/5/6 18/5/6 24/5/6
f  24/5/1 18/5/1 29/5/1
f  24/5/6 33/5/6 29/5/6
f  33/5/2 19/5/2 29/5/2
f  32/5/4 20/5/4 30/5/4
f  25/5/5 37/5/5 30/5/5
f  31/5/5 37/5/5 25/5/5
f  31/5/5 14/5/5 38/5/5
f  45/5/1 44/5/1 43/5/1
f  46/5/5 35/5/5 43/5/5
f  35/5/6 29/5/6 14/5/6
f  14/5/1 29/5/1 35/5/1
f  35/5/5 27/5/5 14/5/5
f  15/5/3 33/5/3 34/5/3
f  33/5/6 24/5/6 34/5/6
f  26/5/2 32/5/2 39/5/2
f  31/5/6 19/5/6 26/5/6
f  39/5/3 31/5/3 26/5/3
f  19/5/2 33/5/2 26/5/2
f  46/5/3 44/5/3 35/5/3
f  29/5/6 35/5/6 18/5/6
f  18/5/1 35/5/1 29/5/1
f  40/5/3 27/5/3 36/5/3
f  32/5/2 36/5/2 28/5/2
f  38/5/3 28/5/3 41/5/3
f  41/5/4 28/5/4 38/5/4
f  19/5/6 31/5/6 38/5/6
f  30/5/6 40/5/6 32/5/6
f  37/5/5 41/5/5 30/5/5
f  31/5/3 39/5/3 37/5/3
f  38/5/5 14/5/5 27/5/5
f  46/5/1 43/5/1 44/5/1
f  39/5/2 32/5/2 28/5/2
f  27/5/5 40/5/5 41/5/5
f  36/5/6 32/5/6 40/5/6
f  41/5/1 37/5/1 28/5/1
f  38/5/5 27/5/5 41/5/5
f  30/5/5 41/5/5 40/5/5
f  39/5/1 28/5/1 37/5/1

# Mesh 'mesh1_mesh1-geometry' with 4 faces
g mesh1_mesh1-geometry
usemtl material_2_2_8
f  43/50/3 21/51/3 14/52/3
f  21/51/3 43/50/3 45/53/3
f  43/54/6 44/55/6 45/56/6
f  44/55/6 43/54/6 46/5/6

# Mesh 'mesh1_mesh1-geometry' with 2 faces
g mesh1_mesh1-geometry
usemtl material_4_4_8
f  21/57/5 44/58/5 18/59/5
f  44/58/5 21/57/5 45/60/5

# Mesh 'mesh1_mesh1-geometry' with 2 faces
g mesh1_mesh1-geometry
usemtl material_3_3_8
f  35/59/2 43/61/2 14/62/2
f  43/61/2 35/59/2 46/58/2

# Mesh 'mesh1_mesh1-geometry' with 4 faces
g mesh1_mesh1-geometry
usemtl material_5_5_8
f  44/63/4 35/52/4 18/64/4
f  29/65/1 33/66/1 24/67/1
f  34/68/1 24/67/1 33/66/1
f  35/52/4 44/63/4 46/50/4

# Mesh 'mesh2_mesh2-geometry' with 13 faces
g mesh2_mesh2-geometry
usemtl material_1_0
l  4 7
l  7 22
l  22 16
l  22 42
l  22 11
l  16 10
l  17 16
l  42 17
l  42 5
l  1 10
l  10 21
l  17 9
l  9 5

# Mesh 'mesh3_mesh3-geometry' with 1 faces
g mesh3_mesh3-geometry
usemtl material_1_0
l  28 19

