# File produced by Open Asset Import Library (http://www.assimp.sf.net)
# (assimp v3.2.202087883)

mtllib model_normalized.mtl

# 84 vertex positions
v -0.253377 0.203893 0.255445
v -0.236505 -0.040749 0.255445
v -0.253377 -0.040749 0.255445
v -0.236505 0.203893 0.255445
v -0.253377 -0.040749 -0.233839
v -0.253377 -0.235003 0.289189
v -0.236505 0.203893 0.289189
v -0.236505 -0.040749 -0.233839
v -0.253377 -0.074493 0.255445
v -0.253377 0.203893 0.289189
v -0.236505 -0.074493 0.255445
v -0.236505 0.026738 -0.233839
v -0.253377 -0.074493 -0.233839
v -0.253377 -0.235003 0.255445
v -0.236505 -0.235003 0.255445
v -0.236505 -0.074493 -0.233839
v -0.253377 0.026738 -0.233839
v -0.236505 -0.235003 0.289189
v -0.253377 0.026738 -0.267583
v -0.236505 -0.234776 -0.233839
v -0.253377 -0.234776 -0.233839
v -0.236505 0.026738 -0.267583
v -0.236505 -0.234776 -0.267583
v -0.253377 -0.234776 -0.267583
v 0.235908 0.203893 0.255440
v 0.252780 -0.040749 0.255440
v 0.235908 -0.040749 0.255440
v 0.252780 0.203893 0.255440
v 0.235908 -0.040749 -0.233845
v 0.235908 -0.235003 0.289184
v 0.252780 0.203893 0.289184
v 0.252780 -0.040749 -0.233845
v 0.235908 -0.074493 0.255440
v 0.235908 0.203893 0.289184
v 0.252780 -0.074493 0.255440
v 0.252780 0.026738 -0.233845
v 0.235908 -0.074493 -0.233845
v 0.235908 -0.235003 0.255440
v 0.252780 -0.235003 0.255440
v 0.252780 -0.074493 -0.233845
v 0.235908 0.026738 -0.233845
v 0.252780 -0.235003 0.289184
v 0.235908 0.026738 -0.267588
v 0.252780 -0.234776 -0.233845
v 0.235908 -0.234776 -0.233845
v 0.252780 0.026738 -0.267588
v 0.252780 -0.234776 -0.267588
v 0.235908 -0.234776 -0.267588
v 0.235908 0.187021 0.255445
v -0.236505 0.187021 0.255445
v 0.235908 0.203893 0.255445
v -0.236505 0.187021 0.289184
v 0.235908 0.187021 0.289184
v -0.236505 0.203893 0.289184
v -0.236504 -0.023289 -0.242275
v -0.236505 0.009865 -0.259147
v -0.236505 -0.023287 -0.259147
v -0.236504 0.009865 -0.242275
v 0.235908 -0.023287 -0.259152
v 0.235908 0.009865 -0.242275
v 0.235908 0.009865 -0.259147
v -0.236505 0.026738 -0.233845
v 0.235908 -0.023289 -0.242281
v 0.235908 0.009866 -0.233845
v 0.235908 0.009866 -0.267583
v -0.236505 0.009866 -0.233845
v -0.236505 0.009866 -0.267583
v 0.235908 0.026738 -0.267583
v 0.261295 0.019383 0.178117
v 0.261295 -0.031711 0.168747
v 0.261295 0.081101 -0.290673
v 0.261295 0.030007 -0.300042
v -0.258761 0.019383 0.178117
v -0.258761 -0.031711 0.168747
v -0.258761 0.030007 -0.300042
v -0.258761 0.081101 -0.290673
v 0.261295 0.348240 0.252980
v 0.261295 0.012372 0.208364
v 0.261295 0.027911 0.137392
v 0.261295 0.332700 0.323952
v -0.258761 0.027911 0.137392
v -0.258761 0.332700 0.323952
v -0.258761 0.012372 0.208364
v -0.258761 0.348240 0.252980

# 128 UV coordinates
vt 0.010936 0.284487 0
vt 0 0.125913 0
vt 0.010936 0.125913 0
vt 0 0.284487 0
vt 0 0.33902 0
vt 0.010936 0.021872 0
vt 0.010936 0.33902 0
vt 0.33902 0.125913 0
vt 0.360892 0 0
vt 0.33902 0.284487 0
vt 0 0.360892 0
vt -0.360892 0.284487 0
vt -0.33902 0.125913 0
vt -0.33902 0.284487 0
vt 0 0.021872 0
vt 0.021872 0.125913 0
vt 0.33902 0.10404 0
vt 0.360892 0.284487 0
vt 0.010936 0.360892 0
vt -0.33902 0.10404 0
vt -0.021872 0.125913 0
vt 0 0.169657 0
vt -0.010936 0.125913 0
vt 0.021872 0.10404 0
vt 0.33902 0 0
vt -0.010936 0 0
vt -0.010936 0.284487 0
vt -0.33902 0 0
vt -0.021872 0.10404 0
vt -0.010936 0.169657 0
vt -0.021872 0.169657 0
vt 0.021872 0.169657 0
vt -0.010936 0.33902 0
vt -0.010936 0.021872 0
vt 0.010936 0.10404 0
vt 0 0 0
vt 0.010936 0 0
vt -0.010936 0.360892 0
vt -0.360892 0 0
vt 0 0.10404 0
vt -0.021872 0.000147 0
vt 0.021872 0.000147 0
vt -0.010936 0.000147 0
vt -0.010936 0.10404 0
vt 0 0.000147 0
vt 0.010936 0.169657 0
vt 0.010936 0.000147 0
vt 0.317148 0.284487 0
vt 0.010936 0.27355 0
vt 0.317148 0.27355 0
vt -0.010936 0.339024 0
vt -0.317148 0.360892 0
vt -0.317148 0.339024 0
vt 0.360892 0.27355 0
vt 0.339024 0.284487 0
vt 0.339024 0.27355 0
vt 0.317148 0.339024 0
vt 0.010936 0.339024 0
vt -0.339024 0.27355 0
vt -0.339024 0.284487 0
vt 0.317148 0.360892 0
vt -0.360892 0.27355 0
vt -0.317148 0.27355 0
vt -0.010936 0.27355 0
vt -0.317148 0.284487 0
vt 0.016406 0.137231 0
vt 0.00547 0.158721 0
vt 0.00547 0.137231 0
vt 0.016406 0.15872 0
vt 0.317148 0.158721 0
vt 0.010936 0.137232 0
vt 0.317148 0.137232 0
vt -0.010936 0.005457 0
vt -0.317148 0.016397 0
vt -0.317148 0.005461 0
vt -0.317148 0.137232 0
vt -0.010936 0.158721 0
vt -0.317148 0.158721 0
vt -0.010936 0.005459 0
vt -0.317148 0.016395 0
vt -0.317148 0.005459 0
vt 0.021872 0.169658 0
vt 0.005471 0.158721 0
vt 0.016407 0.158721 0
vt 0.010936 0.158721 0
vt -0.010936 0.016393 0
vt -0.010936 0.137232 0
vt -0.010936 0.016395 0
vt -0.010936 0.02187 0
vt -0.317148 0.016405 0
vt -0.010936 0.016405 0
vt -0.010936 -9e-06 0
vt 3e-06 0.169658 0
vt 0.021872 0.158722 0
vt -0.005471 0.158721 0
vt -0.016404 0.137231 0
vt -0.005468 0.137231 0
vt -0.016408 0.15872 0
vt -0.317148 0.02187 0
vt -0.021872 0.158721 0
vt -0.317148 -9e-06 0
vt -3e-06 0.158721 0
vt 3e-06 0.158722 0
vt 0.317148 3e-06 0
vt 0.317148 0.021872 0
vt -0.317148 0.169657 0
vt 0.317148 0.169657 0
vt -3e-06 0.169657 0
vt 0.010936 3e-06 0
vt 1 1 0
vt 1 0 0
vt 0 1 0
vt 0.094786 0.634255 0
vt 0.895148 0.634255 0
vt 0.094786 0.587853 0
vt 1.10483 -0.365977 0
vt 1.10483 -0.046799 0
vt 1.89168 -0.365977 0
vt 0.895148 0.587853 0
vt -0.096166 -0.424996 0
vt -0.096166 -0.960996 0
vt -1.39017 -0.424996 0
vt 1.89168 -0.046799 0
vt -1.39017 -0.960996 0
vt -0.978935 0.951925 0
vt -0.892827 0.951925 0
vt -0.978935 0.633594 0
vt -0.892827 0.633594 0

# 26 vertex normals
vn 0 0 -0.0254
vn 0 0 0.0254
vn 0 0.0254 0
vn 0 -0.0254 -0
vn -0.0254 0 0
vn 0.0254 -0 -0
vn -0.0254 0 1.524e-07
vn 0.0254 0 -1.524e-07
vn -1.524e-07 2.0066e-06 -0.0254
vn 1.524e-07 -2.0066e-06 0.0254
vn -0 -0.0254 -2.0066e-06
vn 0 0.0254 2.0066e-06
vn -0.0254 -7.62e-08 2.54e-08
vn 0.0254 7.62e-08 -2.54e-08
vn -0 -0.0254 -3.556e-07
vn 0 0.0254 3.556e-07
vn 0.0242017 0 0
vn -0.0242017 -0 0
vn 0 0.00346696 -0.0263338
vn -0 -0.018535 -0.0033989
vn -0 -0.00346696 0.0263338
vn 0 0.018535 0.0033989
vn 0 0.0179941 0.00649301
vn 0 -0.00563719 0.0257461
vn 0 -0.0179941 -0.00649301
vn 0 0.00563719 -0.0257461

# Mesh 'mesh1_mesh1-geometry' with 88 faces
g mesh1_mesh1-geometry
usemtl material_0_4_8
f  1/1/1 2/2/1 3/3/1
f  2/2/1 1/1/1 4/4/1
f  3/3/2 2/2/2 1/1/2
f  4/4/2 1/1/2 2/2/2
f  2/5/3 5/6/3 3/7/3
f  3/7/4 5/6/4 2/5/4
f  3/8/5 6/9/5 1/10/5
f  1/10/6 6/9/6 3/8/6
f  1/7/3 7/11/3 4/5/3
f  4/5/4 7/11/4 1/7/4
f  7/12/6 2/13/6 4/14/6
f  4/14/5 2/13/5 7/12/5
f  5/6/3 2/5/3 8/15/3
f  8/15/4 2/5/4 5/6/4
f  5/16/5 9/17/5 3/8/5
f  3/8/6 9/17/6 5/16/6
f  9/17/5 6/9/5 3/8/5
f  3/8/6 6/9/6 9/17/6
f  1/10/5 6/9/5 10/18/5
f  10/18/6 6/9/6 1/10/6
f  7/11/3 1/7/3 10/19/3
f  10/19/4 1/7/4 7/11/4
f  2/13/6 7/12/6 11/20/6
f  11/20/5 7/12/5 2/13/5
f  11/20/6 8/21/6 2/13/6
f  2/13/5 8/21/5 11/20/5
f  12/22/2 5/23/2 8/2/2
f  8/2/1 5/23/1 12/22/1
f  5/16/5 13/24/5 9/17/5
f  9/17/6 13/24/6 5/16/6
f  6/9/5 9/17/5 14/25/5
f  14/25/6 9/17/6 6/9/6
f  6/26/2 7/4/2 10/27/2
f  10/27/1 7/4/1 6/26/1
f  11/20/6 7/12/6 15/28/6
f  15/28/5 7/12/5 11/20/5
f  16/29/6 8/21/6 11/20/6
f  11/20/5 8/21/5 16/29/5
f  5/23/2 12/22/2 17/30/2
f  17/30/1 12/22/1 5/23/1
f  8/21/6 16/29/6 12/31/6
f  12/31/5 16/29/5 8/21/5
f  17/32/5 13/24/5 5/16/5
f  5/16/6 13/24/6 17/32/6
f  16/15/4 9/33/4 13/34/4
f  13/34/3 9/33/3 16/15/3
f  9/35/1 15/36/1 14/37/1
f  14/37/2 15/36/2 9/35/2
f  15/5/4 6/38/4 14/33/4
f  14/33/3 6/38/3 15/5/3
f  7/4/2 6/26/2 18/36/2
f  18/36/1 6/26/1 7/4/1
f  15/28/6 7/12/6 18/39/6
f  18/39/5 7/12/5 15/28/5
f  15/36/1 9/35/1 11/40/1
f  11/40/2 9/35/2 15/36/2
f  9/33/4 16/15/4 11/5/4
f  11/5/3 16/15/3 9/33/3
f  12/15/3 19/37/3 17/6/3
f  17/6/4 19/37/4 12/15/4
f  20/41/6 12/31/6 16/29/6
f  16/29/5 12/31/5 20/41/5
f  17/32/5 21/42/5 13/24/5
f  13/24/6 21/42/6 17/32/6
f  21/43/2 16/40/2 13/44/2
f  13/44/1 16/40/1 21/43/1
f  6/38/4 15/5/4 18/11/4
f  18/11/3 15/5/3 6/38/3
f  19/37/3 12/15/3 22/36/3
f  22/36/4 12/15/4 19/37/4
f  19/22/5 21/42/5 17/32/5
f  17/32/6 21/42/6 19/22/6
f  23/45/6 12/31/6 20/41/6
f  20/41/5 12/31/5 23/45/5
f  16/40/2 21/43/2 20/45/2
f  20/45/1 21/43/1 16/40/1
f  12/31/6 23/45/6 22/22/6
f  22/22/5 23/45/5 12/31/5
f  23/45/1 19/46/1 22/22/1
f  22/22/2 19/46/2 23/45/2
f  21/42/5 19/22/5 24/45/5
f  24/45/6 19/22/6 21/42/6
f  21/34/4 23/36/4 20/15/4
f  20/15/3 23/36/3 21/34/3
f  19/46/1 23/45/1 24/47/1
f  24/47/2 23/45/2 19/46/2
f  23/36/4 21/34/4 24/26/4
f  24/26/3 21/34/3 23/36/3

# Mesh 'mesh2_mesh2-geometry' with 36 faces
g mesh2_mesh2-geometry
usemtl material_1_0
l  10 6
l  1 10
l  10 7
l  6 18
l  6 14
l  3 1
l  1 4
l  7 18
l  4 7
l  18 15
l  14 9
l  14 15
l  3 2
l  5 3
l  2 4
l  15 11
l  9 13
l  9 11
l  8 2
l  5 8
l  17 5
l  11 16
l  13 21
l  13 16
l  12 8
l  17 12
l  19 17
l  16 20
l  21 24
l  21 20
l  22 12
l  24 19
l  19 22
l  20 23
l  24 23
l  23 22

# Mesh 'mesh3_mesh3-geometry' with 88 faces
g mesh3_mesh3-geometry
usemtl material_0_4_8
f  25/1/1 26/2/1 27/3/1
f  26/2/1 25/1/1 28/4/1
f  27/3/2 26/2/2 25/1/2
f  28/4/2 25/1/2 26/2/2
f  26/5/3 29/6/3 27/7/3
f  27/7/4 29/6/4 26/5/4
f  27/8/5 30/9/5 25/10/5
f  25/10/6 30/9/6 27/8/6
f  25/7/3 31/11/3 28/5/3
f  28/5/4 31/11/4 25/7/4
f  31/12/6 26/13/6 28/14/6
f  28/14/5 26/13/5 31/12/5
f  29/6/3 26/5/3 32/15/3
f  32/15/4 26/5/4 29/6/4
f  29/16/5 33/17/5 27/8/5
f  27/8/6 33/17/6 29/16/6
f  33/17/5 30/9/5 27/8/5
f  27/8/6 30/9/6 33/17/6
f  25/10/5 30/9/5 34/18/5
f  34/18/6 30/9/6 25/10/6
f  31/11/3 25/7/3 34/19/3
f  34/19/4 25/7/4 31/11/4
f  26/13/6 31/12/6 35/20/6
f  35/20/5 31/12/5 26/13/5
f  35/20/6 32/21/6 26/13/6
f  26/13/5 32/21/5 35/20/5
f  36/22/2 29/23/2 32/2/2
f  32/2/1 29/23/1 36/22/1
f  29/16/5 37/24/5 33/17/5
f  33/17/6 37/24/6 29/16/6
f  30/9/5 33/17/5 38/25/5
f  38/25/6 33/17/6 30/9/6
f  30/26/2 31/4/2 34/27/2
f  34/27/1 31/4/1 30/26/1
f  35/20/6 31/12/6 39/28/6
f  39/28/5 31/12/5 35/20/5
f  40/29/6 32/21/6 35/20/6
f  35/20/5 32/21/5 40/29/5
f  29/23/2 36/22/2 41/30/2
f  41/30/1 36/22/1 29/23/1
f  32/21/6 40/29/6 36/31/6
f  36/31/5 40/29/5 32/21/5
f  41/32/5 37/24/5 29/16/5
f  29/16/6 37/24/6 41/32/6
f  40/15/4 33/33/4 37/34/4
f  37/34/3 33/33/3 40/15/3
f  33/35/1 39/36/1 38/37/1
f  38/37/2 39/36/2 33/35/2
f  39/5/4 30/38/4 38/33/4
f  38/33/3 30/38/3 39/5/3
f  31/4/2 30/26/2 42/36/2
f  42/36/1 30/26/1 31/4/1
f  39/28/6 31/12/6 42/39/6
f  42/39/5 31/12/5 39/28/5
f  39/36/1 33/35/1 35/40/1
f  35/40/2 33/35/2 39/36/2
f  33/33/4 40/15/4 35/5/4
f  35/5/3 40/15/3 33/33/3
f  36/15/3 43/37/3 41/6/3
f  41/6/4 43/37/4 36/15/4
f  44/41/6 36/31/6 40/29/6
f  40/29/5 36/31/5 44/41/5
f  41/32/5 45/42/5 37/24/5
f  37/24/6 45/42/6 41/32/6
f  45/43/2 40/40/2 37/44/2
f  37/44/1 40/40/1 45/43/1
f  30/38/4 39/5/4 42/11/4
f  42/11/3 39/5/3 30/38/3
f  43/37/3 36/15/3 46/36/3
f  46/36/4 36/15/4 43/37/4
f  43/22/5 45/42/5 41/32/5
f  41/32/6 45/42/6 43/22/6
f  47/45/6 36/31/6 44/41/6
f  44/41/5 36/31/5 47/45/5
f  40/40/2 45/43/2 44/45/2
f  44/45/1 45/43/1 40/40/1
f  36/31/6 47/45/6 46/22/6
f  46/22/5 47/45/5 36/31/5
f  47/45/1 43/46/1 46/22/1
f  46/22/2 43/46/2 47/45/2
f  45/42/5 43/22/5 48/45/5
f  48/45/6 43/22/6 45/42/6
f  45/34/4 47/36/4 44/15/4
f  44/15/3 47/36/3 45/34/3
f  43/46/1 47/45/1 48/47/1
f  48/47/2 47/45/2 43/46/2
f  47/36/4 45/34/4 48/26/4
f  48/26/3 45/34/3 47/36/3

# Mesh 'mesh4_mesh4-geometry' with 36 faces
g mesh4_mesh4-geometry
usemtl material_1_0
l  34 30
l  25 34
l  34 31
l  30 42
l  30 38
l  27 25
l  25 28
l  31 42
l  28 31
l  42 39
l  38 33
l  38 39
l  27 26
l  29 27
l  26 28
l  39 35
l  33 37
l  33 35
l  32 26
l  29 32
l  41 29
l  35 40
l  37 45
l  37 40
l  36 32
l  41 36
l  43 41
l  40 44
l  45 48
l  45 44
l  46 36
l  48 43
l  43 46
l  44 47
l  48 47
l  47 46

# Mesh 'mesh5_mesh5-geometry' with 24 faces
g mesh5_mesh5-geometry
usemtl material_0_4_8
f  4/48/1 49/49/1 50/50/1
f  49/49/1 4/48/1 51/1/1
f  50/50/2 49/49/2 4/48/2
f  51/1/2 4/48/2 49/49/2
f  49/51/4 52/52/4 50/53/4
f  50/53/3 52/52/3 49/51/3
f  52/54/5 4/55/5 50/56/5
f  50/56/6 4/55/6 52/54/6
f  4/57/3 34/19/3 51/58/3
f  51/58/4 34/19/4 4/57/4
f  34/12/6 49/59/6 51/60/6
f  51/60/5 49/59/5 34/12/5
f  52/52/4 49/51/4 53/38/4
f  53/38/3 49/51/3 52/52/3
f  4/55/5 52/54/5 54/18/5
f  54/18/6 52/54/6 4/55/6
f  34/19/3 4/57/3 54/61/3
f  54/61/4 4/57/4 34/19/4
f  49/59/6 34/12/6 53/62/6
f  53/62/5 34/12/5 49/59/5
f  34/27/2 52/63/2 53/64/2
f  53/64/1 52/63/1 34/27/1
f  52/63/2 34/27/2 54/65/2
f  54/65/1 34/27/1 52/63/1

# Mesh 'mesh6_mesh6-geometry' with 60 faces
g mesh6_mesh6-geometry
usemtl material_0_4_8
f  55/66/7 56/67/7 57/68/7
f  56/67/7 55/66/7 58/69/7
f  57/68/8 56/67/8 55/66/8
f  58/69/8 55/66/8 56/67/8
f  56/70/9 59/71/9 57/72/9
f  57/72/10 59/71/10 56/70/10
f  59/73/11 55/74/11 57/75/11
f  57/75/12 55/74/12 59/73/12
f  55/76/10 60/77/10 58/78/10
f  58/78/9 60/77/9 55/76/9
f  61/79/11 58/80/11 56/81/11
f  56/81/12 58/80/12 61/79/12
f  62/82/13 56/83/13 58/84/13
f  58/84/14 56/83/14 62/82/14
f  59/71/9 56/70/9 61/85/9
f  61/85/10 56/70/10 59/71/10
f  55/74/11 59/73/11 63/86/11
f  63/86/12 59/73/12 55/74/12
f  60/77/10 55/76/10 63/87/10
f  63/87/9 55/76/9 60/77/9
f  58/80/11 61/79/11 60/88/11
f  60/88/12 61/79/12 58/80/12
f  64/89/15 58/90/15 60/91/15
f  60/91/16 58/90/16 64/89/16
f  56/81/11 65/92/11 61/79/11
f  61/79/12 65/92/12 56/81/12
f  22/93/13 56/83/13 62/82/13
f  62/82/14 56/83/14 22/93/14
f  62/82/13 58/84/13 66/94/13
f  66/94/14 58/84/14 62/82/14
f  61/95/8 63/96/8 59/97/8
f  59/97/7 63/96/7 61/95/7
f  63/96/8 61/95/8 60/98/8
f  60/98/7 61/95/7 63/96/7
f  61/95/14 41/31/14 60/98/14
f  60/98/13 41/31/13 61/95/13
f  58/90/15 64/89/15 66/99/15
f  66/99/16 64/89/16 58/90/16
f  60/98/14 41/31/14 64/100/14
f  64/100/13 41/31/13 60/98/13
f  65/92/11 56/81/11 67/101/11
f  67/101/12 56/81/12 65/92/12
f  65/102/14 41/31/14 61/95/14
f  61/95/13 41/31/13 65/102/13
f  56/83/13 22/93/13 67/103/13
f  67/103/14 22/93/14 56/83/14
f  41/6/3 22/104/3 62/105/3
f  62/105/4 22/104/4 41/6/4
f  66/78/2 41/30/2 62/106/2
f  62/106/1 41/30/1 66/78/1
f  41/30/2 66/78/2 64/77/2
f  64/77/1 66/78/1 41/30/1
f  22/107/1 65/85/1 67/70/1
f  67/70/2 65/85/2 22/107/2
f  41/31/14 65/102/14 68/108/14
f  68/108/13 65/102/13 41/31/13
f  22/104/3 41/6/3 68/109/3
f  68/109/4 41/6/4 22/104/4
f  65/85/1 22/107/1 68/46/1
f  68/46/2 22/107/2 65/85/2

# Mesh 'mesh7_mesh7-geometry' with 26 faces
g mesh7_mesh7-geometry
usemtl material_1_0
l  62 22
l  41 62
l  62 66
l  22 68
l  22 67
l  68 41
l  41 64
l  66 58
l  64 66
l  68 65
l  67 56
l  67 65
l  60 64
l  58 56
l  55 58
l  58 60
l  65 61
l  57 56
l  56 61
l  60 63
l  61 60
l  57 55
l  63 55
l  61 59
l  59 57
l  59 63

# Mesh 'mesh8_mesh8-geometry' with 12 faces
g mesh8_mesh8-geometry
usemtl material_1_0
l  54 52
l  54 4
l  34 54
l  53 52
l  52 50
l  4 51
l  4 50
l  51 34
l  34 53
l  49 53
l  50 49
l  51 49

# Mesh 'mesh9_mesh9-geometry' with 2 faces
g mesh9_mesh9-geometry
usemtl material_2_1_8
f  69/110/17 70/111/17 71/112/17
f  72/36/17 71/112/17 70/111/17

# Mesh 'mesh9_mesh9-geometry' with 12 faces
g mesh9_mesh9-geometry
usemtl material_1_24
f  71/36/18 70/36/18 69/36/18
f  70/36/19 73/36/19 69/36/19
f  70/36/18 71/36/18 72/36/18
f  73/36/20 71/36/20 69/36/20
f  73/36/19 70/36/19 74/36/19
f  71/36/21 75/36/21 72/36/21
f  75/36/22 70/36/22 72/36/22
f  71/36/20 73/36/20 76/36/20
f  70/36/22 75/36/22 74/36/22
f  75/36/17 73/36/17 74/36/17
f  75/36/21 71/36/21 76/36/21
f  73/36/17 75/36/17 76/36/17

# Mesh 'mesh9_mesh9-geometry' with 8 faces
g mesh9_mesh9-geometry
usemtl material_2_2_8
f  69/113/21 73/114/21 70/115/21
f  69/116/22 71/117/22 73/118/22
f  74/119/21 70/115/21 73/114/21
f  72/120/20 70/121/20 75/122/20
f  76/123/22 73/118/22 71/117/22
f  74/124/20 75/122/20 70/121/20
f  74/125/18 73/126/18 75/127/18
f  76/128/18 75/127/18 73/126/18

# Mesh 'mesh9_mesh9-geometry' with 2 faces
g mesh9_mesh9-geometry
usemtl material_2_3_8
f  72/111/19 75/36/19 71/110/19
f  76/112/19 71/110/19 75/36/19

# Mesh 'mesh10_mesh10-geometry' with 2 faces
g mesh10_mesh10-geometry
usemtl material_2_1_8
f  77/112/17 78/111/17 79/110/17
f  78/111/17 77/112/17 80/36/17

# Mesh 'mesh10_mesh10-geometry' with 12 faces
g mesh10_mesh10-geometry
usemtl material_1_24
f  79/36/18 78/36/18 77/36/18
f  80/36/18 77/36/18 78/36/18
f  79/36/23 81/36/23 78/36/23
f  79/36/24 77/36/24 81/36/24
f  80/36/25 82/36/25 77/36/25
f  80/36/26 78/36/26 82/36/26
f  83/36/23 78/36/23 81/36/23
f  84/36/24 81/36/24 77/36/24
f  84/36/25 77/36/25 82/36/25
f  83/36/26 82/36/26 78/36/26
f  83/36/17 81/36/17 82/36/17
f  84/36/17 82/36/17 81/36/17

# Mesh 'mesh10_mesh10-geometry' with 8 faces
g mesh10_mesh10-geometry
usemtl material_2_2_8
f  78/115/25 81/114/25 79/113/25
f  81/118/26 77/117/26 79/116/26
f  82/122/24 78/121/24 80/120/24
f  81/114/25 78/115/25 83/119/25
f  77/117/26 81/118/26 84/123/26
f  78/121/24 82/122/24 83/124/24
f  82/127/18 81/126/18 83/125/18
f  81/126/18 82/127/18 84/128/18

# Mesh 'mesh10_mesh10-geometry' with 2 faces
g mesh10_mesh10-geometry
usemtl material_2_3_8
f  77/110/23 82/36/23 80/111/23
f  82/36/23 77/110/23 84/112/23

