# File produced by Open Asset Import Library (http://www.assimp.sf.net)
# (assimp v3.2.202087883)

mtllib model_normalized.mtl

# 78 vertex positions
v 0.148786 -0.418610 -0.173288
v 0.105430 -0.418610 0.038017
v 0.086967 -0.418610 -0.173288
v 0.148786 -0.418610 0.038017
v 0.105430 -0.418610 0.127947
v 0.086967 -0.026969 -0.173288
v -0.079076 -0.418610 0.127947
v 0.148786 -0.026969 -0.173288
v 0.086967 -0.418610 -0.258096
v 0.148786 -0.026969 -0.258096
v 0.086967 -0.026969 -0.258096
v -0.079076 -0.418610 0.044568
v 0.058857 -0.021728 0.038017
v 0.105430 -0.021728 0.127947
v 0.105430 -0.021728 0.038017
v 0.148786 -0.418610 -0.258096
v -0.081934 -0.418610 -0.177576
v -0.079076 -0.028994 0.044568
v 0.058857 -0.021728 0.127947
v 0.105430 0.074864 0.127053
v 0.148786 -0.021728 0.127947
v -0.081934 -0.418610 -0.258096
v -0.136368 -0.418610 0.044568
v -0.079076 -0.028994 0.127947
v -0.142624 -0.021728 0.127947
v 0.058857 0.074864 0.127053
v 0.115791 0.074864 0.127053
v 0.148786 0.449579 0.123584
v -0.081934 -0.025301 -0.258096
v -0.142801 -0.418610 -0.177576
v -0.136368 -0.028994 0.127947
v -0.136368 -0.028994 0.044568
v -0.142624 -0.021728 0.038017
v 0.115791 0.074448 0.082088
v 0.115791 0.400388 0.124040
v -0.081934 -0.025301 -0.177576
v -0.142801 -0.418610 -0.258096
v -0.162454 -0.418610 0.044568
v -0.142801 -0.025301 -0.177576
v -0.136368 -0.418610 0.127947
v 0.041822 0.074864 0.127053
v 0.148786 0.026571 0.082531
v 0.148786 0.449166 0.078619
v 0.105430 0.449579 0.123584
v -0.142624 -0.025301 -0.258096
v -0.142801 -0.025301 -0.258096
v -0.162454 -0.418610 -0.177576
v -0.162454 -0.418610 0.127947
v 0.041822 0.074448 0.082088
v 0.115791 0.399968 0.079075
v 0.105430 0.400388 0.124040
v -0.142624 0.026571 0.082531
v 0.058857 0.449579 0.123584
v -0.113040 0.396689 0.124074
v -0.113040 0.077064 0.082063
v -0.113040 0.077480 0.127028
v -0.040738 0.077064 0.082063
v -0.040738 0.077480 0.127028
v 0.041822 0.400388 0.124040
v 0.058857 0.400388 0.124040
v 0.041822 0.399968 0.079075
v -0.142624 0.449579 0.123584
v -0.162454 -0.418610 -0.258096
v -0.142624 0.449166 0.078619
v -0.040738 0.396689 0.124074
v -0.113040 0.396269 0.079109
v -0.040738 0.396269 0.079109
v 0.148786 -0.418610 0.127947
v 0.148786 -0.022560 0.038017
v 0.148786 0.026155 0.037566
v -0.081934 0.023414 -0.258547
v 0.148786 0.023414 -0.258547
v 0.148786 -0.025301 -0.258096
v -0.142624 0.023414 -0.258547
v -0.142624 0.332755 0.038017
v -0.142624 0.332755 0.127947
v 0.148786 0.332987 0.127947
v 0.148786 0.332987 0.038017

# 158 UV coordinates
vt 0 0 0
vt -2.85529 0 0
vt -3.39592 0 0
vt -2.85529 3.425 0
vt 1.44632 0 0
vt 0.659861 3.47083 0
vt 0.659861 0 0
vt -3.39592 3.425 0
vt 3.29424 0 0
vt 3.29424 3.425 0
vt 4.0359 0 0
vt 1.44632 3.47083 0
vt -3.01675 3.47083 0
vt -3.01675 0 0
vt -3.29424 3.425 0
vt -3.29424 0 0
vt -4.0359 3.425 0
vt 4.0359 3.425 0
vt 3.01675 1.44632 0
vt 3.01675 0.659861 0
vt 2.60946 1.44632 0
vt -3.39592 3.47083 0
vt -4.0359 0 0
vt 2.85529 3.425 0
vt 3.39592 3.425 0
vt 2.85529 0 0
vt -1.38903 0 0
vt -1.38903 3.40729 0
vt -0.659861 0 0
vt 2.60946 0.659861 0
vt -3.01675 3.47679 0
vt -3.39592 3.47679 0
vt -3.01675 4.32155 0
vt -0.698013 7.59253 0
vt -0.659861 3.47083 0
vt 3.39592 0 0
vt -0.659861 3.40729 0
vt 1.40321 0 0
vt 0.902169 0 0
vt 1.40321 3.40729 0
vt -0.847467 0.659861 0
vt -2.60946 1.44632 0
vt -2.60946 0.659861 0
vt -2.60946 3.47679 0
vt -2.60946 4.32155 0
vt -3.10737 4.32155 0
vt -1.05703 3.89322 0
vt -3.39592 7.59867 0
vt -4.0359 3.43958 0
vt -3.33174 0 0
vt -1.40321 3.40729 0
vt -0.902169 3.40729 0
vt -1.40321 0 0
vt 0.902169 3.40729 0
vt -0.847467 1.44632 0
vt -0.847467 3.47679 0
vt -1.10618 4.34442 0
vt -2.46049 4.32155 0
vt 3.10737 -0.627706 0
vt 3.10737 -1.02095 0
vt 3.01675 -0.627706 0
vt 3.10737 7.16842 0
vt 3.01675 4.32155 0
vt 3.10737 4.32155 0
vt 2.60946 -0.627706 0
vt -1.09124 7.58889 0
vt -1.44632 0 0
vt -3.10737 7.16842 0
vt -3.33174 3.43958 0
vt 1.37821 0 0
vt 0.845919 0 0
vt 1.37821 3.43958 0
vt -0.845919 0 0
vt -1.37821 0 0
vt -0.845919 3.43958 0
vt -0.902169 0 0
vt 1.38903 3.40729 0
vt 1.38903 0 0
vt 0.659861 3.40729 0
vt -0.847467 7.59867 0
vt 2.46049 -0.627706 0
vt 2.60946 7.16842 0
vt 2.46049 4.32155 0
vt 2.60946 4.32155 0
vt 0.66768 4.31555 0
vt 0.69403 7.16231 0
vt 1.06091 4.31191 0
vt 3.01675 7.16842 0
vt 3.39592 7.59867 0
vt 3.39592 3.90283 0
vt 3.39592 -0.627706 0
vt 3.39592 -1.02095 0
vt -1.44632 3.46355 0
vt -3.01675 7.59867 0
vt -1.37821 3.43958 0
vt 0.845919 3.43958 0
vt 3.33174 0 0
vt 3.33174 3.43958 0
vt 1.05703 3.89322 0
vt 0.698013 7.59253 0
vt -1.10618 7.13609 0
vt -1.73847 4.34442 0
vt 2.46049 -1.02095 0
vt 2.46049 7.16842 0
vt 1.08726 7.15867 0
vt -3.01675 7.16842 0
vt -3.10737 -0.627706 0
vt -3.01675 -0.627706 0
vt -3.10737 -1.02095 0
vt 0.847467 3.90283 0
vt -1.45026 3.88958 0
vt 0.847467 3.43958 0
vt 1.37821 3.90283 0
vt 0.847467 3.47679 0
vt 1.37821 3.47679 0
vt 4.0359 3.43958 0
vt 1.09124 7.58889 0
vt -1.73847 7.13609 0
vt -0.667891 4.33843 0
vt -1.06112 4.33479 0
vt -0.693731 7.12997 0
vt 1.73847 -0.627706 0
vt 1.73847 -1.02095 0
vt 1.10618 -0.627706 0
vt -2.46049 7.16842 0
vt -0.66768 4.31555 0
vt -1.06091 4.31191 0
vt -0.69403 7.16231 0
vt -2.60946 7.16842 0
vt -2.46049 -0.627706 0
vt -2.46049 -1.02095 0
vt -2.60946 -0.627706 0
vt -2.60946 7.59867 0
vt 0.847467 -1.02095 0
vt 1.37821 -4.00389 0
vt 0.847467 -0.627706 0
vt 3.39592 -4.00389 0
vt 3.39592 -1.4142 0
vt 4.03985 3.86561 0
vt 0.847467 7.59867 0
vt 1.10618 4.34442 0
vt -1.10618 -0.627706 0
vt -1.10618 -1.02095 0
vt -1.73847 -0.627706 0
vt -1.08696 7.12633 0
vt 1.10618 -1.02095 0
vt 0.667891 4.33843 0
vt 0.693731 7.12997 0
vt 1.06112 4.33479 0
vt -1.08726 7.15867 0
vt 0.847467 -4.00389 0
vt -4.03985 3.86561 0
vt 3.39592 3.47679 0
vt 1.10618 7.13609 0
vt -1.73847 -1.02095 0
vt 1.73847 4.34442 0
vt 1.08696 7.12633 0
vt 1.73847 7.13609 0

# 10 vertex normals
vn 0 -0.0254 0
vn 0 0.0254 0
vn 0 0 -0.0254
vn 0.0254 0 0
vn -0.0254 0 0
vn 0 0 0.0254
vn 0 -0.000235102 -0.0253989
vn -0 -0.0253989 0.000235102
vn 0 0.000235102 0.0253989
vn 0 0.0253989 -0.000235102

# Mesh 'mesh1_mesh1-geometry' with 123 faces
g mesh1_mesh1-geometry
usemtl material_0_24
f  1/1/1 2/1/1 3/1/1
f  2/1/1 1/1/1 4/1/1
f  3/1/2 2/1/2 1/1/2
f  4/1/2 1/1/2 2/1/2
f  5/1/1 3/1/1 2/1/1
f  2/1/2 3/1/2 5/1/2
f  6/1/3 1/1/3 3/1/3
f  7/1/1 3/1/1 5/1/1
f  5/1/2 3/1/2 7/1/2
f  1/1/3 6/1/3 8/1/3
f  9/1/4 6/1/4 3/1/4
f  7/1/1 9/1/1 3/1/1
f  3/1/2 9/1/2 7/1/2
f  6/1/1 10/1/1 8/1/1
f  8/1/2 10/1/2 6/1/2
f  10/1/5 1/1/5 8/1/5
f  6/1/4 9/1/4 11/1/4
f  12/1/1 9/1/1 7/1/1
f  7/1/2 9/1/2 12/1/2
f  13/1/2 14/1/2 15/1/2
f  10/1/1 6/1/1 11/1/1
f  11/1/2 6/1/2 10/1/2
f  1/1/5 10/1/5 16/1/5
f  9/1/6 10/1/6 11/1/6
f  17/1/1 9/1/1 12/1/1
f  12/1/2 9/1/2 17/1/2
f  7/1/5 18/1/5 12/1/5
f  14/1/2 13/1/2 19/1/2
f  20/1/7 21/1/7 14/1/7
f  10/1/6 9/1/6 16/1/6
f  9/1/1 17/1/1 22/1/1
f  22/1/2 17/1/2 9/1/2
f  23/1/1 17/1/1 12/1/1
f  12/1/2 17/1/2 23/1/2
f  18/1/5 7/1/5 24/1/5
f  18/1/6 23/1/6 12/1/6
f  19/1/2 13/1/2 25/1/2
f  26/1/7 14/1/7 19/1/7
f  21/1/7 20/1/7 27/1/7
f  14/1/7 26/1/7 20/1/7
f  21/1/7 27/1/7 28/1/7
f  17/1/5 29/1/5 22/1/5
f  23/1/1 30/1/1 17/1/1
f  17/1/2 30/1/2 23/1/2
f  7/1/3 31/1/3 24/1/3
f  31/1/1 18/1/1 24/1/1
f  24/1/2 18/1/2 31/1/2
f  23/1/6 18/1/6 32/1/6
f  33/1/2 25/1/2 13/1/2
f  20/1/8 34/1/8 27/1/8
f  26/1/8 34/1/8 20/1/8
f  28/1/7 27/1/7 35/1/7
f  29/1/5 17/1/5 36/1/5
f  29/1/6 37/1/6 22/1/6
f  38/1/1 30/1/1 23/1/1
f  23/1/2 30/1/2 38/1/2
f  39/1/3 17/1/3 30/1/3
f  31/1/3 7/1/3 40/1/3
f  18/1/1 31/1/1 32/1/1
f  32/1/2 31/1/2 18/1/2
f  31/1/4 23/1/4 32/1/4
f  41/1/8 34/1/8 26/1/8
f  34/1/4 35/1/4 27/1/4
f  34/1/9 42/1/9 43/1/9
f  44/1/8 43/1/8 28/1/8
f  28/1/7 35/1/7 44/1/7
f  17/1/3 39/1/3 36/1/3
f  36/1/1 45/1/1 29/1/1
f  29/1/2 45/1/2 36/1/2
f  37/1/6 29/1/6 46/1/6
f  30/1/1 38/1/1 47/1/1
f  47/1/2 38/1/2 30/1/2
f  23/1/1 48/1/1 38/1/1
f  38/1/2 48/1/2 23/1/2
f  37/1/4 39/1/4 30/1/4
f  23/1/4 31/1/4 40/1/4
f  34/1/8 41/1/8 49/1/8
f  35/1/4 34/1/4 50/1/4
f  44/1/7 35/1/7 51/1/7
f  50/1/10 51/1/10 35/1/10
f  42/1/9 34/1/9 52/1/9
f  34/1/9 43/1/9 50/1/9
f  53/1/8 43/1/8 44/1/8
f  39/1/1 45/1/1 36/1/1
f  36/1/2 45/1/2 39/1/2
f  46/1/6 29/1/6 45/1/6
f  39/1/4 37/1/4 46/1/4
f  47/1/1 37/1/1 30/1/1
f  30/1/2 37/1/2 47/1/2
f  48/1/1 23/1/1 40/1/1
f  40/1/2 23/1/2 48/1/2
f  54/1/5 55/1/5 56/1/5
f  56/1/8 57/1/8 58/1/8
f  59/1/5 49/1/5 41/1/5
f  49/1/9 52/1/9 34/1/9
f  60/1/10 61/1/10 59/1/10
f  51/1/7 53/1/7 44/1/7
f  50/1/10 60/1/10 51/1/10
f  50/1/9 43/1/9 61/1/9
f  62/1/8 43/1/8 53/1/8
f  45/1/1 39/1/1 46/1/1
f  46/1/2 39/1/2 45/1/2
f  37/1/1 47/1/1 63/1/1
f  63/1/2 47/1/2 37/1/2
f  43/1/8 62/1/8 64/1/8
f  52/1/9 55/1/9 64/1/9
f  65/1/10 66/1/10 54/1/10
f  55/1/5 54/1/5 66/1/5
f  57/1/8 56/1/8 55/1/8
f  57/1/4 65/1/4 58/1/4
f  49/1/5 59/1/5 61/1/5
f  55/1/9 52/1/9 49/1/9
f  61/1/10 60/1/10 50/1/10
f  53/1/7 51/1/7 60/1/7
f  64/1/9 61/1/9 43/1/9
f  64/1/9 55/1/9 66/1/9
f  66/1/10 65/1/10 67/1/10
f  55/1/9 49/1/9 57/1/9
f  65/1/4 57/1/4 67/1/4
f  61/1/9 57/1/9 49/1/9
f  64/1/9 66/1/9 61/1/9
f  67/1/9 61/1/9 66/1/9
f  57/1/9 61/1/9 67/1/9

# Mesh 'mesh1_mesh1-geometry' with 157 faces
g mesh1_mesh1-geometry
usemtl material_1_1_8
f  3/2/6 1/3/6 6/4/6
f  2/5/4 14/6/4 5/7/4
f  5/7/5 14/6/5 2/5/5
f  8/8/6 6/4/6 1/3/6
f  3/9/5 6/10/5 9/11/5
f  14/6/4 2/5/4 15/12/4
f  15/12/5 2/5/5 14/6/5
f  14/13/3 68/3/3 5/14/3
f  5/14/6 68/3/6 14/13/6
f  8/15/4 1/16/4 10/17/4
f  11/18/5 9/11/5 6/10/5
f  15/19/1 14/20/1 13/21/1
f  68/3/3 14/13/3 21/22/3
f  21/22/6 14/13/6 68/3/6
f  16/23/4 10/17/4 1/16/4
f  11/24/3 10/25/3 9/26/3
f  12/27/4 18/28/4 7/29/4
f  19/30/1 13/21/1 14/20/1
f  14/31/9 21/32/9 20/33/9
f  28/34/5 68/29/5 21/35/5
f  21/35/4 68/29/4 28/34/4
f  16/36/3 9/26/3 10/25/3
f  24/37/4 7/29/4 18/28/4
f  12/38/3 23/39/3 18/40/3
f  25/41/1 13/42/1 19/43/1
f  19/44/9 14/31/9 26/45/9
f  27/46/9 20/33/9 21/32/9
f  20/33/9 26/45/9 14/31/9
f  68/29/5 28/34/5 42/47/5
f  42/47/4 28/34/4 68/29/4
f  28/48/9 27/46/9 21/32/9
f  22/23/4 29/49/4 17/50/4
f  24/51/6 31/52/6 7/53/6
f  32/54/3 18/40/3 23/39/3
f  13/42/1 25/41/1 33/55/1
f  25/56/7 56/57/7 19/44/7
f  19/44/9 56/57/9 25/56/9
f  26/45/7 19/44/7 41/58/7
f  41/58/9 19/44/9 26/45/9
f  27/59/10 34/60/10 20/61/10
f  35/62/9 20/63/9 27/64/9
f  27/64/7 20/63/7 35/62/7
f  20/61/10 34/60/10 26/65/10
f  43/66/5 42/47/5 28/34/5
f  28/34/4 42/47/4 43/66/4
f  68/29/5 42/47/5 4/67/5
f  4/67/4 42/47/4 68/29/4
f  35/68/9 27/46/9 28/48/9
f  36/69/4 17/50/4 29/49/4
f  22/70/3 37/71/3 29/72/3
f  30/73/6 17/74/6 39/75/6
f  40/76/6 7/53/6 31/52/6
f  32/77/5 23/78/5 31/79/5
f  56/57/7 25/56/7 62/80/7
f  62/80/9 25/56/9 56/57/9
f  19/44/7 56/57/7 41/58/7
f  41/58/9 56/57/9 19/44/9
f  26/65/10 34/60/10 41/81/10
f  60/82/9 41/83/9 26/84/9
f  26/84/7 41/83/7 60/82/7
f  27/85/5 35/86/5 34/87/5
f  20/63/9 35/62/9 51/88/9
f  51/88/7 35/62/7 20/63/7
f  43/89/7 42/90/7 34/64/7
f  28/91/10 43/92/10 44/61/10
f  4/67/5 42/47/5 69/93/5
f  69/93/4 42/47/4 4/67/4
f  44/94/9 35/68/9 28/48/9
f  36/95/6 39/75/6 17/74/6
f  46/96/3 29/72/3 37/71/3
f  30/97/5 39/98/5 37/11/5
f  40/7/5 31/79/5 23/78/5
f  25/6/4 52/99/4 62/100/4
f  62/100/5 52/99/5 25/6/5
f  56/57/7 62/80/7 54/101/7
f  54/101/9 62/80/9 56/57/9
f  41/58/7 56/57/7 58/102/7
f  58/102/9 56/57/9 41/58/9
f  49/103/10 41/81/10 34/60/10
f  41/83/9 60/82/9 59/104/9
f  59/104/7 60/82/7 41/83/7
f  50/105/5 34/87/5 35/86/5
f  51/106/9 35/68/9 44/94/9
f  35/107/8 51/108/8 50/109/8
f  52/110/7 34/64/7 42/90/7
f  50/62/7 43/89/7 34/64/7
f  44/61/10 43/92/10 53/65/10
f  69/93/5 42/47/5 70/111/5
f  70/111/4 42/47/4 69/93/4
f  45/112/3 29/72/3 46/96/3
f  71/113/9 45/114/9 29/115/9
f  29/115/7 45/114/7 71/113/7
f  46/116/5 37/11/5 39/98/5
f  52/99/4 25/6/4 45/116/4
f  45/116/5 25/6/5 52/99/5
f  64/117/4 62/100/4 52/99/4
f  52/99/5 62/100/5 64/117/5
f  54/101/7 62/80/7 65/118/7
f  65/118/9 62/80/9 54/101/9
f  56/119/4 55/120/4 54/121/4
f  58/122/10 57/123/10 56/124/10
f  58/102/7 59/125/7 41/58/7
f  41/58/9 59/125/9 58/102/9
f  41/126/4 49/127/4 59/128/4
f  34/64/7 52/110/7 49/83/7
f  59/125/7 62/80/7 60/129/7
f  60/129/9 62/80/9 59/125/9
f  59/130/8 61/131/8 60/132/8
f  44/94/9 53/133/9 51/106/9
f  51/108/8 60/132/8 50/109/8
f  52/134/8 71/135/8 42/92/8
f  42/92/10 71/135/10 52/134/10
f  61/104/7 43/89/7 50/62/7
f  53/65/10 43/92/10 62/136/10
f  42/92/8 72/137/8 70/138/8
f  70/138/10 72/137/10 42/92/10
f  70/111/5 73/49/5 69/93/5
f  69/93/4 73/49/4 70/111/4
f  45/114/9 71/113/9 74/110/9
f  74/110/7 71/113/7 45/114/7
f  29/115/9 72/90/9 71/113/9
f  71/113/7 72/90/7 29/115/7
f  52/99/4 45/116/4 74/139/4
f  74/139/5 45/116/5 52/99/5
f  64/134/10 62/136/10 43/92/10
f  64/140/7 55/141/7 52/110/7
f  65/118/7 62/80/7 59/125/7
f  59/125/9 62/80/9 65/118/9
f  54/142/8 66/143/8 65/144/8
f  66/145/4 54/121/4 55/120/4
f  55/146/10 56/124/10 57/123/10
f  58/147/5 65/148/5 57/149/5
f  59/125/7 58/102/7 65/118/7
f  65/118/9 58/102/9 59/125/9
f  61/150/4 59/128/4 49/127/4
f  49/83/7 52/110/7 55/141/7
f  60/129/7 62/80/7 53/133/7
f  53/133/9 62/80/9 60/129/9
f  50/109/8 60/132/8 61/131/8
f  60/129/9 51/106/9 53/133/9
f  71/135/8 52/134/8 74/151/8
f  74/151/10 52/134/10 71/135/10
f  42/92/8 71/135/8 72/137/8
f  72/137/10 71/135/10 42/92/10
f  43/89/7 61/104/7 64/140/7
f  73/49/5 70/111/5 72/152/5
f  72/152/4 70/111/4 73/49/4
f  72/90/9 29/115/9 73/153/9
f  73/153/7 29/115/7 72/90/7
f  66/154/7 55/141/7 64/140/7
f  67/155/8 65/144/8 66/143/8
f  57/156/7 49/83/7 55/141/7
f  67/157/5 57/149/5 65/148/5
f  49/83/7 57/156/7 61/104/7
f  61/104/7 66/154/7 64/140/7
f  66/154/7 61/104/7 67/158/7
f  67/158/7 61/104/7 57/156/7

# Mesh 'mesh2_mesh2-geometry' with 3 faces
g mesh2_mesh2-geometry
usemtl material_0_0
l  12 7
l  23 12
l  38 23

# Mesh 'mesh3_mesh3-geometry' with 2 faces
g mesh3_mesh3-geometry
usemtl material_0_0
l  1 3
l  3 9

# Mesh 'mesh4_mesh4-geometry' with 3 faces
g mesh4_mesh4-geometry
usemtl material_0_0
l  17 22
l  30 17
l  47 30

# Mesh 'mesh5_mesh5-geometry' with 4 faces
g mesh5_mesh5-geometry
usemtl material_0_0
l  32 18
l  32 31
l  18 24
l  31 24

# Mesh 'mesh6_mesh6-geometry' with 4 faces
g mesh6_mesh6-geometry
usemtl material_0_0
l  8 10
l  8 6
l  10 11
l  6 11

# Mesh 'mesh7_mesh7-geometry' with 4 faces
g mesh7_mesh7-geometry
usemtl material_0_0
l  36 29
l  39 36
l  46 39
l  45 46

# Mesh 'mesh8_mesh8-geometry' with 1 faces
g mesh8_mesh8-geometry
usemtl material_0_0
l  75 76

# Mesh 'mesh9_mesh9-geometry' with 1 faces
g mesh9_mesh9-geometry
usemtl material_0_0
l  77 78

# Mesh 'mesh10_mesh10-geometry' with 1 faces
g mesh10_mesh10-geometry
usemtl material_0_0
l  2 5

